<svg width="64" height="102" viewBox="0 0 64 102" fill="none" xmlns="http://www.w3.org/2000/svg">
<rect width="64" height="102" rx="12" fill="url(#paint0_linear_1538_9107)" fill-opacity="0.4"/>
<path d="M21.3542 50.3334C21.5451 47.2368 23.0572 44.4978 25.3337 42.6729M38.667 42.6729C40.9435 44.4978 42.4555 47.2368 42.6465 50.3334M26.667 60.2397C28.2359 61.1473 30.0575 61.6667 32.0003 61.6667C33.9432 61.6667 35.7647 61.1473 37.3337 60.2397M25.0563 65C24.5419 63.8228 23.3672 63 22.0003 63C20.6334 63 19.4587 63.8228 18.9443 65M45.0563 65C44.5419 63.8228 43.3672 63 42.0003 63C40.6334 63 39.4587 63.8228 38.9443 65M35.0563 49C34.5419 47.8228 33.3672 47 32.0003 47C30.6334 47 29.4587 47.8228 28.9443 49M24.667 56.3334C24.667 57.8061 23.4731 59 22.0003 59C20.5276 59 19.3337 57.8061 19.3337 56.3334C19.3337 54.8606 20.5276 53.6667 22.0003 53.6667C23.4731 53.6667 24.667 54.8606 24.667 56.3334ZM44.667 56.3334C44.667 57.8061 43.4731 59 42.0003 59C40.5276 59 39.3337 57.8061 39.3337 56.3334C39.3337 54.8606 40.5276 53.6667 42.0003 53.6667C43.4731 53.6667 44.667 54.8606 44.667 56.3334ZM34.667 40.3334C34.667 41.8061 33.4731 43 32.0003 43C30.5276 43 29.3337 41.8061 29.3337 40.3334C29.3337 38.8606 30.5276 37.6667 32.0003 37.6667C33.4731 37.6667 34.667 38.8606 34.667 40.3334Z" stroke="white" stroke-width="2"/>
<defs>
<linearGradient id="paint0_linear_1538_9107" x1="-39.7076" y1="-71.9101" x2="129.225" y2="-59.2889" gradientUnits="userSpaceOnUse">
<stop offset="0.0001" stop-color="#C78BFF"/>
<stop offset="0.5" stop-color="#2424D9" stop-opacity="0.1"/>
<stop offset="1" stop-color="#0C0C68"/>
</linearGradient>
</defs>
</svg>
