<svg width="64" height="102" viewBox="0 0 64 102" fill="none" xmlns="http://www.w3.org/2000/svg">
<rect width="64" height="102" rx="12" fill="url(#paint0_linear_1538_9095)" fill-opacity="0.4"/>
<path d="M45.3327 52.3334V48.3334C45.3327 43.305 45.3327 40.7909 43.7706 39.2288C42.2085 37.6667 39.6943 37.6667 34.666 37.6667H29.3327C24.3044 37.6667 21.7902 37.6667 20.2281 39.2288C18.666 40.7909 18.666 43.305 18.666 48.3334V53.6667C18.666 58.695 18.666 61.2092 20.2281 62.7713C21.7902 64.3334 24.3044 64.3334 29.3327 64.3334H33.3327M22.666 41.6667H25.3327M26.666 41.6667H29.3327M30.666 41.6667H33.3327M37.3327 57L37.7981 60.7233C37.9251 61.7397 38.5124 62.6412 39.3907 63.1682L41.3327 64.3334L43.2747 63.1682C44.153 62.6412 44.7402 61.7397 44.8673 60.7233L45.3327 57L41.3327 55.6667L37.3327 57Z" stroke="white" stroke-width="2" stroke-linejoin="round"/>
<defs>
<linearGradient id="paint0_linear_1538_9095" x1="-39.7076" y1="-71.9101" x2="129.225" y2="-59.2889" gradientUnits="userSpaceOnUse">
<stop offset="0.0001" stop-color="#C78BFF"/>
<stop offset="0.5" stop-color="#2424D9" stop-opacity="0.1"/>
<stop offset="1" stop-color="#0C0C68"/>
</linearGradient>
</defs>
</svg>
