<svg width="33" height="32" viewBox="0 0 33 32" fill="none" xmlns="http://www.w3.org/2000/svg">
<path d="M19.2877 2.66669C19.2622 4.12134 18.6452 7.12891 20.4653 7.7682C22.3361 8.42532 22.9983 10.4445 22.7325 12.2729C22.5234 13.712 23.6762 14.9329 24.9451 14.6162L28.5001 13.3334" stroke="white" stroke-width="2" stroke-linejoin="round"/>
<path d="M5.8335 8.00004C8.40631 7.91735 12.8316 7.02548 14.5675 9.78222L14.6273 9.87729C17.3435 14.1908 8.69354 18.1531 13.1007 21.2274C16.2821 23.4466 12.9274 26.4356 11.1668 28" stroke="white" stroke-width="2" stroke-linejoin="round"/>
<path d="M28.5001 23.3334C28.5001 25.9107 26.4107 28 23.8334 28C21.2561 28 19.1667 25.9107 19.1667 23.3334C19.1667 20.756 21.2561 18.6667 23.8334 18.6667C26.4107 18.6667 28.5001 20.756 28.5001 23.3334Z" stroke="white" stroke-width="2"/>
<path d="M17.8334 29.2675C17.3949 29.3111 16.9501 29.3334 16.5001 29.3334C9.13628 29.3334 3.16675 23.3638 3.16675 16C3.16675 8.63622 9.13628 2.66669 16.5001 2.66669C23.8639 2.66669 29.8334 8.63622 29.8334 16C29.8334 16.45 29.8111 16.8948 29.7676 17.3334" stroke="white" stroke-width="2"/>
<path d="M29.8334 29.3334L27.1667 26.6667" stroke="white" stroke-width="2"/>
</svg>
