<svg width="20" height="20" viewBox="0 0 20 20" fill="none" xmlns="http://www.w3.org/2000/svg">
<path d="M1.6665 13.75C1.6665 12.8295 2.4127 12.0833 3.33317 12.0833H16.6665C17.587 12.0833 18.3332 12.8295 18.3332 13.75C18.3332 14.6705 17.587 15.4167 16.6665 15.4167H3.33317C2.4127 15.4167 1.6665 14.6705 1.6665 13.75Z" stroke="white" stroke-width="2" stroke-linejoin="round"/>
<path d="M4.56522 8.29547C4.72963 6.73367 4.81183 5.95277 5.25106 5.53089C5.46394 5.32642 5.7273 5.18216 6.01423 5.11285C6.60621 4.96984 7.30853 5.321 8.71317 6.02332C9.24296 6.28821 9.50786 6.42066 9.78886 6.45652C9.92895 6.4744 10.0707 6.4744 10.2108 6.45652C10.4918 6.42066 10.7567 6.28821 11.2865 6.02332C12.6911 5.321 13.3935 4.96984 13.9854 5.11285C14.2724 5.18216 14.5357 5.32642 14.7486 5.53089C15.1879 5.95277 15.27 6.73367 15.4344 8.29547L15.8332 12.0833H4.1665L4.56522 8.29547Z" stroke="white" stroke-width="2" stroke-linejoin="round"/>
</svg>
