<svg width="20" height="20" viewBox="0 0 20 20" fill="none" xmlns="http://www.w3.org/2000/svg">
<path d="M18.3332 10H13.3332L11.6665 12.5H8.33317L6.6665 10H1.6665M18.3332 10V15C18.3332 15.442 18.1576 15.866 17.845 16.1785C17.5325 16.4911 17.1085 16.6667 16.6665 16.6667H3.33317C2.89114 16.6667 2.46722 16.4911 2.15466 16.1785C1.8421 15.866 1.6665 15.442 1.6665 15V10M18.3332 10L15.4582 4.25834C15.3202 3.98067 15.1075 3.74699 14.844 3.58358C14.5805 3.42017 14.2766 3.33351 13.9665 3.33334H6.03317C5.7231 3.33351 5.41922 3.42017 5.15571 3.58358C4.89219 3.74699 4.67948 3.98067 4.5415 4.25834L1.6665 10" stroke="white" stroke-width="2" stroke-linecap="round" stroke-linejoin="round"/>
</svg>
