<svg width="65" height="64" viewBox="0 0 65 64" fill="none" xmlns="http://www.w3.org/2000/svg">
<path d="M43 30.6667C43 37.2941 37.6274 42.6667 31 42.6667C24.3726 42.6667 19 37.2941 19 30.6667C19 24.0393 24.3726 18.6667 31 18.6667C37.6274 18.6667 43 24.0393 43 30.6667Z" stroke="white" stroke-width="2"/>
<path d="M45.667 45.3333L37.667 37.3333" stroke="#94A3B8" stroke-width="2"/>
<path d="M45.667 58.6667H53.0003C55.8288 58.6667 57.243 58.6667 58.1216 57.788C59.0003 56.9093 59.0003 55.4951 59.0003 52.6667V45.3333M5.66699 18.6667V11.3333C5.66699 8.50492 5.66699 7.0907 6.54567 6.21202C7.42435 5.33334 8.83857 5.33334 11.667 5.33334H19.0003M45.667 5.33334H53.0003C55.8288 5.33334 57.243 5.33334 58.1216 6.21202C59.0003 7.0907 59.0003 8.50492 59.0003 11.3333V18.6667M19.0003 58.6667H11.667C8.83856 58.6667 7.42435 58.6667 6.54567 57.788C5.66699 56.9093 5.66699 55.4951 5.66699 52.6667V45.3333M5.66699 24V40M59.0003 24V40M24.3337 5.33334H40.3337M24.3337 58.6667H40.3337" stroke="#94A3B8" stroke-width="2" stroke-linejoin="round"/>
</svg>
