<svg width="55" height="56" viewBox="0 0 55 56" fill="none" xmlns="http://www.w3.org/2000/svg">
<path d="M27.6691 41.3333C18.8325 41.3333 11.6691 34.1699 11.6691 25.3333V11.3333C11.6691 6.95003 11.6691 4.75838 12.8797 3.28325C13.1013 3.0132 13.3489 2.76558 13.619 2.54395C15.0941 1.33334 17.2858 1.33334 21.6691 1.33334H33.6691C38.0524 1.33334 40.244 1.33334 41.7192 2.54395C41.9892 2.76558 42.2368 3.0132 42.4584 3.28325C43.6691 4.75838 43.6691 6.95003 43.6691 11.3333V25.3333C43.6691 34.1699 36.5056 41.3333 27.6691 41.3333ZM27.6691 41.3333V54.6667M14.3357 54.6667H41.0024M11.6691 30.6667C8.55591 30.6667 6.99933 30.6667 5.79386 29.9992C5.11443 29.6231 4.52534 29.103 4.06779 28.4755C3.25599 27.3621 3.06292 25.8176 2.67678 22.7285L2.32543 19.9176C1.79466 15.6714 1.52927 13.5483 2.42755 11.9958C2.78253 11.3822 3.25625 10.8456 3.82102 10.4173C5.25019 9.33334 7.38981 9.33334 11.6691 9.33334M43.6691 30.6667C46.7822 30.6667 48.3388 30.6667 49.5443 29.9992C50.2237 29.6231 50.8128 29.103 51.2703 28.4755C52.0821 27.3621 52.2752 25.8176 52.6613 22.7285L53.0127 19.9176C53.5435 15.6714 53.8088 13.5483 52.9106 11.9958C52.5556 11.3822 52.0819 10.8456 51.5171 10.4173C50.0879 9.33334 47.9483 9.33334 43.6691 9.33334M27.667 28V12H22.3337M27.667 28H22.3337M27.667 28H33.0003" stroke="white" stroke-width="2" stroke-linejoin="round"/>
</svg>
