<svg width="22" height="22" viewBox="0 0 22 22" fill="none" xmlns="http://www.w3.org/2000/svg">
<path d="M4.00244 5.47555L4.62713 6.25642L4.62713 6.25642L4.00244 5.47555ZM6.00244 3.87555L5.37774 3.09468L6.00244 3.87555ZM15.9976 3.87555L16.6223 3.09468L15.9976 3.87555ZM17.9976 5.47555L18.6223 4.69468L17.9976 5.47555ZM20.6052 8.06725L19.7039 8.50043V8.50043L20.6052 8.06725ZM1.39479 8.06725L0.493484 7.63406L1.39479 8.06725ZM20 11.7225V12.8775H22V11.7225H20ZM13 19.8775H9V21.8775H13V19.8775ZM2 12.8775V11.7225H0V12.8775H2ZM4.62713 6.25642L6.62713 4.65642L5.37774 3.09468L3.37774 4.69468L4.62713 6.25642ZM15.3729 4.65642L17.3729 6.25642L18.6223 4.69468L16.6223 3.09468L15.3729 4.65642ZM6.62713 4.65642C7.8446 3.68244 8.68883 3.00925 9.39988 2.56924C10.0878 2.14355 10.5535 2 11 2V0C10.0433 0 9.20847 0.335711 8.34744 0.868538C7.50956 1.38704 6.55656 2.15162 5.37774 3.09468L6.62713 4.65642ZM16.6223 3.09468C15.4434 2.15162 14.4904 1.38704 13.6526 0.868538C12.7915 0.335711 11.9567 0 11 0V2C11.4465 2 11.9122 2.14355 12.6001 2.56924C13.3112 3.00925 14.1554 3.68244 15.3729 4.65642L16.6223 3.09468ZM9 19.8775C7.08611 19.8775 5.75129 19.8754 4.74416 19.74C3.76579 19.6084 3.2477 19.3678 2.87868 18.9988L1.46447 20.413C2.26702 21.2156 3.27752 21.5608 4.47766 21.7221C5.64904 21.8796 7.14265 21.8775 9 21.8775V19.8775ZM0 12.8775C0 14.7348 -0.00212371 16.2285 0.155364 17.3998C0.316719 18.6 0.661911 19.6105 1.46447 20.413L2.87868 18.9988C2.50966 18.6298 2.26907 18.1117 2.13753 17.1333C2.00212 16.1262 2 14.7914 2 12.8775H0ZM20 12.8775C20 14.7914 19.9979 16.1262 19.8625 17.1333C19.7309 18.1117 19.4903 18.6298 19.1213 18.9988L20.5355 20.413C21.3381 19.6105 21.6833 18.6 21.8446 17.3998C22.0021 16.2285 22 14.7348 22 12.8775H20ZM13 21.8775C14.8573 21.8775 16.351 21.8796 17.5223 21.7221C18.7225 21.5608 19.733 21.2156 20.5355 20.413L19.1213 18.9988C18.7523 19.3678 18.2342 19.6084 17.2558 19.74C16.2487 19.8754 14.9139 19.8775 13 19.8775V21.8775ZM22 11.7225C22 9.92934 22.0231 8.70894 21.5065 7.63406L19.7039 8.50043C19.9769 9.06836 20 9.73719 20 11.7225H22ZM17.3729 6.25642C18.9231 7.49663 19.431 7.93251 19.7039 8.50043L21.5065 7.63406C20.9899 6.55918 20.0225 5.81485 18.6223 4.69468L17.3729 6.25642ZM2 11.7225C2 9.73719 2.02313 9.06836 2.29609 8.50043L0.493484 7.63406C-0.0231315 8.70894 0 9.92934 0 11.7225H2ZM3.37774 4.69468C1.97753 5.81485 1.0101 6.55917 0.493484 7.63406L2.29609 8.50043C2.56905 7.93251 3.07687 7.49663 4.62713 6.25642L3.37774 4.69468ZM9.5 12H12.5V10H9.5V12ZM12.5 12V14H14.5V12H12.5ZM12.5 14H9.5V16H12.5V14ZM9.5 14V12H7.5V14H9.5ZM9.5 14H7.5C7.5 15.1046 8.39543 16 9.5 16V14ZM12.5 14V16C13.6046 16 14.5 15.1046 14.5 14H12.5ZM12.5 12H14.5C14.5 10.8954 13.6046 10 12.5 10V12ZM9.5 10C8.39543 10 7.5 10.8954 7.5 12H9.5V10ZM11.5 9.5V11H13.5V9.5H11.5ZM10.5 11V9.5H8.5V11H10.5ZM11 9C11.2761 9 11.5 9.22386 11.5 9.5H13.5C13.5 8.11929 12.3807 7 11 7V9ZM11 7C9.61929 7 8.5 8.11929 8.5 9.5H10.5C10.5 9.22386 10.7239 9 11 9V7Z" fill="#5C96DB"/>
</svg>
