<svg width="22" height="23" viewBox="0 0 22 23" fill="none" xmlns="http://www.w3.org/2000/svg">
<path d="M2.17157 20.6962L2.89296 20.0037H2.89296L2.17157 20.6962ZM19.8284 20.6962L19.107 20.0037H19.107L19.8284 20.6962ZM20.7071 1.38835L19.9857 2.08088V2.08088L20.7071 1.38835ZM19.2786 1.43239L10.2786 10.8074L11.7214 12.1925L20.7214 2.81745L19.2786 1.43239ZM13 20.9166H9V22.9166H13V20.9166ZM2 13.5833V9.41658H0V13.5833H2ZM9 2.08325H10V0.083252H9V2.08325ZM20 12.5416V13.5833H22V12.5416H20ZM9 20.9166C7.08497 20.9166 5.75342 20.9143 4.74961 20.7737C3.77889 20.6378 3.26386 20.39 2.89296 20.0037L1.45019 21.3887C2.25086 22.2228 3.26443 22.5852 4.47222 22.7544C5.64691 22.9189 7.1438 22.9166 9 22.9166V20.9166ZM0 13.5833C0 15.5203 -0.00196004 17.0697 0.154673 18.2832C0.314498 19.5215 0.655008 20.5604 1.45019 21.3887L2.89296 20.0037C2.51656 19.6116 2.27129 19.0582 2.13822 18.0272C2.00196 16.9715 2 15.5746 2 13.5833H0ZM13 22.9166C14.8562 22.9166 16.3531 22.9189 17.5278 22.7544C18.7356 22.5852 19.7491 22.2228 20.5498 21.3887L19.107 20.0037C18.7361 20.39 18.2211 20.6378 17.2504 20.7737C16.2466 20.9143 14.915 20.9166 13 20.9166V22.9166ZM20 13.5833C20 15.5746 19.998 16.9715 19.8618 18.0272C19.7287 19.0582 19.4834 19.6116 19.107 20.0037L20.5498 21.3887C21.345 20.5604 21.6855 19.5215 21.8453 18.2832C22.002 17.0697 22 15.5203 22 13.5833H20ZM2 9.41658C2 7.42523 2.00196 6.02834 2.13822 4.97263C2.27129 3.94163 2.51656 3.38825 2.89296 2.99617L1.45019 1.61111C0.655008 2.43942 0.314498 3.47832 0.154673 4.71661C-0.00196004 5.93018 0 7.47957 0 9.41658H2ZM9 0.083252C7.1438 0.083252 5.64691 0.0809512 4.47222 0.245465C3.26443 0.414614 2.25086 0.777069 1.45019 1.61111L2.89296 2.99617C3.26386 2.60982 3.77889 2.36208 4.74961 2.22614C5.75342 2.08555 7.08497 2.08325 9 2.08325V0.083252ZM14 2.08325H19V0.083252H14V2.08325ZM20 3.16659V8.37492H22V3.16659H20ZM19 2.08325C19.5008 2.08325 19.7717 2.08555 19.9586 2.11172C20.1123 2.13326 20.0541 2.15218 19.9857 2.08088L21.4285 0.695818C21.0671 0.319423 20.6268 0.185792 20.2359 0.131054C19.8782 0.0809512 19.442 0.083252 19 0.083252V2.08325ZM22 3.16659C22 2.70271 22.0019 2.25817 21.9551 1.89559C21.9052 1.50828 21.7843 1.06648 21.4285 0.695817L19.9857 2.08088C19.9228 2.01531 19.9484 1.97159 19.9716 2.1516C19.998 2.35634 20 2.64837 20 3.16659H22Z" fill="#5C96DB"/>
</svg>
