<svg width="22" height="22" viewBox="0 0 22 22" fill="none" xmlns="http://www.w3.org/2000/svg">
<path d="M19.5224 15.6243L18.5957 16V16L19.5224 15.6243ZM20.6945 18.5149L21.6627 18.2647C21.6516 18.222 21.6378 18.1801 21.6212 18.1392L20.6945 18.5149ZM1.30552 18.5149L0.378798 18.1392C0.362219 18.1801 0.348365 18.222 0.337326 18.2647L1.30552 18.5149ZM2.47756 15.6243L3.40428 16L2.47756 15.6243ZM3.15901 14.361L2.46286 15.0789H2.46286L3.15901 14.361ZM18.841 14.361L18.1448 13.6431L18.841 14.361ZM3.15901 3.63904L2.46286 2.92114V2.92114L3.15901 3.63904ZM19.4999 11L20.4999 11.0013V11H19.4999ZM15 2L14.6838 1.05132C14.2316 1.20206 13.9486 1.65103 14.0077 2.12403L15 2ZM15.3491 4.79246L16.3413 4.66843V4.66843L15.3491 4.79246ZM16.5435 6.62611L17.058 5.76861H17.058L16.5435 6.62611ZM18 7.5L17.4855 8.35749C17.8022 8.5475 18.1978 8.5475 18.5145 8.35749L18 7.5ZM19.4565 6.62611L18.942 5.76862L19.4565 6.62611ZM20.6509 4.79246L19.6587 4.66843V4.66843L20.6509 4.79246ZM21 2L21.9923 2.12403C22.0514 1.65103 21.7684 1.20206 21.3162 1.05132L21 2ZM18 1L18.3162 0.0513167C18.111 -0.0171056 17.889 -0.0171056 17.6838 0.0513167L18 1ZM9 19H13V17H9V19ZM3.40428 16H7V14H3.40428V16ZM7 16H15V14H7V16ZM15 16H18.5957V14H15V16ZM18.5957 16L19.7678 18.8907L21.6212 18.1392L20.4492 15.2485L18.5957 16ZM18.6889 20H3.31113V22H18.6889V20ZM2.23224 18.8907L3.40428 16L1.55084 15.2485L0.378798 18.1392L2.23224 18.8907ZM3.31113 20C2.67119 20 2.29761 19.9977 2.03974 19.9616C1.80305 19.9285 1.8737 19.892 1.95067 19.9874L0.39431 21.2435C0.781664 21.7234 1.31222 21.8793 1.76254 21.9423C2.19169 22.0023 2.73223 22 3.31113 22V20ZM0.337326 18.2647C0.197678 18.8051 0.061972 19.3197 0.0172331 19.7454C-0.0306219 20.2008 0.000819743 20.7559 0.39431 21.2435L1.95067 19.9874C2.03378 20.0903 1.98393 20.1672 2.00628 19.9544C2.03175 19.7121 2.11775 19.3687 2.27372 18.7651L0.337326 18.2647ZM19.7263 18.7651C19.8822 19.3687 19.9682 19.7121 19.9937 19.9544C20.0161 20.1672 19.9662 20.0903 20.0493 19.9874L21.6057 21.2435C21.9992 20.7559 22.0306 20.2008 21.9828 19.7454C21.938 19.3197 21.8023 18.8051 21.6627 18.2647L19.7263 18.7651ZM18.6889 22C19.2678 22 19.8083 22.0023 20.2375 21.9423C20.6878 21.8793 21.2183 21.7234 21.6057 21.2435L20.0493 19.9874C20.1263 19.892 20.1969 19.9285 19.9603 19.9616C19.7024 19.9977 19.3288 20 18.6889 20V22ZM18.5957 16V16L20.4492 15.2485C20.1432 14.4938 19.4101 14 18.5957 14V16ZM3.40428 14C2.5899 14 1.85684 14.4938 1.55084 15.2485L3.40428 16H3.40428V14ZM7 4H12V2H7V4ZM3.5 10.6364V7.36364H1.5V10.6364H3.5ZM7 14C5.91191 14 5.19342 13.998 4.66042 13.9285C4.1531 13.8624 3.96683 13.7513 3.85516 13.6431L2.46286 15.0789C3.0102 15.6096 3.68376 15.8181 4.40186 15.9117C5.09427 16.002 5.96678 16 7 16V14ZM1.5 10.6364C1.5 11.6358 1.49774 12.489 1.59185 13.1677C1.6904 13.8785 1.91122 14.5439 2.46286 15.0789L3.85516 13.6431C3.74779 13.5389 3.63911 13.3706 3.5729 12.8931C3.50226 12.3835 3.5 11.694 3.5 10.6364H1.5ZM15 16C16.0332 16 16.9057 16.002 17.5981 15.9117C18.3162 15.8181 18.9898 15.6096 19.5371 15.0789L18.1448 13.6431C18.0332 13.7513 17.8469 13.8624 17.3396 13.9285C16.8066 13.998 16.0881 14 15 14V16ZM7 2C5.96678 2 5.09427 1.998 4.40186 2.08827C3.68376 2.18189 3.0102 2.39039 2.46286 2.92114L3.85516 4.35694C3.96683 4.24865 4.1531 4.13763 4.66042 4.07149C5.19342 4.002 5.91191 4 7 4V2ZM3.5 7.36364C3.5 6.30599 3.50226 5.61645 3.5729 5.10692C3.63911 4.6294 3.74779 4.46106 3.85516 4.35694L2.46286 2.92114C1.91122 3.45606 1.6904 4.1215 1.59185 4.83225C1.49774 5.511 1.5 6.36425 1.5 7.36364H3.5ZM18.4999 10.9987C18.4987 11.9263 18.4864 12.5325 18.4145 12.977C18.3478 13.3894 18.2467 13.5443 18.1448 13.6431L19.5371 15.0789C20.0542 14.5774 20.2814 13.9603 20.3888 13.2965C20.491 12.6648 20.4987 11.8906 20.4999 11.0013L18.4999 10.9987ZM20.4999 11V10.6364H18.4999V11H20.4999ZM14.0077 2.12403L14.3568 4.9165L16.3413 4.66843L15.9923 1.87597L14.0077 2.12403ZM16.029 7.4836L17.4855 8.35749L18.5145 6.64251L17.058 5.76861L16.029 7.4836ZM18.5145 8.35749L19.971 7.4836L18.942 5.76862L17.4855 6.64251L18.5145 8.35749ZM21.6432 4.9165L21.9923 2.12403L20.0077 1.87597L19.6587 4.66843L21.6432 4.9165ZM21.3162 1.05132L18.3162 0.0513167L17.6838 1.94868L20.6838 2.94868L21.3162 1.05132ZM17.6838 0.0513167L14.6838 1.05132L15.3162 2.94868L18.3162 1.94868L17.6838 0.0513167ZM19.971 7.4836C20.8932 6.93027 21.5098 5.98367 21.6432 4.9165L19.6587 4.66843C19.6015 5.12579 19.3372 5.53147 18.942 5.76862L19.971 7.4836ZM14.3568 4.9165C14.4902 5.98367 15.1068 6.93027 16.029 7.4836L17.058 5.76861C16.6628 5.53147 16.3985 5.12579 16.3413 4.66843L14.3568 4.9165Z" fill="#5C96DB"/>
</svg>
