<svg width="22" height="22" viewBox="0 0 22 22" fill="none" xmlns="http://www.w3.org/2000/svg">
<path d="M18.1118 20.9489L18.3706 19.983L18.1118 20.9489ZM17.0511 19.8882L18.017 19.6294L17.0511 19.8882ZM20.9489 19.8882L19.9829 19.6294L20.9489 19.8882ZM19.8882 20.9489L19.6294 19.983L19.8882 20.9489ZM19.8882 14.0511L19.6294 15.017L19.8882 14.0511ZM20.9489 15.1118L19.9829 15.3706L20.9489 15.1118ZM18.1118 14.0511L18.3706 15.017L18.1118 14.0511ZM17.0511 15.1118L18.017 15.3706L17.0511 15.1118ZM11.253 6.14626L10.5004 6.80477L10.5004 6.80477L11.253 6.14626ZM10.997 5.85374L11.7496 5.19523V5.19523L10.997 5.85374ZM3.56154 2H16V0H3.56154V2ZM16 10H8.18464V12H16V10ZM3.33393 6.21268L2.5914 3.24253L0.651111 3.72761L1.39365 6.69775L3.33393 6.21268ZM8.18464 10C7.03537 10 6.2617 9.99834 5.67057 9.92765C5.10615 9.86016 4.82141 9.74031 4.61149 9.57641L3.38067 11.1528C3.98453 11.6243 4.66915 11.8222 5.4331 11.9135C6.17035 12.0017 7.08406 12 8.18464 12V10ZM1.39365 6.69775C1.66058 7.76547 1.88057 8.65231 2.14491 9.34616C2.41882 10.0651 2.7768 10.6813 3.38067 11.1528L4.61149 9.57641C4.40157 9.41251 4.21624 9.16534 4.01387 8.63414C3.80193 8.07781 3.61267 7.32764 3.33393 6.21268L1.39365 6.69775ZM20 6C20 7.20678 19.9979 8.01127 19.9174 8.60993C19.8408 9.17983 19.71 9.41131 19.5606 9.56066L20.9749 10.9749C21.5577 10.392 21.7931 9.6681 21.8995 8.87643C22.0021 8.11352 22 7.15024 22 6H20ZM16 12C17.1502 12 18.1135 12.0021 18.8764 11.8996C19.6681 11.7931 20.392 11.5578 20.9749 10.9749L19.5606 9.56066C19.4113 9.71001 19.1798 9.84077 18.6099 9.91739C18.0113 9.99788 17.2068 10 16 10V12ZM16 2C17.2068 2 18.0113 2.00212 18.6099 2.08261C19.1798 2.15923 19.4113 2.28999 19.5606 2.43934L20.9749 1.02513C20.392 0.442241 19.6681 0.206884 18.8764 0.100446C18.1135 -0.00212371 17.1502 0 16 0V2ZM22 6C22 4.84976 22.0021 3.88648 21.8995 3.12357C21.7931 2.3319 21.5577 1.60801 20.9749 1.02513L19.5606 2.43934C19.71 2.58869 19.8408 2.82017 19.9174 3.39007C19.9979 3.98873 20 4.79322 20 6H22ZM3.56154 0C3.00349 0 2.47505 -0.00249004 2.0543 0.0583754C1.6076 0.122995 1.08326 0.283878 0.704351 0.769176L2.28076 2C2.20213 2.10071 2.12271 2.0693 2.34065 2.03777C2.58454 2.00249 2.94045 2 3.56154 2V0ZM2.5914 3.24253C2.44076 2.63999 2.35685 2.2941 2.33193 2.04893C2.30966 1.82986 2.35939 1.89929 2.28076 2L0.704351 0.769176C0.325442 1.25447 0.296535 1.80218 0.342186 2.25122C0.385183 2.67416 0.515764 3.18622 0.651111 3.72761L2.5914 3.24253ZM20 16V19H22V16H20ZM18 19V16H16V19H18ZM19 20C18.7584 20 18.6106 19.9998 18.4986 19.9946C18.3919 19.9898 18.3668 19.982 18.3706 19.983L17.8529 21.9148C18.2029 22.0086 18.5994 22 19 22V20ZM16 19C16 19.4006 15.9914 19.7971 16.0852 20.147L18.017 19.6294C18.018 19.6331 18.0102 19.608 18.0053 19.5014C18.0002 19.3894 18 19.2416 18 19H16ZM18.3706 19.983C18.198 19.9367 18.0633 19.802 18.017 19.6294L16.0852 20.147C16.3163 21.0098 16.9902 21.6836 17.8529 21.9148L18.3706 19.983ZM20 19C20 19.2416 19.9997 19.3894 19.9946 19.5014C19.9898 19.608 19.9819 19.6331 19.9829 19.6294L21.9148 20.147C22.0086 19.7971 22 19.4006 22 19H20ZM19 22C19.4006 22 19.7971 22.0086 20.147 21.9148L19.6294 19.983C19.6331 19.982 19.608 19.9898 19.5014 19.9946C19.3894 19.9998 19.2415 20 19 20V22ZM19.9829 19.6294C19.9367 19.802 19.8019 19.9367 19.6294 19.983L20.147 21.9148C21.0098 21.6836 21.6836 21.0098 21.9148 20.147L19.9829 19.6294ZM19 15C19.2415 15 19.3894 15.0002 19.5014 15.0054C19.608 15.0102 19.6331 15.018 19.6294 15.017L20.147 13.0852C19.7971 12.9914 19.4006 13 19 13V15ZM22 16C22 15.5994 22.0086 15.2029 21.9148 14.853L19.9829 15.3706C19.9819 15.3669 19.9898 15.392 19.9946 15.4986C19.9997 15.6106 20 15.7584 20 16H22ZM19.6294 15.017C19.8019 15.0633 19.9367 15.198 19.9829 15.3706L21.9148 14.853C21.6836 13.9902 21.0098 13.3164 20.147 13.0852L19.6294 15.017ZM19 13C18.5994 13 18.2029 12.9914 17.8529 13.0852L18.3706 15.017C18.3668 15.018 18.3919 15.0102 18.4986 15.0054C18.6106 15.0002 18.7584 15 19 15V13ZM18 16C18 15.7584 18.0002 15.6106 18.0053 15.4986C18.0102 15.392 18.018 15.3669 18.017 15.3706L16.0852 14.853C15.9914 15.2029 16 15.5994 16 16H18ZM17.8529 13.0852C16.9902 13.3164 16.3163 13.9902 16.0852 14.853L18.017 15.3706C18.0633 15.198 18.198 15.0633 18.3706 15.017L17.8529 13.0852ZM17 16.5H14V18.5H17V16.5ZM12.5 15V11H10.5V15H12.5ZM14 16.5C13.1716 16.5 12.5 15.8284 12.5 15H10.5C10.5 16.933 12.067 18.5 14 18.5V16.5ZM12.0055 5.48776L11.7496 5.19523L10.2444 6.51224L10.5004 6.80477L12.0055 5.48776ZM9.11557 4H1.99999V6H9.11557V4ZM11.7496 5.19523C11.085 4.43568 10.1248 4 9.11557 4V6C9.54811 6 9.9596 6.18672 10.2444 6.51224L11.7496 5.19523ZM10.5004 6.80477C11.165 7.56432 12.1251 8 13.1344 8V6C12.7019 6 12.2904 5.81328 12.0055 5.48776L10.5004 6.80477ZM21 6H13.1344V8H21V6Z" fill="#5C96DB"/>
</svg>
