<svg width="22" height="22" viewBox="0 0 22 22" fill="none" xmlns="http://www.w3.org/2000/svg">
<path d="M19 0V3M19 3V6M19 3H16M19 3H22M3 2V4.5M3 4.5V7M3 4.5H0.5M3 4.5H5.5M7.02773 9.7776L2.00893 12.0443C1.61667 12.2215 1.61667 12.7785 2.00893 12.9557L7.02773 15.2224C7.13866 15.2725 7.2275 15.3613 7.2776 15.4723L9.54432 20.4911C9.72148 20.8833 10.2785 20.8833 10.4557 20.4911L12.7224 15.4723C12.7725 15.3613 12.8613 15.2725 12.9723 15.2224L17.9911 12.9557C18.3833 12.7785 18.3833 12.2215 17.9911 12.0443L12.9723 9.7776C12.8613 9.7275 12.7725 9.63866 12.7224 9.52773L10.4557 4.50893C10.2785 4.11667 9.72148 4.11667 9.54432 4.50893L7.2776 9.52773C7.2275 9.63866 7.13866 9.7275 7.02773 9.7776Z" stroke="#5C96DB" stroke-width="2"/>
</svg>
