<svg width="22" height="20" viewBox="0 0 22 20" fill="none" xmlns="http://www.w3.org/2000/svg">
<path d="M20.4142 8.41421L19.7071 7.70711L19.7071 7.70711L20.4142 8.41421ZM1.58579 8.41421L2.29289 7.70711L2.29289 7.70711L1.58579 8.41421ZM21 16L21.7071 16.7071C22.0976 16.3166 22.0976 15.6834 21.7071 15.2929L21 16ZM16 6H18V4H16V6ZM14 4H10V6H14V4ZM5 2H17V0H5V2ZM17 8H5V10H17V8ZM20 5C20 5.97108 19.9979 6.59879 19.9357 7.0613C19.8774 7.49504 19.7832 7.63098 19.7071 7.70711L21.1213 9.12132C21.631 8.61166 21.8297 7.98331 21.9179 7.32779C22.0021 6.70104 22 5.91454 22 5H20ZM17 10C17.9145 10 18.701 10.0021 19.3278 9.91786C19.9833 9.82973 20.6117 9.63098 21.1213 9.12132L19.7071 7.70711C19.631 7.78323 19.495 7.87738 19.0613 7.93569C18.5988 7.99788 17.9711 8 17 8V10ZM17 2C17.9711 2 18.5988 2.00212 19.0613 2.06431C19.495 2.12262 19.631 2.21677 19.7071 2.29289L21.1213 0.878679C20.6117 0.369018 19.9833 0.170272 19.3278 0.0821405C18.701 -0.00212371 17.9145 0 17 0V2ZM22 5C22 4.08546 22.0021 3.29896 21.9179 2.67221C21.8297 2.01669 21.631 1.38834 21.1213 0.878679L19.7071 2.29289C19.7832 2.36902 19.8774 2.50496 19.9357 2.9387C19.9979 3.40121 20 4.02892 20 5H22ZM2 5C2 4.02892 2.00212 3.40121 2.06431 2.9387C2.12262 2.50496 2.21677 2.36902 2.29289 2.29289L0.87868 0.87868C0.369017 1.38834 0.170272 2.01669 0.0821405 2.67221C-0.00212374 3.29896 0 4.08546 0 5H2ZM5 0C4.08546 0 3.29896 -0.00212371 2.67221 0.0821405C2.01669 0.170272 1.38834 0.369017 0.87868 0.87868L2.29289 2.29289C2.36902 2.21677 2.50496 2.12262 2.9387 2.06431C3.40121 2.00212 4.02892 2 5 2V0ZM0 5C0 5.91454 -0.00212373 6.70104 0.0821405 7.32779C0.170272 7.98331 0.369017 8.61166 0.87868 9.12132L2.29289 7.70711C2.21677 7.63098 2.12262 7.49504 2.06431 7.0613C2.00212 6.59879 2 5.97108 2 5H0ZM5 8C4.02892 8 3.40121 7.99788 2.93871 7.93569C2.50496 7.87738 2.36902 7.78323 2.29289 7.70711L0.878679 9.12132C1.38834 9.63098 2.0167 9.82973 2.67221 9.91786C3.29896 10.0021 4.08546 10 5 10V8ZM7 14V9H5V14H7ZM7 16C7 16.5523 6.55228 17 6 17V19C7.65685 19 9 17.6569 9 16H7ZM6 17C5.44772 17 5 16.5523 5 16H3C3 17.6569 4.34315 19 6 19V17ZM5 16C5 15.4477 5.44772 15 6 15V13C4.34315 13 3 14.3431 3 16H5ZM6 15C6.55228 15 7 15.4477 7 16H9C9 14.3431 7.65685 13 6 13V15ZM4 15H0V17H4V15ZM8 17H12.5V15H8V17ZM15 17H21V15H15V17ZM20.2929 15.2929L17.2929 18.2929L18.7071 19.7071L21.7071 16.7071L20.2929 15.2929ZM21.7071 15.2929L18.7071 12.2929L17.2929 13.7071L20.2929 16.7071L21.7071 15.2929Z" fill="#5C96DB"/>
</svg>
