<svg width="22" height="22" viewBox="0 0 22 22" fill="none" xmlns="http://www.w3.org/2000/svg">
<path d="M13 21H9C5.22876 21 3.34315 21 2.17157 19.8284C1 18.6569 1 16.7712 1 13V9C1 5.22876 1 3.34315 2.17157 2.17157C3.34315 1 5.22876 1 9 1H13C16.7712 1 18.6569 1 19.8284 2.17157C21 3.34315 21 5.22876 21 9V13C21 16.7712 21 18.6569 19.8284 19.8284C18.6569 21 16.7712 21 13 21ZM13 21V7M18 4H14M1.5 7H20.5M15 11H18M15 16H18M7 11H11M8 16H4M4 11H6M11 16H9" stroke="#5C96DB" stroke-width="2" stroke-linejoin="round"/>
</svg>
