<svg width="22" height="22" viewBox="0 0 22 22" fill="none" xmlns="http://www.w3.org/2000/svg">
<path d="M13 18H21V16H13V18ZM8 5C8 5.97108 7.99788 6.59879 7.93569 7.0613C7.87738 7.49504 7.78323 7.63098 7.70711 7.70711L9.12132 9.12132C9.63098 8.61166 9.82973 7.98331 9.91786 7.32779C10.0021 6.70104 10 5.91454 10 5H8ZM5 10C5.91454 10 6.70104 10.0021 7.32779 9.91786C7.98331 9.82973 8.61166 9.63098 9.12132 9.12132L7.70711 7.70711C7.63098 7.78323 7.49504 7.87738 7.0613 7.93569C6.59879 7.99788 5.97108 8 5 8V10ZM5 2C5.97108 2 6.59879 2.00212 7.0613 2.06431C7.49504 2.12262 7.63098 2.21677 7.70711 2.29289L9.12132 0.87868C8.61166 0.369017 7.98331 0.170272 7.32779 0.0821405C6.70104 -0.00212371 5.91454 0 5 0V2ZM10 5C10 4.08546 10.0021 3.29896 9.91786 2.67221C9.82973 2.01669 9.63098 1.38834 9.12132 0.87868L7.70711 2.29289C7.78323 2.36902 7.87738 2.50496 7.93569 2.9387C7.99788 3.40121 8 4.02892 8 5H10ZM2 5C2 4.02892 2.00212 3.40121 2.06431 2.9387C2.12262 2.50496 2.21677 2.36902 2.29289 2.29289L0.87868 0.87868C0.369017 1.38834 0.170272 2.01669 0.0821405 2.67221C-0.00212371 3.29896 0 4.08546 0 5H2ZM5 0C4.08546 0 3.29896 -0.00212371 2.67221 0.0821405C2.01669 0.170272 1.38834 0.369017 0.87868 0.87868L2.29289 2.29289C2.36902 2.21677 2.50496 2.12262 2.9387 2.06431C3.40121 2.00212 4.02892 2 5 2V0ZM0 5C0 5.91454 -0.00212371 6.70104 0.0821405 7.32779C0.170272 7.98331 0.369017 8.61166 0.87868 9.12132L2.29289 7.70711C2.21677 7.63098 2.12262 7.49504 2.06431 7.0613C2.00212 6.59879 2 5.97108 2 5H0ZM5 8C4.02892 8 3.40121 7.99788 2.9387 7.93569C2.50496 7.87738 2.36902 7.78323 2.29289 7.70711L0.87868 9.12132C1.38834 9.63098 2.01669 9.82973 2.67221 9.91786C3.29896 10.0021 4.08546 10 5 10V8ZM8 17C8 17.9711 7.99788 18.5988 7.93569 19.0613C7.87738 19.495 7.78323 19.631 7.70711 19.7071L9.12132 21.1213C9.63098 20.6117 9.82973 19.9833 9.91786 19.3278C10.0021 18.701 10 17.9145 10 17H8ZM5 22C5.91454 22 6.70104 22.0021 7.32779 21.9179C7.98331 21.8297 8.61166 21.631 9.12132 21.1213L7.70711 19.7071C7.63098 19.7832 7.49504 19.8774 7.0613 19.9357C6.59879 19.9979 5.97108 20 5 20V22ZM5 14C5.97108 14 6.59879 14.0021 7.0613 14.0643C7.49504 14.1226 7.63098 14.2168 7.70711 14.2929L9.12132 12.8787C8.61166 12.369 7.98331 12.1703 7.32779 12.0821C6.70104 11.9979 5.91454 12 5 12V14ZM10 17C10 16.0855 10.0021 15.299 9.91786 14.6722C9.82973 14.0167 9.63098 13.3883 9.12132 12.8787L7.70711 14.2929C7.78323 14.369 7.87738 14.505 7.93569 14.9387C7.99788 15.4012 8 16.0289 8 17H10ZM2 17C2 16.0289 2.00212 15.4012 2.06431 14.9387C2.12262 14.505 2.21677 14.369 2.29289 14.2929L0.87868 12.8787C0.369018 13.3883 0.170272 14.0167 0.0821405 14.6722C-0.00212371 15.299 0 16.0855 0 17H2ZM5 12C4.08546 12 3.29896 11.9979 2.67221 12.0821C2.01669 12.1703 1.38834 12.369 0.87868 12.8787L2.29289 14.2929C2.36902 14.2168 2.50496 14.1226 2.9387 14.0643C3.40121 14.0021 4.02892 14 5 14V12ZM0 17C0 17.9145 -0.00212371 18.701 0.0821405 19.3278C0.170272 19.9833 0.369018 20.6117 0.87868 21.1213L2.29289 19.7071C2.21677 19.631 2.12262 19.495 2.06431 19.0613C2.00212 18.5988 2 17.9711 2 17H0ZM5 20C4.02892 20 3.40121 19.9979 2.9387 19.9357C2.50496 19.8774 2.36902 19.7832 2.29289 19.7071L0.87868 21.1213C1.38834 21.631 2.01669 21.8297 2.67221 21.9179C3.29896 22.0021 4.08546 22 5 22V20ZM20 5C20 5.97108 19.9979 6.59879 19.9357 7.0613C19.8774 7.49504 19.7832 7.63098 19.7071 7.70711L21.1213 9.12132C21.631 8.61166 21.8297 7.98331 21.9179 7.32779C22.0021 6.70104 22 5.91454 22 5H20ZM17 10C17.9145 10 18.701 10.0021 19.3278 9.91786C19.9833 9.82973 20.6117 9.63098 21.1213 9.12132L19.7071 7.70711C19.631 7.78323 19.495 7.87738 19.0613 7.93569C18.5988 7.99788 17.9711 8 17 8V10ZM17 2C17.9711 2 18.5988 2.00212 19.0613 2.06431C19.495 2.12262 19.631 2.21677 19.7071 2.29289L21.1213 0.87868C20.6117 0.369018 19.9833 0.170272 19.3278 0.0821405C18.701 -0.00212371 17.9145 0 17 0V2ZM22 5C22 4.08546 22.0021 3.29896 21.9179 2.67221C21.8297 2.01669 21.631 1.38834 21.1213 0.87868L19.7071 2.29289C19.7832 2.36902 19.8774 2.50496 19.9357 2.9387C19.9979 3.40121 20 4.02892 20 5H22ZM14 5C14 4.02892 14.0021 3.40121 14.0643 2.9387C14.1226 2.50496 14.2168 2.36902 14.2929 2.29289L12.8787 0.87868C12.369 1.38834 12.1703 2.01669 12.0821 2.67221C11.9979 3.29896 12 4.08546 12 5H14ZM17 0C16.0855 0 15.299 -0.00212371 14.6722 0.0821405C14.0167 0.170272 13.3883 0.369018 12.8787 0.87868L14.2929 2.29289C14.369 2.21677 14.505 2.12262 14.9387 2.06431C15.4012 2.00212 16.0289 2 17 2V0ZM12 5C12 5.91454 11.9979 6.70104 12.0821 7.32779C12.1703 7.98331 12.369 8.61166 12.8787 9.12132L14.2929 7.70711C14.2168 7.63098 14.1226 7.49504 14.0643 7.0613C14.0021 6.59879 14 5.97108 14 5H12ZM17 8C16.0289 8 15.4012 7.99788 14.9387 7.93569C14.505 7.87738 14.369 7.78323 14.2929 7.70711L12.8787 9.12132C13.3883 9.63098 14.0167 9.82973 14.6722 9.91786C15.299 10.0021 16.0855 10 17 10V8Z" fill="#5C96DB"/>
</svg>
