<svg width="58" height="56" viewBox="0 0 58 56" fill="none" xmlns="http://www.w3.org/2000/svg">
<path d="M54.6668 30.6666V22.6666C54.6668 12.61 54.6668 7.5817 51.5426 4.45751C48.4184 1.33331 43.3901 1.33331 33.3335 1.33331H22.6668C12.6102 1.33331 7.58189 1.33331 4.45769 4.45751C1.3335 7.5817 1.3335 12.61 1.3335 22.6666V33.3333C1.3335 43.3899 1.3335 48.4183 4.45769 51.5425C7.58189 54.6666 12.6102 54.6666 22.6668 54.6666H30.6668M46.6668 9.33331H38.6668M33.3335 9.33331H25.3335M2.66683 17.3333H53.3335M36.0002 46.6666H57.3335M41.3335 46.6666L42.6668 38.6666L46.6668 40L50.6668 38.6666L52.0002 46.6666M48.0002 54.6666L56.0002 53.3333M45.3335 54.6666L37.3335 53.3333" stroke="white" stroke-width="2" stroke-linejoin="round"/>
</svg>
