<svg width="22" height="20" viewBox="0 0 22 20" fill="none" xmlns="http://www.w3.org/2000/svg">
<path d="M3.5 18.5L2.81346 19.2271C3.19883 19.591 3.80117 19.591 4.18654 19.2271L3.5 18.5ZM18.5 18.5L17.8135 19.2271C18.1988 19.591 18.8012 19.591 19.1865 19.2271L18.5 18.5ZM5 14.6667C5 14.7832 4.93918 15.0284 4.73208 15.407C4.53705 15.7635 4.26435 16.1452 3.97189 16.5075C3.68235 16.8662 3.39014 17.1853 3.16899 17.4159C3.05896 17.5306 2.96785 17.6219 2.90521 17.6837C2.87391 17.7146 2.84981 17.738 2.8341 17.7531C2.82624 17.7607 2.8205 17.7662 2.817 17.7695C2.81526 17.7712 2.81408 17.7723 2.81348 17.7729C2.81318 17.7732 2.81303 17.7733 2.81302 17.7733C2.81302 17.7733 2.81306 17.7733 2.81313 17.7732C2.81317 17.7732 2.81325 17.7731 2.81327 17.7731C2.81336 17.773 2.81346 17.7729 3.5 18.5C4.18654 19.2271 4.18666 19.227 4.18679 19.2269C4.18685 19.2268 4.18699 19.2267 4.1871 19.2266C4.18732 19.2264 4.18759 19.2261 4.18789 19.2258C4.18849 19.2253 4.18924 19.2245 4.19014 19.2237C4.19195 19.222 4.19435 19.2197 4.19734 19.2168C4.20331 19.2111 4.2116 19.2032 4.22206 19.1931C4.24296 19.173 4.27257 19.1442 4.30964 19.1077C4.38371 19.0346 4.48791 18.93 4.61226 18.8004C4.85986 18.5423 5.19265 18.1793 5.52811 17.7637C5.86065 17.3518 6.21295 16.8672 6.48667 16.3669C6.74832 15.8886 7 15.2865 7 14.6667H5ZM3.5 18.5C4.18654 17.7729 4.18664 17.773 4.18673 17.7731C4.18675 17.7731 4.18683 17.7732 4.18687 17.7732C4.18694 17.7733 4.18698 17.7733 4.18698 17.7733C4.18697 17.7733 4.18682 17.7732 4.18652 17.7729C4.18592 17.7723 4.18474 17.7712 4.183 17.7695C4.1795 17.7662 4.17376 17.7607 4.1659 17.7531C4.15019 17.738 4.12609 17.7146 4.09479 17.6837C4.03215 17.6219 3.94104 17.5306 3.83101 17.4159C3.60986 17.1853 3.31765 16.8662 3.02811 16.5075C2.73565 16.1452 2.46295 15.7635 2.26792 15.407C2.06082 15.0284 2 14.7832 2 14.6667H0C0 15.2865 0.251681 15.8886 0.51333 16.3669C0.787046 16.8672 1.13935 17.3518 1.47189 17.7637C1.80735 18.1793 2.14014 18.5423 2.38774 18.8004C2.51209 18.93 2.61629 19.0346 2.69036 19.1077C2.72743 19.1442 2.75704 19.173 2.77794 19.1931C2.7884 19.2032 2.79669 19.2111 2.80266 19.2168C2.80565 19.2197 2.80805 19.222 2.80986 19.2237C2.81076 19.2245 2.81151 19.2253 2.81211 19.2258C2.81241 19.2261 2.81268 19.2264 2.8129 19.2266C2.81301 19.2267 2.81315 19.2268 2.81321 19.2269C2.81334 19.227 2.81346 19.2271 3.5 18.5ZM2 14.6667C2 13.6844 2.73139 13 3.5 13V11C1.50719 11 0 12.7034 0 14.6667H2ZM3.5 13C4.26861 13 5 13.6844 5 14.6667H7C7 12.7034 5.49281 11 3.5 11V13ZM20 14.6667C20 14.7832 19.9392 15.0284 19.7321 15.407C19.537 15.7635 19.2643 16.1452 18.9719 16.5075C18.6824 16.8662 18.3901 17.1853 18.169 17.4159C18.059 17.5306 17.9679 17.6219 17.9052 17.6837C17.8739 17.7146 17.8498 17.738 17.8341 17.7531C17.8262 17.7607 17.8205 17.7662 17.817 17.7695C17.8153 17.7712 17.8141 17.7723 17.8135 17.7729C17.8132 17.7732 17.813 17.7733 17.813 17.7733C17.813 17.7733 17.8131 17.7733 17.8131 17.7732C17.8132 17.7732 17.8132 17.7731 17.8133 17.7731C17.8134 17.773 17.8135 17.7729 18.5 18.5C19.1865 19.2271 19.1867 19.227 19.1868 19.2269C19.1868 19.2268 19.187 19.2267 19.1871 19.2266C19.1873 19.2264 19.1876 19.2261 19.1879 19.2258C19.1885 19.2253 19.1892 19.2245 19.1901 19.2237C19.1919 19.222 19.1944 19.2197 19.1973 19.2168C19.2033 19.2111 19.2116 19.2032 19.2221 19.1931C19.243 19.173 19.2726 19.1442 19.3096 19.1077C19.3837 19.0346 19.4879 18.93 19.6123 18.8004C19.8599 18.5423 20.1926 18.1793 20.5281 17.7637C20.8607 17.3518 21.213 16.8672 21.4867 16.3669C21.7483 15.8886 22 15.2865 22 14.6667H20ZM18.5 18.5C19.1865 17.7729 19.1866 17.773 19.1867 17.7731C19.1868 17.7731 19.1868 17.7732 19.1869 17.7732C19.1869 17.7733 19.187 17.7733 19.187 17.7733C19.187 17.7733 19.1868 17.7732 19.1865 17.7729C19.1859 17.7723 19.1847 17.7712 19.183 17.7695C19.1795 17.7662 19.1738 17.7607 19.1659 17.7531C19.1502 17.738 19.1261 17.7146 19.0948 17.6837C19.0321 17.6219 18.941 17.5306 18.831 17.4159C18.6099 17.1853 18.3176 16.8662 18.0281 16.5075C17.7357 16.1452 17.463 15.7635 17.2679 15.407C17.0608 15.0284 17 14.7832 17 14.6667H15C15 15.2865 15.2517 15.8886 15.5133 16.3669C15.787 16.8672 16.1393 17.3518 16.4719 17.7637C16.8074 18.1793 17.1401 18.5423 17.3877 18.8004C17.5121 18.93 17.6163 19.0346 17.6904 19.1077C17.7274 19.1442 17.757 19.173 17.7779 19.1931C17.7884 19.2032 17.7967 19.2111 17.8027 19.2168C17.8056 19.2197 17.8081 19.222 17.8099 19.2237C17.8108 19.2245 17.8115 19.2253 17.8121 19.2258C17.8124 19.2261 17.8127 19.2264 17.8129 19.2266C17.813 19.2267 17.8132 19.2268 17.8132 19.2269C17.8133 19.227 17.8135 19.2271 18.5 18.5ZM17 14.6667C17 13.6844 17.7314 13 18.5 13V11C16.5072 11 15 12.7034 15 14.6667H17ZM18.5 13C19.2686 13 20 13.6844 20 14.6667H22C22 12.7034 20.4928 11 18.5 11V13ZM8 16H14V14H8V16ZM9 2.5H13V0.5H9V2.5ZM14 3.5V7.5H16V3.5H14ZM13 8.5H9V10.5H13V8.5ZM8 7.5V3.5H6V7.5H8ZM9 8.5C8.50033 8.5 8.22617 8.49788 8.03598 8.47231C7.87455 8.4506 7.92968 8.42968 8 8.5L6.58579 9.91421C6.949 10.2774 7.38628 10.403 7.76948 10.4545C8.12392 10.5021 8.55687 10.5 9 10.5V8.5ZM6 7.5C6 7.94313 5.99788 8.37608 6.04553 8.73052C6.09705 9.11372 6.22257 9.551 6.58579 9.91421L8 8.5C8.07032 8.57032 8.0494 8.62545 8.02769 8.46402C8.00212 8.27383 8 7.99967 8 7.5H6ZM14 7.5C14 7.99967 13.9979 8.27383 13.9723 8.46402C13.9506 8.62545 13.9297 8.57032 14 8.5L15.4142 9.91421C15.7774 9.551 15.903 9.11372 15.9545 8.73052C16.0021 8.37608 16 7.94313 16 7.5H14ZM13 10.5C13.4431 10.5 13.8761 10.5021 14.2305 10.4545C14.6137 10.403 15.051 10.2774 15.4142 9.91421L14 8.5C14.0703 8.42968 14.1254 8.4506 13.964 8.47231C13.7738 8.49788 13.4997 8.5 13 8.5V10.5ZM13 2.5C13.4997 2.5 13.7738 2.50212 13.964 2.52769C14.1254 2.5494 14.0703 2.57032 14 2.5L15.4142 1.08579C15.051 0.722571 14.6137 0.597049 14.2305 0.545529C13.8761 0.497876 13.4431 0.5 13 0.5V2.5ZM16 3.5C16 3.05687 16.0021 2.62392 15.9545 2.26948C15.903 1.88628 15.7774 1.449 15.4142 1.08579L14 2.5C13.9297 2.42968 13.9506 2.37455 13.9723 2.53598C13.9979 2.72617 14 3.00033 14 3.5H16ZM9 0.5C8.55687 0.5 8.12392 0.497876 7.76948 0.545529C7.38628 0.597049 6.949 0.722571 6.58579 1.08579L8 2.5C7.92968 2.57032 7.87455 2.5494 8.03598 2.52769C8.22617 2.50212 8.50033 2.5 9 2.5V0.5ZM8 3.5C8 3.00033 8.00212 2.72617 8.02769 2.53598C8.0494 2.37455 8.07032 2.42968 8 2.5L6.58579 1.08579C6.22257 1.449 6.09705 1.88628 6.04553 2.26948C5.99788 2.62392 6 3.05687 6 3.5H8ZM12 4.5V1.5H10V4.5H12Z" fill="#5C96DB"/>
</svg>
