<svg width="20" height="22" viewBox="0 0 20 22" fill="none" xmlns="http://www.w3.org/2000/svg">
<path d="M1 1.99994L0.889568 1.00606C0.355873 1.06536 -0.0357169 1.53557 0.0025413 2.07119L1 1.99994ZM19 1.99994L19.9975 2.07119C20.0357 1.53557 19.6441 1.06536 19.1104 1.00606L19 1.99994ZM10 20.9999L9.47 21.8479C9.79427 22.0506 10.2057 22.0506 10.53 21.8479L10 20.9999ZM9.33741 1.07356L9.44784 2.06745L9.33741 1.07356ZM10.6626 1.07356L10.5522 2.06745L10.6626 1.07356ZM18.2174 12.9565L19.2148 13.0278L18.2174 12.9565ZM15.4126 17.6171L15.9426 18.465L15.4126 17.6171ZM4.58737 17.6171L4.05737 18.465H4.05737L4.58737 17.6171ZM1.78261 12.9565L2.78007 12.8853L1.78261 12.9565ZM9 12.9999L8.29289 13.707C8.68342 14.0976 9.31658 14.0976 9.70711 13.707L9 12.9999ZM14.7071 8.70705L15.4142 7.99994L14 6.58573L13.2929 7.29284L14.7071 8.70705ZM10.53 20.1519L5.11737 16.7691L4.05737 18.465L9.47 21.8479L10.53 20.1519ZM2.78007 12.8853L1.99746 1.92869L0.0025413 2.07119L0.785156 13.0278L2.78007 12.8853ZM18.0025 1.92869L17.2199 12.8853L19.2148 13.0278L19.9975 2.07119L18.0025 1.92869ZM14.8826 16.7691L9.47 20.1519L10.53 21.8479L15.9426 18.465L14.8826 16.7691ZM1.11043 2.99383L9.44784 2.06745L9.22698 0.0796791L0.889568 1.00606L1.11043 2.99383ZM10.5522 2.06745L18.8896 2.99383L19.1104 1.00606L10.773 0.0796791L10.5522 2.06745ZM9.44784 2.06745C9.81482 2.02667 10.1852 2.02667 10.5522 2.06745L10.773 0.0796791C10.2593 0.022594 9.74075 0.022594 9.22698 0.0796791L9.44784 2.06745ZM17.2199 12.8853C17.1061 14.479 16.2375 15.9223 14.8826 16.7691L15.9426 18.465C17.8394 17.2795 19.0555 15.2589 19.2148 13.0278L17.2199 12.8853ZM5.11737 16.7691C3.7625 15.9223 2.89391 14.479 2.78007 12.8853L0.785156 13.0278C0.944522 15.2589 2.16056 17.2795 4.05737 18.465L5.11737 16.7691ZM5.29289 10.707L8.29289 13.707L9.70711 12.2928L6.70711 9.29284L5.29289 10.707ZM9.70711 13.707L14.7071 8.70705L13.2929 7.29284L8.29289 12.2928L9.70711 13.707Z" fill="#5C96DB"/>
</svg>
