<svg width="22" height="22" viewBox="0 0 22 22" fill="none" xmlns="http://www.w3.org/2000/svg">
<path d="M4 4H6M7 4H9M10 4H12M7.5 12L5.5 14L7.5 16M14.5 12L16.5 14L14.5 16M12 10.5L10 17.5M21 13V9C21 5.22876 21 3.34315 19.8284 2.17157C18.6569 1 16.7712 1 13 1H9C5.22876 1 3.34315 1 2.17157 2.17157C1 3.34315 1 5.22876 1 9V13C1 16.7712 1 18.6569 2.17157 19.8284C3.34315 21 5.22876 21 9 21H13C16.7712 21 18.6569 21 19.8284 19.8284C21 18.6569 21 16.7712 21 13Z" stroke="#5C96DB" stroke-width="2" stroke-linejoin="round"/>
</svg>
