<svg width="60" height="58" viewBox="0 0 60 58" fill="none" xmlns="http://www.w3.org/2000/svg">
<path d="M45.9998 46V47C46.5521 47 46.9998 46.5523 46.9998 46H45.9998ZM13.9998 46H12.9998C12.9998 46.5523 13.4476 47 13.9998 47V46ZM11.3332 47H48.6665V45H11.3332V47ZM48.6665 55.6667H11.3332V57.6667H48.6665V55.6667ZM11.3332 55.6667C8.93994 55.6667 6.99984 53.7266 6.99984 51.3334H4.99984C4.99984 54.8312 7.83537 57.6667 11.3332 57.6667V55.6667ZM52.9998 51.3334C52.9998 53.7266 51.0597 55.6667 48.6665 55.6667V57.6667C52.1643 57.6667 54.9998 54.8312 54.9998 51.3334H52.9998ZM48.6665 47C51.0597 47 52.9998 48.9401 52.9998 51.3334H54.9998C54.9998 47.8356 52.1643 45 48.6665 45V47ZM11.3332 45C7.83537 45 4.99984 47.8356 4.99984 51.3334H6.99984C6.99984 48.9401 8.93994 47 11.3332 47V45ZM44.9998 30V46H46.9998V30H44.9998ZM45.9998 45H13.9998V47H45.9998V45ZM14.9998 46V30H12.9998V46H14.9998ZM29.9998 15C38.2841 15 44.9998 21.7157 44.9998 30H46.9998C46.9998 20.6112 39.3887 13 29.9998 13V15ZM29.9998 13C20.611 13 12.9998 20.6112 12.9998 30H14.9998C14.9998 21.7157 21.7156 15 29.9998 15V13ZM0.666504 31H8.6665V29H0.666504V31ZM59.3332 29H51.3332V31H59.3332V29ZM6.62606 8.04046L11.9594 13.3738L13.3736 11.9596L8.04028 6.62625L6.62606 8.04046ZM51.9594 6.62625L46.6261 11.9596L48.0403 13.3738L53.3736 8.04046L51.9594 6.62625ZM28.9998 0.666687V8.66669H30.9998V0.666687H28.9998ZM20.9998 30V40.6667H22.9998V30H20.9998Z" fill="white"/>
</svg>
