<svg width="56" height="50" viewBox="0 0 56 50" fill="none" xmlns="http://www.w3.org/2000/svg">
<path d="M32.0002 26.3333L37.3335 22.3333M32.0002 37L37.3335 41M32.0002 31.6667H38.6668M24.0002 26.3333L18.6668 22.3333M24.0002 37L18.6668 41M24.0002 31.6667H17.3335M33.0131 3.96153L53.952 40.8823C54.4201 41.7079 54.6668 42.6464 54.6668 43.6022C54.6668 46.5833 52.3173 49 49.4189 49H6.5814C3.68306 49 1.3335 46.5833 1.3335 43.6022C1.3335 42.6464 1.58019 41.7079 2.04837 40.8823L22.9873 3.96152C24.0273 2.12766 25.9361 1 28.0002 1C30.0643 1 31.973 2.12766 33.0131 3.96153ZM28.0002 38.3333C25.791 38.3333 24.0002 36.5425 24.0002 34.3333V29C24.0002 26.7909 25.791 25 28.0002 25C30.2093 25 32.0002 26.7909 32.0002 29V34.3333C32.0002 36.5425 30.2093 38.3333 28.0002 38.3333Z" stroke="white" stroke-width="2" stroke-linejoin="round"/>
</svg>
