<svg width="208" height="736" viewBox="0 0 208 736" fill="none" xmlns="http://www.w3.org/2000/svg">
<path d="M20.579 609.135L21.4014 607.184C21.353 607.39 21.3128 607.593 21.2658 607.8C21.0038 608.512 20.7395 609.225 20.4679 609.942C20.5072 609.672 20.5406 609.404 20.579 609.135ZM24.474 597.156C24.7039 596.648 24.9408 596.134 25.1675 595.629L25.1142 595.825L24.3663 597.709L24.474 597.156ZM21.2584 604.244C21.7738 603.123 22.2611 602.021 22.7744 600.902C22.6623 601.44 22.5336 601.986 22.4197 602.526C21.9757 603.605 21.5026 604.704 21.0426 605.794C21.1123 605.278 21.1909 604.758 21.2584 604.244ZM28.8743 584.845C29.0751 584.418 29.2559 584.005 29.4554 583.58L29.4521 583.59C29.2485 584.072 29.0323 584.563 28.8254 585.048L28.8743 584.845ZM25.4823 591.91C25.9692 590.901 26.4656 589.884 26.9447 588.88C26.8366 589.308 26.7363 589.733 26.6266 590.162C26.1359 591.289 25.6793 592.391 25.1774 593.525C25.2766 592.988 25.3867 592.446 25.4823 591.91ZM21.8254 599.436C22.5333 598.009 23.2057 596.608 23.8968 595.193C23.77 595.861 23.64 596.531 23.5086 597.202C22.8811 598.598 22.2364 600.006 21.5998 601.409C21.6777 600.75 21.7506 600.093 21.8254 599.436ZM-184.872 160.777L-184.501 161.108C-184.389 161.406 -184.274 161.702 -184.161 161.999L-184.465 161.681C-184.602 161.381 -184.736 161.078 -184.872 160.777ZM33.8293 571.873L34.044 571.429C33.9558 571.628 33.8755 571.823 33.7872 572.021L33.8293 571.873ZM30.1446 579.397C30.6206 578.453 31.0772 577.524 31.538 576.592C31.439 576.935 31.3468 577.276 31.2467 577.621C30.8006 578.6 30.3388 579.59 29.8919 580.57C29.9811 580.176 30.0578 579.79 30.1446 579.397ZM26.3253 586.906C27.0204 585.539 27.7228 584.167 28.4107 582.806C28.2492 583.497 28.0733 584.198 27.9082 584.892C27.2843 586.219 26.6365 587.563 25.9882 588.908C26.1015 588.24 26.2152 587.572 26.3253 586.906ZM22.33 594.629C23.1993 592.983 24.0525 591.349 24.8901 589.728C24.7612 590.474 24.6481 591.212 24.5151 591.96C23.7082 593.622 22.9211 595.272 22.1121 596.936C22.193 596.163 22.2553 595.399 22.33 594.629ZM-186.367 157.439C-186.127 157.625 -185.881 157.807 -185.639 157.992L-185.161 159.307C-185.368 159.12 -185.58 158.935 -185.786 158.747C-185.98 158.311 -186.176 157.876 -186.367 157.439ZM-188.466 155.796L-188.002 156.162L-187.623 157.044L-187.982 156.711C-188.144 156.406 -188.308 156.102 -188.466 155.796ZM-190.388 154.269L-190.325 154.321L-190.187 154.593L-190.388 154.269ZM35.2897 566.364C35.7357 565.481 36.193 564.589 36.6454 563.702L36.2468 564.945C35.8427 565.798 35.4079 566.672 34.9896 567.536C35.092 567.143 35.188 566.755 35.2897 566.364ZM31.2989 574.041C31.9943 572.738 32.6961 571.432 33.3594 570.154C33.2043 570.735 33.0237 571.33 32.8638 571.913C32.1967 573.282 31.5434 574.64 30.8752 576.009C31.0133 575.355 31.1634 574.693 31.2989 574.041ZM27.0973 581.938L29.6889 577.068C29.5169 577.86 29.3545 578.646 29.1776 579.441C28.4018 580.994 27.5865 582.576 26.7812 584.151C26.8956 583.408 26.9882 582.678 27.0973 581.938ZM22.7588 589.889C23.7812 588.053 24.8089 586.213 25.7799 584.415C25.6508 585.254 25.4954 586.106 25.3579 586.949C24.4081 588.798 23.4908 590.623 22.5237 592.484C22.6006 591.62 22.69 590.749 22.7588 589.889ZM-187.767 154.178C-187.431 154.401 -187.098 154.627 -186.759 154.848C-186.572 155.385 -186.387 155.923 -186.197 156.458C-186.497 156.225 -186.791 155.988 -187.091 155.754C-187.316 155.229 -187.544 154.705 -187.767 154.178ZM-190.058 152.651C-189.799 152.828 -189.536 153.001 -189.275 153.176C-189.096 153.606 -188.915 154.033 -188.732 154.461L-189.423 153.906C-189.635 153.488 -189.848 153.071 -190.058 152.651ZM-192.257 151.132L-191.75 151.483C-191.607 151.774 -191.465 152.067 -191.319 152.357C-191.455 152.246 -191.591 152.136 -191.726 152.025C-191.901 151.726 -192.081 151.431 -192.257 151.132ZM-194.291 149.697L-194.182 149.775L-193.989 150.115L-194.014 150.094L-194.291 149.697ZM40.849 553.028C41.2715 552.231 41.7058 551.425 42.1176 550.636C42.0336 550.88 41.9424 551.129 41.8559 551.374C41.4111 552.285 40.9821 553.184 40.5344 554.097L40.849 553.028ZM36.7061 560.833C37.383 559.566 38.0411 558.313 38.7146 557.049C38.5403 557.629 38.384 558.197 38.2072 558.779C37.5718 560.046 36.9054 561.337 36.2521 562.618C36.3986 562.026 36.5631 561.423 36.7061 560.833ZM32.3166 568.854C33.1828 567.297 34.0574 565.733 34.887 564.204C34.7036 564.936 34.5129 565.671 34.3223 566.407C33.5032 568 32.7161 569.569 31.8771 571.177C32.0306 570.398 32.1694 569.629 32.3166 568.854ZM27.8011 577.019C28.8343 575.166 29.8355 573.338 30.8562 571.494C30.6855 572.355 30.5108 573.217 30.3313 574.083C29.3872 575.878 28.4145 577.694 27.4462 579.507C27.5599 578.68 27.6939 577.842 27.8011 577.019ZM23.0685 585.298C24.2288 583.292 25.4036 581.273 26.5095 579.308C26.3873 580.197 26.2586 581.09 26.1279 581.983C25.0659 583.957 23.9915 585.938 22.8952 587.937C22.9582 587.055 23.013 586.177 23.0685 585.298ZM-189.095 150.97C-188.684 151.201 -188.27 151.43 -187.858 151.659C-187.648 152.28 -187.433 152.898 -187.219 153.517C-187.602 153.263 -187.986 153.009 -188.366 152.753C-188.611 152.16 -188.852 151.564 -189.095 150.97ZM-191.583 149.539C-191.223 149.747 -190.865 149.956 -190.505 150.164C-190.292 150.689 -190.076 151.213 -189.861 151.737C-190.193 151.511 -190.521 151.282 -190.851 151.054C-191.097 150.55 -191.339 150.044 -191.583 149.539ZM-193.982 148.126C-193.693 148.299 -193.408 148.476 -193.116 148.649C-192.917 149.068 -192.712 149.484 -192.511 149.902C-192.774 149.717 -193.031 149.528 -193.292 149.341L-193.982 148.126ZM-196.27 146.743C-196.085 146.857 -195.896 146.968 -195.711 147.081C-195.548 147.376 -195.378 147.667 -195.212 147.961L-195.689 147.615C-195.882 147.325 -196.078 147.035 -196.27 146.743ZM-198.418 145.397L-198.248 145.504C-198.169 145.627 -198.092 145.751 -198.012 145.874L-198.09 145.816C-198.198 145.675 -198.31 145.537 -198.418 145.397ZM46.7567 539.522C47.1875 538.727 47.5697 537.97 47.992 537.182C47.9337 537.34 47.8831 537.493 47.8244 537.651C47.4059 538.486 46.9679 539.334 46.5448 540.172C46.6133 539.957 46.6897 539.737 46.7567 539.522ZM42.4655 547.329C43.1126 546.153 43.7703 544.968 44.4047 543.803C44.2247 544.352 44.0515 544.896 43.8677 545.447C43.2427 546.663 42.6385 547.861 41.9956 549.09C42.1619 548.497 42.3023 547.92 42.4655 547.329ZM37.9105 555.593C38.814 553.982 39.6584 552.416 40.5452 550.818C40.3342 551.563 40.0991 552.323 39.8829 553.071C39.0754 554.605 38.2468 556.155 37.4272 557.697C37.5925 556.994 37.7525 556.293 37.9105 555.593ZM33.2754 563.694C34.2941 561.921 35.3196 560.143 36.3063 558.396C36.1107 559.229 35.9383 560.047 35.7347 560.885C34.7771 562.663 33.801 564.456 32.8064 566.263C32.9622 565.407 33.1286 564.545 33.2754 563.694ZM28.3664 572.245C29.5586 570.197 30.6961 568.19 31.8634 566.162C31.699 567.071 31.5204 567.989 31.3456 568.903C30.2603 570.875 29.1634 572.856 28.0622 574.84C28.1685 573.972 28.2678 573.109 28.3664 572.245ZM23.321 580.75C24.6128 578.583 25.9131 576.41 27.1611 574.277C27.0483 575.208 26.9522 576.131 26.8309 577.066C25.6543 579.163 24.4241 581.302 23.1921 583.441C23.2426 582.541 23.2787 581.647 23.321 580.75ZM-190.38 147.763C-189.887 147.999 -189.4 148.239 -188.904 148.473C-188.685 149.149 -188.468 149.826 -188.244 150.501C-188.7 150.243 -189.151 149.984 -189.604 149.725C-189.867 149.073 -190.124 148.418 -190.38 147.763ZM-193.032 146.478C-192.591 146.696 -192.145 146.912 -191.7 147.128C-191.47 147.721 -191.245 148.317 -191.012 148.908C-191.415 148.673 -191.825 148.442 -192.225 148.205C-192.499 147.631 -192.766 147.054 -193.032 146.478ZM-195.617 145.18C-195.233 145.376 -194.845 145.567 -194.459 145.762C-194.228 146.266 -193.998 146.772 -193.764 147.275C-194.12 147.061 -194.478 146.848 -194.832 146.632C-195.098 146.15 -195.353 145.663 -195.617 145.18ZM-198.121 143.879C-197.808 144.044 -197.496 144.209 -197.18 144.373L-196.524 145.586C-196.808 145.408 -197.092 145.229 -197.375 145.05C-197.626 144.661 -197.874 144.27 -198.121 143.879ZM-200.513 142.606C-200.297 142.723 -200.085 142.844 -199.867 142.961C-199.689 143.246 -199.505 143.529 -199.324 143.813C-199.513 143.691 -199.699 143.566 -199.886 143.443C-200.095 143.164 -200.307 142.886 -200.513 142.606ZM-202.731 141.386L-202.512 141.508C-202.418 141.637 -202.327 141.768 -202.233 141.897L-202.369 141.807L-202.731 141.386ZM53.0966 525.445C53.4375 524.818 53.7852 524.185 54.1286 523.555C54.0402 523.783 53.9565 524.007 53.8673 524.235C53.5412 524.868 53.1997 525.515 52.8627 526.157C52.9455 525.916 53.0161 525.685 53.0966 525.445ZM48.5457 533.686C49.1927 532.546 49.8284 531.414 50.451 530.293C50.293 530.74 50.1296 531.191 49.9709 531.639C49.348 532.822 48.7155 534.013 48.0947 535.193C48.2494 534.688 48.3941 534.19 48.5457 533.686ZM43.939 541.792C44.8014 540.275 45.6728 538.75 46.5266 537.24C46.2878 538.007 46.0399 538.782 45.794 539.553C45.0088 541.013 44.1761 542.51 43.3517 544C43.546 543.265 43.7504 542.524 43.939 541.792ZM39.0972 550.221C40.1307 548.451 41.1354 546.705 42.1397 544.959C41.9252 545.762 41.7206 546.558 41.4999 547.365L38.5848 552.66C38.7633 551.842 38.9258 551.034 39.0972 550.221ZM34.0804 558.727C35.2638 556.73 36.4454 554.732 37.603 552.754C37.3953 553.707 37.1583 554.677 36.9412 555.636C35.8847 557.521 34.7604 559.461 33.6503 561.387C33.7973 560.499 33.943 559.611 34.0804 558.727ZM28.8804 567.453C30.1932 565.278 31.4741 563.13 32.7495 560.985C32.5986 561.904 32.4637 562.815 32.3025 563.741C31.07 565.895 29.8541 568.035 28.6057 570.202C28.705 569.282 28.7909 568.368 28.8804 567.453ZM23.5095 576.255C24.9325 573.935 26.3505 571.617 27.7377 569.325C27.6363 570.306 27.5062 571.304 27.3929 572.291C26.1087 574.5 24.741 576.775 23.3922 579.034C23.4315 578.108 23.4817 577.177 23.5095 576.255ZM-185.819 146.82C-157.278 157.553 -123.792 165.12 -89.6634 172.827C35.5527 201.101 169.32 231.35 97.5865 427.87M-191.615 144.576C-191.062 144.798 -190.498 145.015 -189.94 145.234C-189.712 145.964 -189.482 146.694 -189.247 147.422C-189.767 147.173 -190.286 146.924 -190.802 146.673C-191.075 145.975 -191.35 145.278 -191.615 144.576ZM-194.437 143.416C-193.919 143.631 -193.398 143.845 -192.876 144.058C-192.631 144.717 -192.38 145.373 -192.126 146.028C-192.611 145.789 -193.089 145.545 -193.571 145.303C-193.862 144.675 -194.155 144.048 -194.437 143.416ZM-197.188 142.252C-196.714 142.456 -196.246 142.663 -195.769 142.865C-195.513 143.44 -195.257 144.015 -194.997 144.588C-195.435 144.364 -195.868 144.136 -196.304 143.911C-196.601 143.359 -196.896 142.806 -197.188 142.252ZM-199.862 141.087C-199.451 141.27 -199.038 141.451 -198.625 141.632C-198.375 142.115 -198.133 142.603 -197.877 143.085C-198.253 142.886 -198.633 142.692 -199.004 142.492C-199.294 142.026 -199.576 141.555 -199.862 141.087ZM-202.459 139.91C-202.124 140.064 -201.784 140.215 -201.448 140.368L-200.737 141.539C-201.043 141.37 -201.352 141.204 -201.656 141.034L-202.459 139.91ZM-204.956 138.734L-204.249 139.072C-204.054 139.351 -203.853 139.626 -203.655 139.904L-204.276 139.547C-204.501 139.275 -204.733 139.007 -204.956 138.734ZM-207.229 137.639L-206.962 137.773L-206.662 138.147L-206.866 138.024C-206.989 137.897 -207.107 137.766 -207.229 137.639ZM59.628 511.426C59.9318 510.885 60.245 510.336 60.5438 509.8L60.489 509.933C60.141 510.594 59.8046 511.247 59.4559 511.909L59.628 511.426ZM55.0097 519.632C55.6652 518.466 56.3189 517.3 56.9815 516.129C56.7879 516.649 56.5713 517.186 56.3756 517.707C55.7779 518.818 55.1489 519.955 54.5338 521.079C54.6928 520.597 54.8537 520.113 55.0097 519.632ZM50.3064 527.803C51.1228 526.412 51.9509 525.013 52.7342 523.65C52.529 524.262 52.3435 524.86 52.1337 525.475C51.2923 527.009 50.4824 528.517 49.6309 530.059C49.8488 529.312 50.0937 528.546 50.3064 527.803ZM45.2817 536.395L48.3488 531.15C48.0968 532.004 47.837 532.864 47.5785 533.723C46.6504 535.379 45.68 537.069 44.7199 538.752C44.9172 537.959 45.0904 537.183 45.2817 536.395ZM40.1555 544.992C41.3393 543.037 42.5229 541.083 43.6621 539.165C43.4428 540.044 43.2037 540.936 42.9754 541.822C41.8383 543.813 40.7494 545.766 39.5915 547.774C39.7802 546.846 39.9753 545.914 40.1555 544.992ZM34.8173 553.803C36.1216 551.655 37.4186 549.515 38.7094 547.379C38.5157 548.339 38.3294 549.296 38.1256 550.262C36.929 552.319 35.6805 554.418 34.4402 556.51C34.577 555.602 34.6901 554.707 34.8173 553.803ZM29.3101 562.739C30.7504 560.43 32.1795 558.131 33.5706 555.862C33.4292 556.823 33.2617 557.8 33.1105 558.767C31.7549 561.054 30.4301 563.316 29.0466 565.627C29.1349 564.664 29.2331 563.696 29.3101 562.739ZM23.592 571.878C25.1325 569.427 26.6569 566.989 28.1727 564.557C28.0883 565.535 28.0004 566.514 27.9044 567.498C26.4896 569.849 25.0121 572.25 23.543 574.645C23.5674 573.719 23.5777 572.799 23.592 571.878ZM-192.79 141.374C-192.171 141.578 -191.556 141.785 -190.933 141.987C-190.702 142.759 -190.465 143.527 -190.227 144.295C-190.813 144.06 -191.399 143.824 -191.981 143.586C-192.252 142.849 -192.522 142.112 -192.79 141.374ZM-195.761 140.37C-195.177 140.571 -194.594 140.773 -194.006 140.972C-193.754 141.673 -193.496 142.371 -193.238 143.069C-193.787 142.843 -194.34 142.62 -194.884 142.39C-195.177 141.717 -195.472 141.045 -195.761 140.37ZM-198.679 139.352C-198.139 139.545 -197.59 139.733 -197.046 139.923C-196.777 140.555 -196.501 141.182 -196.225 141.811C-196.735 141.591 -197.247 141.374 -197.752 141.152C-198.062 140.553 -198.376 139.955 -198.679 139.352ZM-201.535 138.305C-201.042 138.489 -200.544 138.67 -200.045 138.851C-199.77 139.408 -199.485 139.961 -199.2 140.514C-199.666 140.306 -200.128 140.094 -200.591 139.884C-200.909 139.359 -201.226 138.834 -201.535 138.305ZM-204.309 137.25C-203.869 137.42 -203.434 137.593 -202.99 137.761C-202.718 138.229 -202.453 138.7 -202.177 139.166C-202.59 138.974 -202.995 138.776 -203.405 138.582C-203.712 138.141 -204.006 137.693 -204.309 137.25ZM-206.995 136.194C-206.632 136.34 -206.272 136.487 -205.908 136.631C-205.656 137.006 -205.4 137.378 -205.147 137.753C-205.474 137.594 -205.804 137.437 -206.13 137.278C-206.418 136.916 -206.71 136.557 -206.995 136.194ZM-209.562 135.144C-209.309 135.25 -209.053 135.352 -208.799 135.457C-208.593 135.723 -208.386 135.988 -208.176 136.252C-208.402 136.138 -208.629 136.027 -208.852 135.913C-209.09 135.657 -209.326 135.401 -209.562 135.144ZM-211.931 134.131L-211.62 134.265L-211.283 134.644L-211.525 134.514L-211.931 134.131ZM66.4008 497.337L66.4629 497.227L66.3925 497.357L66.4008 497.337ZM61.8369 505.227C62.4249 504.21 63.0252 503.182 63.6055 502.171C63.4481 502.572 63.3079 502.962 63.149 503.364C62.5093 504.535 61.9133 505.668 61.259 506.85C61.446 506.313 61.6515 505.762 61.8369 505.227ZM56.8669 513.819C57.7142 512.371 58.5112 510.964 59.3533 509.52C59.1231 510.168 58.896 510.813 58.6608 511.465C57.896 512.835 57.1069 514.224 56.3315 515.602C56.5222 514.999 56.6808 514.418 56.8669 513.819ZM51.7983 522.298C52.826 520.592 53.8623 518.878 54.8581 517.199C54.5985 518.01 54.3138 518.841 54.0491 519.656C53.0763 521.363 52.1235 523.055 51.1259 524.783C51.3567 523.95 51.5748 523.126 51.7983 522.298ZM46.5594 531.03C47.7348 529.082 48.8792 527.158 50.052 525.211C49.807 526.092 49.5928 526.951 49.339 527.837C48.221 529.764 47.0747 531.715 45.9326 533.661C46.1383 532.787 46.3633 531.899 46.5594 531.03ZM41.0952 539.893C42.4025 537.795 43.723 535.686 44.9809 533.63C44.7633 534.56 44.5391 535.494 44.3139 536.43C43.0875 538.505 41.8692 540.575 40.6106 542.678C40.7847 541.741 40.9291 540.824 41.0952 539.893ZM35.472 548.953C36.9093 546.647 38.3204 544.361 39.7511 542.059C39.5684 543.045 39.3764 544.038 39.1829 545.032C37.8405 547.266 36.4652 549.527 35.0894 551.789C35.2152 550.845 35.3552 549.892 35.472 548.953ZM29.6323 558.15C31.1824 555.737 32.7461 553.313 34.2338 550.95C34.1066 551.914 33.979 552.878 33.8428 553.848C32.3921 556.222 30.9369 558.6 29.4467 561.008C29.5189 560.05 29.5715 559.103 29.6323 558.15ZM23.6245 567.537C25.2798 564.961 26.9022 562.414 28.5467 559.847C28.4774 560.825 28.4146 561.8 28.3357 562.783C26.7886 565.274 25.2067 567.794 23.6188 570.318C23.6278 569.388 23.6255 568.463 23.6245 567.537ZM-193.927 138.167C-193.251 138.349 -192.569 138.526 -191.888 138.704C-191.657 139.507 -191.433 140.313 -191.198 141.113C-191.839 140.903 -192.481 140.693 -193.117 140.48C-193.392 139.711 -193.659 138.939 -193.927 138.167ZM-197.045 137.316C-196.401 137.496 -195.748 137.67 -195.1 137.847C-194.844 138.587 -194.595 139.33 -194.335 140.067C-194.951 139.857 -195.56 139.642 -196.171 139.429C-196.468 138.727 -196.755 138.021 -197.045 137.316ZM-200.115 136.432C-199.502 136.611 -198.89 136.79 -198.272 136.966C-197.997 137.641 -197.721 138.315 -197.441 138.987C-198.024 138.78 -198.599 138.567 -199.178 138.357C-199.493 137.717 -199.805 137.075 -200.115 136.432ZM-203.134 135.528C-202.558 135.704 -201.987 135.884 -201.407 136.058C-201.118 136.661 -200.822 137.26 -200.529 137.861C-201.065 137.662 -201.604 137.464 -202.136 137.261C-202.471 136.685 -202.807 136.109 -203.134 135.528ZM-206.074 134.615C-205.556 134.781 -205.032 134.943 -204.509 135.106C-204.212 135.638 -203.909 136.166 -203.604 136.694C-204.093 136.505 -204.587 136.318 -205.073 136.126C-205.41 135.624 -205.744 135.12 -206.074 134.615ZM-208.935 133.68C-208.477 133.833 -208.012 133.981 -207.552 134.132C-207.263 134.579 -206.98 135.03 -206.688 135.474C-207.117 135.301 -207.545 135.125 -207.972 134.95C-208.296 134.528 -208.615 134.103 -208.935 133.68ZM-211.727 132.721C-211.342 132.857 -210.957 132.992 -210.567 133.125C-210.295 133.49 -210.016 133.851 -209.741 134.214C-210.098 134.062 -210.45 133.906 -210.805 133.753C-211.112 133.409 -211.424 133.068 -211.727 132.721ZM-214.353 131.789C-214.073 131.89 -213.799 131.997 -213.518 132.098C-213.302 132.35 -213.092 132.607 -212.873 132.858C-213.127 132.746 -213.374 132.628 -213.626 132.514C-213.872 132.275 -214.109 132.03 -214.353 131.789ZM-216.798 130.883L-216.453 131.011C-216.327 131.139 -216.197 131.265 -216.07 131.394C-216.159 131.351 -216.25 131.312 -216.339 131.27L-216.798 130.883ZM73.6774 482.483L74.5014 481.039L74.4558 481.146C74.1751 481.66 73.8705 482.195 73.5839 482.715L73.6774 482.483ZM68.8345 490.865C69.3673 489.969 69.9111 489.064 70.4226 488.186L70.1042 488.971C69.5551 489.958 69.0005 490.951 68.4588 491.932C68.5908 491.571 68.7041 491.225 68.8345 490.865ZM63.7983 499.36C64.6166 497.977 65.4468 496.583 66.2631 495.202C65.9961 495.917 65.7102 496.644 65.4394 497.363C64.7059 498.653 63.9285 499.981 63.163 501.299C63.381 500.647 63.5834 500.008 63.7983 499.36ZM58.5906 508.081C59.6364 506.357 60.6369 504.671 61.6597 502.967C61.4016 503.726 61.1391 504.489 60.8751 505.252C59.8828 506.968 58.8842 508.691 57.8917 510.407C58.1252 509.631 58.3638 508.852 58.5906 508.081ZM53.2769 516.735C54.4303 514.861 55.5902 512.983 56.7191 511.129C56.4455 512.036 56.1858 512.932 55.903 513.845C54.824 515.679 53.7022 517.548 52.5785 519.419C52.8125 518.523 53.0507 517.625 53.2769 516.735ZM47.662 525.855C49.009 523.694 50.2857 521.59 51.6128 519.445C51.3633 520.399 51.0894 521.37 50.8304 522.33C49.5914 524.399 48.3477 526.472 47.0979 528.55C47.2956 527.646 47.4747 526.754 47.662 525.855ZM41.9776 534.82C43.4061 532.578 44.84 530.33 46.2241 528.124C46.0122 529.103 45.8155 530.072 45.5923 531.058C44.2477 533.269 42.8596 535.515 41.4645 537.767C41.6314 536.787 41.8217 535.793 41.9776 534.82ZM36.0038 544.242C37.5807 541.777 39.0848 539.374 40.6444 536.923C40.4772 537.921 40.2984 538.927 40.1204 539.933C38.656 542.299 37.187 544.67 35.701 547.054C35.8125 546.11 35.902 545.179 36.0038 544.242ZM29.9053 553.59C31.5654 551.06 33.236 548.52 34.8364 546.04C34.7254 547.024 34.6212 548.003 34.4975 548.993C32.9433 551.469 31.3478 553.978 29.7399 556.498C29.7984 555.527 29.8581 554.556 29.9053 553.59ZM23.5961 563.248C25.3663 560.551 27.0851 557.898 28.8497 555.207C28.7959 556.197 28.7182 557.2 28.6548 558.195C26.9858 560.81 25.312 563.429 23.6144 566.067C23.6087 565.127 23.6121 564.184 23.5961 563.248ZM-195.033 134.941C-194.297 135.094 -193.559 135.246 -192.819 135.396C-192.589 136.235 -192.355 137.071 -192.116 137.906C-192.818 137.719 -193.514 137.528 -194.213 137.339C-194.489 136.54 -194.765 135.742 -195.033 134.941ZM-198.294 134.234C-197.584 134.391 -196.879 134.551 -196.164 134.703C-195.91 135.477 -195.648 136.248 -195.385 137.018C-196.058 136.832 -196.731 136.646 -197.397 136.456C-197.699 135.718 -198 134.977 -198.294 134.234ZM-201.502 133.507C-200.826 133.664 -200.151 133.821 -199.469 133.975C-199.192 134.685 -198.913 135.394 -198.627 136.1C-199.268 135.915 -199.913 135.733 -200.548 135.544C-200.871 134.868 -201.186 134.187 -201.502 133.507ZM-204.658 132.759C-204.023 132.915 -203.377 133.063 -202.737 133.216C-202.441 133.86 -202.149 134.507 -201.847 135.148C-202.454 134.965 -203.058 134.779 -203.659 134.592C-203.995 133.983 -204.327 133.371 -204.658 132.759ZM-207.778 131.97C-207.179 132.125 -206.573 132.276 -205.97 132.428C-205.657 133.011 -205.337 133.589 -205.02 134.17C-205.591 133.988 -206.152 133.799 -206.719 133.614C-207.074 133.067 -207.432 132.522 -207.778 131.97ZM-210.797 131.168C-210.249 131.317 -209.705 131.468 -209.152 131.614C-208.838 132.122 -208.518 132.628 -208.195 133.132C-208.717 132.957 -209.235 132.78 -209.753 132.603C-210.106 132.128 -210.45 131.646 -210.797 131.168ZM-213.747 130.348C-213.26 130.487 -212.775 130.627 -212.285 130.764C-211.979 131.191 -211.674 131.618 -211.365 132.043C-211.812 131.886 -212.264 131.734 -212.708 131.574C-213.054 131.166 -213.404 130.759 -213.747 130.348ZM-216.598 129.518C-216.203 129.637 -215.8 129.749 -215.403 129.866C-215.118 130.213 -214.825 130.555 -214.534 130.899C-214.909 130.76 -215.287 130.623 -215.661 130.482C-215.976 130.162 -216.287 129.841 -216.598 129.518ZM-219.32 128.672L-218.439 128.947C-218.209 129.191 -217.979 129.435 -217.747 129.678L-218.544 129.364L-219.32 128.672ZM-221.866 127.851L-221.457 127.988L-221.069 128.343L-221.41 128.199L-221.866 127.851ZM76.0487 476.34C76.5903 475.433 77.1259 474.531 77.6523 473.638L77.2776 474.518C76.7585 475.439 76.2138 476.38 75.6837 477.309C75.8092 476.983 75.9242 476.664 76.0487 476.34ZM70.959 484.84C71.7941 483.442 72.6405 482.034 73.4756 480.636C73.2377 481.244 72.9683 481.878 72.7267 482.489C71.898 483.93 71.106 485.341 70.2735 486.786C70.5034 486.137 70.7331 485.487 70.959 484.84ZM65.7333 493.453C66.7109 491.867 67.69 490.28 68.6355 488.721C68.3726 489.454 68.1322 490.17 67.8642 490.907C66.9231 492.515 65.9384 494.158 64.9665 495.791C65.216 495.017 65.4912 494.223 65.7333 493.453ZM60.2098 502.423C61.3748 500.535 62.5309 498.654 63.6898 496.772C63.4083 497.642 63.1201 498.517 62.8305 499.393C61.7166 501.263 60.636 503.105 59.5179 504.979C59.7647 504.115 59.9714 503.28 60.2098 502.423ZM54.56 511.425C55.8852 509.336 57.2216 507.239 58.5002 505.189C58.2259 506.151 57.9116 507.142 57.6266 508.11C56.4161 510.109 55.1476 512.154 53.8908 514.191C54.1188 513.266 54.3407 512.344 54.56 511.425ZM48.7422 520.628C50.1903 518.359 51.5766 516.14 53.0012 513.89C52.7655 514.854 52.5504 515.803 52.3047 516.774C50.9121 519.036 49.5464 521.276 48.1466 523.543C48.3433 522.573 48.5552 521.592 48.7422 520.628ZM42.6936 529.969C44.2559 527.566 45.8225 525.16 47.3409 522.795C47.1364 523.82 46.9076 524.861 46.6923 525.893C45.2642 528.178 43.7609 530.526 42.273 532.86C42.4216 531.891 42.5534 530.932 42.6936 529.969ZM36.4962 539.48C38.1707 536.933 39.8032 534.42 41.4397 531.904C41.2915 532.891 41.1628 533.866 41.0034 534.86C39.3978 537.389 37.8158 539.899 36.1981 542.437C36.2976 541.452 36.4083 540.459 36.4962 539.48ZM30.077 549.165C31.8536 546.496 33.6221 543.834 35.3574 541.199C35.2581 542.222 35.1363 543.257 35.0256 544.286C33.3881 546.831 31.6701 549.443 29.9652 552.044C30.0065 551.082 30.0466 550.121 30.077 549.165ZM23.4781 559.012C25.3521 556.235 27.2129 553.47 29.036 550.736C28.9993 551.703 28.9692 552.667 28.9229 553.639C27.1324 556.377 25.3699 559.09 23.5651 561.84C23.5452 560.893 23.5088 559.953 23.4781 559.012ZM-196.079 131.695C-195.289 131.819 -194.501 131.944 -193.705 132.065C-193.482 132.925 -193.251 133.783 -193.02 134.64C-193.775 134.486 -194.531 134.333 -195.279 134.174C-195.548 133.349 -195.815 132.523 -196.079 131.695ZM-199.487 131.145C-198.725 131.273 -197.958 131.396 -197.19 131.519C-196.938 132.323 -196.676 133.123 -196.416 133.924C-197.145 133.765 -197.874 133.605 -198.599 133.442C-198.898 132.678 -199.197 131.914 -199.487 131.145ZM-202.843 130.569C-202.114 130.699 -201.375 130.821 -200.639 130.947C-200.359 131.695 -200.068 132.436 -199.777 133.179C-200.483 133.017 -201.181 132.849 -201.882 132.683C-202.205 131.98 -202.529 131.277 -202.843 130.569ZM-206.142 129.957C-205.441 130.09 -204.738 130.222 -204.03 130.351C-203.73 131.033 -203.425 131.714 -203.116 132.392C-203.793 132.228 -204.462 132.061 -205.131 131.893C-205.474 131.251 -205.807 130.603 -206.142 129.957ZM-209.396 129.319C-208.725 129.455 -208.059 129.594 -207.381 129.726C-207.065 130.338 -206.755 130.953 -206.435 131.563C-207.066 131.402 -207.699 131.243 -208.324 131.078C-208.684 130.493 -209.042 129.908 -209.396 129.319ZM-212.584 128.659C-211.963 128.792 -211.338 128.922 -210.713 129.052C-210.382 129.606 -210.043 130.154 -209.706 130.703C-210.297 130.544 -210.891 130.388 -211.476 130.224C-211.849 129.705 -212.22 129.184 -212.584 128.659ZM-215.683 127.977C-215.118 128.106 -214.544 128.227 -213.975 128.353C-213.645 128.835 -213.316 129.319 -212.979 129.797C-213.523 129.642 -214.062 129.485 -214.601 129.326C-214.966 128.879 -215.323 128.427 -215.683 127.977ZM-218.744 127.253C-218.232 127.377 -217.72 127.499 -217.205 127.62C-216.879 128.033 -216.546 128.442 -216.217 128.852C-216.701 128.706 -217.175 128.552 -217.655 128.403C-218.019 128.02 -218.386 127.64 -218.744 127.253ZM-221.65 126.528C-221.224 126.638 -220.805 126.752 -220.375 126.859C-220.083 127.181 -219.797 127.507 -219.502 127.826C-219.898 127.699 -220.289 127.569 -220.684 127.441C-221.01 127.139 -221.328 126.832 -221.65 126.528ZM-224.453 125.796C-224.144 125.881 -223.828 125.961 -223.516 126.044C-223.274 126.276 -223.025 126.505 -222.783 126.737C-223.062 126.641 -223.347 126.55 -223.626 126.454C-223.9 126.233 -224.182 126.018 -224.453 125.796ZM-227.025 125.073L-226.591 125.195L-226.191 125.533L-226.564 125.399C-226.718 125.291 -226.871 125.181 -227.025 125.073ZM83.5561 461.524C84.0904 460.639 84.6389 459.744 85.1575 458.872C85.0057 459.219 84.8396 459.579 84.688 459.927C84.1791 460.816 83.6404 461.731 83.1161 462.633L83.5561 461.524ZM78.4129 470.045L80.7721 466.138C80.544 466.701 80.3382 467.245 80.1069 467.81C79.2998 469.198 78.503 470.576 77.6904 471.968C77.9263 471.331 78.1814 470.679 78.4129 470.045ZM73.0486 478.785C74.0094 477.24 74.9824 475.685 75.9129 474.165C75.6295 474.921 75.3488 475.675 75.0596 476.436C74.1571 477.958 73.2199 479.511 72.293 481.054C72.5534 480.292 72.7964 479.542 73.0486 478.785ZM67.4219 487.86C68.6135 485.952 69.7626 484.081 70.9422 482.184C70.6313 483.089 70.292 484.016 69.974 484.927C68.864 486.769 67.7837 488.587 66.6507 490.448C66.917 489.578 67.1624 488.724 67.4219 487.86ZM61.7214 496.845C63.0248 494.801 64.3338 492.753 65.6043 490.737C65.3167 491.67 65.0486 492.59 64.7527 493.53C63.5008 495.576 62.2223 497.643 60.9452 499.709C61.2029 498.755 61.4741 497.792 61.7214 496.845ZM55.782 506.143C57.2281 503.9 58.6315 501.693 60.0497 499.474C59.7796 500.478 59.5137 501.478 59.2322 502.49C57.8879 504.652 56.5219 506.832 55.1387 509.027C55.3612 508.06 55.5698 507.103 55.782 506.143ZM49.6554 515.555C51.2282 513.147 52.7945 510.744 54.3361 508.363C54.1023 509.393 53.8276 510.452 53.581 511.49C52.1006 513.837 50.6153 516.188 49.1161 518.551C49.3031 517.548 49.48 516.551 49.6554 515.555ZM43.3748 525.1C45.0423 522.586 46.6938 520.087 48.3179 517.609C48.1294 518.638 47.9638 519.652 47.7637 520.689C46.206 523.124 44.5794 525.616 42.9654 528.098C43.1042 527.097 43.2467 526.093 43.3748 525.1ZM36.8626 534.886C38.6486 532.214 40.4055 529.566 42.166 526.916C42.0289 527.946 41.8625 528.994 41.712 530.031C40.0171 532.643 38.3533 535.228 36.6252 537.867C36.711 536.87 36.7887 535.877 36.8626 534.886ZM30.1802 544.765C32.0548 542.014 33.9359 539.257 35.7518 536.556C35.6706 537.552 35.6044 538.54 35.5135 539.543C33.7546 542.217 31.9453 544.935 30.1354 547.654C30.1619 546.685 30.1645 545.729 30.1802 544.765ZM23.316 554.853C25.3006 551.957 27.2197 549.115 29.1769 546.243C29.1569 547.232 29.1262 548.228 29.095 549.224C27.2267 552.027 25.3465 554.84 23.4356 557.679C23.4012 556.735 23.361 555.793 23.316 554.853ZM-197.082 128.431C-196.244 128.522 -195.4 128.607 -194.555 128.693C-194.335 129.578 -194.122 130.465 -193.897 131.347C-194.707 131.223 -195.509 131.095 -196.313 130.966C-196.576 130.124 -196.828 129.277 -197.082 128.431ZM-200.628 128.03C-199.812 128.126 -198.992 128.217 -198.171 128.308C-197.922 129.136 -197.679 129.967 -197.424 130.791C-198.212 130.663 -198.99 130.528 -199.771 130.396C-200.062 129.61 -200.343 128.82 -200.628 128.03ZM-204.131 127.596C-203.338 127.698 -202.545 127.801 -201.745 127.898C-201.471 128.667 -201.191 129.434 -200.911 130.201C-201.668 130.069 -202.425 129.936 -203.177 129.8C-203.497 129.067 -203.819 128.334 -204.131 127.596ZM-207.577 127.137C-206.816 127.243 -206.055 127.349 -205.287 127.45C-204.987 128.163 -204.676 128.871 -204.365 129.578C-205.093 129.443 -205.824 129.311 -206.546 129.172C-206.893 128.496 -207.239 127.819 -207.577 127.137ZM-210.959 126.653C-210.234 126.762 -209.501 126.865 -208.769 126.969C-208.448 127.622 -208.125 128.274 -207.794 128.922C-208.498 128.783 -209.199 128.641 -209.897 128.497C-210.258 127.886 -210.606 127.268 -210.959 126.653ZM-214.301 126.131C-213.611 126.243 -212.911 126.349 -212.214 126.457C-211.877 127.05 -211.538 127.642 -211.194 128.232C-211.859 128.092 -212.51 127.942 -213.169 127.798C-213.548 127.243 -213.931 126.691 -214.301 126.131ZM-217.559 125.578C-216.913 125.691 -216.271 125.804 -215.622 125.913C-215.274 126.443 -214.916 126.968 -214.56 127.492C-215.182 127.352 -215.799 127.207 -216.416 127.063C-216.803 126.571 -217.18 126.074 -217.559 125.578ZM-220.761 124.998C-220.161 125.112 -219.566 125.227 -218.96 125.336C-218.617 125.792 -218.276 126.249 -217.927 126.702C-218.483 126.568 -219.044 126.437 -219.596 126.3C-219.984 125.866 -220.378 125.436 -220.761 124.998ZM-223.853 124.404C-223.336 124.508 -222.81 124.606 -222.29 124.707C-221.952 125.098 -221.606 125.483 -221.26 125.869C-221.761 125.74 -222.263 125.613 -222.759 125.481C-223.129 125.125 -223.49 124.763 -223.853 124.404ZM-226.864 123.771C-226.423 123.867 -225.976 123.958 -225.532 124.051C-225.224 124.36 -224.917 124.67 -224.607 124.977C-225.022 124.863 -225.435 124.746 -225.847 124.63C-226.186 124.343 -226.529 124.059 -226.864 123.771ZM-229.721 123.129C-229.396 123.205 -229.072 123.281 -228.746 123.354C-228.495 123.574 -228.246 123.795 -227.994 124.013C-228.305 123.92 -228.612 123.823 -228.923 123.729C-229.194 123.533 -229.454 123.328 -229.721 123.129ZM-232.364 122.507C-232.2 122.548 -232.042 122.591 -231.877 122.631C-231.734 122.74 -231.587 122.848 -231.443 122.957C-231.586 122.911 -231.725 122.862 -231.869 122.816C-232.033 122.713 -232.201 122.611 -232.364 122.507ZM91.3459 446.442C91.8506 445.609 92.3685 444.765 92.8658 443.939C92.7331 444.236 92.6161 444.519 92.4835 444.817C91.9691 445.705 91.4243 446.62 90.8962 447.52C91.0435 447.162 91.2003 446.798 91.3459 446.442ZM86.0895 455.101C86.8413 453.873 87.5582 452.675 88.3041 451.453C88.0687 452.013 87.8436 452.566 87.6057 453.128C86.8627 454.389 86.1421 455.63 85.3942 456.896C85.6231 456.3 85.8627 455.695 86.0895 455.101ZM80.5673 463.995C81.5413 462.435 82.5244 460.866 83.4797 459.321C83.1788 460.092 82.8611 460.876 82.5538 461.652C81.6528 463.156 80.7209 464.687 79.8032 466.206C80.0682 465.461 80.3082 464.736 80.5673 463.995ZM74.8985 473.051C76.0934 471.164 77.2481 469.31 78.4194 467.443C78.0998 468.333 77.7547 469.244 77.4264 470.141C76.3098 471.976 75.1998 473.805 74.0559 475.663C74.341 474.789 74.6235 473.918 74.8985 473.051ZM69.151 482.056C70.4256 480.062 71.703 478.066 72.9612 476.087C72.6559 477.023 72.3731 477.941 72.0578 478.884C70.8092 480.904 69.5455 482.937 68.2825 484.969C68.5644 484.004 68.8798 483.014 69.151 482.056ZM63.0754 491.467C64.5178 489.255 65.9484 487.053 67.3519 484.874C67.056 485.891 66.744 486.92 66.4364 487.945C65.1162 490.049 63.7512 492.191 62.3872 494.332C62.6332 493.365 62.8405 492.426 63.0754 491.467ZM56.8789 500.955C58.4497 498.559 59.9975 496.183 61.5503 493.802C61.2905 494.833 61.0156 495.876 60.7419 496.917C59.2361 499.282 57.7638 501.619 56.2338 504.005C56.453 502.986 56.6717 501.966 56.8789 500.955ZM50.5101 510.54C52.1708 508.059 53.841 505.57 55.451 503.134C55.2344 504.161 55.0269 505.182 54.799 506.217C53.234 508.641 51.6216 511.105 50.0139 513.566C50.1851 512.553 50.3496 511.545 50.5101 510.54ZM43.9222 520.389C45.7294 517.709 47.477 515.079 49.2506 512.427C49.0776 513.479 48.8634 514.558 48.677 515.619C46.9882 518.199 45.3 520.779 43.5734 523.392C43.6955 522.388 43.8119 521.387 43.9222 520.389ZM37.1687 530.311C39.0448 527.566 40.9138 524.826 42.7448 522.119C42.6273 523.135 42.5214 524.144 42.3906 525.169C40.6083 527.858 38.8089 530.561 36.9904 533.281C37.0595 532.286 37.1115 531.3 37.1687 530.311ZM30.2345 540.414C32.2166 537.546 34.1694 534.702 36.1062 531.873C36.0413 532.892 35.9559 533.924 35.8789 534.95C34.0182 537.724 32.1134 540.535 30.1974 543.355C30.2079 542.375 30.2351 541.387 30.2345 540.414ZM23.0865 550.716C25.1598 547.743 27.196 544.801 29.2313 541.86C29.2264 542.846 29.2098 543.839 29.1934 544.831C27.211 547.749 25.2602 550.639 23.2457 553.584C23.1958 552.627 23.1471 551.669 23.0865 550.716ZM-198.056 125.137C-197.165 125.193 -196.272 125.247 -195.375 125.297C-195.163 126.205 -194.943 127.109 -194.723 128.012C-195.581 127.922 -196.439 127.831 -197.292 127.736C-197.552 126.872 -197.807 126.006 -198.056 125.137ZM-201.732 124.885C-200.861 124.948 -199.995 125.015 -199.118 125.073C-198.876 125.922 -198.63 126.769 -198.378 127.613C-199.214 127.519 -200.054 127.427 -200.882 127.326C-201.17 126.515 -201.453 125.701 -201.732 124.885ZM-205.362 124.606C-204.518 124.676 -203.673 124.743 -202.821 124.807C-202.551 125.601 -202.281 126.395 -202.003 127.185C-202.818 127.084 -203.632 126.984 -204.439 126.878C-204.753 126.125 -205.055 125.364 -205.362 124.606ZM-208.95 124.3C-208.135 124.375 -207.307 124.442 -206.484 124.512C-206.188 125.252 -205.889 125.991 -205.586 126.728C-206.374 126.622 -207.154 126.509 -207.934 126.398C-208.277 125.701 -208.618 125.003 -208.95 124.3ZM-212.476 123.955C-211.693 124.034 -210.905 124.111 -210.115 124.186C-209.794 124.873 -209.459 125.551 -209.126 126.231C-209.889 126.12 -210.644 126.002 -211.399 125.886C-211.764 125.245 -212.121 124.601 -212.476 123.955ZM-215.948 123.577C-215.19 123.663 -214.438 123.752 -213.673 123.833C-213.336 124.454 -213 125.075 -212.654 125.69C-213.378 125.576 -214.101 125.462 -214.817 125.343C-215.198 124.757 -215.574 124.167 -215.948 123.577ZM-219.362 123.169C-218.646 123.259 -217.93 123.349 -217.207 123.434C-216.854 123.998 -216.492 124.557 -216.131 125.116C-216.813 125 -217.499 124.885 -218.175 124.764C-218.575 124.235 -218.973 123.704 -219.362 123.169ZM-222.693 122.738C-222.029 122.829 -221.355 122.912 -220.686 122.999C-220.324 123.501 -219.963 124.003 -219.593 124.501C-220.237 124.381 -220.876 124.259 -221.515 124.135C-221.912 123.672 -222.301 123.205 -222.693 122.738ZM-225.973 122.26C-225.361 122.352 -224.743 122.44 -224.125 122.528C-223.761 122.97 -223.387 123.406 -223.016 123.845C-223.609 123.725 -224.192 123.598 -224.779 123.475C-225.18 123.072 -225.58 122.668 -225.973 122.26ZM-229.144 121.756C-228.594 121.846 -228.049 121.939 -227.494 122.027C-227.149 122.392 -226.809 122.762 -226.458 123.123C-226.977 123.01 -227.49 122.893 -228.005 122.777C-228.388 122.439 -228.766 122.098 -229.144 121.756ZM-232.215 121.231C-231.756 121.313 -231.3 121.397 -230.839 121.477C-230.521 121.771 -230.192 122.057 -229.868 122.347C-230.298 122.247 -230.734 122.151 -231.16 122.048C-231.514 121.777 -231.866 121.506 -232.215 121.231ZM-235.119 120.695C-234.785 120.761 -234.441 120.82 -234.105 120.883C-233.85 121.087 -233.598 121.292 -233.341 121.494C-233.654 121.415 -233.97 121.338 -234.279 121.257C-234.561 121.07 -234.841 120.884 -235.119 120.695ZM-237.858 120.14L-237.353 120.243C-237.214 120.341 -237.078 120.441 -236.937 120.538L-237.401 120.409C-237.556 120.321 -237.703 120.228 -237.858 120.14ZM99.3885 431.143C99.8034 430.458 100.23 429.764 100.646 429.078C100.52 429.355 100.4 429.626 100.272 429.903C99.8463 430.631 99.4008 431.377 98.9685 432.109C99.1041 431.792 99.2545 431.46 99.3885 431.143ZM93.8722 440.148C94.6159 438.953 95.3397 437.776 96.0663 436.595C95.8313 437.137 95.5918 437.683 95.3539 438.227C94.6311 439.444 93.949 440.624 93.2136 441.851C93.4428 441.276 93.647 440.721 93.8722 440.148ZM88.3168 449.037C89.3109 447.443 90.3163 445.841 91.3092 444.249C90.9979 445.02 90.6464 445.824 90.3289 446.6C89.3964 448.143 88.4427 449.702 87.5038 451.25C87.7794 450.509 88.0466 449.774 88.3168 449.037ZM82.6375 458.011C83.7682 456.246 84.9029 454.479 85.9994 452.744C85.6854 453.58 85.4057 454.39 85.0849 455.231C83.9846 457.023 82.8551 458.839 81.7206 460.66C82.0217 459.781 82.3437 458.884 82.6375 458.011ZM76.7191 467.257C78.0136 465.244 79.2789 463.257 80.5609 461.255C80.2359 462.201 79.9108 463.147 79.5756 464.1C78.3395 466.083 77.12 468.051 75.869 470.046C76.1604 469.11 76.4376 468.185 76.7191 467.257ZM70.6086 476.625C72.0532 474.424 73.505 472.217 74.9105 470.051C74.5937 471.071 74.2379 472.121 73.9106 473.149C72.5781 475.254 71.2008 477.397 69.8307 479.535C70.1012 478.556 70.3499 477.595 70.6086 476.625ZM64.3551 486.144C65.9213 483.779 67.443 481.453 68.9796 479.113C68.7005 480.128 68.456 481.119 68.1659 482.142C66.6578 484.492 65.158 486.834 63.6172 489.212C63.8604 488.191 64.1227 487.157 64.3551 486.144ZM57.884 495.826C59.5522 493.338 61.2158 490.854 62.8508 488.394C62.6052 489.44 62.3517 490.49 62.0928 491.545C60.5206 493.963 58.9275 496.398 57.3254 498.842C57.5263 497.826 57.6949 496.833 57.884 495.826ZM51.2393 505.669C53.0314 503.034 54.8076 500.413 56.5529 497.817C56.3477 498.879 56.1157 499.959 55.8961 501.029C54.221 503.571 52.5048 506.148 50.7802 508.733C50.9384 507.709 51.0945 506.685 51.2393 505.669ZM44.4088 515.693C46.2899 512.944 48.1399 510.222 49.9942 507.497C49.84 508.534 49.6947 509.565 49.5274 510.61C47.7246 513.312 45.95 515.99 44.1179 518.716C44.2251 517.702 44.3142 516.699 44.4088 515.693ZM37.3993 525.819C39.3773 522.98 41.3669 520.129 43.2848 517.341C43.1831 518.372 43.054 519.419 42.9386 520.458C41.0785 523.213 39.1601 526.018 37.2449 528.819C37.2977 527.819 37.3592 526.813 37.3993 525.819ZM30.1795 536.19C32.2624 533.217 34.2892 530.292 36.3379 527.349C36.2906 528.356 36.2402 529.366 36.1815 530.38C34.2062 533.269 32.2365 536.155 30.2204 539.079C30.2149 538.112 30.1955 537.152 30.1795 536.19ZM22.7883 546.651C24.9508 543.602 27.1013 540.565 29.2095 537.563C29.2201 538.536 29.2471 539.501 29.2489 540.479C27.1935 543.455 25.1151 546.449 23.0127 549.465C22.9487 548.522 22.8623 547.589 22.7883 546.651ZM-198.982 121.814C-198.039 121.835 -197.1 121.856 -196.151 121.872C-195.948 122.797 -195.738 123.718 -195.524 124.639C-196.434 124.586 -197.342 124.534 -198.241 124.475C-198.491 123.59 -198.741 122.705 -198.982 121.814ZM-202.797 121.717C-201.88 121.745 -200.956 121.769 -200.032 121.791C-199.796 122.665 -199.551 123.534 -199.304 124.402C-200.193 124.342 -201.076 124.277 -201.959 124.212C-202.242 123.383 -202.526 122.553 -202.797 121.717ZM-206.552 121.592C-205.663 121.627 -204.76 121.652 -203.864 121.682C-203.599 122.503 -203.325 123.319 -203.049 124.134C-203.92 124.067 -204.778 123.992 -205.641 123.919C-205.95 123.147 -206.253 122.37 -206.552 121.592ZM-210.268 121.425C-209.397 121.467 -208.523 121.507 -207.646 121.544C-207.356 122.306 -207.065 123.068 -206.764 123.824C-207.607 123.751 -208.446 123.675 -209.283 123.596C-209.616 122.875 -209.942 122.15 -210.268 121.425ZM-213.946 121.226C-213.094 121.275 -212.249 121.329 -211.391 121.373C-211.076 122.079 -210.755 122.781 -210.435 123.483C-211.244 123.404 -212.058 123.328 -212.86 123.243C-213.226 122.573 -213.593 121.903 -213.946 121.226ZM-217.539 120.999C-216.73 121.055 -215.916 121.108 -215.1 121.158C-214.762 121.812 -214.414 122.461 -214.065 123.108C-214.853 123.022 -215.637 122.934 -216.418 122.843C-216.798 122.232 -217.167 121.615 -217.539 120.999ZM-221.092 120.741C-220.318 120.803 -219.528 120.855 -218.746 120.912C-218.389 121.507 -218.036 122.104 -217.673 122.695C-218.423 122.604 -219.162 122.505 -219.904 122.409C-220.302 121.854 -220.704 121.302 -221.092 120.741ZM-224.57 120.436C-223.839 120.503 -223.103 120.567 -222.363 120.63C-221.991 121.17 -221.608 121.705 -221.226 122.239C-221.944 122.142 -222.656 122.039 -223.367 121.937C-223.776 121.441 -224.172 120.938 -224.57 120.436ZM-228.003 120.097C-227.303 120.17 -226.609 120.248 -225.902 120.316C-225.531 120.789 -225.16 121.263 -224.782 121.731C-225.438 121.634 -226.096 121.537 -226.747 121.435C-227.167 120.991 -227.592 120.548 -228.003 120.097ZM-231.319 119.734C-230.688 119.808 -230.057 119.88 -229.421 119.949C-229.048 120.364 -228.669 120.774 -228.286 121.183C-228.897 121.083 -229.512 120.987 -230.118 120.883C-230.525 120.504 -230.917 120.116 -231.319 119.734ZM-234.577 119.337C-234.013 119.41 -233.438 119.474 -232.87 119.545C-232.511 119.893 -232.147 120.238 -231.784 120.583C-232.321 120.486 -232.858 120.388 -233.391 120.288C-233.787 119.971 -234.189 119.658 -234.577 119.337ZM-237.692 118.9C-237.22 118.968 -236.746 119.035 -236.269 119.1C-235.944 119.375 -235.627 119.653 -235.298 119.924C-235.753 119.834 -236.2 119.739 -236.651 119.646C-237.002 119.4 -237.347 119.149 -237.692 118.9ZM-240.702 118.443C-240.341 118.5 -239.986 118.561 -239.623 118.618C-239.353 118.816 -239.076 119.007 -238.804 119.203C-239.151 119.128 -239.488 119.046 -239.831 118.969C-240.121 118.793 -240.415 118.62 -240.702 118.443ZM-243.398 118.005C-243.229 118.035 -243.055 118.06 -242.886 118.089L-242.446 118.37C-242.597 118.333 -242.754 118.3 -242.904 118.264L-243.398 118.005ZM107.39 416.094L108.662 414.012L108.326 414.726C107.915 415.423 107.492 416.129 107.08 416.826C107.188 416.578 107.283 416.34 107.39 416.094ZM101.902 424.948C102.646 423.763 103.4 422.567 104.126 421.397C103.876 421.962 103.601 422.547 103.348 423.114C102.65 424.277 101.937 425.453 101.218 426.632C101.452 426.067 101.673 425.51 101.902 424.948ZM96.2862 433.916C97.273 432.354 98.2148 430.832 99.1899 429.28C98.9038 429.968 98.6524 430.626 98.3613 431.317C97.3842 432.919 96.4182 434.512 95.4333 436.12C95.7159 435.387 96.0089 434.645 96.2862 433.916ZM90.5854 442.823C91.6795 441.119 92.7836 439.406 93.859 437.719C93.5243 438.578 93.2026 439.428 92.8608 440.293C91.8061 441.995 90.7132 443.73 89.6325 445.455C89.9442 444.582 90.2817 443.689 90.5854 442.823ZM84.5131 452.243C85.8226 450.232 87.1011 448.248 88.3816 446.262C88.0395 447.216 87.672 448.19 87.319 449.153C86.0995 451.093 84.8972 453.019 83.6528 454.98C83.9538 454.056 84.2189 453.161 84.5131 452.243ZM78.3574 461.637C79.8017 459.439 81.2437 457.241 82.6674 455.06C82.3372 456.068 81.9909 457.089 81.6494 458.106C80.2797 460.256 78.8867 462.425 77.4949 464.593C77.7873 463.604 78.0755 462.618 78.3574 461.637ZM72.0763 471.108C73.6069 468.82 75.137 466.533 76.6233 464.283C76.3224 465.309 76.0409 466.319 75.7277 467.353C74.2633 469.619 72.7589 471.92 71.2495 474.225C71.5176 473.191 71.8191 472.133 72.0763 471.108ZM65.4778 480.972C67.1709 478.457 68.8144 475.985 70.4812 473.492C70.2079 474.555 69.9079 475.637 69.6217 476.71C68.0282 479.142 66.4628 481.551 64.8446 484.004C65.0718 482.982 65.2629 481.986 65.4778 480.972ZM58.7939 490.787C60.5696 488.191 62.3509 485.591 64.0782 483.037C63.8479 484.094 63.619 485.149 63.3749 486.215C61.6937 488.751 59.9595 491.333 58.2294 493.91C58.4185 492.868 58.6182 491.819 58.7939 490.787ZM51.8838 500.871C53.7732 498.132 55.6235 495.428 57.4738 492.724C57.2862 493.779 57.0994 494.835 56.8993 495.9C55.117 498.556 53.3283 501.216 51.5045 503.908C51.6441 502.887 51.7561 501.884 51.8838 500.871ZM44.8118 511.055C46.795 508.21 48.7623 505.378 50.7056 502.568C50.568 503.616 50.4097 504.677 50.259 505.734C48.3725 508.512 46.4691 511.303 44.5463 514.112C44.6365 513.092 44.7342 512.068 44.8118 511.055ZM37.5312 521.431C39.6041 518.493 41.6703 515.561 43.6906 512.669C43.6068 513.697 43.5196 514.725 43.4227 515.761C41.4721 518.599 39.469 521.485 37.4638 524.372C37.4989 523.384 37.5058 522.413 37.5312 521.431ZM30.0863 531.969C32.2569 528.913 34.3746 525.902 36.5102 522.877C36.4804 523.878 36.4548 524.876 36.412 525.885C34.3311 528.882 32.281 531.852 30.1605 534.882C30.1406 533.909 30.117 532.936 30.0863 531.969ZM22.4505 542.614C24.7019 539.489 26.961 536.357 29.1456 533.291C29.1726 534.273 29.1729 535.268 29.19 536.255C27.0649 539.284 24.8796 542.365 22.6926 545.449C22.6141 544.503 22.5379 543.555 22.4505 542.614ZM-199.853 118.467C-198.869 118.45 -197.876 118.429 -196.884 118.407C-196.689 119.349 -196.498 120.295 -196.296 121.234C-197.257 121.218 -198.207 121.194 -199.161 121.172C-199.398 120.274 -199.623 119.369 -199.853 118.467ZM-203.799 118.52C-202.835 118.511 -201.861 118.495 -200.888 118.481C-200.661 119.37 -200.438 120.262 -200.204 121.149C-201.142 121.125 -202.072 121.095 -203.001 121.065C-203.271 120.219 -203.538 119.371 -203.799 118.52ZM-207.703 118.534C-206.756 118.534 -205.807 118.533 -204.852 118.526C-204.597 119.364 -204.333 120.197 -204.067 121.03C-204.982 120.999 -205.896 120.967 -206.802 120.93C-207.107 120.134 -207.41 119.337 -207.703 118.534ZM-211.54 118.519C-210.618 118.526 -209.699 118.535 -208.771 118.538C-208.486 119.323 -208.192 120.102 -207.897 120.881C-208.79 120.842 -209.685 120.805 -210.569 120.76C-210.899 120.017 -211.219 119.268 -211.54 118.519ZM-215.339 118.472C-214.442 118.488 -213.54 118.499 -212.634 118.508C-212.324 119.239 -212.017 119.972 -211.697 120.698C-212.565 120.651 -213.429 120.6 -214.289 120.548C-214.643 119.858 -214.995 119.167 -215.339 118.472ZM-219.075 118.392C-218.213 118.415 -217.34 118.43 -216.47 118.448C-216.134 119.129 -215.789 119.805 -215.442 120.48C-216.288 120.426 -217.12 120.362 -217.957 120.302C-218.335 119.669 -218.708 119.032 -219.075 118.392ZM-222.757 118.266C-221.921 118.298 -221.081 118.328 -220.237 118.354C-219.883 118.977 -219.529 119.599 -219.165 120.215C-219.974 120.154 -220.781 120.09 -221.584 120.023C-221.98 119.44 -222.369 118.854 -222.757 118.266ZM-226.383 118.106C-225.579 118.146 -224.782 118.189 -223.97 118.223C-223.6 118.79 -223.22 119.351 -222.842 119.912C-223.61 119.845 -224.386 119.782 -225.147 119.709C-225.564 119.178 -225.977 118.644 -226.383 118.106ZM-229.934 117.916C-229.176 117.961 -228.412 118.003 -227.648 118.044C-227.267 118.554 -226.885 119.065 -226.494 119.569C-227.225 119.495 -227.954 119.421 -228.677 119.343C-229.098 118.868 -229.519 118.394 -229.934 117.916ZM-233.41 117.688C-232.71 117.739 -231.997 117.781 -231.289 117.827C-230.898 118.285 -230.495 118.735 -230.093 119.186C-230.785 119.107 -231.467 119.02 -232.152 118.936C-232.577 118.523 -232.994 118.106 -233.41 117.688ZM-236.82 117.411C-236.165 117.468 -235.509 117.522 -234.847 117.574C-234.464 117.965 -234.089 118.361 -233.699 118.747C-234.326 118.667 -234.942 118.577 -235.562 118.492C-235.983 118.132 -236.406 117.775 -236.82 117.411ZM-240.12 117.105C-239.538 117.163 -238.964 117.227 -238.377 117.281C-238.01 117.609 -237.633 117.931 -237.256 118.253C-237.82 118.171 -238.385 118.09 -238.944 118.004C-239.343 117.709 -239.727 117.404 -240.12 117.105ZM-243.322 116.772C-242.829 116.827 -242.331 116.88 -241.833 116.933C-241.503 117.189 -241.171 117.444 -240.839 117.699C-241.298 117.624 -241.763 117.554 -242.218 117.476C-242.585 117.24 -242.96 117.01 -243.322 116.772ZM-246.327 116.409C-245.97 116.454 -245.608 116.496 -245.249 116.539C-244.99 116.715 -244.739 116.896 -244.476 117.069C-244.815 117.008 -245.153 116.947 -245.488 116.884C-245.771 116.728 -246.047 116.567 -246.327 116.409ZM-249.195 116.019L-248.622 116.1C-248.474 116.187 -248.32 116.27 -248.17 116.356L-248.702 116.246C-248.864 116.169 -249.032 116.096 -249.195 116.019ZM115.576 400.923C116.056 400.152 116.502 399.41 116.974 398.646L116.749 399.115L115.306 401.54L115.576 400.923ZM110.143 409.593C110.883 408.408 111.638 407.211 112.378 406.027C112.144 406.543 111.924 407.048 111.686 407.566C110.957 408.771 110.197 410.003 109.453 411.22C109.682 410.679 109.918 410.131 110.143 409.593ZM104.53 418.473C105.432 417.067 106.327 415.666 107.204 414.282C106.915 414.959 106.643 415.62 106.349 416.3C105.425 417.802 104.53 419.279 103.588 420.796C103.892 420.03 104.232 419.234 104.53 418.473ZM98.5994 427.719C99.7159 425.983 100.827 424.25 101.936 422.517C101.591 423.378 101.235 424.247 100.881 425.114C99.8449 426.774 98.7884 428.451 97.7464 430.117C98.0473 429.304 98.3041 428.527 98.5994 427.719ZM92.5301 437.038C93.8375 435.048 95.1568 433.05 96.4251 431.095C96.0631 432.065 95.6506 433.076 95.2791 434.054C94.0793 435.948 92.8389 437.877 91.6003 439.805C91.9187 438.875 92.2211 437.959 92.5301 437.038ZM86.3184 446.503C87.7587 444.326 89.1454 442.196 90.5626 440.04C90.2268 441.016 89.9305 441.962 89.5851 442.946C88.1781 445.138 86.801 447.304 85.3718 449.514C85.6846 448.513 86.0165 447.496 86.3184 446.503ZM79.9273 456.059C81.4658 453.766 83.0052 451.471 84.5102 449.207C84.1852 450.25 83.8585 451.294 83.5223 452.346C82.0737 454.571 80.5848 456.833 79.1004 459.09C79.3852 458.073 79.6545 457.067 79.9273 456.059ZM73.3033 465.886C74.9992 463.389 76.6708 460.914 78.3261 458.453C78.0271 459.53 77.6796 460.645 77.3684 461.732C75.7877 464.13 74.197 466.537 72.5784 468.969C72.832 467.932 73.0625 466.913 73.3033 465.886ZM66.5651 475.768C68.3321 473.184 70.0838 470.614 71.8255 468.052C71.5718 469.107 71.3514 470.136 71.0857 471.2C69.3701 473.771 67.6429 476.352 65.9008 478.947C66.1189 477.89 66.3605 476.816 66.5651 475.768ZM59.5787 485.881C61.4573 483.179 63.3455 480.468 65.1705 477.814C64.9543 478.886 64.723 479.968 64.4936 481.049C62.742 483.644 60.9286 486.293 59.1233 488.935C59.2924 487.905 59.4218 486.903 59.5787 485.881ZM52.447 496.139C54.4416 493.289 56.3772 490.49 58.3349 487.671C58.1662 488.73 57.9917 489.793 57.809 490.861C55.9043 493.651 54.0198 496.423 52.0776 499.245C52.2014 498.21 52.3365 497.167 52.447 496.139ZM45.1116 506.527C47.1828 503.604 49.2544 500.681 51.273 497.803C51.1534 498.846 51.0309 499.891 50.8985 500.942C48.9455 503.772 46.9452 506.643 44.9422 509.516C45.0147 508.51 45.0517 507.526 45.1116 506.527ZM37.6256 517.059C39.7876 514.034 41.927 511.029 44.0402 508.046C43.974 509.068 43.9046 510.094 43.8251 511.124C41.7641 514.079 39.6741 517.058 37.5623 520.056C37.5817 519.059 37.6182 518.05 37.6256 517.059ZM29.9156 527.803C32.1698 524.674 34.3995 521.566 36.6097 518.475C36.5976 519.478 36.5657 520.492 36.5404 521.502C34.3875 524.556 32.2268 527.618 30.0344 530.707C29.9979 529.738 29.9622 528.768 29.9156 527.803ZM22.0388 538.656C24.3704 535.46 26.7087 532.256 28.9753 529.115C29.0175 530.088 29.0624 531.06 29.0943 532.038C26.8887 535.137 24.6053 538.305 22.3316 541.465C22.238 540.527 22.1413 539.59 22.0388 538.656ZM28.9231 527.877C26.6307 531.058 24.2743 534.292 21.9222 537.526C12.0905 451.09 -38.5505 383.214 -89.1314 315.416C-119.847 274.246 -150.536 233.103 -172.045 187.852C-150.187 225.846 -120.892 260.334 -91.4235 295.021C-33.9401 362.687 24.1823 431.125 28.9231 527.877ZM36.633 517.138C34.4062 520.254 32.1413 523.405 29.8656 526.565C24.7391 430.306 -33.222 362.086 -90.5314 294.625C-121.603 258.05 -152.476 221.695 -174.634 181.218C-152.07 215.487 -122.287 246.182 -92.2128 277.167C-28.0454 343.275 37.4251 410.717 36.633 517.138ZM97.5865 427.87C96.2391 429.954 94.878 432.052 93.4948 434.168C153.702 250.531 28.192 214.81 -89.7316 181.291C-123.733 171.627 -157.092 162.139 -185.166 149.327M-200.69 115.087C-199.661 115.033 -198.624 114.974 -197.586 114.913C-197.401 115.874 -197.207 116.831 -197.012 117.787C-198.016 117.808 -199.018 117.827 -200.013 117.841C-200.244 116.926 -200.47 116.008 -200.69 115.087ZM-204.76 115.283C-203.744 115.237 -202.733 115.193 -201.71 115.141C-201.494 116.048 -201.274 116.953 -201.048 117.856C-202.032 117.869 -203.019 117.884 -203.995 117.891C-204.257 117.025 -204.507 116.153 -204.76 115.283ZM-208.788 115.449C-207.792 115.411 -206.797 115.374 -205.793 115.331C-205.547 116.186 -205.305 117.044 -205.05 117.894C-206.012 117.899 -206.973 117.904 -207.925 117.903C-208.216 117.087 -208.506 116.27 -208.788 115.449ZM-212.763 115.584C-211.795 115.556 -210.819 115.522 -209.842 115.487C-209.565 116.295 -209.28 117.099 -208.994 117.902C-209.939 117.899 -210.873 117.887 -211.811 117.878C-212.133 117.116 -212.453 116.353 -212.763 115.584ZM-216.681 115.682C-215.739 115.664 -214.786 115.636 -213.834 115.611C-213.531 116.367 -213.22 117.119 -212.905 117.868C-213.831 117.856 -214.75 117.838 -215.669 117.82C-216.013 117.112 -216.345 116.396 -216.681 115.682ZM-220.566 115.739C-219.639 115.729 -218.714 115.719 -217.779 115.702C-217.452 116.402 -217.127 117.102 -216.792 117.796C-217.68 117.776 -218.568 117.756 -219.447 117.729C-219.825 117.069 -220.202 116.408 -220.566 115.739ZM-224.362 115.761C-223.471 115.76 -222.585 115.761 -221.687 115.754C-221.336 116.403 -220.974 117.046 -220.612 117.688C-221.477 117.66 -222.346 117.634 -223.203 117.599C-223.596 116.991 -223.978 116.376 -224.362 115.761ZM-228.132 115.75C-227.27 115.757 -226.401 115.76 -225.53 115.762C-225.161 116.357 -224.796 116.954 -224.417 117.543C-225.247 117.506 -226.071 117.465 -226.892 117.422C-227.309 116.866 -227.729 116.313 -228.132 115.75ZM-231.799 115.698C-230.987 115.715 -230.162 115.722 -229.343 115.733C-228.955 116.28 -228.557 116.821 -228.155 117.36C-228.964 117.314 -229.758 117.257 -230.558 117.205C-230.98 116.708 -231.386 116.201 -231.799 115.698ZM-235.439 115.599C-234.654 115.623 -233.871 115.648 -233.079 115.667C-232.685 116.153 -232.288 116.638 -231.886 117.119C-232.638 117.067 -233.385 117.011 -234.13 116.954C-234.569 116.504 -235.009 116.055 -235.439 115.599ZM-238.97 115.464C-238.238 115.496 -237.512 115.533 -236.773 115.56C-236.375 115.988 -235.975 116.414 -235.569 116.836C-236.269 116.777 -236.976 116.724 -237.669 116.661C-238.108 116.266 -238.539 115.865 -238.97 115.464ZM-242.433 115.295C-241.767 115.332 -241.095 115.365 -240.423 115.398C-240.029 115.771 -239.623 116.137 -239.22 116.506C-239.866 116.442 -240.513 116.38 -241.153 116.312C-241.585 115.976 -242.01 115.636 -242.433 115.295ZM-245.793 115.083C-245.201 115.124 -244.596 115.159 -243.999 115.196C-243.625 115.504 -243.26 115.817 -242.88 116.121C-243.451 116.056 -244.013 115.986 -244.579 115.917C-244.984 115.639 -245.393 115.364 -245.793 115.083ZM-249.034 114.828C-248.539 114.869 -248.043 114.912 -247.543 114.95C-247.198 115.199 -246.844 115.442 -246.491 115.685C-246.993 115.619 -247.481 115.544 -247.979 115.475C-248.337 115.264 -248.68 115.042 -249.034 114.828ZM-252.142 114.547C-251.753 114.585 -251.372 114.63 -250.98 114.666C-250.71 114.834 -250.436 114.999 -250.167 115.165C-250.524 115.111 -250.879 115.055 -251.236 115C-251.535 114.847 -251.845 114.701 -252.142 114.547ZM-254.944 114.259C-254.765 114.279 -254.579 114.295 -254.399 114.315C-254.255 114.392 -254.114 114.472 -253.97 114.549C-254.136 114.52 -254.307 114.495 -254.472 114.466L-254.944 114.259ZM14.4438 552.42C14.2931 551.51 14.1502 550.598 13.9913 549.691C16.4253 546.377 18.7763 543.134 21.1569 539.866C21.257 540.806 21.3621 541.745 21.4506 542.69C19.1232 545.927 16.82 549.141 14.4438 552.42ZM15.0494 556.197C14.911 555.289 14.7658 554.383 14.6189 553.477C16.9692 550.237 19.2563 547.052 21.5631 543.85C21.6489 544.803 21.7153 545.765 21.7925 546.722C19.5594 549.868 17.3267 553.013 15.0494 556.197ZM15.6018 560.024C15.4769 559.112 15.3416 558.203 15.2063 557.295C17.4567 554.151 19.6828 551.029 21.8875 547.924C21.9596 548.878 22.032 549.83 22.0935 550.788C19.962 553.839 17.7816 556.932 15.6018 560.024ZM16.1019 563.903C15.9888 562.981 15.8832 562.055 15.7614 561.137C17.9033 558.1 20.0697 555.043 22.1639 552.047C22.2218 553.004 22.2771 553.962 22.324 554.925C20.2944 557.88 18.1822 560.906 16.1019 563.903ZM16.565 567.82C16.4644 566.898 16.3548 565.979 16.245 565.061C18.3061 562.092 20.383 559.111 22.3928 556.185C22.4358 557.145 22.4549 558.115 22.4876 559.078C20.5371 561.973 18.568 564.882 16.565 567.82ZM16.9663 571.749C16.8803 570.842 16.7836 569.939 16.6891 569.035C18.671 566.131 20.5967 563.275 22.5289 560.412C22.5567 561.375 22.5917 562.336 22.6093 563.304C20.7776 566.078 18.8488 568.932 16.9663 571.749ZM17.3103 575.767C17.2368 574.84 17.1707 573.909 17.0879 572.985C18.92 570.247 20.8324 567.444 22.6195 564.744C22.6307 565.692 22.6364 566.642 22.6378 567.593C20.897 570.29 19.1008 573.03 17.3103 575.767ZM17.611 579.816C17.5514 578.893 17.4833 577.973 17.414 577.053C19.1606 574.388 20.9489 571.689 22.6476 569.063C22.6442 570.016 22.6213 570.977 22.6075 571.934C20.9633 574.545 19.3038 577.167 17.611 579.816ZM17.8515 583.919C17.8061 582.998 17.7469 582.082 17.691 581.165C19.3343 578.597 20.9828 576.025 22.5815 573.494C22.5623 574.433 22.556 575.366 22.5282 576.308C20.976 578.839 19.4492 581.351 17.8515 583.919ZM18.0204 588.089C17.9884 587.165 17.9611 586.239 17.9191 585.318C19.4573 582.852 20.965 580.409 22.458 577.978C22.4251 578.919 22.3836 579.863 22.3404 580.809C20.8955 583.24 19.507 585.626 18.0204 588.089ZM18.1386 592.236C18.1208 591.338 18.1013 590.44 18.0742 589.545C19.506 587.178 20.8776 584.86 22.2688 582.525C22.2191 583.465 22.1488 584.415 22.0909 585.359C20.7736 587.651 19.4908 589.917 18.1386 592.236ZM18.2005 596.411C18.1972 595.551 18.1749 594.696 18.1628 593.839C19.4716 591.599 20.6936 589.428 21.9674 587.216C21.904 588.126 21.8547 589.03 21.7832 589.944C20.6007 592.091 19.4158 594.239 18.2005 596.411ZM18.1768 600.67C18.1856 599.822 18.194 598.974 18.1939 598.128C19.3585 596.058 20.4598 594.036 21.5979 591.984C21.5215 592.883 21.4402 593.784 21.3534 594.687C20.3162 596.666 19.2449 598.668 18.1768 600.67ZM18.0978 604.942C18.1201 604.119 18.1487 603.295 18.1633 602.475C19.1795 600.583 20.1629 598.715 21.1559 596.84C21.0652 597.721 20.9499 598.612 20.8514 599.497C19.9623 601.292 19.0162 603.126 18.0978 604.942ZM17.9671 609.208C17.9983 608.444 18.014 607.685 18.0397 606.923C18.8937 605.245 19.7419 603.571 20.5753 601.908C20.4796 602.705 20.3883 603.501 20.2855 604.302C19.5346 605.923 18.7415 607.572 17.9671 609.208ZM17.7415 613.548C17.7823 612.841 17.816 612.135 17.8515 611.429C18.5313 610.005 19.2264 608.57 19.8907 607.156C19.7958 607.839 19.7049 608.52 19.6058 609.205C18.9886 610.65 18.3769 612.091 17.7415 613.548ZM17.4658 617.757C17.5087 617.169 17.558 616.579 17.5968 615.992C18.0862 614.882 18.6037 613.754 19.082 612.652C19.0022 613.168 18.9138 613.688 18.83 614.205C18.374 615.39 17.9347 616.564 17.4658 617.757ZM17.1761 621.609C17.2045 621.295 17.2239 620.983 17.2494 620.67C17.5318 619.964 17.8325 619.246 18.1098 618.543C18.0665 618.787 18.0156 619.033 17.9724 619.277L17.1761 621.609ZM-191.931 117.656C-192.097 116.636 -192.259 115.616 -192.414 114.591C-158.672 112.357 -120.94 107.254 -82.4817 102.048C-7.65329 91.9181 69.9069 81.4191 125.845 91.0932C207.85 105.276 243.47 162.895 156.293 328.636C233.86 171.274 193.496 117.088 110.374 102.961C56.8468 93.8633 -14.367 101.392 -83.236 108.673C-121.327 112.701 -158.694 116.648 -191.931 117.656ZM-191.333 121.295C-191.505 120.29 -191.665 119.28 -191.829 118.271C-158.623 117.234 -121.345 113.297 -83.3454 109.279C-14.5789 102.009 56.5323 94.4907 109.888 103.559C195.417 118.096 235.388 175.337 147.264 344.639C225.807 183.288 180.482 129.55 93.4065 115.029C42.9321 106.612 -21.5355 111.386 -84.0374 116.016C-121.689 118.805 -158.623 121.539 -191.333 121.295ZM-190.677 124.897C-190.862 123.909 -191.044 122.92 -191.218 121.928C-158.556 122.135 -121.731 119.408 -84.1986 116.628C-21.7785 112.005 42.6023 107.236 92.9264 115.629C182.533 130.571 227.663 187.315 138.128 361.039C218.138 194.687 166.801 141.578 75.083 126.598C28.2458 118.949 -29.084 121.252 -84.8258 123.492C-122.029 124.987 -158.513 126.448 -190.677 124.897ZM-189.994 128.476C-190.186 127.501 -190.376 126.526 -190.559 125.548C-158.454 127.053 -122.1 125.596 -85.0378 124.107C-29.3615 121.87 27.9011 119.568 74.6064 127.197C168.502 142.532 219.889 198.03 130.325 375.046L129.838 375.862C210.562 204.76 151.744 152.97 54.8466 137.505C12.4672 130.74 -37.1745 130.93 -85.5983 131.116C-122.345 131.257 -158.382 131.391 -189.994 128.476ZM-189.283 132.021C-189.481 131.065 -189.668 130.104 -189.859 129.145C-158.322 132.003 -122.444 131.871 -85.8648 131.731C-37.4954 131.545 12.09 131.355 54.3747 138.104C152.383 153.748 211.236 206.76 125.146 383.736C124.661 384.542 124.208 385.321 123.717 386.134C202.393 212.477 134.054 163.415 31.6903 147.486C-5.03657 141.771 -46.1217 140.323 -86.3547 138.905C-122.644 137.627 -158.235 136.37 -189.283 132.021ZM-188.518 135.535C-188.725 134.599 -188.934 133.664 -189.132 132.724C-158.173 137 -122.767 138.248 -86.6728 139.521C-46.4767 140.937 -5.4307 142.384 31.2232 148.087C134.391 164.141 202.874 213.988 120.087 392.076C119.359 393.269 118.617 394.474 117.889 395.668C215.163 170.299 58.4208 158.141 -87.0849 146.884C-122.911 144.112 -158.046 141.388 -188.518 135.535ZM-187.729 139.029C-187.942 138.112 -188.151 137.192 -188.357 136.272C-157.988 142.035 -123.065 144.741 -87.4606 147.496C58.8058 158.811 216.428 171.062 114.516 401.168C113.711 402.469 112.865 403.805 112.034 405.127C199.714 190.388 50.7789 172.106 -87.7955 155.079C-123.158 150.733 -157.842 146.468 -187.729 139.029ZM-186.911 142.484C-187.126 141.592 -187.336 140.698 -187.546 139.805C-157.777 147.132 -123.336 151.369 -88.2251 155.683C50.962 172.786 200.553 191.217 109.104 409.797C108.022 411.518 106.973 413.209 105.876 414.943C184.332 210.528 43.2309 186.196 -88.4768 163.517C-123.384 157.506 -157.618 151.605 -186.911 142.484ZM-186.048 145.921C-186.271 145.056 -186.495 144.191 -186.709 143.323C-157.549 152.303 -123.582 158.154 -88.9617 164.115C43.2038 186.874 184.883 211.272 103.512 418.639C102.274 420.581 101.003 422.551 99.7406 424.515C168.939 230.569 35.6781 200.419 -89.122 172.239C-123.57 164.461 -157.361 156.826 -186.048 145.921ZM-184.246 152.71C-184.464 151.913 -184.682 151.117 -184.897 150.319C-156.986 162.916 -123.966 172.302 -90.3251 181.865C27.9638 215.488 153.878 251.347 91.5285 437.164C90.0675 439.397 88.6018 441.634 87.1238 443.882C138.586 270.429 20.7765 229.398 -90.2935 190.727C-123.856 179.042 -156.796 167.568 -184.246 152.71ZM-183.294 156.068C-183.515 155.311 -183.738 154.554 -183.95 153.794C-156.672 168.391 -124.109 179.736 -90.9346 191.285C20.4722 230.073 138.657 271.251 85.3278 446.61C83.7596 448.976 82.1307 451.396 80.5119 453.807C123.57 290.343 13.4587 244.229 -90.7975 200.616C-123.939 186.753 -156.477 173.136 -183.294 156.068ZM-182.326 159.398C-182.535 158.701 -182.733 157.999 -182.937 157.3C-156.305 174.043 -124.185 187.48 -91.4849 201.159C13.0612 244.893 123.528 291.127 78.9322 456.166C77.2264 458.709 75.5316 461.242 73.7894 463.817C108.762 310.195 6.24754 259.356 -91.2305 211.047C-123.977 194.819 -156.148 178.873 -182.326 159.398ZM-181.31 162.711C-181.506 162.07 -181.705 161.432 -181.9 160.791C-155.916 179.866 -124.218 195.584 -91.958 211.571C5.78593 260.012 108.595 311.005 72.3136 465.981C70.5392 468.595 68.7337 471.236 66.922 473.883C94.1073 330.017 -0.856171 274.838 -91.5754 222.132C-123.952 203.321 -155.78 184.821 -181.31 162.711ZM-180.276 165.999C-180.456 165.44 -180.639 164.883 -180.815 164.323C-155.488 185.941 -124.176 204.136 -92.3368 222.634C-1.37009 275.484 93.8795 330.819 65.5803 475.851C63.6952 478.599 61.7694 481.383 59.8322 484.176C79.6433 349.899 -7.7988 290.777 -91.802 234.015C-123.856 212.355 -155.401 191.032 -180.276 165.999ZM-179.221 169.262C-179.368 168.816 -179.509 168.367 -179.655 167.92C-154.99 192.33 -124.04 213.25 -92.5993 234.496C-8.36673 291.412 79.3262 350.703 58.5894 485.965C56.6117 488.817 54.6443 491.66 52.6331 494.542C65.4646 369.778 -14.5625 307.279 -91.875 246.887C-123.67 222.051 -155.003 197.572 -179.221 169.262ZM-178.118 172.528L-178.432 171.607C-154.432 199.119 -123.788 223.064 -92.7011 247.347C-15.1721 307.907 65.0672 370.605 51.463 496.215C49.4175 499.134 47.2977 502.117 45.1929 505.089C51.4958 389.789 -21.1038 324.503 -91.7473 261.011C-123.355 232.603 -154.565 204.551 -178.118 172.528ZM-177.013 175.742L-177.103 175.492C-153.767 206.467 -123.373 233.791 -92.6 261.45C-21.7582 325.121 51.0515 390.598 44.1205 506.607C41.9713 509.644 39.8131 512.688 37.6178 515.765C37.9073 409.932 -27.3535 342.672 -91.3395 276.75C-122.886 244.247 -154.12 212.068 -177.013 175.742ZM-86.8089 340.354C-117.672 293.457 -148.758 246.217 -169.794 194.74C-148.489 237.445 -119.276 276.607 -90.0396 315.793C-39.3007 383.805 11.4871 451.901 21.0402 538.735C18.6395 542.035 16.2638 545.313 13.8048 548.664C0.174651 472.531 -43.0882 406.785 -86.8089 340.354ZM-181.213 166.362L-180.931 167.234L-181.166 166.957C-181.288 166.65 -181.413 166.345 -181.534 166.038L-181.213 166.362ZM-182.245 163.087C-182.107 163.53 -181.976 163.975 -181.836 164.417C-182.014 164.236 -182.196 164.057 -182.372 163.875L-182.884 162.534L-182.245 163.087ZM-183.254 159.797C-183.087 160.357 -182.911 160.914 -182.741 161.473C-183.023 161.225 -183.297 160.975 -183.576 160.726C-183.777 160.19 -183.967 159.649 -184.165 159.112C-183.861 159.34 -183.56 159.57 -183.254 159.797ZM-184.219 156.482L-183.669 158.387L-184.718 157.59C-184.944 156.97 -185.173 156.352 -185.393 155.729C-185.002 155.98 -184.613 156.232 -184.219 156.482ZM-185.169 153.14C-184.975 153.843 -184.778 154.545 -184.578 155.245C-184.998 154.974 -185.423 154.706 -185.84 154.432C-186.075 153.752 -186.312 153.073 -186.544 152.391C-186.088 152.642 -185.628 152.891 -185.169 153.14ZM-186.086 149.774C-185.883 150.534 -185.674 151.291 -185.467 152.048C-185.963 151.776 -186.453 151.499 -186.946 151.224C-187.188 150.5 -187.423 149.773 -187.66 149.047C-187.136 149.289 -186.613 149.533 -186.086 149.774ZM-186.965 146.389C-186.761 147.185 -186.566 147.984 -186.358 148.778C-186.902 148.526 -187.454 148.277 -187.995 148.023C-188.248 147.251 -188.501 146.48 -188.744 145.704C-188.154 145.934 -187.561 146.162 -186.965 146.389ZM-187.829 142.97C-187.623 143.811 -187.409 144.649 -187.195 145.487C-187.812 145.249 -188.42 145.006 -189.031 144.765C-189.279 143.964 -189.525 143.164 -189.767 142.361C-189.123 142.566 -188.476 142.768 -187.829 142.97ZM-188.641 139.538C-188.438 140.404 -188.234 141.269 -188.027 142.134C-188.697 141.923 -189.367 141.714 -190.031 141.499C-190.278 140.667 -190.516 139.83 -190.758 138.996C-190.054 139.178 -189.351 139.36 -188.641 139.538ZM-189.43 136.065C-189.232 136.963 -189.032 137.859 -188.827 138.753C-189.551 138.571 -190.268 138.383 -190.986 138.197C-191.233 137.34 -191.48 136.483 -191.716 135.623C-190.959 135.773 -190.193 135.919 -189.43 136.065ZM-190.192 132.574C-189.998 133.495 -189.794 134.412 -189.59 135.329C-190.368 135.177 -191.146 135.023 -191.918 134.866C-192.155 133.986 -192.393 133.105 -192.623 132.222C-191.814 132.34 -191.005 132.459 -190.192 132.574ZM-190.901 129.052C-190.715 129.991 -190.528 130.932 -190.336 131.869C-191.164 131.75 -191.99 131.632 -192.813 131.511C-193.044 130.61 -193.267 129.704 -193.493 128.8C-192.632 128.886 -191.77 128.971 -190.901 129.052ZM-191.587 125.497C-191.408 126.46 -191.224 127.422 -191.035 128.382C-191.917 128.299 -192.788 128.209 -193.66 128.119C-193.887 127.201 -194.114 126.283 -194.33 125.361C-193.421 125.41 -192.502 125.452 -191.587 125.497ZM-192.238 121.918C-192.066 122.897 -191.886 123.872 -191.705 124.847C-192.633 124.8 -193.56 124.753 -194.48 124.701C-194.696 123.764 -194.91 122.826 -195.118 121.884C-194.16 121.898 -193.202 121.91 -192.238 121.918ZM-192.839 118.304C-192.678 119.297 -192.522 120.293 -192.353 121.283C-193.326 121.274 -194.296 121.263 -195.262 121.25C-195.469 120.297 -195.664 119.339 -195.862 118.383C-194.858 118.359 -193.852 118.334 -192.839 118.304ZM-193.415 114.656C-193.262 115.67 -193.102 116.68 -192.939 117.689C-193.964 117.719 -194.976 117.74 -195.991 117.763C-196.19 116.796 -196.387 115.828 -196.575 114.856C-195.526 114.793 -194.471 114.725 -193.415 114.656ZM-189.191 0.478185C-198.104 41.3379 -198.719 78.8824 -193.502 114.049C-194.568 114.118 -195.631 114.183 -196.689 114.245C-203.202 80.1129 -203.392 43.1415 -194.428 2.05263L-195.398 2.14146C-204.359 43.2173 -204.187 80.1792 -197.698 114.303C-198.746 114.363 -199.794 114.425 -200.832 114.479C-208.647 81.4082 -209.651 45.0316 -200.638 3.71682L-201.609 3.80573C-210.618 45.1017 -209.634 81.4655 -201.853 114.526C-202.885 114.578 -203.912 114.626 -204.935 114.671C-214.073 82.6841 -215.91 46.921 -206.846 5.38006L-207.817 5.469C-216.875 46.9884 -215.067 82.7409 -205.97 114.719C-206.988 114.762 -207.995 114.796 -209.005 114.832C-219.493 83.9524 -222.167 48.8124 -213.054 7.04348L-214.025 7.1325C-223.13 48.8719 -220.493 83.9996 -210.059 114.871C-211.047 114.904 -212.028 114.933 -213.008 114.959C-224.876 85.2085 -228.427 50.7126 -219.263 8.70716L-220.233 8.79588C-229.389 50.7636 -225.88 85.2433 -214.08 114.987C-215.048 115.012 -216.017 115.037 -216.976 115.055C-230.25 86.4551 -234.69 52.6163 -225.473 10.3713L-226.443 10.46C-235.649 52.6552 -231.267 86.4772 -218.077 115.07C-219.02 115.085 -219.964 115.1 -220.897 115.108C-235.603 87.6831 -240.95 54.5204 -231.681 12.0349L-232.652 12.1235C-241.908 54.5504 -236.627 87.6966 -222.021 115.118C-222.942 115.123 -223.851 115.12 -224.764 115.119C-240.932 88.8957 -247.211 56.4273 -237.888 13.6978L-238.859 13.7867C-248.165 56.4428 -241.972 88.8951 -225.931 115.119C-226.823 115.116 -227.704 115.104 -228.587 115.093C-246.246 90.0957 -253.475 58.3387 -244.099 15.362L-245.069 15.4508C-254.426 58.3356 -247.299 90.0735 -229.797 115.077C-230.651 115.063 -231.505 115.05 -232.35 115.03C-251.531 91.283 -259.739 60.2561 -250.307 17.0254L-251.278 17.1143C-260.682 60.2248 -252.617 91.2359 -233.634 114.993C-234.442 114.97 -235.254 114.952 -236.055 114.924C-256.793 92.4559 -266.003 62.1785 -256.515 18.6889L-257.485 18.7777C-266.942 62.1206 -257.897 92.3781 -237.404 114.868C-238.184 114.836 -238.961 114.801 -239.733 114.763C-262.045 93.6015 -272.266 64.0929 -262.724 20.3528L-263.693 20.441C-273.198 64.0072 -263.18 93.5003 -241.162 114.696C-241.889 114.657 -242.601 114.606 -243.32 114.561C-267.254 94.735 -278.534 66.022 -268.934 22.0163L-269.904 22.1051C-279.454 65.8843 -268.44 94.5847 -244.885 114.464C-245.552 114.418 -246.215 114.367 -246.875 114.316C-272.455 95.8519 -284.8 67.9492 -275.141 23.6796L-276.112 23.7686C-285.707 67.7501 -273.686 95.6361 -248.587 114.177C-249.169 114.127 -249.761 114.083 -250.34 114.03C-277.615 96.9601 -291.067 69.8909 -281.349 25.3432L-282.32 25.432C-291.953 69.5883 -278.948 96.648 -252.313 113.828C-252.797 113.779 -253.283 113.732 -253.761 113.68C-282.755 98.0337 -297.338 71.8269 -287.559 27.0073L-288.53 27.0961C-298.195 71.3974 -284.207 97.6047 -256.06 113.411C-256.43 113.366 -256.8 113.32 -257.168 113.273C-287.888 99.0775 -303.603 73.7485 -293.768 28.6708L-294.738 28.7596C-304.423 73.1537 -289.48 98.4842 -259.877 112.911C-260.065 112.884 -260.251 112.854 -260.438 112.827C-292.966 100.12 -309.874 75.7011 -299.976 30.3342L-300.946 30.423C-310.557 74.4808 -295.061 98.8906 -264.58 112.02C-298.34 100.714 -316.055 77.2415 -306.185 31.9979L-307.154 32.0863C-316.563 75.2157 -301.098 98.6825 -270.611 110.703C-304.39 100.516 -322.062 77.9791 -312.394 33.6617L-313.364 33.7504C-322.563 75.9184 -307.193 98.4826 -276.82 109.486C-310.492 100.324 -328.062 78.6825 -318.602 35.3251L-319.572 35.4139C-330.009 83.2487 -307.837 104.84 -267.485 112.407C-265.507 112.931 -263.467 113.407 -261.393 113.857C-259.455 114.433 -257.481 114.983 -255.448 115.488C-253.573 116.112 -251.641 116.696 -249.677 117.255C-247.804 117.951 -245.892 118.62 -243.931 119.252C-242.139 119.993 -240.305 120.703 -238.433 121.385C-236.64 122.213 -234.803 123.008 -232.928 123.777C-231.223 124.648 -229.488 125.498 -227.71 126.319C-226.018 127.283 -224.277 128.214 -222.511 129.128C-220.862 130.169 -219.182 131.19 -217.464 132.184C-215.92 133.267 -214.347 134.33 -212.741 135.371C-211.22 136.56 -209.657 137.722 -208.074 138.87C-206.593 140.158 -205.081 141.425 -203.539 142.674C-202.133 144.037 -200.703 145.386 -199.24 146.715C-197.918 148.144 -196.578 149.561 -195.205 150.959C-193.947 152.485 -192.67 153.998 -191.362 155.495C-190.177 157.114 -188.969 158.722 -187.739 160.315C-186.624 162.035 -185.492 163.745 -184.333 165.442C-183.329 167.203 -182.301 168.953 -181.259 170.695C-180.298 172.624 -179.313 174.541 -178.313 176.451C-177.451 178.444 -176.57 180.429 -175.671 182.406C-154.754 238.864 -121.113 289.99 -87.7318 340.714C-43.8656 407.364 -0.457365 473.323 12.9869 549.772C-27.7002 605.16 -75.6864 666.929 -131.814 735.794L-130.968 735.941C-75.1466 667.451 -27.3893 605.984 13.1592 550.815C13.3172 551.726 13.466 552.641 13.614 553.555C-25.4221 607.351 -71.5373 667.297 -125.608 734.131L-124.758 734.277C-70.9971 667.825 -25.1094 608.185 13.7897 554.613C13.9341 555.529 14.0683 556.45 14.2057 557.37C-23.1693 609.566 -67.4029 667.681 -119.399 732.469L-118.547 732.611C-66.8722 668.224 -22.8683 610.427 14.3646 558.466C14.4961 559.382 14.6386 560.294 14.7611 561.213C-20.9395 611.802 -63.2858 668.08 -113.191 730.807L-112.339 730.947C-62.7691 668.641 -20.6544 612.691 14.9029 562.35C15.0237 563.277 15.1348 564.207 15.2465 565.137C-18.7614 614.096 -59.2086 668.521 -106.984 729.145L-106.128 729.281C-58.6934 669.089 -18.4749 614.996 15.3897 566.295C15.497 567.23 15.5938 568.169 15.6931 569.107C-16.6072 616.418 -55.1619 668.993 -100.778 727.484L-99.9197 727.617C-54.6616 669.585 -16.3329 617.357 15.8168 570.321C15.9086 571.23 16.009 572.136 16.0925 573.048C-14.506 618.743 -51.0851 669.419 -94.57 725.821L-93.7072 725.951C-50.5872 670.022 -14.258 619.721 16.194 574.313C16.2742 575.246 16.3489 576.18 16.42 577.116C-12.4444 621.147 -47.079 669.927 -88.3645 724.159L-87.4984 724.286C-46.5783 670.535 -12.1961 622.139 16.5243 578.403C16.5908 579.342 16.6423 580.286 16.6996 581.228C-10.4189 623.583 -43.0949 670.457 -82.1576 722.499L-81.2891 722.62C-42.606 671.084 -10.1934 624.62 16.7792 582.576C16.8302 583.51 16.887 584.442 16.9305 585.379C-8.42775 626.05 -39.1329 671.006 -75.949 720.837L-75.0774 720.955C-38.6555 671.658 -8.22711 627.14 16.9834 586.802C17.0216 587.736 17.0586 588.672 17.0871 589.61C-6.49402 628.579 -35.2051 671.591 -69.7426 719.176L-68.8678 719.288C-34.729 672.253 -6.29945 629.695 17.1353 591.074C17.1588 592.015 17.1632 592.963 17.1778 593.906C-4.61012 631.157 -31.3068 672.206 -63.5341 717.515L-62.6577 717.622C-30.8441 672.895 -4.44054 632.333 17.2003 595.456C17.2083 596.366 17.2126 597.278 17.2118 598.192C-2.77856 633.741 -27.4079 672.804 -57.3309 715.854L-56.4471 715.956C-26.9885 673.572 -2.63152 635.031 17.1999 599.916C17.1935 600.791 17.1951 601.663 17.1803 602.541C-0.993603 636.373 -23.5417 673.435 -51.1228 714.195L-50.2339 714.287C-23.1401 674.25 -0.879066 637.761 17.1359 604.407C17.1154 605.267 17.0878 606.13 17.0593 606.993C0.721774 639.083 -19.718 674.112 -44.9169 712.534L-44.0251 712.621C-19.3267 674.962 0.817362 640.548 17.0014 608.973C16.9683 609.811 16.9154 610.655 16.8741 611.496C2.39022 641.832 -15.927 674.819 -38.7128 710.877L-37.8123 710.951C-15.5664 675.748 2.43112 643.464 16.7592 613.716C16.7151 614.498 16.6721 615.279 16.6208 616.064C4.01044 644.63 -12.1692 675.557 -32.5055 709.218L-31.5994 709.283C-11.8517 676.596 3.97556 646.487 16.4328 618.607C16.3787 619.319 16.3321 620.029 16.2734 620.743C5.55794 647.514 -8.46125 676.349 -26.3021 707.561L-25.3866 707.613C-8.19273 677.532 5.43688 649.667 16.0045 623.716C15.9476 624.327 15.8888 624.94 15.8277 625.553C7.02706 650.496 -4.7985 677.197 -20.0972 705.905L-19.1745 705.941C-4.60966 678.61 6.782 653.114 15.4454 629.202C15.4051 629.561 15.3584 629.924 15.3159 630.284C8.44397 653.437 -1.138 678.014 -13.8929 704.251L-12.963 704.268C-1.26007 680.194 7.76885 657.52 14.4963 636.055C9.58083 657.112 2.32264 679.231 -7.68949 702.599L-6.74543 702.592C1.83703 682.558 8.39657 663.442 13.2022 645.123C10.1841 663.058 5.38113 681.631 -1.48504 700.949L-0.53385 700.915C7.63082 677.948 12.8945 656.031 15.6967 634.994C16.5116 631.463 17.2706 627.957 17.9556 624.485C19.0175 620.691 19.9805 616.949 20.9023 613.228C22.1598 609.293 23.3545 605.393 24.4601 601.547C25.9414 597.379 27.3567 593.252 28.6642 589.193C30.286 584.952 31.7975 580.785 33.2533 576.654C34.9859 572.384 36.642 568.166 38.2152 564.006C40.1535 559.482 42.0139 555.015 43.7702 550.623C45.881 545.9 47.8676 541.269 49.7812 536.692C51.8612 532.188 53.8564 527.748 55.7623 523.376C57.9162 518.857 59.9952 514.396 61.9777 510.01C64.6395 504.607 67.1368 499.334 69.5451 494.132C71.9035 489.42 74.1741 484.78 76.3456 480.218C78.7365 475.545 81.0374 470.945 83.2526 466.415C86.0951 460.974 88.8331 455.617 91.442 450.369C94.1357 445.29 96.728 440.298 99.2085 435.398C101.977 430.254 104.65 425.192 107.201 420.232C110.072 414.972 112.848 409.791 115.493 404.723C118.321 399.592 121.066 394.534 123.687 389.582C126.505 384.529 129.233 379.555 131.851 374.675C134.719 369.596 137.473 364.615 140.138 359.713C248.707 169.547 213.621 105.593 126.329 90.4969C70.1916 80.7886 -7.48061 91.3027 -82.418 101.447C-120.947 106.663 -158.744 111.775 -192.502 113.984C-197.739 78.8095 -197.136 41.2571 -188.22 0.389253L-189.191 0.478185Z" fill="url(#paint0_linear_1538_8247)"/>
<defs>
<linearGradient id="paint0_linear_1538_8247" x1="660.349" y1="270.327" x2="-77.7366" y2="-265.89" gradientUnits="userSpaceOnUse">
<stop stop-color="#0A767B"/>
<stop offset="1" stop-color="#00A7D6"/>
</linearGradient>
</defs>
</svg>
