<svg width="244" height="726" viewBox="0 0 244 726" fill="none" xmlns="http://www.w3.org/2000/svg">
<path d="M-53.5661 83.2619L-52.2669 84.9333C-52.3671 84.7462 -52.4584 84.5607 -52.5573 84.3731C-52.9946 83.7535 -53.4345 83.1331 -53.8824 82.5108C-53.7746 82.7613 -53.6731 83.0112 -53.5661 83.2619ZM-46.7037 93.8237C-46.35 94.2552 -45.9882 94.6902 -45.6384 95.1201L-45.7407 94.9442L-46.9507 93.3179L-46.7037 93.8237ZM-51.644 87.8101C-50.856 88.7596 -50.1002 89.6975 -49.3148 90.6455C-49.5623 90.1551 -49.8281 89.6605 -50.0777 89.1688C-50.7859 88.2413 -51.5272 87.3026 -52.2537 86.3688C-52.0529 86.8487 -51.8423 87.3309 -51.644 87.8101ZM-39.2668 104.577C-38.9624 104.937 -38.6808 105.289 -38.3781 105.648L-38.384 105.639C-38.7054 105.226 -39.0413 104.808 -39.3665 104.394L-39.2668 104.577ZM-44.3719 98.6304C-43.6403 99.4793 -42.8978 100.333 -42.1751 101.179C-42.3904 100.793 -42.5972 100.409 -42.8141 100.023C-43.5796 99.0616 -44.306 98.1149 -45.0843 97.1495C-44.8495 97.6425 -44.6028 98.1379 -44.3719 98.6304ZM-49.8519 92.3077C-48.7989 93.5023 -47.7867 94.6818 -46.7529 95.8701C-47.0484 95.2571 -47.3473 94.644 -47.6479 94.0297C-48.6155 92.8431 -49.6027 91.65 -50.5805 90.4604C-50.3346 91.0768 -50.0943 91.6921 -49.8519 92.3077ZM-135.973 569.516L-135.7 569.101C-135.669 568.784 -135.635 568.469 -135.602 568.153L-135.814 568.538C-135.869 568.864 -135.919 569.19 -135.973 569.516ZM-31.1234 115.824L-30.8011 116.197C-30.9378 116.028 -31.0656 115.861 -31.2023 115.692L-31.1234 115.824ZM-36.6297 109.511C-35.9258 110.299 -35.2443 111.078 -34.5578 111.86C-34.7425 111.553 -34.9195 111.248 -35.1055 110.941C-35.7899 110.11 -36.4922 109.274 -37.1774 108.443C-36.9893 108.8 -36.8152 109.154 -36.6297 109.511ZM-42.2626 103.245C-41.2372 104.386 -40.2038 105.529 -39.1869 106.667C-39.5219 106.04 -39.873 105.409 -40.2123 104.781C-41.1582 103.661 -42.1318 102.531 -43.1062 101.399C-42.8239 102.015 -42.5411 102.631 -42.2626 103.245ZM-48.1204 96.8202C-46.8548 98.1848 -45.6078 99.542 -44.3791 100.892C-44.6966 100.205 -44.9969 99.5209 -45.3191 98.8321C-46.5287 97.4355 -47.7159 96.0462 -48.928 94.6478C-48.6499 95.3733 -48.3917 96.096 -48.1204 96.8202ZM-136.553 573.128C-136.37 572.887 -136.179 572.647 -135.993 572.406L-135.872 571.011C-136.024 571.246 -136.18 571.479 -136.33 571.714C-136.405 572.186 -136.481 572.657 -136.553 573.128ZM-138.155 575.258L-137.802 574.784L-137.664 573.835L-137.925 574.249C-138.002 574.586 -138.082 574.921 -138.155 575.258ZM-139.617 577.23L-139.57 577.164L-139.506 576.865L-139.617 577.23ZM-28.2868 120.768C-27.6274 121.506 -26.9549 122.248 -26.2883 122.988L-26.9952 121.89C-27.6062 121.172 -28.2524 120.439 -28.8799 119.714C-28.6795 120.066 -28.4863 120.416 -28.2868 120.768ZM-34.1285 114.385C-33.1197 115.463 -32.1037 116.544 -31.1323 117.606C-31.4324 117.086 -31.7611 116.557 -32.0663 116.035C-33.0649 114.886 -34.0474 113.744 -35.0473 112.594C-34.7446 113.19 -34.4283 113.79 -34.1285 114.385ZM-40.231 107.844L-36.4671 111.878C-36.8382 111.158 -37.1987 110.44 -37.5753 109.718C-38.7267 108.418 -39.9236 107.102 -41.109 105.789C-40.8063 106.477 -40.5278 107.158 -40.231 107.844ZM-46.4794 101.288C-45.0168 102.796 -43.5478 104.308 -42.1445 105.793C-42.4863 105.016 -42.857 104.233 -43.2081 103.454C-44.6041 101.914 -45.9623 100.389 -47.3783 98.8414C-47.0803 99.6564 -46.7686 100.474 -46.4794 101.288ZM-137.061 576.64C-136.794 576.337 -136.531 576.034 -136.261 575.732C-136.219 575.165 -136.18 574.597 -136.135 574.031C-136.365 574.334 -136.587 574.639 -136.817 574.943C-136.897 575.508 -136.983 576.073 -137.061 576.64ZM-138.879 578.708C-138.675 578.47 -138.465 578.235 -138.259 577.998C-138.197 577.537 -138.132 577.077 -138.067 576.616L-138.591 577.331C-138.687 577.79 -138.785 578.248 -138.879 578.708ZM-140.61 580.744L-140.211 580.275C-140.148 579.956 -140.087 579.637 -140.021 579.319C-140.123 579.461 -140.226 579.602 -140.328 579.745C-140.42 580.078 -140.517 580.41 -140.61 580.744ZM-142.203 582.657L-142.118 582.553L-142.019 582.175L-142.038 582.202L-142.203 582.657ZM-19.4653 132.21C-18.851 132.871 -18.223 133.537 -17.621 134.192C-17.7653 133.978 -17.9178 133.761 -18.0647 133.547C-18.73 132.783 -19.377 132.026 -20.0457 131.26L-19.4653 132.21ZM-25.4871 125.744C-24.5055 126.792 -23.5455 127.832 -22.5677 128.879C-22.8861 128.364 -23.1842 127.855 -23.5056 127.339C-24.4473 126.28 -25.4251 125.205 -26.3876 124.137C-26.093 124.671 -25.7779 125.211 -25.4871 125.744ZM-31.8031 119.132C-30.5633 120.412 -29.3138 121.696 -28.1169 122.958C-28.4833 122.299 -28.8578 121.638 -29.2323 120.977C-30.436 119.65 -31.6023 118.338 -32.8289 117.002C-32.479 117.714 -32.1457 118.422 -31.8031 119.132ZM-38.2779 112.414C-36.8004 113.936 -35.3602 115.443 -33.8971 116.96C-34.2847 116.173 -34.6767 115.385 -35.0741 114.595C-36.4506 113.106 -37.8602 111.603 -39.2646 110.103C-38.9407 110.872 -38.5946 111.646 -38.2779 112.414ZM-44.9922 105.642C-43.3521 107.28 -41.6949 108.925 -40.1181 110.537C-40.4662 109.71 -40.8215 108.881 -41.179 108.052C-42.7156 106.421 -44.2661 104.785 -45.8426 103.137C-45.5535 103.973 -45.2733 104.807 -44.9922 105.642ZM-137.513 580.082C-137.177 579.753 -136.836 579.425 -136.497 579.097C-136.455 578.443 -136.407 577.79 -136.361 577.137C-136.665 577.482 -136.97 577.826 -137.271 578.172C-137.354 578.808 -137.433 579.446 -137.513 580.082ZM-139.546 582.109C-139.253 581.814 -138.961 581.52 -138.667 581.226C-138.597 580.663 -138.524 580.102 -138.452 579.539C-138.715 579.844 -138.972 580.15 -139.232 580.455C-139.339 581.006 -139.441 581.558 -139.546 582.109ZM-141.499 584.095C-141.264 583.852 -141.034 583.608 -140.797 583.365C-140.713 582.909 -140.623 582.454 -140.537 581.998C-140.743 582.245 -140.942 582.494 -141.147 582.742L-141.499 584.095ZM-143.351 586.022C-143.202 585.864 -143.047 585.708 -142.898 585.551C-142.816 585.224 -142.728 584.899 -142.644 584.573L-143.015 585.03C-143.126 585.36 -143.241 585.69 -143.351 586.022ZM-145.077 587.879L-144.94 587.731C-144.896 587.592 -144.854 587.452 -144.808 587.313L-144.868 587.389C-144.936 587.553 -145.009 587.715 -145.077 587.879ZM-10.2635 143.727C-9.64148 144.383 -9.07634 145.016 -8.46452 145.668C-8.56175 145.53 -8.65005 145.396 -8.74771 145.258C-9.36801 144.56 -10.0108 143.854 -10.6362 143.154C-10.5144 143.344 -10.3836 143.537 -10.2635 143.727ZM-16.4288 137.297C-15.4994 138.266 -14.5576 139.239 -13.6431 140.201C-13.959 139.718 -14.2672 139.236 -14.5874 138.752C-15.5057 137.739 -16.3994 136.738 -17.3386 135.717C-17.0244 136.247 -16.7395 136.768 -16.4288 137.297ZM-22.9677 130.493C-21.6778 131.816 -20.4571 133.109 -19.1868 134.424C-19.5834 133.759 -20.0071 133.086 -20.4096 132.419C-21.5865 131.147 -22.7881 129.864 -23.979 128.586C-23.6372 129.223 -23.3014 129.858 -22.9677 130.493ZM-29.5414 123.868C-28.0987 125.317 -26.6479 126.768 -25.2426 128.201C-25.6472 127.447 -26.0255 126.701 -26.439 125.945C-27.824 124.475 -29.231 122.996 -30.6593 121.508C-30.2874 122.294 -29.9036 123.084 -29.5414 123.868ZM-36.4964 116.879C-34.8147 118.549 -33.1966 120.192 -31.5441 121.849C-31.9381 121.014 -32.3483 120.174 -32.7537 119.336C-34.3123 117.712 -35.8846 116.083 -37.4619 114.451C-37.1345 115.262 -36.8153 116.07 -36.4964 116.879ZM-43.5711 109.969C-41.7624 111.728 -39.944 113.491 -38.1866 115.228C-38.5365 114.358 -38.8681 113.492 -39.2273 112.62C-40.9065 110.899 -42.6485 109.151 -44.3922 107.403C-44.1103 108.26 -43.8441 109.114 -43.5711 109.969ZM-137.925 583.512C-137.51 583.157 -137.102 582.799 -136.683 582.445C-136.646 581.735 -136.612 581.026 -136.571 580.315C-136.944 580.682 -137.313 581.049 -137.683 581.417C-137.768 582.115 -137.847 582.814 -137.925 583.512ZM-140.154 585.441C-139.785 585.115 -139.409 584.792 -139.036 584.468C-138.967 583.835 -138.904 583.202 -138.832 582.57C-139.16 582.902 -139.496 583.231 -139.821 583.563C-139.938 584.188 -140.046 584.815 -140.154 585.441ZM-142.315 587.363C-141.995 587.075 -141.67 586.789 -141.347 586.502C-141.254 585.955 -141.164 585.406 -141.068 584.86C-141.356 585.159 -141.647 585.458 -141.932 585.758C-142.065 586.292 -142.186 586.828 -142.315 587.363ZM-144.397 589.268C-144.137 589.028 -143.879 588.787 -143.616 588.548L-143.297 587.205C-143.525 587.451 -143.752 587.698 -143.98 587.943C-144.121 588.384 -144.26 588.826 -144.397 589.268ZM-146.378 591.117C-146.199 590.948 -146.026 590.776 -145.846 590.607C-145.748 590.285 -145.643 589.965 -145.542 589.643C-145.693 589.81 -145.84 589.979 -145.989 590.146C-146.118 590.47 -146.251 590.793 -146.378 591.117ZM-148.205 592.87L-148.024 592.695C-147.967 592.546 -147.913 592.396 -147.856 592.246L-147.964 592.369L-148.205 592.87ZM-0.496078 155.683C-0.00442505 156.201 0.4953 156.723 0.989944 157.242C0.845581 157.045 0.706726 156.85 0.561523 156.653C0.0825958 156.125 -0.414536 155.59 -0.906204 155.057C-0.763962 155.268 -0.635773 155.473 -0.496078 155.683ZM-7.02478 148.901C-6.10472 149.835 -5.19785 150.764 -4.30624 151.686C-4.57457 151.295 -4.84926 150.901 -5.11844 150.509C-6.02618 149.528 -6.94542 148.542 -7.85062 147.562C-7.57039 148.01 -7.30161 148.454 -7.02478 148.901ZM-13.5726 142.263C-12.3469 143.506 -11.1105 144.753 -9.89493 145.991C-10.3242 145.312 -10.7641 144.628 -11.2014 143.946C-12.3375 142.74 -13.5293 141.509 -14.7113 140.283C-14.3335 140.943 -13.9441 141.606 -13.5726 142.263ZM-20.4308 135.375C-18.9745 136.817 -17.5522 138.244 -16.1303 139.67C-16.5451 138.951 -16.9489 138.234 -17.3709 137.512L-21.5572 133.152C-21.173 133.896 -20.807 134.634 -20.4308 135.375ZM-27.4784 128.457C-25.8183 130.08 -24.1599 131.704 -22.5299 133.315C-22.977 132.449 -23.4572 131.572 -23.9149 130.703C-25.4234 129.155 -27.0113 127.573 -28.5823 125.999C-28.2103 126.819 -27.8397 127.639 -27.4784 128.457ZM-34.7594 121.375C-32.9286 123.136 -31.1352 124.879 -29.3482 126.621C-29.732 125.772 -30.098 124.927 -30.4933 124.075C-32.2413 122.313 -33.9697 120.56 -35.7364 118.79C-35.4023 119.654 -35.083 120.513 -34.7594 121.375ZM-42.2256 114.262C-40.2505 116.136 -38.2809 118.008 -36.3478 119.862C-36.6998 118.941 -37.0836 118.011 -37.4487 117.086C-39.2608 115.285 -41.1705 113.442 -43.0582 111.608C-42.7805 112.493 -42.491 113.38 -42.2256 114.262ZM-133.276 583.243C-108.485 565.489 -78.0986 549.513 -47.1274 533.236C66.5043 473.517 187.885 409.677 67.7322 238.419M-138.293 586.911C-137.816 586.553 -137.328 586.198 -136.846 585.842C-136.814 585.077 -136.781 584.313 -136.742 583.549C-137.18 583.924 -137.617 584.299 -138.051 584.675C-138.134 585.42 -138.219 586.164 -138.293 586.911ZM-140.719 588.762C-140.274 588.42 -139.827 588.078 -139.377 587.738C-139.311 587.037 -139.238 586.339 -139.163 585.64C-139.569 585.997 -139.968 586.356 -140.37 586.715C-140.489 587.396 -140.61 588.078 -140.719 588.762ZM-143.075 590.598C-142.67 590.279 -142.271 589.957 -141.862 589.639C-141.765 589.017 -141.666 588.395 -141.563 587.775C-141.929 588.104 -142.288 588.436 -142.65 588.767C-142.794 589.377 -142.937 589.987 -143.075 590.598ZM-145.356 592.415C-145.006 592.133 -144.654 591.851 -144.302 591.569C-144.186 591.037 -144.078 590.503 -143.956 589.972C-144.268 590.261 -144.584 590.547 -144.891 590.836C-145.051 591.361 -145.201 591.889 -145.356 592.415ZM-147.56 594.224C-147.277 593.989 -146.987 593.755 -146.702 593.52L-146.319 592.205C-146.571 592.447 -146.826 592.688 -147.075 592.931L-147.56 594.224ZM-149.668 596.006L-149.072 595.497C-148.956 595.177 -148.833 594.859 -148.713 594.54L-149.221 595.046C-149.368 595.366 -149.523 595.685 -149.668 596.006ZM-151.58 597.653L-151.356 597.455L-151.164 597.015L-151.329 597.187C-151.415 597.342 -151.495 597.498 -151.58 597.653ZM9.44116 167.534C9.87465 167.978 10.3192 168.427 10.7467 168.868L10.6593 168.754C10.1519 168.205 9.6581 167.662 9.14989 167.112L9.44116 167.534ZM2.85637 160.803C3.79129 161.76 4.7245 162.717 5.6675 163.676C5.34608 163.225 4.99794 162.762 4.674 162.31C3.80913 161.391 2.90733 160.456 2.02209 159.529C2.30061 159.954 2.58125 160.38 2.85637 160.803ZM-3.80142 154.128C-2.65295 155.26 -1.49086 156.397 -0.381439 157.512C-0.738083 156.973 -1.07222 156.443 -1.43396 155.904C-2.64359 154.64 -3.81628 153.393 -5.0378 152.124C-4.63402 152.789 -4.19926 153.465 -3.80142 154.128ZM-10.8787 147.13L-6.55859 151.402C-7.02307 150.642 -7.49651 149.879 -7.96863 149.116C-9.29373 147.757 -10.6685 146.375 -12.0314 144.998C-11.6357 145.713 -11.2676 146.417 -10.8787 147.13ZM-18.0553 140.152C-16.4058 141.734 -14.7568 143.315 -13.16 144.873C-13.5994 144.081 -14.0613 143.281 -14.511 142.485C-16.1248 140.855 -17.6821 139.251 -19.3201 137.611C-18.8976 138.459 -18.468 139.308 -18.0553 140.152ZM-25.4922 133.023C-23.6763 134.76 -21.8697 136.491 -20.07 138.221C-20.5056 137.343 -20.9331 136.468 -21.3802 135.587C-23.0683 133.91 -24.8176 132.205 -26.557 130.506C-26.1898 131.348 -25.8489 132.183 -25.4922 133.023ZM-33.1244 125.817C-31.1357 127.674 -29.1601 129.525 -27.2291 131.357C-27.6147 130.465 -28.0291 129.565 -28.4256 128.67C-30.3269 126.811 -32.192 124.969 -34.1264 123.096C-33.7918 124.003 -33.4467 124.912 -33.1244 125.817ZM-41.013 118.469C-38.8906 120.438 -36.7872 122.398 -34.6937 124.355C-35.0282 123.433 -35.3666 122.509 -35.7139 121.584C-37.689 119.679 -39.7376 117.742 -41.7765 115.81C-41.5132 116.698 -41.2652 117.583 -41.013 118.469ZM-138.599 590.308C-138.055 589.95 -137.513 589.591 -136.964 589.235C-136.941 588.43 -136.911 587.627 -136.88 586.823C-137.385 587.202 -137.89 587.581 -138.39 587.961C-138.461 588.743 -138.532 589.526 -138.599 590.308ZM-141.209 592.046C-140.697 591.701 -140.186 591.355 -139.669 591.011C-139.607 590.269 -139.539 589.528 -139.471 588.786C-139.942 589.147 -140.419 589.506 -140.885 589.868C-140.994 590.594 -141.104 591.32 -141.209 592.046ZM-143.764 593.785C-143.292 593.458 -142.811 593.135 -142.335 592.811C-142.239 592.131 -142.134 591.453 -142.031 590.775C-142.466 591.119 -142.905 591.462 -143.335 591.807C-143.48 592.466 -143.628 593.124 -143.764 593.785ZM-146.253 595.536C-145.823 595.23 -145.389 594.927 -144.955 594.622C-144.832 594.013 -144.7 593.405 -144.568 592.798C-144.965 593.119 -145.356 593.443 -145.749 593.766C-145.92 594.355 -146.09 594.945 -146.253 595.536ZM-148.659 597.273C-148.278 596.994 -147.902 596.715 -147.517 596.437C-147.376 595.916 -147.241 595.391 -147.095 594.87C-147.444 595.163 -147.784 595.458 -148.13 595.752C-148.312 596.258 -148.481 596.766 -148.659 597.273ZM-150.98 598.988C-150.667 598.753 -150.357 598.518 -150.043 598.285C-149.897 597.857 -149.745 597.431 -149.598 597.004C-149.873 597.242 -150.151 597.479 -150.425 597.717C-150.61 598.141 -150.798 598.563 -150.98 598.988ZM-153.187 600.666C-152.97 600.499 -152.75 600.334 -152.532 600.167C-152.401 599.857 -152.27 599.547 -152.135 599.237C-152.324 599.406 -152.515 599.572 -152.7 599.74C-152.864 600.048 -153.026 600.357 -153.187 600.666ZM-155.214 602.258L-154.947 602.048L-154.72 601.595L-154.92 601.783L-155.214 602.258ZM19.6297 179.391L19.718 179.48L19.6165 179.373L19.6297 179.391ZM13.1791 172.95C14.0104 173.781 14.8562 174.618 15.6786 175.445C15.4226 175.098 15.1865 174.758 14.9288 174.41C14.0079 173.445 13.1388 172.505 12.2009 171.532C12.5206 172.003 12.8615 172.481 13.1791 172.95ZM6.15494 165.938C7.34799 167.117 8.48203 168.27 9.66914 169.447C9.27896 168.88 8.89261 168.316 8.4969 167.747C7.40361 166.622 6.28186 165.484 5.17625 164.354C5.51634 164.887 5.81995 165.407 6.15494 165.938ZM-0.935532 159.06C0.498688 160.442 1.94313 161.828 3.33957 163.193C2.87891 162.476 2.38893 161.748 1.92233 161.029C0.540756 159.632 -0.817474 158.244 -2.22833 156.833C-1.78975 157.578 -1.36563 158.318 -0.935532 159.06ZM-8.25607 151.981C-6.61635 153.559 -5.01312 155.121 -3.37639 156.697C-3.84087 155.911 -4.27013 155.136 -4.74481 154.345C-6.32338 152.774 -7.93553 151.186 -9.54254 149.601C-9.11755 150.393 -8.67046 151.192 -8.25607 151.981ZM-15.828 144.834C-14.0222 146.522 -12.2008 148.218 -10.4537 149.878C-10.9046 149.036 -11.3627 148.192 -11.8225 147.346C-13.5442 145.659 -15.2569 143.975 -17.0168 142.27C-16.6062 143.129 -16.2292 143.978 -15.828 144.834ZM-23.6045 137.538C-21.6192 139.394 -19.6645 141.237 -17.6868 143.09C-18.1186 142.184 -18.561 141.275 -19.0051 140.365C-20.88 138.555 -22.7936 136.727 -24.708 134.898C-24.342 135.778 -23.9603 136.661 -23.6045 137.538ZM-31.6256 130.166C-29.5036 132.096 -27.3658 134.032 -25.3173 135.93C-25.6896 135.032 -26.0624 134.133 -26.4449 133.232C-28.4608 131.314 -30.4818 129.394 -32.5444 127.454C-32.2269 128.36 -31.9309 129.261 -31.6256 130.166ZM-39.8582 122.654C-37.5927 124.713 -35.3662 126.754 -33.1134 128.808C-33.4335 127.881 -33.7464 126.956 -34.0772 126.026C-36.2162 124.021 -38.3964 121.996 -40.5834 119.969C-40.3341 120.865 -40.0968 121.759 -39.8582 122.654ZM-138.868 593.7C-138.262 593.349 -137.649 593.002 -137.037 592.653C-137.022 591.818 -137.014 590.982 -136.994 590.147C-137.559 590.517 -138.125 590.886 -138.684 591.256C-138.751 592.07 -138.809 592.885 -138.868 593.7ZM-141.659 595.329C-141.084 594.988 -140.498 594.651 -139.918 594.313C-139.862 593.531 -139.814 592.75 -139.754 591.97C-140.294 592.332 -140.826 592.697 -141.362 593.062C-141.467 593.816 -141.562 594.573 -141.659 595.329ZM-144.395 596.978C-143.85 596.646 -143.305 596.314 -142.754 595.984C-142.662 595.261 -142.571 594.539 -142.474 593.817C-142.984 594.168 -143.484 594.523 -143.989 594.876C-144.127 595.575 -144.263 596.276 -144.395 596.978ZM-147.078 598.632C-146.568 598.313 -146.062 597.991 -145.547 597.673C-145.423 597.016 -145.293 596.36 -145.165 595.704C-145.632 596.036 -146.101 596.366 -146.562 596.699C-146.737 597.343 -146.913 597.986 -147.078 598.632ZM-149.681 600.275C-149.224 599.981 -148.759 599.688 -148.296 599.396C-148.147 598.805 -147.991 598.216 -147.834 597.627C-148.257 597.937 -148.686 598.244 -149.106 598.556C-149.301 599.128 -149.493 599.701 -149.681 600.275ZM-152.203 601.919C-151.8 601.652 -151.389 601.389 -150.984 601.124C-150.821 600.618 -150.664 600.109 -150.497 599.603C-150.867 599.882 -151.234 600.162 -151.601 600.442C-151.805 600.933 -152.003 601.427 -152.203 601.919ZM-154.652 603.567C-154.314 603.336 -153.978 603.106 -153.636 602.877C-153.467 602.454 -153.291 602.033 -153.12 601.611C-153.425 601.85 -153.725 602.092 -154.028 602.332C-154.236 602.743 -154.449 603.153 -154.652 603.567ZM-156.947 605.147C-156.703 604.977 -156.465 604.803 -156.22 604.633C-156.077 604.333 -155.941 604.031 -155.794 603.731C-156.011 603.906 -156.218 604.083 -156.433 604.258C-156.608 604.553 -156.774 604.851 -156.947 605.147ZM-159.074 606.655L-158.774 606.443C-158.685 606.286 -158.593 606.13 -158.503 605.974C-158.578 606.037 -158.655 606.099 -158.731 606.163L-159.074 606.655ZM30.5027 191.855L31.6724 193.036L31.6007 192.945C31.1965 192.521 30.7638 192.083 30.3524 191.655L30.5027 191.855ZM23.6556 185.012C24.402 185.739 25.1615 186.473 25.8829 187.189L25.3721 186.513C24.5862 185.701 23.7935 184.886 23.0166 184.079C23.2374 184.393 23.4365 184.698 23.6556 185.012ZM16.5923 178.11C17.7408 179.235 18.9033 180.365 20.0492 181.488C19.6064 180.867 19.1419 180.238 18.6944 179.614C17.652 178.558 16.5575 177.477 15.4769 176.402C15.8561 176.975 16.217 177.54 16.5923 178.11ZM9.30484 171.034C10.7611 172.428 12.1639 173.798 13.5931 175.18C13.1472 174.513 12.6964 173.844 12.2438 173.175C10.841 171.774 9.43054 170.369 8.02774 168.968C8.45403 169.657 8.88622 170.348 9.30484 171.034ZM1.93248 164.051C3.53145 165.562 5.13806 167.076 6.70815 168.574C6.20927 167.769 5.72655 166.971 5.21706 166.162C3.70004 164.67 2.13289 163.155 0.563232 161.639C1.02094 162.443 1.4837 163.249 1.93248 164.051ZM-5.8517 156.694C-3.99121 158.433 -2.2135 160.135 -0.376358 161.863C-0.864197 161.007 -1.38004 160.14 -1.87891 159.279C-3.61119 157.601 -5.34901 155.921 -7.09402 154.237C-6.66902 155.059 -6.26524 155.874 -5.8517 156.694ZM-13.6626 149.506C-11.7024 151.302 -9.7357 153.102 -7.82765 154.875C-8.28577 153.984 -8.72652 153.099 -9.19737 152.204C-11.0685 150.417 -12.9905 148.606 -14.9211 146.792C-14.5063 147.695 -14.0651 148.606 -13.6626 149.506ZM-21.8714 141.951C-19.7103 143.924 -17.6354 145.856 -15.4947 147.82C-15.9146 146.899 -16.3477 145.973 -16.7799 145.048C-18.8068 143.141 -20.8393 141.232 -22.8917 139.314C-22.5397 140.196 -22.2123 141.072 -21.8714 141.951ZM-30.1816 134.5C-27.9233 136.514 -25.6523 138.535 -23.4644 140.516C-23.8262 139.595 -24.1803 138.676 -24.556 137.752C-26.698 135.763 -28.8888 133.751 -31.0941 131.733C-30.7863 132.656 -30.4772 133.579 -30.1816 134.5ZM-38.7755 126.804C-36.3677 128.951 -34.0207 131.069 -31.6197 133.211C-31.9279 132.269 -32.2625 131.321 -32.5813 130.376C-34.8702 128.282 -37.1651 126.185 -39.4875 124.076C-39.2498 124.985 -39.0022 125.896 -38.7755 126.804ZM-139.101 597.102C-138.43 596.763 -137.756 596.426 -137.08 596.09C-137.075 595.22 -137.065 594.352 -137.051 593.484C-137.681 593.845 -138.304 594.21 -138.929 594.574C-138.99 595.417 -139.05 596.259 -139.101 597.102ZM-142.067 598.629C-141.423 598.294 -140.783 597.957 -140.132 597.624C-140.087 596.811 -140.034 595.999 -139.979 595.187C-140.58 595.541 -141.183 595.895 -141.777 596.25C-141.878 597.042 -141.976 597.835 -142.067 598.629ZM-144.978 600.162C-144.366 599.835 -143.754 599.509 -143.136 599.184C-143.052 598.426 -142.966 597.669 -142.873 596.912C-143.444 597.258 -144.02 597.6 -144.584 597.948C-144.721 598.684 -144.849 599.422 -144.978 600.162ZM-147.834 601.701C-147.26 601.386 -146.675 601.075 -146.096 600.763C-145.977 600.064 -145.862 599.363 -145.737 598.666C-146.275 599 -146.81 599.335 -147.343 599.672C-147.51 600.347 -147.672 601.024 -147.834 601.701ZM-150.643 603.271C-150.104 602.966 -149.558 602.663 -149.014 602.36C-148.864 601.717 -148.704 601.075 -148.548 600.432C-149.053 600.756 -149.546 601.083 -150.045 601.409C-150.247 602.029 -150.451 602.648 -150.643 603.271ZM-153.351 604.827C-152.861 604.541 -152.374 604.254 -151.878 603.97C-151.706 603.398 -151.527 602.826 -151.346 602.256C-151.805 602.56 -152.26 602.865 -152.714 603.17C-152.932 603.721 -153.14 604.275 -153.351 604.827ZM-155.988 606.382C-155.554 606.122 -155.122 605.861 -154.684 605.602C-154.499 605.11 -154.314 604.619 -154.126 604.129C-154.518 604.396 -154.915 604.66 -155.302 604.929C-155.531 605.413 -155.764 605.897 -155.988 606.382ZM-158.528 607.922C-158.177 607.705 -157.816 607.492 -157.464 607.276C-157.278 606.867 -157.084 606.461 -156.892 606.054C-157.218 606.285 -157.548 606.516 -157.872 606.748C-158.093 607.138 -158.311 607.53 -158.528 607.922ZM-160.938 609.443L-160.158 608.949C-159.999 608.655 -159.84 608.359 -159.679 608.065L-160.367 608.574L-160.938 609.443ZM-163.184 610.896L-162.825 610.657L-162.543 610.214L-162.835 610.441L-163.184 610.896ZM34.3833 197.175C35.1412 197.911 35.8919 198.643 36.6315 199.37L36.0417 198.616C35.3021 197.862 34.5323 197.094 33.78 196.334C33.9855 196.616 34.1791 196.894 34.3833 197.175ZM27.267 190.282C28.4355 191.416 29.6175 192.557 30.7859 193.691C30.3987 193.165 29.9745 192.623 29.5831 192.095C28.4095 190.918 27.2793 189.76 26.1011 188.579C26.4913 189.147 26.8815 189.716 27.267 190.282ZM19.9902 183.315C21.345 184.594 22.7015 185.874 24.0182 187.134C23.5745 186.494 23.1571 185.865 22.7075 185.223C21.3824 183.913 20.0059 182.581 18.6443 181.255C19.0858 181.938 19.5571 182.634 19.9902 183.315ZM12.3334 176.08C13.9472 177.602 15.5508 179.12 17.1574 180.638C16.6602 179.87 16.1554 179.1 15.6489 178.328C14.089 176.811 12.5686 175.311 11.0036 173.791C11.4655 174.561 11.8812 175.314 12.3334 176.08ZM4.54619 168.848C6.36678 170.522 8.20053 172.202 9.96591 173.85C9.45218 172.993 8.89218 172.117 8.36613 171.255C6.67972 169.638 4.92491 167.99 3.18372 166.348C3.64354 167.183 4.09656 168.017 4.54619 168.848ZM-3.45537 161.463C-1.46921 163.281 0.443939 165.065 2.40251 166.87C1.92529 166 1.47183 165.138 0.983154 164.264C-0.947403 162.44 -2.84613 160.63 -4.78519 158.802C-4.34404 159.688 -3.88547 160.581 -3.45537 161.463ZM-11.7155 154.006C-9.58459 155.923 -7.44853 157.842 -5.3698 159.733C-5.8326 158.796 -6.32298 157.85 -6.79808 156.909C-8.76897 155.071 -10.8286 153.192 -12.87 151.323C-12.4755 152.221 -12.1002 153.112 -11.7155 154.006ZM-20.1633 146.423C-17.8868 148.45 -15.6594 150.455 -13.4274 152.462C-13.8261 151.547 -14.2027 150.639 -14.6141 149.719C-16.8194 147.692 -18.997 145.677 -21.2167 143.644C-20.8656 144.57 -20.5017 145.5 -20.1633 146.423ZM-28.8705 138.729C-26.4636 140.848 -24.0665 142.962 -21.7083 145.057C-22.0688 144.096 -22.4544 143.127 -22.8276 142.162C-25.0681 140.128 -27.4036 138.049 -29.7235 135.978C-29.4348 136.896 -29.1474 137.814 -28.8705 138.729ZM-37.793 130.927C-35.2643 133.123 -32.7512 135.313 -30.2827 137.481C-30.5685 136.557 -30.847 135.634 -31.1433 134.707C-33.5812 132.526 -35.986 130.361 -38.4409 128.172C-38.2151 129.092 -38.007 130.009 -37.793 130.927ZM-139.271 600.508C-138.54 600.184 -137.811 599.859 -137.074 599.537C-137.081 598.648 -137.08 597.76 -137.079 596.872C-137.768 597.216 -138.459 597.56 -139.14 597.907C-139.186 598.773 -139.231 599.64 -139.271 600.508ZM-142.421 601.922C-141.718 601.601 -141.009 601.283 -140.299 600.966C-140.263 600.124 -140.218 599.283 -140.173 598.443C-140.837 598.785 -141.499 599.128 -142.157 599.473C-142.249 600.288 -142.34 601.104 -142.421 601.922ZM-145.514 603.347C-144.842 603.032 -144.161 602.723 -143.482 602.411C-143.406 601.617 -143.316 600.825 -143.227 600.032C-143.868 600.371 -144.498 600.714 -145.132 601.056C-145.262 601.818 -145.393 602.581 -145.514 603.347ZM-148.541 604.792C-147.899 604.482 -147.254 604.172 -146.604 603.865C-146.49 603.128 -146.372 602.392 -146.249 601.657C-146.86 601.989 -147.463 602.325 -148.066 602.66C-148.231 603.369 -148.385 604.08 -148.541 604.792ZM-151.52 606.25C-150.906 605.945 -150.299 605.638 -149.679 605.336C-149.532 604.662 -149.391 603.988 -149.24 603.316C-149.807 603.635 -150.378 603.952 -150.939 604.273C-151.136 604.932 -151.33 605.59 -151.52 606.25ZM-154.428 607.713C-153.863 607.423 -153.292 607.136 -152.723 606.849C-152.546 606.228 -152.361 605.611 -152.177 604.993C-152.707 605.3 -153.24 605.605 -153.763 605.914C-153.988 606.512 -154.212 607.111 -154.428 607.713ZM-157.245 609.173C-156.733 608.903 -156.21 608.637 -155.693 608.369C-155.498 607.817 -155.306 607.265 -155.104 606.715C-155.589 607.006 -156.07 607.297 -156.549 607.59C-156.785 608.116 -157.013 608.645 -157.245 609.173ZM-160.014 610.665C-159.552 610.413 -159.089 610.162 -158.623 609.912C-158.415 609.429 -158.199 608.948 -157.987 608.466C-158.417 608.733 -158.835 609.005 -159.26 609.273C-159.513 609.736 -159.769 610.199 -160.014 610.665ZM-162.634 612.117C-162.25 611.901 -161.875 611.683 -161.488 611.468C-161.289 611.081 -161.097 610.692 -160.894 610.307C-161.244 610.533 -161.589 610.76 -161.936 610.986C-162.174 611.362 -162.401 611.741 -162.634 612.117ZM-165.152 613.55C-164.875 613.388 -164.59 613.229 -164.311 613.068C-164.137 612.781 -163.956 612.496 -163.782 612.209C-164.027 612.374 -164.279 612.535 -164.522 612.701C-164.731 612.984 -164.947 613.265 -165.152 613.55ZM-167.449 614.914L-167.061 614.684L-166.762 614.254L-167.088 614.48C-167.209 614.624 -167.328 614.77 -167.449 614.914ZM45.4695 209.543C46.2146 210.259 46.9763 210.983 47.7027 211.69C47.4662 211.394 47.2128 211.09 46.9763 210.793C46.2545 210.066 45.4975 209.322 44.7574 208.586L45.4695 209.543ZM38.2963 202.644L41.5863 205.807C41.2203 205.323 40.8806 204.85 40.5108 204.364C39.3721 203.232 38.2457 202.107 37.1006 200.973C37.4934 201.528 37.9086 202.092 38.2963 202.644ZM30.8525 195.59C32.1806 196.834 33.5227 198.083 34.8151 199.311C34.3456 198.654 33.8794 197.999 33.403 197.338C32.1374 196.102 30.8301 194.844 29.5356 193.594C29.9843 194.263 30.4131 194.924 30.8525 195.59ZM23.0688 188.28C24.7136 189.815 26.3079 191.325 27.9383 192.852C27.4037 192.058 26.8361 191.251 26.2931 190.453C24.7442 188.961 23.2302 187.484 21.6541 185.98C22.1364 186.751 22.5945 187.513 23.0688 188.28ZM15.2371 181.077C17.025 182.714 18.8196 184.354 20.5685 185.972C20.0492 185.145 19.552 184.325 19.023 183.494C17.2844 181.842 15.5143 180.176 13.746 178.511C14.2419 179.366 14.7531 180.226 15.2371 181.077ZM7.09364 173.633C9.07091 175.425 10.9977 177.193 12.9418 178.97C12.4213 178.07 11.9054 177.173 11.3717 176.269C9.51376 174.528 7.62991 172.776 5.72569 171.013C6.19102 171.89 6.6402 172.761 7.09364 173.633ZM-1.26035 166.127C0.88208 168.046 3.01688 169.961 5.12236 171.863C4.62985 170.928 4.09062 169.977 3.58368 169.038C1.54614 167.154 -0.496948 165.267 -2.55656 163.373C-2.11629 164.294 -1.68747 165.211 -1.26035 166.127ZM-9.79729 158.533C-7.53598 160.53 -5.29379 162.517 -3.08386 164.489C-3.53223 163.544 -3.9547 162.607 -4.41621 161.658C-6.55099 159.709 -8.76727 157.723 -10.9687 155.743C-10.5755 156.674 -10.1781 157.607 -9.79729 158.533ZM-18.6204 150.766C-16.2037 152.885 -13.8214 154.987 -11.4349 157.092C-11.834 156.132 -12.2658 155.164 -12.6798 154.2C-14.9929 152.116 -17.269 150.05 -19.6212 147.948C-19.2802 148.889 -18.9482 149.828 -18.6204 150.766ZM-27.6321 142.953C-25.1092 145.125 -22.5788 147.301 -20.1256 149.44C-20.4618 148.499 -20.7815 147.562 -21.1288 146.617C-23.52 144.489 -25.9711 142.332 -28.4231 140.174C-28.1467 141.103 -27.8966 142.026 -27.6321 142.953ZM-36.8734 134.985C-34.2066 137.269 -31.6176 139.517 -28.9835 141.786C-29.259 140.835 -29.5465 139.881 -29.8344 138.927C-32.3644 136.703 -34.9085 134.473 -37.4891 132.225C-37.278 133.146 -37.073 134.066 -36.8734 134.985ZM-139.396 603.921C-138.61 603.616 -137.816 603.315 -137.022 603.014C-137.039 602.102 -137.063 601.19 -137.074 600.28C-137.823 600.609 -138.566 600.941 -139.309 601.273C-139.344 602.154 -139.369 603.038 -139.396 603.921ZM-142.716 605.225C-141.954 604.922 -141.185 604.621 -140.415 604.321C-140.389 603.457 -140.37 602.592 -140.336 601.729C-141.064 602.057 -141.781 602.389 -142.501 602.719C-142.579 603.553 -142.646 604.389 -142.716 605.225ZM-145.988 606.552C-145.248 606.248 -144.509 605.943 -143.762 605.642C-143.695 604.829 -143.624 604.016 -143.551 603.202C-144.249 603.526 -144.946 603.85 -145.636 604.176C-145.757 604.967 -145.877 605.758 -145.988 606.552ZM-149.197 607.887C-148.49 607.588 -147.783 607.288 -147.066 606.992C-146.962 606.225 -146.844 605.461 -146.727 604.698C-147.396 605.016 -148.068 605.333 -148.729 605.654C-148.889 606.397 -149.048 607.141 -149.197 607.887ZM-152.339 609.23C-151.668 608.937 -150.985 608.648 -150.306 608.358C-150.165 607.644 -150.021 606.931 -149.869 606.219C-150.514 606.535 -151.154 606.854 -151.79 607.174C-151.981 607.857 -152.158 608.544 -152.339 609.23ZM-155.432 610.599C-154.795 610.312 -154.146 610.028 -153.501 609.744C-153.329 609.084 -153.155 608.424 -152.975 607.766C-153.581 608.073 -154.171 608.386 -154.77 608.696C-154.993 609.33 -155.22 609.962 -155.432 610.599ZM-158.436 611.976C-157.842 611.7 -157.25 611.424 -156.652 611.151C-156.453 610.549 -156.243 609.95 -156.034 609.351C-156.599 609.648 -157.157 609.948 -157.716 610.247C-157.963 610.821 -158.198 611.399 -158.436 611.976ZM-161.379 613.365C-160.829 613.1 -160.284 612.835 -159.727 612.573C-159.513 612.043 -159.302 611.513 -159.082 610.986C-159.585 611.259 -160.092 611.531 -160.59 611.806C-160.853 612.326 -161.122 612.843 -161.379 613.365ZM-164.211 614.74C-163.74 614.505 -163.257 614.275 -162.78 614.042C-162.555 613.577 -162.32 613.115 -162.086 612.653C-162.537 612.907 -162.989 613.16 -163.434 613.416C-163.699 613.856 -163.954 614.298 -164.211 614.74ZM-166.957 616.13C-166.555 615.923 -166.147 615.72 -165.742 615.515C-165.525 615.137 -165.308 614.758 -165.089 614.381C-165.46 614.599 -165.828 614.818 -166.197 615.038C-166.449 615.402 -166.707 615.765 -166.957 616.13ZM-169.55 617.489C-169.256 617.332 -168.962 617.175 -168.666 617.019C-168.481 616.742 -168.297 616.465 -168.11 616.189C-168.387 616.359 -168.658 616.532 -168.934 616.703C-169.145 616.963 -169.343 617.228 -169.55 617.489ZM-171.942 618.774C-171.794 618.693 -171.652 618.61 -171.503 618.529C-171.393 618.386 -171.279 618.244 -171.169 618.101C-171.295 618.183 -171.417 618.266 -171.544 618.348C-171.676 618.49 -171.811 618.632 -171.942 618.774ZM56.8974 222.095C57.6005 222.769 58.3193 223.451 59.0135 224.12C58.8084 223.867 58.622 223.624 58.4169 223.371C57.6901 222.645 56.9271 221.903 56.1841 221.17C56.4189 221.477 56.6647 221.789 56.8974 222.095ZM49.579 215.091C50.623 216.083 51.6254 217.054 52.6622 218.042C52.2899 217.562 51.9294 217.086 51.5541 216.604C50.5101 215.579 49.4928 214.567 48.4428 213.537C48.8181 214.054 49.2062 214.576 49.579 215.091ZM41.943 207.93C43.2876 209.185 44.6432 210.446 45.9658 211.691C45.4759 211.024 44.9659 210.349 44.4684 209.679C43.2086 208.459 41.9124 207.222 40.6327 205.992C41.0815 206.643 41.501 207.281 41.943 207.93ZM34.1235 200.65C35.7662 202.164 37.3613 203.655 38.976 205.156C38.4368 204.378 37.8678 203.588 37.3184 202.806C35.7649 201.323 34.2195 199.843 32.6337 198.345C33.1351 199.115 33.6336 199.884 34.1235 200.65ZM26.2412 193.439C27.9884 195.035 29.7389 196.632 31.4665 198.218C30.9294 197.394 30.4186 196.58 29.8701 195.751C28.1412 194.123 26.3941 192.485 24.6482 190.85C25.1705 191.709 25.7313 192.584 26.2412 193.439ZM17.937 185.922C19.9027 187.685 21.8545 189.442 23.774 191.182C23.225 190.277 22.6574 189.364 22.0948 188.453C20.2751 186.762 18.4023 185.047 16.5307 183.332C17.0186 184.202 17.4619 185.056 17.937 185.922ZM9.49594 178.361C11.6333 180.268 13.7434 182.163 15.8595 184.061C15.3415 183.132 14.8061 182.195 14.2724 181.261C12.2056 179.366 10.1786 177.489 8.08336 175.581C8.55888 176.509 9.034 177.437 9.49594 178.361ZM0.863419 170.751C3.10944 172.716 5.36691 174.688 7.55264 176.625C7.07753 175.689 6.61304 174.757 6.12477 173.815C3.98575 171.879 1.7907 169.917 -0.399261 167.956C0.0282745 168.89 0.448181 169.821 0.863419 170.751ZM-8.04933 162.941C-5.61012 165.062 -3.24138 167.15 -0.841675 169.254C-1.28111 168.282 -1.76724 167.295 -2.22197 166.318C-4.52104 164.263 -6.81929 162.209 -9.16338 160.132C-8.78549 161.07 -8.41403 162.007 -8.04933 162.941ZM-17.1408 155.105C-14.6179 157.272 -12.1036 159.434 -9.63423 161.576C-10.0108 160.624 -10.3743 159.677 -10.7657 158.721C-13.1833 156.585 -15.6212 154.44 -18.0816 152.283C-17.7572 153.227 -17.452 154.165 -17.1408 155.105ZM-26.4534 147.142C-23.7964 149.399 -21.1743 151.641 -18.5712 153.872C-18.8977 152.904 -19.2471 151.93 -19.5872 150.959C-22.1024 148.761 -24.6698 146.539 -27.2504 144.311C-26.9867 145.254 -26.7048 146.202 -26.4534 147.142ZM-36.0242 139.041C-33.2522 141.376 -30.5239 143.691 -27.7968 146.004C-28.0567 145.053 -28.3297 144.099 -28.6022 143.145C-31.2724 140.839 -33.9048 138.552 -36.6127 136.229C-36.4131 137.167 -36.2123 138.105 -36.0242 139.041ZM-139.483 607.355C-138.637 607.07 -137.789 606.787 -136.936 606.506C-136.965 605.574 -136.987 604.644 -137.008 603.715C-137.814 604.024 -138.619 604.334 -139.418 604.646C-139.445 605.548 -139.468 606.451 -139.483 607.355ZM-142.969 608.549C-142.144 608.264 -141.325 607.974 -140.493 607.692C-140.479 606.809 -140.46 605.927 -140.436 605.046C-141.219 605.354 -142.006 605.66 -142.78 605.971C-142.848 606.829 -142.911 607.689 -142.969 608.549ZM-146.403 609.758C-145.606 609.473 -144.807 609.188 -144.001 608.907C-143.945 608.07 -143.89 607.233 -143.826 606.398C-144.587 606.706 -145.348 607.014 -146.1 607.325C-146.208 608.134 -146.303 608.947 -146.403 609.758ZM-149.79 610.982C-149.022 610.699 -148.24 610.42 -147.463 610.14C-147.368 609.348 -147.271 608.557 -147.169 607.767C-147.902 608.073 -148.626 608.383 -149.352 608.693C-149.502 609.455 -149.651 610.217 -149.79 610.982ZM-153.106 612.229C-152.371 611.949 -151.629 611.671 -150.886 611.394C-150.753 610.648 -150.605 609.905 -150.46 609.163C-151.167 609.468 -151.867 609.777 -152.566 610.085C-152.752 610.798 -152.93 611.513 -153.106 612.229ZM-156.362 613.492C-155.652 613.213 -154.949 612.933 -154.231 612.656C-154.066 611.969 -153.903 611.282 -153.728 610.598C-154.397 610.896 -155.066 611.194 -155.727 611.494C-155.943 612.159 -156.154 612.825 -156.362 613.492ZM-159.554 614.77C-158.885 614.498 -158.218 614.225 -157.542 613.956C-157.346 613.32 -157.142 612.687 -156.937 612.053C-157.566 612.342 -158.199 612.63 -158.821 612.922C-159.07 613.537 -159.317 614.152 -159.554 614.77ZM-162.66 616.048C-162.043 615.789 -161.413 615.534 -160.789 615.276C-160.569 614.698 -160.35 614.12 -160.122 613.543C-160.713 613.826 -161.299 614.109 -161.884 614.394C-162.147 614.944 -162.403 615.496 -162.66 616.048ZM-165.705 617.359C-165.137 617.112 -164.563 616.867 -163.989 616.621C-163.752 616.1 -163.503 615.582 -163.259 615.063C-163.801 615.332 -164.33 615.606 -164.866 615.876C-165.149 616.37 -165.43 616.863 -165.705 617.359ZM-168.637 618.667C-168.129 618.437 -167.627 618.206 -167.113 617.978C-166.874 617.536 -166.642 617.091 -166.397 616.651C-166.868 616.894 -167.334 617.14 -167.802 617.385C-168.083 617.811 -168.361 618.238 -168.637 618.667ZM-171.468 619.968C-171.046 619.77 -170.627 619.571 -170.202 619.375C-169.971 619.009 -169.727 618.647 -169.49 618.283C-169.879 618.491 -170.276 618.697 -170.66 618.906C-170.932 619.259 -171.202 619.613 -171.468 619.968ZM-174.134 621.238C-173.828 621.088 -173.512 620.942 -173.203 620.793C-173.009 620.531 -172.82 620.267 -172.624 620.006C-172.905 620.163 -173.19 620.319 -173.468 620.478C-173.692 620.731 -173.915 620.983 -174.134 621.238ZM-176.636 622.483L-176.175 622.253C-176.065 622.122 -175.961 621.99 -175.85 621.86L-176.265 622.105C-176.392 622.23 -176.509 622.358 -176.636 622.483ZM68.6255 234.791C69.2038 235.346 69.7956 235.906 70.3748 236.46C70.1816 236.225 69.9956 235.995 69.7999 235.76C69.2004 235.167 68.5771 234.562 67.9699 233.967C68.183 234.238 68.4141 234.519 68.6255 234.791ZM60.9665 227.52C61.9944 228.483 62.9982 229.432 64.0057 230.385C63.6384 229.923 63.2656 229.456 62.895 228.992C61.8819 228.004 60.9177 227.041 59.8898 226.046C60.26 226.543 60.601 227.026 60.9665 227.52ZM53.2999 220.373C54.6726 221.655 56.0584 222.942 57.4294 224.222C56.9293 223.558 56.3816 222.873 55.8742 222.206C54.5741 220.957 53.2494 219.697 51.9417 218.445C52.3998 219.09 52.8482 219.731 53.2999 220.373ZM45.4915 213.174C47.0404 214.586 48.5939 216 50.102 217.392C49.5823 216.665 49.1026 215.956 48.5749 215.225C47.0485 213.78 45.4873 212.318 43.9202 210.853C44.4386 211.624 44.9816 212.407 45.4915 213.174ZM37.3817 205.775C39.153 207.384 40.8896 208.976 42.6461 210.578C42.0873 209.749 41.5285 208.919 40.9579 208.085C39.2507 206.489 37.5634 204.904 35.8388 203.301C36.3623 204.129 36.8697 204.952 37.3817 205.775ZM29.0549 198.308C31.0198 200.06 32.9933 201.815 34.9115 203.544C34.3417 202.641 33.7261 201.719 33.144 200.811C31.312 199.122 29.4268 197.408 27.5502 195.698C28.0648 196.573 28.5539 197.438 29.0549 198.308ZM20.5507 190.732C22.6757 192.611 24.7476 194.464 26.8374 196.326C26.3049 195.417 25.8124 194.524 25.2673 193.61C23.2025 191.732 21.1476 189.857 19.0438 187.959C19.5431 188.883 20.0641 189.814 20.5507 190.732ZM11.7942 183.054C14.0495 185.026 16.2993 186.995 18.5152 188.947C18.0074 188.001 17.4907 187.052 16.9676 186.1C14.8231 184.171 12.6539 182.231 10.4742 180.286C10.931 181.215 11.3509 182.131 11.7942 183.054ZM2.82834 175.266C5.24121 177.347 7.63539 179.42 9.99307 181.475C9.5201 180.503 9.01659 179.52 8.52748 178.543C6.25131 176.521 3.92673 174.476 1.59198 172.426C2.00975 173.374 2.42542 174.322 2.82834 175.266ZM-6.36371 167.352C-3.83536 169.52 -1.34393 171.67 1.15257 173.823C0.735214 172.861 0.328003 171.903 -0.104202 170.936C-2.54468 168.794 -4.952 166.666 -7.42728 164.507C-7.06129 165.459 -6.71568 166.404 -6.36371 167.352ZM-15.7554 159.385C-13.1098 161.616 -10.4503 163.854 -7.87607 166.051C-8.2412 165.081 -8.6369 164.103 -9.01732 163.13C-11.527 160.95 -14.1059 158.738 -16.681 156.527C-16.371 157.48 -16.0513 158.435 -15.7554 159.385ZM-25.4132 151.236C-22.6318 153.569 -19.9171 155.87 -17.1764 158.182C-17.483 157.221 -17.7929 156.259 -18.1122 155.294C-20.7679 153.015 -23.4173 150.738 -26.1214 148.435C-25.8764 149.371 -25.6468 150.303 -25.4132 151.236ZM-35.26 143.045C-32.3822 145.43 -29.5189 147.807 -26.7056 150.161C-26.9472 149.218 -27.171 148.279 -27.4223 147.334C-30.1778 144.992 -32.9605 142.637 -35.7716 140.268C-35.5895 141.196 -35.4316 142.119 -35.26 143.045ZM-139.518 610.804C-138.613 610.54 -137.71 610.276 -136.798 610.015C-136.841 609.069 -136.877 608.125 -136.909 607.181C-137.774 607.467 -138.638 607.752 -139.491 608.041C-139.504 608.961 -139.516 609.881 -139.518 610.804ZM-143.178 611.885C-142.299 611.621 -141.413 611.359 -140.526 611.098C-140.525 610.193 -140.513 609.29 -140.499 608.388C-141.342 608.676 -142.178 608.967 -143.014 609.258C-143.073 610.133 -143.133 611.007 -143.178 611.885ZM-146.772 612.977C-145.923 612.713 -145.057 612.456 -144.199 612.195C-144.156 611.333 -144.102 610.475 -144.046 609.615C-144.871 609.905 -145.68 610.201 -146.495 610.494C-146.593 611.32 -146.685 612.149 -146.772 612.977ZM-150.318 614.101C-149.488 613.835 -148.654 613.57 -147.816 613.307C-147.734 612.496 -147.65 611.685 -147.555 610.876C-148.35 611.165 -149.141 611.456 -149.929 611.749C-150.064 612.531 -150.191 613.316 -150.318 614.101ZM-153.819 615.245C-153.01 614.977 -152.208 614.706 -151.39 614.441C-151.268 613.678 -151.14 612.917 -151.012 612.156C-151.773 612.442 -152.54 612.726 -153.293 613.016C-153.473 613.758 -153.654 614.499 -153.819 615.245ZM-157.232 616.394C-156.464 616.131 -155.693 615.869 -154.917 615.609C-154.759 614.89 -154.592 614.173 -154.422 613.458C-155.161 613.745 -155.896 614.033 -156.626 614.323C-156.835 615.011 -157.032 615.703 -157.232 616.394ZM-160.597 617.563C-159.865 617.302 -159.115 617.048 -158.375 616.791C-158.184 616.124 -157.998 615.455 -157.8 614.79C-158.501 615.073 -159.189 615.359 -159.881 615.644C-160.122 616.283 -160.367 616.921 -160.597 617.563ZM-163.878 618.758C-163.188 618.504 -162.494 618.251 -161.795 617.999C-161.576 617.381 -161.345 616.766 -161.114 616.151C-161.782 616.43 -162.443 616.714 -163.104 616.996C-163.37 617.581 -163.622 618.17 -163.878 618.758ZM-167.106 619.973C-166.449 619.722 -165.798 619.467 -165.133 619.218C-164.897 618.665 -164.662 618.111 -164.418 617.561C-165.026 617.825 -165.637 618.089 -166.239 618.356C-166.53 618.894 -166.825 619.431 -167.106 619.973ZM-170.215 621.183C-169.625 620.948 -169.034 620.715 -168.438 620.483C-168.184 619.986 -167.924 619.492 -167.66 618.998C-168.224 619.252 -168.794 619.505 -169.352 619.762C-169.647 620.233 -169.925 620.709 -170.215 621.183ZM-173.259 622.41C-172.733 622.193 -172.194 621.982 -171.663 621.767C-171.407 621.338 -171.145 620.91 -170.884 620.482C-171.378 620.715 -171.87 620.949 -172.359 621.184C-172.66 621.593 -172.967 621.998 -173.259 622.41ZM-176.155 623.638C-175.716 623.45 -175.276 623.262 -174.832 623.076C-174.59 622.727 -174.355 622.376 -174.107 622.029C-174.523 622.233 -174.93 622.441 -175.342 622.647C-175.617 622.976 -175.885 623.307 -176.155 623.638ZM-178.944 624.858C-178.61 624.709 -178.283 624.558 -177.946 624.41C-177.737 624.149 -177.52 623.892 -177.307 623.633C-177.623 623.795 -177.927 623.962 -178.238 624.125C-178.474 624.369 -178.712 624.612 -178.944 624.858ZM-181.434 625.978C-181.279 625.906 -181.118 625.837 -180.961 625.765L-180.61 625.38C-180.746 625.455 -180.889 625.527 -181.025 625.601L-181.434 625.978ZM80.25 247.257L82.0167 248.938L81.508 248.335C80.9306 247.769 80.3387 247.196 79.7608 246.63C79.929 246.841 80.0827 247.046 80.25 247.257ZM72.6569 240.124C73.6818 241.076 74.7203 242.036 75.724 242.979C75.3359 242.498 74.9198 242.004 74.5284 241.522C73.5531 240.579 72.5596 239.628 71.5606 238.674C71.9321 239.16 72.29 239.641 72.6569 240.124ZM64.9113 232.915C66.2686 234.169 67.5725 235.396 68.9159 236.642C68.4616 236.052 68.0485 235.481 67.5883 234.888C66.23 233.595 64.8846 232.306 63.517 231.007C63.9798 231.642 64.4549 232.283 64.9113 232.915ZM57.0995 225.787C58.5974 227.151 60.1072 228.519 61.5826 229.871C61.037 229.128 60.5063 228.39 59.9522 227.642C58.493 226.272 56.9882 224.879 55.498 223.492C56.0249 224.254 56.5819 225.029 57.0995 225.787ZM48.7961 218.26C50.5814 219.864 52.3298 221.449 54.0808 223.036C53.5034 222.203 52.8962 221.357 52.306 220.519C50.626 218.96 48.9663 217.412 47.2566 215.839C47.7864 216.653 48.2743 217.45 48.7961 218.26ZM40.4187 210.779C42.3828 212.529 44.3444 214.278 46.2842 216.017C45.7043 215.129 45.1057 214.232 44.5125 213.338C42.6329 211.616 40.7261 209.882 38.8206 208.148C39.359 209.027 39.8926 209.905 40.4187 210.779ZM31.9004 203.257C33.9711 205.071 36.0409 206.884 38.0589 208.672C37.5027 207.76 36.9695 206.857 36.3993 205.939C34.3982 204.129 32.3496 202.296 30.2951 200.46C30.8216 201.389 31.3867 202.333 31.9004 203.257ZM22.9737 195.437C25.26 197.428 27.4874 199.39 29.7427 201.367C29.2035 200.411 28.6337 199.443 28.0796 198.481C25.9109 196.544 23.7753 194.623 21.5773 192.672C22.0613 193.6 22.5037 194.513 22.9737 195.437ZM13.9773 187.686C16.3643 189.734 18.7581 191.785 21.0873 193.804C20.5914 192.843 20.0972 191.883 19.5855 190.917C17.3051 188.902 14.9619 186.857 12.6238 184.816C13.076 185.773 13.5404 186.735 13.9773 187.686ZM4.6927 179.734C7.22658 181.891 9.71373 184.024 12.2009 186.157C11.7466 185.186 11.2927 184.214 10.824 183.238C8.41493 181.134 5.99866 179.027 3.54036 176.899C3.93945 177.849 4.30719 178.789 4.6927 179.734ZM-4.77414 171.728C-2.12224 173.962 0.511002 176.189 3.11536 178.4C2.71117 177.423 2.28365 176.439 1.86459 175.457C-0.676498 173.263 -3.23755 171.059 -5.82196 168.843C-5.47083 169.805 -5.11125 170.769 -4.77414 171.728ZM-14.4922 163.589C-11.7295 165.891 -8.97487 168.188 -6.27498 170.459C-6.62186 169.488 -6.97215 168.517 -7.33389 167.542C-9.95268 165.305 -12.6343 163.036 -15.3185 160.766C-15.0289 161.711 -14.7708 162.648 -14.4922 163.589ZM-24.4108 155.338C-21.5233 157.728 -18.6985 160.087 -15.8526 162.457C-16.1404 161.498 -16.4236 160.54 -16.7259 159.577C-19.5116 157.221 -22.2607 154.882 -25.0931 152.504C-24.8604 153.45 -24.6316 154.395 -24.4108 155.338ZM-34.5416 147.031C-31.5581 149.467 -28.5653 151.908 -25.6616 154.304C-25.8896 153.349 -26.1469 152.387 -26.386 151.429C-29.2225 149.054 -32.1309 146.643 -35.0414 144.231C-34.8724 145.165 -34.7009 146.099 -34.5416 147.031ZM-139.493 614.263C-138.538 614.024 -137.574 613.788 -136.609 613.552C-136.665 612.591 -136.725 611.629 -136.773 610.669C-137.697 610.934 -138.609 611.203 -139.524 611.471C-139.521 612.4 -139.504 613.332 -139.493 614.263ZM-143.318 615.233C-142.385 614.992 -141.439 614.755 -140.497 614.517C-140.508 613.599 -140.522 612.68 -140.526 611.763C-141.426 612.029 -142.317 612.298 -143.207 612.568C-143.247 613.455 -143.286 614.343 -143.318 615.233ZM-147.093 616.229C-146.179 615.984 -145.261 615.74 -144.337 615.499C-144.307 614.623 -144.268 613.75 -144.227 612.878C-145.102 613.144 -145.977 613.412 -146.842 613.682C-146.931 614.53 -147.018 615.378 -147.093 616.229ZM-150.795 617.237C-149.906 616.991 -149.022 616.745 -148.125 616.502C-148.053 615.67 -147.971 614.841 -147.888 614.013C-148.74 614.281 -149.595 614.549 -150.437 614.821C-150.564 615.625 -150.679 616.431 -150.795 617.237ZM-154.453 618.266C-153.59 618.018 -152.722 617.774 -151.849 617.53C-151.738 616.744 -151.632 615.956 -151.511 615.173C-152.337 615.443 -153.158 615.715 -153.976 615.989C-154.139 616.747 -154.3 617.505 -154.453 618.266ZM-158.04 619.31C-157.214 619.064 -156.375 618.824 -155.538 618.582C-155.391 617.836 -155.232 617.095 -155.072 616.352C-155.875 616.623 -156.662 616.901 -157.455 617.175C-157.656 617.885 -157.852 618.596 -158.04 619.31ZM-161.564 620.385C-160.765 620.138 -159.962 619.891 -159.153 619.647C-158.972 618.954 -158.792 618.262 -158.6 617.572C-159.365 617.841 -160.128 618.111 -160.886 618.384C-161.117 619.049 -161.342 619.717 -161.564 620.385ZM-165.026 621.477C-164.26 621.231 -163.501 620.983 -162.725 620.739C-162.514 620.097 -162.293 619.457 -162.072 618.816C-162.797 619.08 -163.53 619.342 -164.246 619.609C-164.512 620.23 -164.773 620.853 -165.026 621.477ZM-168.406 622.581C-167.686 622.34 -166.959 622.102 -166.232 621.865C-165.995 621.273 -165.759 620.682 -165.511 620.093C-166.199 620.354 -166.883 620.613 -167.561 620.877C-167.846 621.444 -168.129 622.011 -168.406 622.581ZM-171.705 623.7C-171.042 623.469 -170.364 623.245 -169.693 623.017C-169.433 622.474 -169.16 621.934 -168.889 621.395C-169.536 621.65 -170.172 621.91 -170.813 622.169C-171.116 622.677 -171.411 623.188 -171.705 623.7ZM-174.928 624.85C-174.309 624.626 -173.689 624.403 -173.063 624.182C-172.795 623.705 -172.535 623.225 -172.258 622.751C-172.843 622.992 -173.414 623.238 -173.991 623.481C-174.305 623.937 -174.621 624.391 -174.928 624.85ZM-178.035 625.999C-177.489 625.793 -176.95 625.583 -176.397 625.379C-176.128 624.967 -175.846 624.558 -175.566 624.149C-176.09 624.374 -176.614 624.6 -177.132 624.827C-177.441 625.215 -177.734 625.609 -178.035 625.999ZM-181.042 627.15C-180.58 626.969 -180.113 626.789 -179.646 626.61C-179.393 626.276 -179.138 625.945 -178.883 625.613C-179.307 625.804 -179.738 625.992 -180.158 626.184C-180.451 626.507 -180.754 626.826 -181.042 627.15ZM-183.851 628.279C-183.518 628.142 -183.178 628.009 -182.843 627.874C-182.638 627.637 -182.443 627.397 -182.234 627.162C-182.545 627.309 -182.856 627.456 -183.163 627.603C-183.396 627.827 -183.621 628.054 -183.851 628.279ZM-186.52 629.397L-185.987 629.171C-185.867 629.048 -185.739 628.929 -185.617 628.807L-186.102 629.051C-186.239 629.167 -186.383 629.281 -186.52 629.397ZM92.0834 259.792C92.7457 260.412 93.369 261.013 94.0228 261.629L93.6841 261.234L91.6622 259.265L92.0834 259.792ZM84.5909 252.824C85.6133 253.777 86.6522 254.737 87.6733 255.689C87.3133 255.251 86.9698 254.821 86.6063 254.381C85.5903 253.406 84.5369 252.414 83.5035 251.43C83.8653 251.894 84.2342 252.362 84.5909 252.824ZM76.8716 245.699C78.1063 246.823 79.3337 247.945 80.5387 249.054C80.0844 248.476 79.6505 247.908 79.1902 247.327C77.9097 246.115 76.6623 244.92 75.3597 243.698C75.8522 244.36 76.3863 245.04 76.8716 245.699ZM68.7495 238.302C70.2775 239.691 71.7988 241.077 73.3192 242.463C72.763 241.722 72.1941 240.974 71.6277 240.229C70.1973 238.893 68.7427 237.546 67.3051 236.207C67.8061 236.915 68.2552 237.599 68.7495 238.302ZM60.4753 230.873C62.253 232.456 64.0447 234.045 65.7757 235.605C65.1749 234.761 64.5147 233.891 63.9029 233.043C62.2538 231.524 60.5564 229.982 58.8611 228.44C59.4092 229.256 59.9382 230.062 60.4753 230.873ZM52.0254 223.337C53.9801 225.067 55.8707 226.765 57.7979 228.482C57.2209 227.626 56.6898 226.789 56.1013 225.927C54.175 224.174 52.2844 222.439 50.3317 220.674C50.893 221.56 51.4768 222.456 52.0254 223.337ZM43.3789 215.761C45.4584 217.578 47.5393 219.396 49.579 221.193C48.9952 220.27 48.4093 219.346 47.8123 218.417C45.8372 216.642 43.8136 214.843 41.7956 213.047C42.334 213.956 42.8545 214.858 43.3789 215.761ZM34.4373 207.984C36.7215 209.956 38.9768 211.915 41.2126 213.863C40.645 212.9 40.0209 211.913 39.4388 210.943C37.2913 209.036 35.1319 207.123 32.9389 205.193C33.4523 206.129 33.9388 207.054 34.4373 207.984ZM25.3708 200.182C27.7463 202.22 30.1036 204.25 32.449 206.273C31.931 205.32 31.4517 204.383 30.9197 203.424C28.5972 201.385 26.2607 199.339 23.9065 197.284C24.3905 198.247 24.9021 199.223 25.3708 200.182ZM16.0051 192.222C18.519 194.346 21.0444 196.475 23.4942 198.567C23.0081 197.588 22.5045 196.602 22.0031 195.617C19.6395 193.564 17.2024 191.475 14.7747 189.39C15.2048 190.341 15.589 191.275 16.0051 192.222ZM6.46144 184.159C9.12567 186.396 11.7198 188.599 14.3403 190.814C13.9034 189.836 13.4597 188.854 13.0067 187.869C10.4448 185.668 7.90712 183.478 5.30064 181.254C5.68829 182.223 6.08867 183.195 6.46144 184.159ZM-3.31274 176.023C-0.555542 178.311 2.20212 180.598 4.89691 182.856C4.51138 181.88 4.12248 180.902 3.72253 179.92C1.10374 177.693 -1.57152 175.437 -4.24974 173.181C-3.91942 174.133 -3.62904 175.074 -3.31274 176.023ZM-13.2695 167.788C-10.3981 170.151 -7.5538 172.5 -4.74055 174.834C-5.06918 173.863 -5.40166 172.891 -5.74515 171.916C-8.50066 169.596 -11.2905 167.259 -14.1063 164.909C-13.8295 165.868 -13.5331 166.833 -13.2695 167.788ZM-23.4976 159.405C-20.5102 161.845 -17.5522 164.269 -14.6171 166.684C-14.8884 165.718 -15.1818 164.746 -15.4675 163.778C-18.3376 161.384 -21.2172 158.986 -24.1344 156.57C-23.9187 157.516 -23.7022 158.462 -23.4976 159.405ZM-33.9149 150.961C-30.8355 153.445 -27.7476 155.935 -24.7454 158.381C-24.9564 157.431 -25.1644 156.481 -25.3869 155.528C-28.3195 153.105 -31.345 150.636 -34.3591 148.172C-34.2066 149.102 -34.0576 150.032 -33.9149 150.961ZM-24.4754 159.591C-27.5128 157.112 -30.6262 154.597 -33.7349 152.083C-20.8605 238.118 -52.2083 316.788 -83.5183 395.367C-102.531 443.084 -121.526 490.768 -130.59 540.045C-119.311 497.687 -99.9405 456.793 -80.4537 415.66C-42.4422 335.422 -4.01329 254.273 -24.4754 159.591ZM-14.2486 167.969C-17.2062 165.535 -20.2092 163.078 -23.2254 160.614C-3.26344 254.921 -41.593 335.817 -79.4895 415.812C-100.036 459.183 -120.448 502.29 -131.374 547.122C-118.449 508.181 -97.6253 470.824 -76.5951 433.11C-31.7241 352.647 14.0601 270.558 -14.2486 167.969ZM67.7322 238.419C65.8912 236.755 64.0337 235.081 62.1498 233.394C167.834 395.192 55.8461 462.18 -49.384 525.077C-79.7251 543.213 -109.492 561.011 -133.294 580.653M-139.427 617.744C-138.418 617.53 -137.402 617.319 -136.383 617.108C-136.453 616.133 -136.514 615.158 -136.573 614.184C-137.548 614.424 -138.521 614.665 -139.486 614.908C-139.472 615.852 -139.452 616.798 -139.427 617.744ZM-143.408 618.608C-142.416 618.39 -141.427 618.17 -140.426 617.956C-140.452 617.024 -140.474 616.092 -140.489 615.162C-141.443 615.404 -142.401 615.645 -143.345 615.891C-143.374 616.795 -143.39 617.702 -143.408 618.608ZM-147.342 619.49C-146.371 619.269 -145.4 619.047 -144.419 618.829C-144.403 617.939 -144.391 617.048 -144.365 616.161C-145.295 616.405 -146.224 616.649 -147.144 616.897C-147.214 617.76 -147.282 618.624 -147.342 619.49ZM-151.217 620.388C-150.275 620.165 -149.323 619.945 -148.37 619.726C-148.312 618.874 -148.244 618.023 -148.176 617.174C-149.088 617.422 -149.988 617.675 -150.891 617.927C-151.005 618.746 -151.116 619.566 -151.217 620.388ZM-155.026 621.307C-154.112 621.082 -153.185 620.861 -152.258 620.64C-152.161 619.831 -152.056 619.024 -151.945 618.219C-152.837 618.471 -153.72 618.726 -154.603 618.981C-154.752 619.754 -154.887 620.531 -155.026 621.307ZM-158.794 622.258C-157.896 622.029 -157 621.799 -156.092 621.572C-155.958 620.812 -155.825 620.052 -155.681 619.294C-156.533 619.544 -157.387 619.793 -158.229 620.046C-158.422 620.782 -158.615 621.518 -158.794 622.258ZM-162.466 623.219C-161.606 622.99 -160.75 622.76 -159.881 622.534C-159.71 621.816 -159.527 621.102 -159.343 620.387C-160.171 620.639 -161.004 620.889 -161.823 621.144C-162.045 621.833 -162.255 622.527 -162.466 623.219ZM-166.105 624.206C-165.274 623.976 -164.435 623.749 -163.595 623.521C-163.392 622.851 -163.194 622.18 -162.981 621.512C-163.773 621.763 -164.558 622.016 -165.34 622.27C-165.599 622.915 -165.861 623.558 -166.105 624.206ZM-169.634 625.205C-168.854 624.979 -168.058 624.759 -167.27 624.536C-167.037 623.907 -166.792 623.282 -166.544 622.657C-167.313 622.911 -168.066 623.171 -168.825 623.429C-169.104 624.017 -169.365 624.612 -169.634 625.205ZM-173.124 626.243C-172.373 626.016 -171.622 625.79 -170.862 625.566C-170.607 624.995 -170.349 624.424 -170.086 623.855C-170.798 624.1 -171.505 624.347 -172.21 624.596C-172.518 625.143 -172.827 625.691 -173.124 626.243ZM-176.5 627.288C-175.801 627.067 -175.109 626.843 -174.402 626.626C-174.129 626.11 -173.853 625.595 -173.569 625.082C-174.23 625.319 -174.9 625.554 -175.553 625.795C-175.875 626.29 -176.187 626.789 -176.5 627.288ZM-179.801 628.347C-179.168 628.139 -178.527 627.933 -177.886 627.727C-177.602 627.265 -177.304 626.806 -177.011 626.346C-177.618 626.574 -178.227 626.802 -178.828 627.033C-179.158 627.469 -179.481 627.908 -179.801 628.347ZM-182.992 629.421C-182.43 629.228 -181.855 629.039 -181.288 628.848C-181.007 628.454 -180.735 628.057 -180.447 627.665C-180.981 627.875 -181.506 628.088 -182.035 628.301C-182.354 628.674 -182.678 629.046 -182.992 629.421ZM-186.056 630.506C-185.589 630.338 -185.121 630.169 -184.648 630.003C-184.379 629.673 -184.1 629.347 -183.822 629.02C-184.29 629.214 -184.742 629.413 -185.204 629.608C-185.496 629.905 -185.77 630.208 -186.056 630.506ZM-188.986 631.582C-188.62 631.444 -188.263 631.302 -187.894 631.166C-187.677 630.934 -187.455 630.704 -187.238 630.474C-187.569 630.618 -187.897 630.764 -188.227 630.91C-188.477 631.135 -188.738 631.356 -188.986 631.582ZM-191.618 632.586C-191.45 632.519 -191.275 632.456 -191.106 632.391C-190.986 632.279 -190.871 632.165 -190.752 632.053C-190.904 632.124 -191.063 632.192 -191.216 632.263L-191.618 632.586ZM-44.8134 139.632C-44.7234 140.55 -44.6253 141.468 -44.5442 142.385C-41.3353 144.956 -38.2253 147.48 -35.08 150.02C-35.2265 149.087 -35.3678 148.153 -35.5271 147.217C-38.6129 144.693 -41.6694 142.184 -44.8134 139.632ZM-45.2061 135.826C-45.1047 136.74 -45.0104 137.653 -44.9179 138.565C-41.8091 141.087 -38.7755 143.572 -35.7186 146.068C-35.8824 145.125 -36.0671 144.178 -36.2404 143.234C-39.2116 140.773 -42.1823 138.313 -45.2061 135.826ZM-45.663 131.987C-45.5475 132.901 -45.4431 133.813 -45.3386 134.726C-42.3513 137.18 -39.3928 139.62 -36.4599 142.048C-36.6369 141.108 -36.8135 140.17 -37.002 139.228C-39.8505 136.833 -42.7572 134.409 -45.663 131.987ZM-46.184 128.111C-46.0545 129.031 -45.9169 129.952 -45.7968 130.871C-42.9419 133.25 -40.0582 135.642 -37.2598 137.994C-37.4517 137.054 -37.6461 136.115 -37.8499 135.173C-40.5753 132.844 -43.3988 130.468 -46.184 128.111ZM-46.7504 124.207C-46.609 125.124 -46.4769 126.04 -46.3453 126.956C-43.586 129.29 -40.8084 131.632 -38.1098 133.938C-38.3165 133 -38.5492 132.058 -38.767 131.118C-41.4003 128.827 -44.0551 126.527 -46.7504 124.207ZM-47.3796 120.309C-47.228 121.207 -47.0875 122.105 -46.9448 123.002C-44.2789 125.294 -41.6796 127.555 -39.0723 129.82C-39.2948 128.882 -39.5096 127.945 -39.7431 127.006C-42.2303 124.8 -44.8321 122.543 -47.3796 120.309ZM-48.0873 116.338C-47.9183 117.253 -47.7413 118.169 -47.5821 119.083C-45.1039 121.253 -42.5309 123.467 -40.1061 125.611C-40.3405 124.693 -40.5808 123.774 -40.8258 122.855C-43.2052 120.701 -45.6494 118.519 -48.0873 116.338ZM-48.8448 112.35C-48.6635 113.256 -48.4911 114.163 -48.32 115.069C-45.9433 117.191 -43.5172 119.336 -41.1969 121.432C-41.4465 120.513 -41.7174 119.591 -41.9785 118.67C-44.2424 116.574 -46.524 114.47 -48.8448 112.35ZM-49.6744 108.324C-49.4799 109.225 -49.2999 110.126 -49.1165 111.026C-46.8646 113.081 -44.6067 115.139 -42.4074 117.17C-42.6689 116.268 -42.9164 115.369 -43.1873 114.465C-45.3416 112.422 -47.4666 110.391 -49.6744 108.324ZM-50.5906 104.252C-50.3822 105.154 -50.169 106.055 -49.9712 106.955C-47.847 108.94 -45.7586 110.909 -43.6871 112.871C-43.9626 111.97 -44.247 111.069 -44.5336 110.166C-46.5584 108.192 -48.517 106.247 -50.5906 104.252ZM-51.5498 100.216C-51.3345 101.088 -51.1209 101.96 -50.9154 102.832C-48.9199 104.748 -46.9949 106.632 -45.0469 108.527C-45.3382 107.632 -45.652 106.733 -45.9521 105.836C-47.8177 103.963 -49.6434 102.106 -51.5498 100.216ZM-52.5705 96.1677C-52.351 96.9995 -52.1514 97.8304 -51.9412 98.6616C-50.0973 100.486 -48.3548 102.268 -46.5521 104.074C-46.8488 103.212 -47.1304 102.351 -47.4361 101.487C-49.1339 99.7193 -50.8344 97.951 -52.5705 96.1677ZM-53.6956 92.0601C-53.4676 92.877 -53.24 93.6938 -53.0214 94.5103C-51.3604 96.209 -49.7734 97.8772 -48.143 99.5643C-48.4495 98.7156 -48.7612 97.8668 -49.0788 97.0168C-50.5928 95.374 -52.1459 93.7169 -53.6956 92.0601ZM-54.8776 87.9539C-54.6432 88.7425 -54.4021 89.5319 -54.1758 90.32C-52.7046 91.8843 -51.2712 93.4343 -49.8268 94.9881C-50.1423 94.1611 -50.4845 93.3295 -50.8085 92.501C-52.1319 90.9971 -53.5206 89.4697 -54.8776 87.9539ZM-56.108 83.8671C-55.88 84.5973 -55.6686 85.3259 -55.4465 86.0551C-54.1872 87.4554 -52.9348 88.8526 -51.6992 90.2435C-51.9981 89.4977 -52.2924 88.7525 -52.5989 88.0054C-53.7436 86.6347 -54.9366 85.2466 -56.108 83.8671ZM-57.4493 79.7332C-57.2268 80.4058 -57.0115 81.0788 -56.7946 81.7513C-55.7692 82.9514 -54.7265 84.1575 -53.7189 85.351C-53.9873 84.7161 -54.2513 84.082 -54.5243 83.446C-55.4945 82.2098 -56.4583 80.9763 -57.4493 79.7332ZM-58.8049 75.7387C-58.6113 76.2957 -58.4109 76.8531 -58.2216 77.4099C-57.4616 78.3551 -56.6698 79.3107 -55.9225 80.2516C-56.1331 79.7739 -56.353 79.295 -56.5678 78.8169C-57.3151 77.79 -58.0432 76.7696 -58.8049 75.7387ZM-60.0816 72.0934C-59.9729 72.3893 -59.8736 72.6852 -59.7679 72.9809C-59.3123 73.5901 -58.836 74.2061 -58.3863 74.8127C-58.4912 74.5888 -58.6041 74.364 -58.709 74.1396L-60.0816 72.0934ZM-131.631 612.995C-131.527 614.023 -131.42 615.051 -131.304 616.081C-98.1339 609.506 -60.3665 604.669 -21.8714 599.744C53.0291 590.162 130.664 580.229 182.192 556.407C257.732 521.483 277.225 456.608 150.122 319.077C265.774 451.002 240.81 513.788 164.177 548.948C114.828 571.589 44.0922 582.748 -24.3148 593.539C-62.1502 599.508 -99.2654 605.367 -131.631 612.995ZM-131.995 609.326C-131.901 610.341 -131.794 611.358 -131.692 612.375C-99.3482 604.782 -62.3217 598.936 -24.5773 592.983C43.7278 582.207 114.362 571.064 163.553 548.496C242.405 512.318 266.198 446.682 137.259 305.956C254.886 441.482 225.014 505.119 144.664 541.682C98.0878 562.876 34.5812 574.95 -26.9893 586.655C-64.0795 593.706 -100.463 600.624 -131.995 609.326ZM-132.294 605.677C-132.217 606.679 -132.137 607.681 -132.048 608.684C-100.552 600.03 -64.2765 593.134 -27.3035 586.105C34.1863 574.415 97.6075 562.358 144.045 541.227C226.731 503.602 255.636 437.111 124.189 292.48C244.528 432.455 208.686 497.042 123.97 535.25C80.709 554.761 24.7365 567.374 -29.6858 579.637C-66.0079 587.822 -101.627 595.854 -132.294 605.677ZM-132.56 602.043C-132.494 603.034 -132.424 604.025 -132.348 605.018C-101.726 595.254 -66.2342 587.252 -30.0496 579.099C24.3086 566.849 80.2156 554.251 123.355 534.795C210.082 495.68 245.354 428.773 113.026 280.97L112.346 280.308C234.604 424.686 191.193 489.935 101.601 529.952C62.416 547.455 14.4167 560.12 -32.4052 572.473C-67.9359 581.848 -102.78 591.045 -132.56 602.043ZM-132.791 598.434C-132.734 599.409 -132.667 600.386 -132.603 601.362C-102.88 590.438 -68.1906 581.28 -32.8217 571.948C13.9476 559.608 61.8925 546.958 100.99 529.495C191.609 489.018 234.737 422.58 105.776 273.917C105.098 273.263 104.459 272.628 103.774 271.97C224.716 419.347 171.403 484.424 76.65 526.304C42.6537 541.33 3.34335 553.362 -35.1518 565.145C-69.8737 575.772 -103.927 586.198 -132.791 598.434ZM-132.962 594.842C-132.92 595.8 -132.879 596.757 -132.827 597.716C-104.03 585.574 -70.153 575.203 -35.6184 564.633C2.84151 552.861 42.1144 540.84 76.0432 525.844C171.54 483.636 224.789 417.762 98.7297 267.169C97.7179 266.206 96.6896 265.234 95.6778 264.269C247.967 456.782 99.7121 509.095 -37.9221 557.627C-71.8106 569.577 -105.043 581.302 -132.962 594.842ZM-133.104 591.263C-133.072 592.204 -133.036 593.146 -132.997 594.089C-105.154 580.662 -72.1218 569.009 -38.4435 557.133C99.9105 508.347 248.991 455.718 90.996 259.829C89.8811 258.781 88.7186 257.71 87.5735 256.648C227.845 441.376 88.7161 497.583 -40.7294 549.896C-73.7624 563.245 -106.161 576.342 -133.104 591.263ZM-133.208 587.714C-133.184 588.631 -133.156 589.549 -133.128 590.467C-106.27 575.684 -74.099 562.678 -41.3009 549.423C88.7169 496.879 228.441 440.358 83.5345 252.895C82.0443 251.513 80.5935 250.151 79.085 248.76C207.775 425.904 77.7785 485.926 -43.5715 541.921C-75.7332 556.762 -107.273 571.322 -133.208 587.714ZM-133.264 584.171C-133.255 585.064 -133.248 585.957 -133.23 586.852C-107.388 570.63 -76.0929 556.187 -44.1948 541.469C77.5768 485.279 208.113 425.043 75.8445 245.802C74.1467 244.247 72.4089 242.673 70.6813 241.103C187.718 410.529 66.8019 474.143 -46.4523 533.663C-77.7131 550.092 -108.376 566.213 -133.264 584.171ZM-133.28 577.147C-133.285 577.973 -133.289 578.798 -133.291 579.625C-109.591 560.233 -80.1251 542.62 -50.1058 524.677C55.4504 461.584 167.793 394.358 59.475 231.009C57.4859 229.231 55.4912 227.449 53.4817 225.66C148.084 379.884 44.9077 450.008 -52.3688 516.109C-81.7635 536.082 -110.611 555.691 -133.28 577.147ZM-133.23 573.657C-133.247 574.446 -133.267 575.234 -133.275 576.024C-110.704 554.863 -82.1873 535.477 -53.1326 515.735C44.439 449.435 147.939 379.072 51.0408 223.49C48.9137 221.61 46.7139 219.695 44.5265 217.785C128.425 364.535 34.0008 437.577 -55.4151 506.687C-83.8393 528.655 -111.744 550.23 -133.23 573.657ZM-133.157 570.19C-133.178 570.917 -133.188 571.646 -133.204 572.374C-111.813 549.309 -84.2655 528.017 -56.2197 506.34C33.445 437.038 128.182 363.789 42.39 215.916C40.0842 213.901 37.7914 211.892 35.4423 209.856C108.983 349.192 23.1202 424.831 -58.5332 496.723C-85.9634 520.874 -112.911 544.603 -133.157 570.19ZM-133.033 566.727C-133.056 567.396 -133.084 568.064 -133.106 568.734C-112.944 543.584 -86.3944 520.198 -59.3713 496.406C22.5045 424.317 108.613 348.452 33.4565 208.147C31.0661 206.082 28.6384 203.998 26.2035 201.91C89.6977 333.838 12.2514 411.715 -61.7354 486.105C-88.1402 512.655 -114.096 538.762 -133.033 566.727ZM-132.885 563.283C-132.914 563.869 -132.947 564.455 -132.972 565.042C-114.103 537.605 -88.5674 511.925 -62.6007 485.817C11.5878 411.224 89.2701 333.123 24.3982 200.357C21.866 198.19 19.2854 196 16.6912 193.803C70.5806 318.377 1.42003 398.116 -65.0297 474.686C-90.3858 503.904 -115.337 532.664 -132.885 563.283ZM-132.71 559.858C-132.737 560.327 -132.757 560.798 -132.783 561.267C-115.276 531.305 -90.7947 503.087 -65.9243 474.428C0.707153 397.65 70.0665 317.683 15.0277 192.397C12.3792 190.154 9.74304 187.917 7.05463 185.654C51.7401 302.845 -9.38416 383.928 -68.4318 462.271C-92.715 494.49 -116.645 526.244 -132.71 559.858ZM-132.491 556.418L-132.555 557.389C-116.493 524.603 -93.0916 493.543 -69.3489 462.041C-10.1357 383.478 51.1423 302.15 5.49132 184.341C2.76003 182.051 -0.0596313 179.718 -2.86183 177.392C33.068 287.131 -20.1604 368.984 -71.9639 448.596C-95.142 484.216 -118.028 519.39 -132.491 556.418ZM-132.255 553.028L-132.277 553.292C-117.753 517.333 -95.4672 483.073 -72.9013 448.392C-20.9527 368.555 32.4294 286.465 -4.29053 176.203C-7.1526 173.826 -10.0253 171.444 -12.9421 169.04C14.7293 271.192 -30.8996 353.051 -75.6437 433.287C-97.7026 472.847 -119.544 512.014 -132.255 553.028ZM-87.7292 370.678C-105.403 423.965 -123.203 477.641 -130.199 532.808C-120.673 486.045 -102.592 440.656 -84.4931 395.238C-53.0859 316.411 -21.6532 237.491 -34.9 151.143C-38.0728 148.577 -41.216 146.026 -44.4585 143.426C-37.9196 220.492 -62.6919 295.195 -87.7292 370.678ZM-133.885 563.175L-133.838 562.26L-133.993 562.589C-134.031 562.916 -134.074 563.243 -134.11 563.571L-133.885 563.175ZM-134.034 566.605C-134.015 566.142 -134.003 565.678 -133.983 565.215C-134.108 565.436 -134.237 565.656 -134.36 565.877L-134.507 567.305L-134.034 566.605ZM-134.157 570.045C-134.14 569.461 -134.115 568.877 -134.094 568.293C-134.303 568.605 -134.503 568.918 -134.707 569.231C-134.763 569.8 -134.807 570.372 -134.859 570.942C-134.625 570.643 -134.394 570.343 -134.157 570.045ZM-134.231 573.496L-134.192 571.514L-135 572.555C-135.057 573.212 -135.119 573.869 -135.17 574.527C-134.857 574.184 -134.546 573.839 -134.231 573.496ZM-134.284 576.971C-134.278 576.241 -134.269 575.512 -134.257 574.784C-134.593 575.155 -134.934 575.524 -135.266 575.896C-135.317 576.614 -135.37 577.331 -135.417 578.049C-135.042 577.689 -134.662 577.33 -134.284 576.971ZM-134.298 580.459C-134.298 579.672 -134.292 578.887 -134.289 578.102C-134.698 578.494 -135.099 578.888 -135.504 579.281C-135.551 580.043 -135.589 580.806 -135.63 581.568C-135.186 581.199 -134.744 580.828 -134.298 580.459ZM-134.271 583.956C-134.28 583.134 -134.298 582.312 -134.303 581.491C-134.763 581.876 -135.232 582.259 -135.689 582.645C-135.733 583.455 -135.778 584.266 -135.812 585.078C-135.302 584.703 -134.788 584.329 -134.271 583.956ZM-134.221 587.482C-134.24 586.616 -134.25 585.752 -134.259 584.887C-134.794 585.277 -135.318 585.669 -135.847 586.06C-135.878 586.897 -135.909 587.734 -135.935 588.572C-135.366 588.208 -134.794 587.845 -134.221 587.482ZM-134.116 591.008C-134.144 590.119 -134.172 589.23 -134.195 588.341C-134.788 588.718 -135.381 589.094 -135.967 589.473C-135.99 590.341 -136.003 591.21 -136.021 592.079C-135.388 591.721 -134.756 591.363 -134.116 591.008ZM-133.98 594.566C-134.02 593.648 -134.059 592.73 -134.093 591.813C-134.745 592.177 -135.389 592.544 -136.035 592.91C-136.052 593.802 -136.068 594.693 -136.074 595.585C-135.381 595.244 -134.679 594.905 -133.98 594.566ZM-133.812 598.135C-133.864 597.195 -133.903 596.258 -133.944 595.319C-134.656 595.667 -135.367 596.017 -136.073 596.368C-136.074 597.28 -136.075 598.192 -136.069 599.105C-135.318 598.781 -134.568 598.457 -133.812 598.135ZM-133.586 601.722C-133.649 600.766 -133.712 599.809 -133.769 598.854C-134.538 599.183 -135.306 599.511 -136.069 599.841C-136.059 600.771 -136.04 601.704 -136.024 602.635C-135.214 602.329 -134.403 602.024 -133.586 601.722ZM-133.328 605.333C-133.404 604.356 -133.476 603.379 -133.541 602.403C-134.372 602.712 -135.19 603.024 -136.009 603.336C-135.991 604.282 -135.972 605.227 -135.943 606.174C-135.077 605.892 -134.2 605.613 -133.328 605.333ZM-133.031 608.958C-133.118 607.968 -133.197 606.98 -133.274 605.991C-134.158 606.276 -135.041 606.562 -135.917 606.85C-135.883 607.811 -135.847 608.773 -135.803 609.736C-134.882 609.475 -133.96 609.215 -133.031 608.958ZM-132.676 612.604C-132.777 611.603 -132.884 610.601 -132.978 609.602C-133.915 609.862 -134.849 610.123 -135.779 610.386C-135.732 611.36 -135.672 612.336 -135.616 613.311C-134.641 613.074 -133.662 612.838 -132.676 612.604ZM-132.288 616.277C-132.402 615.259 -132.51 614.241 -132.613 613.224C-133.611 613.461 -134.594 613.702 -135.58 613.943C-135.523 614.929 -135.462 615.914 -135.392 616.902C-134.363 616.691 -133.326 616.484 -132.288 616.277ZM-98.6561 725.471C-117.841 688.311 -128.152 652.205 -132.215 616.886C-133.262 617.095 -134.306 617.307 -135.344 617.521C-132.801 652.176 -123.416 687.937 -104.123 725.306L-105.083 725.471C-124.37 688.114 -133.77 652.367 -136.334 617.727C-137.362 617.94 -138.39 618.152 -139.407 618.368C-138.396 652.334 -129.951 687.731 -110.552 725.306L-111.513 725.471C-130.903 687.914 -139.364 652.535 -140.405 618.587C-141.415 618.804 -142.42 619.024 -143.419 619.245C-143.967 652.506 -136.485 687.526 -116.979 725.306L-117.939 725.471C-137.434 687.711 -144.942 652.709 -144.432 619.465C-145.426 619.688 -146.408 619.916 -147.393 620.142C-149.531 652.684 -143.019 687.319 -123.405 725.306L-124.366 725.471C-143.964 687.511 -150.509 652.897 -148.421 620.378C-149.383 620.602 -150.339 620.827 -151.292 621.055C-155.056 652.864 -149.557 687.103 -129.834 725.306L-130.793 725.471C-150.5 687.303 -156.034 653.09 -152.335 621.306C-153.276 621.533 -154.218 621.759 -155.15 621.99C-160.569 653.051 -156.099 686.886 -136.263 725.306L-137.223 725.471C-157.036 687.096 -161.557 653.293 -156.217 622.26C-157.132 622.49 -158.047 622.72 -158.951 622.954C-166.057 653.25 -162.639 686.667 -142.69 725.306L-143.65 725.471C-163.572 686.886 -167.05 653.502 -160.039 623.235C-160.93 623.469 -161.807 623.706 -162.688 623.944C-171.518 653.458 -169.18 686.445 -149.116 725.306L-150.076 725.471C-170.106 686.677 -172.523 653.728 -163.816 624.245C-164.677 624.48 -165.525 624.719 -166.375 624.958C-176.962 653.674 -175.726 686.22 -155.546 725.306L-156.506 725.471C-176.643 686.469 -177.974 653.968 -167.539 625.287C-168.36 625.521 -169.182 625.755 -169.993 625.993C-182.374 653.895 -182.272 685.989 -161.972 725.306L-162.933 725.471C-183.175 686.264 -183.411 654.222 -171.224 626.361C-171.998 626.592 -172.778 626.82 -173.544 627.055C-187.76 654.124 -188.821 685.754 -168.4 725.306L-169.36 725.471C-189.712 686.053 -188.807 654.485 -174.833 627.458C-175.578 627.69 -176.319 627.926 -177.055 628.162C-193.13 654.377 -195.366 685.526 -174.828 725.306L-175.787 725.471C-196.243 685.85 -194.2 654.769 -178.418 628.596C-179.11 628.822 -179.785 629.056 -180.468 629.285C-198.455 654.63 -201.92 685.285 -181.256 725.306L-182.216 725.471C-202.773 685.656 -199.562 655.083 -181.954 629.784C-182.587 630.002 -183.214 630.222 -183.839 630.443C-203.767 654.898 -208.47 685.045 -187.683 725.306L-188.644 725.471C-209.295 685.472 -204.901 655.425 -185.456 631.02C-186.006 631.219 -186.565 631.414 -187.111 631.615C-209.039 655.163 -215.027 684.791 -194.11 725.306L-195.07 725.471C-215.804 685.313 -210.246 655.809 -188.965 632.321C-189.419 632.493 -189.877 632.664 -190.325 632.839C-214.281 655.456 -221.585 684.544 -200.539 725.306L-201.5 725.471C-222.301 685.181 -215.573 656.246 -192.476 633.693C-192.822 633.832 -193.167 633.973 -193.51 634.113C-219.51 655.776 -228.133 684.31 -206.967 725.306L-207.927 725.471C-228.772 685.096 -220.894 656.762 -196.033 635.164C-196.208 635.239 -196.381 635.316 -196.554 635.391C-224.684 656.083 -234.696 684.047 -213.393 725.306L-214.354 725.471C-235.041 685.402 -226.39 657.813 -200.346 637.242C-230.03 656.901 -241.065 684.158 -219.822 725.306L-220.781 725.471C-241.032 686.247 -232.168 659.577 -205.83 640.076C-235.822 658.657 -247.059 685.001 -226.25 725.306L-227.21 725.471C-247.009 687.121 -238.003 661.347 -211.513 642.858C-241.666 660.423 -253.036 685.874 -232.677 725.306L-233.637 725.471C-256.099 681.967 -240.271 655.373 -203.252 637.62C-201.477 636.602 -199.63 635.615 -197.742 634.643C-196.02 633.585 -194.256 632.543 -192.423 631.529C-190.773 630.441 -189.058 629.377 -187.306 628.329C-185.676 627.172 -184.003 626.03 -182.272 624.912C-180.733 623.733 -179.145 622.573 -177.514 621.429C-175.996 620.166 -174.427 618.922 -172.815 617.694C-171.394 616.411 -169.938 615.141 -168.433 613.888C-167.048 612.519 -165.608 611.169 -164.138 609.829C-162.815 608.396 -161.456 606.975 -160.054 605.57C-158.843 604.125 -157.599 602.691 -156.317 601.27C-155.155 599.728 -153.947 598.201 -152.715 596.683C-151.617 595.055 -150.485 593.44 -149.319 591.834C-148.313 590.153 -147.281 588.48 -146.212 586.818C-145.305 585.096 -144.377 583.38 -143.413 581.674C-142.593 579.875 -141.751 578.083 -140.875 576.299C-140.149 574.428 -139.399 572.562 -138.622 570.705C-137.991 568.755 -137.34 566.81 -136.66 564.871C-136.146 562.91 -135.605 560.954 -135.05 559.002C-134.621 556.89 -134.166 554.783 -133.694 552.68C-133.378 550.531 -133.04 548.386 -132.683 546.244C-127.092 486.296 -107.83 428.205 -88.7138 370.569C-63.5929 294.836 -38.7352 219.89 -45.5352 142.567C-99.1716 99.5964 -161.51 52.352 -233.548 0.360107L-232.769 0C-161.123 51.7084 -99.0845 98.7199 -45.6388 141.515C-45.722 140.594 -45.815 139.672 -45.9088 138.75C-97.5382 96.8904 -157.597 50.9227 -227.123 0.360107L-226.34 0C-157.212 50.2726 -97.452 96.0037 -46.0128 137.683C-46.1105 136.76 -46.2192 135.836 -46.3245 134.912C-95.9355 94.1678 -153.703 49.4821 -220.696 0.358948L-219.909 0.00140381C-153.331 48.8195 -95.8675 93.2582 -46.4548 133.812C-46.5648 132.894 -46.6633 131.975 -46.7826 131.057C-94.3603 91.4312 -149.83 48.0305 -214.269 0.357483L-213.483 0.00213623C-149.476 47.3554 -94.3149 90.499 -46.9402 129.921C-47.0633 128.995 -47.1966 128.068 -47.3295 127.141C-92.8501 88.6517 -146.005 46.5496 -207.843 0.356323L-207.052 0.00317383C-145.655 45.8673 -92.8064 87.7078 -47.4908 125.985C-47.6292 125.054 -47.7787 124.122 -47.9256 123.19C-91.3704 85.8508 -142.219 45.0466 -201.419 0.355103L-200.624 0.00445557C-141.889 44.3448 -91.3483 84.8735 -48.1204 121.985C-48.2669 121.084 -48.4045 120.182 -48.5599 119.28C-89.9426 83.0612 -138.391 43.5797 -194.992 0.354004L-194.192 0.00549316C-138.066 42.8683 -89.9562 82.0522 -48.7892 118.032C-48.9531 117.11 -49.1229 116.188 -49.2965 115.265C-88.5733 80.206 -134.653 42.0516 -188.568 0.353271L-187.764 0.00646973C-134.327 41.3356 -88.5903 79.183 -49.5288 113.996C-49.7075 113.072 -49.902 112.147 -50.0905 111.222C-87.2473 77.3286 -130.942 40.5089 -182.143 0.350647L-181.335 0.00866699C-130.632 39.7764 -87.2979 76.2686 -50.3626 109.899C-50.555 108.984 -50.7414 108.069 -50.9418 107.153C-85.9626 74.4301 -127.257 38.9528 -175.716 0.349182L-174.904 0.00982666C-126.964 38.2001 -86.0509 73.3252 -51.259 105.765C-51.464 104.852 -51.6703 103.939 -51.8856 103.025C-84.7491 71.4873 -123.614 37.3712 -169.291 0.347168L-168.475 0.0124512C-123.326 36.6091 -84.8502 70.3585 -52.218 101.598C-52.4388 100.684 -52.68 99.7666 -52.9101 98.8514C-83.5968 68.509 -120.008 35.7682 -162.864 0.344543L-162.045 0.0146484C-119.739 34.9833 -83.7374 67.3292 -53.2893 97.3493C-53.5173 96.4676 -53.7491 95.5858 -53.9864 94.7032C-82.4963 65.5395 -116.397 34.1821 -156.442 0.343079L-155.615 0.0166016C-116.19 33.3318 -82.6882 64.2551 -54.4441 93.041C-54.6768 92.1975 -54.901 91.3544 -55.1425 90.51C-81.4536 62.5345 -112.826 32.572 -150.016 0.33905L-149.182 0.0198975C-112.649 31.6809 -81.702 61.165 -55.6682 88.7198C-55.9106 87.8942 -56.1607 87.0678 -56.4116 86.2415C-80.4979 59.4736 -109.308 30.9279 -143.592 0.336853L-142.753 0.0223999C-109.15 30.0054 -80.7849 58.0331 -56.9801 84.3435C-57.2289 83.5428 -57.4985 82.7411 -57.7558 81.9402C-79.5978 56.3865 -105.829 29.2642 -137.17 0.33252L-136.32 0.0272217C-105.721 28.2736 -79.9807 54.7992 -58.4415 79.825C-58.6865 79.0814 -58.9302 78.3378 -59.1828 77.5933C-78.7571 53.2639 -102.39 27.5781 -130.745 0.32782L-129.887 0.0311279C-102.352 26.4929 -79.2713 51.4797 -60.0226 75.1856C-60.2591 74.5118 -60.4879 73.838 -60.7295 73.1633C-78.0085 50.0784 -99.0132 25.8538 -124.324 0.32312L-123.454 0.0358276C-99.0599 24.642 -78.6828 48.0298 -61.7587 70.3613C-61.9719 69.7855 -62.1871 69.2094 -62.4049 68.6326C-77.3615 46.817 -95.6947 24.0868 -117.902 0.317017L-117.02 0.0427856C-95.8782 22.6727 -78.2756 44.3522 -63.7186 65.2071C-63.8506 64.8702 -63.9894 64.5323 -64.1236 64.1956C-76.7539 43.6099 -92.3703 22.3507 -111.481 0.308411L-110.588 0.0509033C-93.0526 20.276 -78.4629 39.8405 -66.4091 58.8328C-76.607 39.7656 -89.3426 20.2792 -105.062 0.298584L-104.148 0.0609131C-90.6729 17.191 -79.3893 33.9578 -70.0061 50.4089C-77.5632 33.8665 -87.0096 17.1691 -98.6417 0.286255L-97.714 0.0734863C-83.8834 20.1441 -73.1263 39.9526 -64.9749 59.5476C-63.274 62.7468 -61.6335 65.9367 -60.0732 69.1132C-58.0654 72.5037 -56.1666 75.869 -54.3133 79.2242C-52.0801 82.7002 -49.9169 86.1572 -47.8534 89.5867C-45.3438 93.2292 -42.9088 96.8488 -40.5952 100.431C-37.931 104.108 -35.3925 107.742 -32.9172 111.355C-30.1383 115.031 -27.4469 118.677 -24.8506 122.288C-21.8077 126.156 -18.8544 129.99 -16.0212 133.778C-12.76 137.793 -9.64233 141.752 -6.60959 145.677C-3.4346 149.49 -0.358078 153.263 2.6144 156.993C5.86453 160.8 9.02719 164.571 12.0774 168.294C16.0467 172.824 19.8238 177.271 23.4964 181.672C26.994 185.614 30.3881 189.508 33.6663 193.352C37.1852 197.247 40.5983 201.095 43.9104 204.897C48.0645 209.417 52.0955 213.883 55.974 218.277C59.8903 222.485 63.6864 226.637 67.3505 230.728C71.3564 234.98 75.2484 239.178 78.9958 243.308C83.1303 247.646 87.1532 251.932 91.0194 256.142C95.0792 260.366 99.0392 264.542 102.853 268.647C106.882 272.798 110.805 276.897 114.597 280.933C118.681 285.097 122.631 289.195 126.475 293.24C280.562 448.827 263.224 519.683 182.814 556.857C131.102 580.764 53.3552 590.711 -21.6544 600.308C-60.2209 605.242 -98.0529 610.087 -131.232 616.69C-127.186 652.021 -116.885 688.138 -97.6958 725.306L-98.6561 725.471Z" fill="url(#paint0_linear_1538_8212)"/>
<defs>
<linearGradient id="paint0_linear_1538_8212" x1="652.094" y1="244.94" x2="77.9412" y2="953.916" gradientUnits="userSpaceOnUse">
<stop stop-color="#0A767B"/>
<stop offset="1" stop-color="#00A7D6"/>
</linearGradient>
</defs>
</svg>
