<svg width="208" height="736" viewBox="0 0 208 736" fill="none" xmlns="http://www.w3.org/2000/svg">
<path d="M20.5785 609.135L21.4009 607.184C21.3525 607.39 21.3123 607.593 21.2653 607.8C21.0033 608.512 20.739 609.225 20.4674 609.942C20.5067 609.672 20.5401 609.404 20.5785 609.135ZM24.4735 597.156C24.7035 596.648 24.9403 596.134 25.167 595.629L25.1137 595.825L24.3658 597.709L24.4735 597.156ZM21.2579 604.244C21.7733 603.123 22.2606 602.021 22.774 600.902C22.6618 601.44 22.5331 601.986 22.4192 602.526C21.9752 603.605 21.5021 604.704 21.0421 605.794C21.1118 605.278 21.1904 604.758 21.2579 604.244ZM28.8738 584.845C29.0746 584.418 29.2555 584.005 29.455 583.58L29.4516 583.59C29.248 584.072 29.0318 584.563 28.8249 585.048L28.8738 584.845ZM25.4818 591.91C25.9687 590.901 26.4651 589.884 26.9442 588.88C26.8361 589.308 26.7358 589.733 26.6261 590.162C26.1355 591.289 25.6788 592.391 25.1769 593.525C25.2761 592.988 25.3862 592.446 25.4818 591.91ZM21.825 599.436C22.5328 598.009 23.2052 596.608 23.8963 595.193C23.7695 595.861 23.6395 596.531 23.5081 597.202C22.8806 598.598 22.2359 600.006 21.5993 601.409C21.6772 600.75 21.7501 600.093 21.825 599.436ZM-184.872 160.777L-184.502 161.108C-184.39 161.406 -184.275 161.702 -184.161 161.999L-184.466 161.681C-184.603 161.381 -184.736 161.078 -184.872 160.777ZM33.8289 571.873L34.0435 571.429C33.9553 571.628 33.875 571.823 33.7868 572.021L33.8289 571.873ZM30.1441 579.397C30.6201 578.453 31.0767 577.524 31.5375 576.592C31.4385 576.935 31.3463 577.276 31.2463 577.621C30.8001 578.6 30.3383 579.59 29.8914 580.57C29.9806 580.176 30.0573 579.79 30.1441 579.397ZM26.3248 586.906C27.02 585.539 27.7223 584.167 28.4102 582.806C28.2487 583.497 28.0728 584.198 27.9077 584.892C27.2838 586.219 26.636 587.563 25.9877 588.908C26.101 588.24 26.2147 587.572 26.3248 586.906ZM22.3295 594.629C23.1988 592.983 24.0521 591.349 24.8896 589.728C24.7607 590.474 24.6476 591.212 24.5146 591.96C23.7077 593.622 22.9206 595.272 22.1117 596.936C22.1925 596.163 22.2549 595.399 22.3295 594.629ZM-186.368 157.439C-186.128 157.625 -185.881 157.807 -185.64 157.992L-185.162 159.307C-185.369 159.12 -185.581 158.935 -185.786 158.747C-185.98 158.311 -186.176 157.876 -186.368 157.439ZM-188.466 155.796L-188.003 156.162L-187.624 157.044L-187.983 156.711C-188.144 156.406 -188.308 156.102 -188.466 155.796ZM-190.389 154.269L-190.326 154.321L-190.187 154.593L-190.389 154.269ZM35.2892 566.364C35.7352 565.481 36.1926 564.589 36.6449 563.702L36.2463 564.945C35.8422 565.798 35.4074 566.672 34.9891 567.536C35.0915 567.143 35.1875 566.755 35.2892 566.364ZM31.2984 574.041C31.9939 572.738 32.6956 571.432 33.3589 570.154C33.2038 570.735 33.0232 571.33 32.8633 571.913C32.1962 573.282 31.5429 574.64 30.8747 576.009C31.0128 575.355 31.1629 574.693 31.2984 574.041ZM27.0968 581.938L29.6885 577.068C29.5164 577.86 29.354 578.646 29.1771 579.441C28.4013 580.994 27.586 582.576 26.7808 584.151C26.8951 583.408 26.9877 582.678 27.0968 581.938ZM22.7583 589.889C23.7807 588.053 24.8084 586.213 25.7794 584.415C25.6503 585.254 25.495 586.106 25.3574 586.949C24.4076 588.798 23.4903 590.623 22.5232 592.484C22.6002 591.62 22.6896 590.749 22.7583 589.889ZM-187.767 154.178C-187.431 154.401 -187.099 154.627 -186.76 154.848C-186.572 155.385 -186.388 155.923 -186.197 156.458C-186.498 156.225 -186.792 155.988 -187.092 155.754C-187.316 155.229 -187.545 154.705 -187.767 154.178ZM-190.058 152.651C-189.799 152.828 -189.536 153.001 -189.275 153.176C-189.096 153.606 -188.915 154.033 -188.733 154.461L-189.423 153.906C-189.635 153.488 -189.849 153.071 -190.058 152.651ZM-192.257 151.132L-191.75 151.483C-191.607 151.774 -191.465 152.067 -191.32 152.357C-191.455 152.246 -191.591 152.136 -191.726 152.025C-191.902 151.726 -192.081 151.431 -192.257 151.132ZM-194.291 149.697L-194.182 149.775L-193.989 150.115L-194.014 150.094L-194.291 149.697ZM40.8485 553.028C41.271 552.231 41.7053 551.425 42.1171 550.636C42.0331 550.88 41.9419 551.129 41.8554 551.374C41.4106 552.285 40.9816 553.184 40.5339 554.097L40.8485 553.028ZM36.7056 560.833C37.3825 559.566 38.0406 558.313 38.7141 557.049C38.5398 557.629 38.3836 558.197 38.2067 558.779C37.5713 560.046 36.9049 561.337 36.2516 562.618C36.3981 562.026 36.5626 561.423 36.7056 560.833ZM32.3161 568.854C33.1823 567.297 34.0569 565.733 34.8865 564.204C34.7031 564.936 34.5124 565.671 34.3219 566.407C33.5027 568 32.7156 569.569 31.8766 571.177C32.0301 570.398 32.1689 569.629 32.3161 568.854ZM27.8006 577.019C28.8338 575.166 29.835 573.338 30.8557 571.494C30.685 572.355 30.5103 573.217 30.3308 574.083C29.3867 575.878 28.414 577.694 27.4458 579.507C27.5594 578.68 27.6934 577.842 27.8006 577.019ZM23.068 585.298C24.2283 583.292 25.4031 581.273 26.5091 579.308C26.3868 580.197 26.2581 581.09 26.1274 581.983C25.0654 583.957 23.991 585.938 22.8947 587.937C22.9577 587.055 23.0125 586.177 23.068 585.298ZM-189.095 150.97C-188.685 151.201 -188.271 151.43 -187.858 151.659C-187.649 152.28 -187.433 152.898 -187.219 153.517C-187.602 153.263 -187.987 153.009 -188.367 152.753C-188.611 152.16 -188.852 151.564 -189.095 150.97ZM-191.583 149.539C-191.223 149.747 -190.865 149.956 -190.505 150.164C-190.292 150.689 -190.076 151.213 -189.861 151.737C-190.194 151.511 -190.522 151.282 -190.851 151.054C-191.098 150.55 -191.339 150.044 -191.583 149.539ZM-193.983 148.126C-193.693 148.299 -193.408 148.476 -193.117 148.649C-192.918 149.068 -192.712 149.484 -192.512 149.902C-192.774 149.717 -193.031 149.528 -193.293 149.341L-193.983 148.126ZM-196.271 146.743C-196.086 146.857 -195.896 146.968 -195.712 147.081C-195.548 147.376 -195.378 147.667 -195.213 147.961L-195.689 147.615C-195.883 147.325 -196.079 147.035 -196.271 146.743ZM-198.419 145.397L-198.248 145.504C-198.169 145.627 -198.092 145.751 -198.012 145.874L-198.09 145.816C-198.199 145.675 -198.311 145.537 -198.419 145.397ZM46.7562 539.522C47.187 538.727 47.5692 537.97 47.9915 537.182C47.9332 537.34 47.8826 537.493 47.8239 537.651C47.4054 538.486 46.9674 539.334 46.5443 540.172C46.6128 539.957 46.6892 539.737 46.7562 539.522ZM42.4651 547.329C43.1121 546.153 43.7698 544.968 44.4042 543.803C44.2243 544.352 44.0511 544.896 43.8672 545.447C43.2422 546.663 42.638 547.861 41.9952 549.09C42.1614 548.497 42.3018 547.92 42.4651 547.329ZM37.91 555.593C38.8135 553.982 39.6579 552.416 40.5447 550.818C40.3337 551.563 40.0986 552.323 39.8824 553.071C39.0749 554.605 38.2464 556.155 37.4267 557.697C37.5921 556.994 37.7521 556.293 37.91 555.593ZM33.2749 563.694C34.2936 561.921 35.3191 560.143 36.3059 558.396C36.1102 559.229 35.9378 560.047 35.7342 560.885C34.7766 562.663 33.8006 564.456 32.8059 566.263C32.9617 565.407 33.1281 564.545 33.2749 563.694ZM28.3659 572.245C29.5581 570.197 30.6957 568.19 31.8629 566.162C31.6985 567.071 31.5199 567.989 31.3452 568.903C30.2599 570.875 29.1629 572.856 28.0617 574.84C28.168 573.972 28.2673 573.109 28.3659 572.245ZM23.3205 580.75C24.6123 578.583 25.9126 576.41 27.1606 574.277C27.0479 575.208 26.9517 576.131 26.8304 577.066C25.6538 579.163 24.4236 581.302 23.1916 583.441C23.2421 582.541 23.2782 581.647 23.3205 580.75ZM-190.381 147.763C-189.888 147.999 -189.401 148.239 -188.904 148.473C-188.685 149.149 -188.468 149.826 -188.245 150.501C-188.7 150.243 -189.152 149.984 -189.604 149.725C-189.867 149.073 -190.124 148.418 -190.381 147.763ZM-193.033 146.478C-192.592 146.696 -192.145 146.912 -191.701 147.128C-191.471 147.721 -191.246 148.317 -191.012 148.908C-191.415 148.673 -191.825 148.442 -192.225 148.205C-192.499 147.631 -192.767 147.054 -193.033 146.478ZM-195.617 145.18C-195.234 145.376 -194.845 145.567 -194.46 145.762C-194.228 146.266 -193.999 146.772 -193.764 147.275C-194.12 147.061 -194.479 146.848 -194.832 146.632C-195.098 146.15 -195.354 145.663 -195.617 145.18ZM-198.121 143.879C-197.808 144.044 -197.496 144.209 -197.181 144.373L-196.525 145.586C-196.809 145.408 -197.092 145.229 -197.376 145.05C-197.626 144.661 -197.874 144.27 -198.121 143.879ZM-200.514 142.606C-200.297 142.723 -200.085 142.844 -199.868 142.961C-199.689 143.246 -199.505 143.529 -199.324 143.813C-199.514 143.691 -199.699 143.566 -199.886 143.443C-200.095 143.164 -200.307 142.886 -200.514 142.606ZM-202.732 141.386L-202.512 141.508C-202.418 141.637 -202.328 141.768 -202.233 141.897L-202.369 141.807L-202.732 141.386ZM53.0961 525.445C53.437 524.818 53.7848 524.185 54.1281 523.555C54.0397 523.783 53.956 524.007 53.8668 524.235C53.5407 524.868 53.1992 525.515 52.8622 526.157C52.945 525.916 53.0157 525.685 53.0961 525.445ZM48.5452 533.686C49.1922 532.546 49.8279 531.414 50.4505 530.293C50.2925 530.74 50.1291 531.191 49.9704 531.639C49.3475 532.822 48.715 534.013 48.0942 535.193C48.2489 534.688 48.3936 534.19 48.5452 533.686ZM43.9385 541.792C44.8009 540.275 45.6723 538.75 46.5261 537.24C46.2873 538.007 46.0394 538.782 45.7935 539.553C45.0083 541.013 44.1756 542.51 43.3512 544C43.5455 543.265 43.7499 542.524 43.9385 541.792ZM39.0967 550.221C40.1302 548.451 41.1349 546.705 42.1392 544.959C41.9248 545.762 41.7201 546.558 41.4994 547.365L38.5843 552.66C38.7628 551.842 38.9253 551.034 39.0967 550.221ZM34.0799 558.727C35.2633 556.73 36.4449 554.732 37.6025 552.754C37.3948 553.707 37.1578 554.677 36.9408 555.636C35.8843 557.521 34.7599 559.461 33.6498 561.387C33.7968 560.499 33.9425 559.611 34.0799 558.727ZM28.8799 567.453C30.1927 565.278 31.4737 563.13 32.749 560.985C32.5981 561.904 32.4632 562.815 32.302 563.741C31.0695 565.895 29.8537 568.035 28.6053 570.202C28.7045 569.282 28.7904 568.368 28.8799 567.453ZM23.509 576.255C24.932 573.935 26.35 571.617 27.7372 569.325C27.6358 570.306 27.5057 571.304 27.3924 572.291C26.1082 574.5 24.7405 576.775 23.3918 579.034C23.431 578.108 23.4812 577.177 23.509 576.255ZM-185.82 146.82C-157.278 157.553 -123.793 165.12 -89.6639 172.827C35.5522 201.101 169.32 231.35 97.586 427.87M-191.615 144.576C-191.062 144.798 -190.499 145.015 -189.941 145.234C-189.712 145.964 -189.482 146.694 -189.248 147.422C-189.767 147.173 -190.286 146.924 -190.803 146.673C-191.076 145.975 -191.35 145.278 -191.615 144.576ZM-194.438 143.416C-193.919 143.631 -193.399 143.845 -192.876 144.058C-192.631 144.717 -192.38 145.373 -192.126 146.028C-192.611 145.789 -193.09 145.545 -193.571 145.303C-193.862 144.675 -194.155 144.048 -194.438 143.416ZM-197.189 142.252C-196.715 142.456 -196.246 142.663 -195.769 142.865C-195.514 143.44 -195.258 144.015 -194.997 144.588C-195.436 144.364 -195.869 144.136 -196.304 143.911C-196.601 143.359 -196.897 142.806 -197.189 142.252ZM-199.862 141.087C-199.451 141.27 -199.039 141.451 -198.626 141.632C-198.375 142.115 -198.133 142.603 -197.878 143.085C-198.253 142.886 -198.633 142.692 -199.004 142.492C-199.294 142.026 -199.576 141.555 -199.862 141.087ZM-202.459 139.91C-202.125 140.064 -201.785 140.215 -201.448 140.368L-200.738 141.539C-201.044 141.37 -201.353 141.204 -201.657 141.034L-202.459 139.91ZM-204.957 138.734L-204.249 139.072C-204.055 139.351 -203.853 139.626 -203.655 139.904L-204.276 139.547C-204.502 139.275 -204.733 139.007 -204.957 138.734ZM-207.23 137.639L-206.962 137.773L-206.663 138.147L-206.867 138.024C-206.99 137.897 -207.108 137.766 -207.23 137.639ZM59.6275 511.426C59.9313 510.885 60.2445 510.336 60.5433 509.8L60.4885 509.933C60.1405 510.594 59.8042 511.247 59.4554 511.909L59.6275 511.426ZM55.0092 519.632C55.6647 518.466 56.3184 517.3 56.981 516.129C56.7874 516.649 56.5709 517.186 56.3751 517.707C55.7775 518.818 55.1484 519.955 54.5333 521.079C54.6923 520.597 54.8532 520.113 55.0092 519.632ZM50.3059 527.803C51.1223 526.412 51.9505 525.013 52.7337 523.65C52.5285 524.262 52.343 524.86 52.1332 525.475C51.2919 527.009 50.482 528.517 49.6304 530.059C49.8483 529.312 50.0932 528.546 50.3059 527.803ZM45.2812 536.395L48.3483 531.15C48.0963 532.004 47.8366 532.864 47.578 533.723C46.6499 535.379 45.6796 537.069 44.7194 538.752C44.9167 537.959 45.0899 537.183 45.2812 536.395ZM40.155 544.992C41.3388 543.037 42.5225 541.083 43.6616 539.165C43.4424 540.044 43.2032 540.936 42.9749 541.822C41.8378 543.813 40.7489 545.766 39.591 547.774C39.7797 546.846 39.9748 545.914 40.155 544.992ZM34.8168 553.803C36.1211 551.655 37.4181 549.515 38.7089 547.379C38.5152 548.339 38.3289 549.296 38.1251 550.262C36.9285 552.319 35.68 554.418 34.4397 556.51C34.5765 555.602 34.6896 554.707 34.8168 553.803ZM29.3096 562.739C30.7499 560.43 32.179 558.131 33.5701 555.862C33.4287 556.823 33.2612 557.8 33.11 558.767C31.7545 561.054 30.4296 563.316 29.0461 565.627C29.1344 564.664 29.2326 563.696 29.3096 562.739ZM23.5915 571.878C25.132 569.427 26.6564 566.989 28.1722 564.557C28.0878 565.535 27.9999 566.514 27.9039 567.498C26.4891 569.849 25.0116 572.25 23.5425 574.645C23.5669 573.719 23.5772 572.799 23.5915 571.878ZM-192.791 141.374C-192.172 141.578 -191.556 141.785 -190.934 141.987C-190.703 142.759 -190.465 143.527 -190.227 144.295C-190.814 144.06 -191.4 143.824 -191.981 143.586C-192.252 142.849 -192.523 142.112 -192.791 141.374ZM-195.761 140.37C-195.178 140.571 -194.594 140.773 -194.006 140.972C-193.754 141.673 -193.496 142.371 -193.239 143.069C-193.787 142.843 -194.341 142.62 -194.884 142.39C-195.177 141.717 -195.472 141.045 -195.761 140.37ZM-198.679 139.352C-198.139 139.545 -197.591 139.733 -197.046 139.923C-196.777 140.555 -196.501 141.182 -196.226 141.811C-196.735 141.591 -197.248 141.374 -197.753 141.152C-198.063 140.553 -198.376 139.955 -198.679 139.352ZM-201.536 138.305C-201.042 138.489 -200.545 138.67 -200.046 138.851C-199.77 139.408 -199.485 139.961 -199.2 140.514C-199.667 140.306 -200.129 140.094 -200.592 139.884C-200.909 139.359 -201.226 138.834 -201.536 138.305ZM-204.31 137.25C-203.87 137.42 -203.434 137.593 -202.991 137.761C-202.719 138.229 -202.454 138.7 -202.177 139.166C-202.591 138.974 -202.995 138.776 -203.406 138.582C-203.712 138.141 -204.007 137.693 -204.31 137.25ZM-206.996 136.194C-206.633 136.34 -206.273 136.487 -205.909 136.631C-205.657 137.006 -205.4 137.378 -205.147 137.753C-205.475 137.594 -205.805 137.437 -206.131 137.278C-206.419 136.916 -206.71 136.557 -206.996 136.194ZM-209.562 135.144C-209.309 135.25 -209.054 135.352 -208.8 135.457C-208.593 135.723 -208.386 135.988 -208.176 136.252C-208.402 136.138 -208.629 136.027 -208.852 135.913C-209.09 135.657 -209.327 135.401 -209.562 135.144ZM-211.932 134.131L-211.62 134.265L-211.283 134.644L-211.525 134.514L-211.932 134.131ZM66.4003 497.337L66.4624 497.227L66.392 497.357L66.4003 497.337ZM61.8364 505.227C62.4244 504.21 63.0247 503.182 63.605 502.171C63.4476 502.572 63.3075 502.962 63.1485 503.364C62.5088 504.535 61.9128 505.668 61.2585 506.85C61.4455 506.313 61.651 505.762 61.8364 505.227ZM56.8665 513.819C57.7137 512.371 58.5107 510.964 59.3528 509.52C59.1226 510.168 58.8955 510.813 58.6603 511.465C57.8955 512.835 57.1064 514.224 56.331 515.602C56.5217 514.999 56.6803 514.418 56.8665 513.819ZM51.7978 522.298C52.8255 520.592 53.8618 518.878 54.8576 517.199C54.598 518.01 54.3133 518.841 54.0486 519.656C53.0758 521.363 52.123 523.055 51.1254 524.783C51.3563 523.95 51.5744 523.126 51.7978 522.298ZM46.5589 531.03C47.7344 529.082 48.8787 527.158 50.0515 525.211C49.8066 526.092 49.5923 526.951 49.3385 527.837C48.2205 529.764 47.0742 531.715 45.9321 533.661C46.1378 532.787 46.3628 531.899 46.5589 531.03ZM41.0947 539.893C42.402 537.795 43.7225 535.686 44.9804 533.63C44.7628 534.56 44.5387 535.494 44.3134 536.43C43.087 538.505 41.8687 540.575 40.6101 542.678C40.7843 541.741 40.9286 540.824 41.0947 539.893ZM35.4715 548.953C36.9088 546.647 38.3199 544.361 39.7506 542.059C39.5679 543.045 39.376 544.038 39.1824 545.032C37.8401 547.266 36.4647 549.527 35.0889 551.789C35.2148 550.845 35.3547 549.892 35.4715 548.953ZM29.6318 558.15C31.1819 555.737 32.7456 553.313 34.2333 550.95C34.1061 551.914 33.9785 552.878 33.8423 553.848C32.3916 556.222 30.9364 558.6 29.4462 561.008C29.5184 560.05 29.571 559.103 29.6318 558.15ZM23.624 567.537C25.2793 564.961 26.9017 562.414 28.5462 559.847C28.4769 560.825 28.4141 561.8 28.3352 562.783C26.7881 565.274 25.2062 567.794 23.6184 570.318C23.6273 569.388 23.625 568.463 23.624 567.537ZM-193.928 138.167C-193.252 138.349 -192.57 138.526 -191.888 138.704C-191.658 139.507 -191.433 140.313 -191.198 141.113C-191.84 140.903 -192.482 140.693 -193.117 140.48C-193.393 139.711 -193.66 138.939 -193.928 138.167ZM-197.045 137.316C-196.402 137.496 -195.748 137.67 -195.1 137.847C-194.845 138.587 -194.596 139.33 -194.336 140.067C-194.951 139.857 -195.56 139.642 -196.172 139.429C-196.468 138.727 -196.756 138.021 -197.045 137.316ZM-200.115 136.432C-199.503 136.611 -198.89 136.79 -198.272 136.966C-197.997 137.641 -197.722 138.315 -197.441 138.987C-198.025 138.78 -198.599 138.567 -199.178 138.357C-199.494 137.717 -199.805 137.075 -200.115 136.432ZM-203.135 135.528C-202.559 135.704 -201.988 135.884 -201.408 136.058C-201.118 136.661 -200.822 137.26 -200.529 137.861C-201.066 137.662 -201.604 137.464 -202.136 137.261C-202.471 136.685 -202.808 136.109 -203.135 135.528ZM-206.075 134.615C-205.556 134.781 -205.032 134.943 -204.509 135.106C-204.212 135.638 -203.909 136.166 -203.604 136.694C-204.094 136.505 -204.587 136.318 -205.074 136.126C-205.41 135.624 -205.744 135.12 -206.075 134.615ZM-208.936 133.68C-208.478 133.833 -208.012 133.981 -207.553 134.132C-207.264 134.579 -206.981 135.03 -206.688 135.474C-207.118 135.301 -207.545 135.125 -207.972 134.95C-208.296 134.528 -208.616 134.103 -208.936 133.68ZM-211.728 132.721C-211.342 132.857 -210.957 132.992 -210.568 133.125C-210.296 133.49 -210.016 133.851 -209.742 134.214C-210.099 134.062 -210.45 133.906 -210.805 133.753C-211.113 133.409 -211.424 133.068 -211.728 132.721ZM-214.354 131.789C-214.073 131.89 -213.799 131.997 -213.519 132.098C-213.302 132.35 -213.093 132.607 -212.873 132.858C-213.128 132.746 -213.374 132.628 -213.627 132.514C-213.873 132.275 -214.109 132.03 -214.354 131.789ZM-216.799 130.883L-216.453 131.011C-216.327 131.139 -216.198 131.265 -216.071 131.394C-216.159 131.351 -216.25 131.312 -216.339 131.27L-216.799 130.883ZM73.6769 482.483L74.501 481.039L74.4553 481.146C74.1746 481.66 73.87 482.195 73.5834 482.715L73.6769 482.483ZM68.834 490.865C69.3668 489.969 69.9106 489.064 70.4221 488.186L70.1037 488.971C69.5546 489.958 69 490.951 68.4583 491.932C68.5903 491.571 68.7036 491.225 68.834 490.865ZM63.7979 499.36C64.6161 497.977 65.4463 496.583 66.2626 495.202C65.9956 495.917 65.7097 496.644 65.4389 497.363C64.7054 498.653 63.928 499.981 63.1626 501.299C63.3805 500.647 63.5829 500.008 63.7979 499.36ZM58.5901 508.081C59.6359 506.357 60.6364 504.671 61.6592 502.967C61.4011 503.726 61.1387 504.489 60.8746 505.252C59.8823 506.968 58.8837 508.691 57.8912 510.407C58.1247 509.631 58.3633 508.852 58.5901 508.081ZM53.2764 516.735C54.4298 514.861 55.5897 512.983 56.7186 511.129C56.445 512.036 56.1853 512.932 55.9025 513.845C54.8235 515.679 53.7017 517.548 52.578 519.419C52.812 518.523 53.0503 517.625 53.2764 516.735ZM47.6615 525.855C49.0085 523.694 50.2852 521.59 51.6123 519.445C51.3628 520.399 51.0889 521.37 50.8299 522.33C49.5909 524.399 48.3472 526.472 47.0975 528.55C47.2951 527.646 47.4742 526.754 47.6615 525.855ZM41.9771 534.82C43.4057 532.578 44.8395 530.33 46.2236 528.124C46.0117 529.103 45.815 530.072 45.5919 531.058C44.2472 533.269 42.8592 535.515 41.464 537.767C41.6309 536.787 41.8212 535.793 41.9771 534.82ZM36.0033 544.242C37.5802 541.777 39.0843 539.374 40.6439 536.923C40.4767 537.921 40.2979 538.927 40.1199 539.933C38.6555 542.299 37.1865 544.67 35.7005 547.054C35.812 546.11 35.9015 545.179 36.0033 544.242ZM29.9048 553.59C31.5649 551.06 33.2355 548.52 34.8359 546.04C34.725 547.024 34.6207 548.003 34.497 548.993C32.9429 551.469 31.3473 553.978 29.7394 556.498C29.7979 555.527 29.8576 554.556 29.9048 553.59ZM23.5956 563.248C25.3658 560.551 27.0846 557.898 28.8492 555.207C28.7954 556.197 28.7177 557.2 28.6543 558.195C26.9853 560.81 25.3115 563.429 23.6139 566.067C23.6082 565.127 23.6116 564.184 23.5956 563.248ZM-195.033 134.941C-194.297 135.094 -193.559 135.246 -192.819 135.396C-192.59 136.235 -192.355 137.071 -192.116 137.906C-192.819 137.719 -193.515 137.528 -194.214 137.339C-194.49 136.54 -194.766 135.742 -195.033 134.941ZM-198.294 134.234C-197.584 134.391 -196.88 134.551 -196.165 134.703C-195.91 135.477 -195.649 136.248 -195.385 137.018C-196.058 136.832 -196.732 136.646 -197.398 136.456C-197.7 135.718 -198 134.977 -198.294 134.234ZM-201.502 133.507C-200.827 133.664 -200.151 133.821 -199.469 133.975C-199.192 134.685 -198.913 135.394 -198.628 136.1C-199.269 135.915 -199.914 135.733 -200.549 135.544C-200.871 134.868 -201.186 134.187 -201.502 133.507ZM-204.659 132.759C-204.023 132.915 -203.377 133.063 -202.738 133.216C-202.442 133.86 -202.15 134.507 -201.848 135.148C-202.454 134.965 -203.058 134.779 -203.66 134.592C-203.996 133.983 -204.327 133.371 -204.659 132.759ZM-207.779 131.97C-207.179 132.125 -206.574 132.276 -205.97 132.428C-205.658 133.011 -205.337 133.589 -205.02 134.17C-205.592 133.988 -206.153 133.799 -206.719 133.614C-207.075 133.067 -207.432 132.522 -207.779 131.97ZM-210.797 131.168C-210.25 131.317 -209.706 131.468 -209.153 131.614C-208.838 132.122 -208.518 132.628 -208.195 133.132C-208.717 132.957 -209.236 132.78 -209.753 132.603C-210.106 132.128 -210.451 131.646 -210.797 131.168ZM-213.747 130.348C-213.261 130.487 -212.775 130.627 -212.285 130.764C-211.98 131.191 -211.674 131.618 -211.365 132.043C-211.813 131.886 -212.265 131.734 -212.708 131.574C-213.055 131.166 -213.405 130.759 -213.747 130.348ZM-216.599 129.518C-216.203 129.637 -215.8 129.749 -215.404 129.866C-215.119 130.213 -214.826 130.555 -214.535 130.899C-214.91 130.76 -215.288 130.623 -215.661 130.482C-215.976 130.162 -216.288 129.841 -216.599 129.518ZM-219.32 128.672L-218.439 128.947C-218.21 129.191 -217.98 129.435 -217.748 129.678L-218.544 129.364L-219.32 128.672ZM-221.866 127.851L-221.457 127.988L-221.07 128.343L-221.411 128.199L-221.866 127.851ZM76.0482 476.34C76.5898 475.433 77.1254 474.531 77.6518 473.638L77.2771 474.518C76.758 475.439 76.2133 476.38 75.6832 477.309C75.8087 476.983 75.9238 476.664 76.0482 476.34ZM70.9585 484.84C71.7936 483.442 72.64 482.034 73.4752 480.636C73.2372 481.244 72.9678 481.878 72.7262 482.489C71.8975 483.93 71.1055 485.341 70.273 486.786C70.5029 486.137 70.7326 485.487 70.9585 484.84ZM65.7329 493.453C66.7104 491.867 67.6895 490.28 68.635 488.721C68.3721 489.454 68.1317 490.17 67.8637 490.907C66.9226 492.515 65.938 494.158 64.966 495.791C65.2155 495.017 65.4907 494.223 65.7329 493.453ZM60.2093 502.423C61.3743 500.535 62.5304 498.654 63.6893 496.772C63.4078 497.642 63.1196 498.517 62.83 499.393C61.7161 501.263 60.6356 503.105 59.5174 504.979C59.7642 504.115 59.9709 503.28 60.2093 502.423ZM54.5595 511.425C55.8847 509.336 57.2211 507.239 58.4997 505.189C58.2254 506.151 57.9112 507.142 57.6261 508.11C56.4156 510.109 55.1471 512.154 53.8903 514.191C54.1184 513.266 54.3402 512.344 54.5595 511.425ZM48.7417 520.628C50.1899 518.359 51.5761 516.14 53.0007 513.89C52.765 514.854 52.5499 515.803 52.3042 516.774C50.9116 519.036 49.5459 521.276 48.1461 523.543C48.3428 522.573 48.5547 521.592 48.7417 520.628ZM42.6931 529.969C44.2554 527.566 45.822 525.16 47.3404 522.795C47.1359 523.82 46.9071 524.861 46.6918 525.893C45.2637 528.178 43.7604 530.526 42.2725 532.86C42.4211 531.891 42.5529 530.932 42.6931 529.969ZM36.4957 539.48C38.1702 536.933 39.8027 534.42 41.4392 531.904C41.291 532.891 41.1623 533.866 41.0029 534.86C39.3973 537.389 37.8153 539.899 36.1976 542.437C36.2971 541.452 36.4078 540.459 36.4957 539.48ZM30.0765 549.165C31.8531 546.496 33.6216 543.834 35.3569 541.199C35.2576 542.222 35.1358 543.257 35.0252 544.286C33.3876 546.831 31.6696 549.443 29.9647 552.044C30.006 551.082 30.0461 550.121 30.0765 549.165ZM23.4776 559.012C25.3516 556.235 27.2124 553.47 29.0355 550.736C28.9988 551.703 28.9687 552.667 28.9224 553.639C27.1319 556.377 25.3694 559.09 23.5646 561.84C23.5447 560.893 23.5084 559.953 23.4776 559.012ZM-196.079 131.695C-195.289 131.819 -194.501 131.944 -193.706 132.065C-193.483 132.925 -193.252 133.783 -193.021 134.64C-193.775 134.486 -194.532 134.333 -195.279 134.174C-195.548 133.349 -195.816 132.523 -196.079 131.695ZM-199.488 131.145C-198.726 131.273 -197.958 131.396 -197.191 131.519C-196.938 132.323 -196.677 133.123 -196.416 133.924C-197.146 133.765 -197.875 133.605 -198.599 133.442C-198.899 132.678 -199.198 131.914 -199.488 131.145ZM-202.844 130.569C-202.114 130.699 -201.375 130.821 -200.639 130.947C-200.36 131.695 -200.068 132.436 -199.777 133.179C-200.484 133.017 -201.181 132.849 -201.882 132.683C-202.206 131.98 -202.529 131.277 -202.844 130.569ZM-206.142 129.957C-205.442 130.09 -204.738 130.222 -204.031 130.351C-203.731 131.033 -203.426 131.714 -203.117 132.392C-203.793 132.228 -204.462 132.061 -205.132 131.893C-205.474 131.251 -205.807 130.603 -206.142 129.957ZM-209.397 129.319C-208.725 129.455 -208.059 129.594 -207.382 129.726C-207.066 130.338 -206.755 130.953 -206.436 131.563C-207.066 131.402 -207.699 131.243 -208.324 131.078C-208.684 130.493 -209.043 129.908 -209.397 129.319ZM-212.584 128.659C-211.963 128.792 -211.338 128.922 -210.714 129.052C-210.383 129.606 -210.044 130.154 -209.706 130.703C-210.298 130.544 -210.892 130.388 -211.476 130.224C-211.849 129.705 -212.221 129.184 -212.584 128.659ZM-215.683 127.977C-215.119 128.106 -214.545 128.227 -213.976 128.353C-213.645 128.835 -213.317 129.319 -212.979 129.797C-213.523 129.642 -214.063 129.485 -214.601 129.326C-214.966 128.879 -215.323 128.427 -215.683 127.977ZM-218.744 127.253C-218.233 127.377 -217.721 127.499 -217.205 127.62C-216.879 128.033 -216.546 128.442 -216.218 128.852C-216.701 128.706 -217.176 128.552 -217.656 128.403C-218.02 128.02 -218.387 127.64 -218.744 127.253ZM-221.651 126.528C-221.224 126.638 -220.805 126.752 -220.375 126.859C-220.084 127.181 -219.798 127.507 -219.502 127.826C-219.898 127.699 -220.29 127.569 -220.684 127.441C-221.011 127.139 -221.328 126.832 -221.651 126.528ZM-224.454 125.796C-224.144 125.881 -223.828 125.961 -223.516 126.044C-223.275 126.276 -223.026 126.505 -222.783 126.737C-223.062 126.641 -223.348 126.55 -223.626 126.454C-223.9 126.233 -224.182 126.018 -224.454 125.796ZM-227.026 125.073L-226.591 125.195L-226.191 125.533L-226.564 125.399C-226.718 125.291 -226.871 125.181 -227.026 125.073ZM83.5556 461.524C84.0899 460.639 84.6384 459.744 85.157 458.872C85.0052 459.219 84.8391 459.579 84.6876 459.927C84.1786 460.816 83.6399 461.731 83.1156 462.633L83.5556 461.524ZM78.4124 470.045L80.7716 466.138C80.5435 466.701 80.3377 467.245 80.1064 467.81C79.2993 469.198 78.5025 470.576 77.6899 471.968C77.9258 471.331 78.1809 470.679 78.4124 470.045ZM73.0481 478.785C74.0089 477.24 74.9819 475.685 75.9124 474.165C75.629 474.921 75.3483 475.675 75.0591 476.436C74.1566 477.958 73.2194 479.511 72.2925 481.054C72.5529 480.292 72.796 479.542 73.0481 478.785ZM67.4214 487.86C68.613 485.952 69.7621 484.081 70.9417 482.184C70.6308 483.089 70.2915 484.016 69.9735 484.927C68.8635 486.769 67.7832 488.587 66.6503 490.448C66.9165 489.578 67.1619 488.724 67.4214 487.86ZM61.7209 496.845C63.0243 494.801 64.3333 492.753 65.6038 490.737C65.3162 491.67 65.0481 492.59 64.7522 493.53C63.5003 495.576 62.2219 497.643 60.9447 499.709C61.2024 498.755 61.4736 497.792 61.7209 496.845ZM55.7815 506.143C57.2276 503.9 58.6311 501.693 60.0492 499.474C59.7792 500.478 59.5132 501.478 59.2317 502.49C57.8875 504.652 56.5214 506.832 55.1382 509.027C55.3607 508.06 55.5693 507.103 55.7815 506.143ZM49.6549 515.555C51.2277 513.147 52.794 510.744 54.3356 508.363C54.1018 509.393 53.8271 510.452 53.5805 511.49C52.1001 513.837 50.6148 516.188 49.1156 518.551C49.3027 517.548 49.4795 516.551 49.6549 515.555ZM43.3743 525.1C45.0418 522.586 46.6933 520.087 48.3174 517.609C48.1289 518.638 47.9633 519.652 47.7632 520.689C46.2056 523.124 44.5789 525.616 42.9649 528.098C43.1037 527.097 43.2463 526.093 43.3743 525.1ZM36.8621 534.886C38.6481 532.214 40.405 529.566 42.1656 526.916C42.0284 527.946 41.862 528.994 41.7115 530.031C40.0166 532.643 38.3528 535.228 36.6247 537.867C36.7105 536.87 36.7882 535.877 36.8621 534.886ZM30.1797 544.765C32.0543 542.014 33.9354 539.257 35.7513 536.556C35.6701 537.552 35.6039 538.54 35.513 539.543C33.7541 542.217 31.9448 544.935 30.1349 547.654C30.1614 546.685 30.1641 545.729 30.1797 544.765ZM23.3155 554.853C25.3001 551.957 27.2192 549.115 29.1765 546.243C29.1564 547.232 29.1257 548.228 29.0945 549.224C27.2262 552.027 25.346 554.84 23.4351 557.679C23.4007 556.735 23.3606 555.793 23.3155 554.853ZM-197.083 128.431C-196.245 128.522 -195.401 128.607 -194.555 128.693C-194.336 129.578 -194.122 130.465 -193.898 131.347C-194.707 131.223 -195.51 131.095 -196.313 130.966C-196.576 130.124 -196.828 129.277 -197.083 128.431ZM-200.628 128.03C-199.813 128.126 -198.993 128.217 -198.171 128.308C-197.922 129.136 -197.68 129.967 -197.424 130.791C-198.212 130.663 -198.99 130.528 -199.771 130.396C-200.062 129.61 -200.343 128.82 -200.628 128.03ZM-204.132 127.596C-203.338 127.698 -202.546 127.801 -201.746 127.898C-201.471 128.667 -201.191 129.434 -200.911 130.201C-201.669 130.069 -202.425 129.936 -203.177 129.8C-203.498 129.067 -203.819 128.334 -204.132 127.596ZM-207.577 127.137C-206.817 127.243 -206.056 127.349 -205.287 127.45C-204.988 128.163 -204.676 128.871 -204.365 129.578C-205.094 129.443 -205.825 129.311 -206.547 129.172C-206.893 128.496 -207.239 127.819 -207.577 127.137ZM-210.96 126.653C-210.235 126.762 -209.501 126.865 -208.77 126.969C-208.448 127.622 -208.125 128.274 -207.795 128.922C-208.499 128.783 -209.2 128.641 -209.897 128.497C-210.258 127.886 -210.607 127.268 -210.96 126.653ZM-214.302 126.131C-213.611 126.243 -212.911 126.349 -212.215 126.457C-211.877 127.05 -211.539 127.642 -211.194 128.232C-211.859 128.092 -212.511 127.942 -213.169 127.798C-213.549 127.243 -213.932 126.691 -214.302 126.131ZM-217.559 125.578C-216.914 125.691 -216.271 125.804 -215.622 125.913C-215.274 126.443 -214.917 126.968 -214.56 127.492C-215.183 127.352 -215.799 127.207 -216.416 127.063C-216.803 126.571 -217.18 126.074 -217.559 125.578ZM-220.762 124.998C-220.162 125.112 -219.567 125.227 -218.961 125.336C-218.617 125.792 -218.276 126.249 -217.927 126.702C-218.483 126.568 -219.044 126.437 -219.596 126.3C-219.985 125.866 -220.378 125.436 -220.762 124.998ZM-223.853 124.404C-223.337 124.508 -222.811 124.606 -222.291 124.707C-221.953 125.098 -221.606 125.483 -221.26 125.869C-221.761 125.74 -222.263 125.613 -222.76 125.481C-223.129 125.125 -223.49 124.763 -223.853 124.404ZM-226.865 123.771C-226.424 123.867 -225.976 123.958 -225.532 124.051C-225.225 124.36 -224.918 124.67 -224.608 124.977C-225.022 124.863 -225.435 124.746 -225.848 124.63C-226.186 124.343 -226.529 124.059 -226.865 123.771ZM-229.721 123.129C-229.397 123.205 -229.073 123.281 -228.746 123.354C-228.495 123.574 -228.247 123.795 -227.994 124.013C-228.306 123.92 -228.613 123.823 -228.923 123.729C-229.194 123.533 -229.454 123.328 -229.721 123.129ZM-232.365 122.507C-232.201 122.548 -232.042 122.591 -231.877 122.631C-231.734 122.74 -231.587 122.848 -231.444 122.957C-231.587 122.911 -231.726 122.862 -231.869 122.816C-232.034 122.713 -232.201 122.611 -232.365 122.507ZM91.3454 446.442C91.8502 445.609 92.368 444.765 92.8653 443.939C92.7326 444.236 92.6156 444.519 92.483 444.817C91.9686 445.705 91.4238 446.62 90.8957 447.52C91.0431 447.162 91.1998 446.798 91.3454 446.442ZM86.0891 455.101C86.8408 453.873 87.5577 452.675 88.3036 451.453C88.0682 452.013 87.8431 452.566 87.6052 453.128C86.8622 454.389 86.1416 455.63 85.3938 456.896C85.6226 456.3 85.8622 455.695 86.0891 455.101ZM80.5668 463.995C81.5408 462.435 82.5239 460.866 83.4792 459.321C83.1784 460.092 82.8606 460.876 82.5533 461.652C81.6523 463.156 80.7204 464.687 79.8027 466.206C80.0677 465.461 80.3077 464.736 80.5668 463.995ZM74.898 473.051C76.0929 471.164 77.2476 469.31 78.4189 467.443C78.0993 468.333 77.7542 469.244 77.4259 470.141C76.3093 471.976 75.1993 473.805 74.0554 475.663C74.3405 474.789 74.623 473.918 74.898 473.051ZM69.1505 482.056C70.4251 480.062 71.7025 478.066 72.9608 476.087C72.6554 477.023 72.3726 477.941 72.0573 478.884C70.8088 480.904 69.545 482.937 68.282 484.969C68.5639 484.004 68.8793 483.014 69.1505 482.056ZM63.0749 491.467C64.5174 489.255 65.9479 487.053 67.3514 484.874C67.0555 485.891 66.7436 486.92 66.4359 487.945C65.1157 490.049 63.7507 492.191 62.3867 494.332C62.6327 493.365 62.84 492.426 63.0749 491.467ZM56.8784 500.955C58.4492 498.559 59.997 496.183 61.5498 493.802C61.29 494.833 61.0151 495.876 60.7414 496.917C59.2356 499.282 57.7633 501.619 56.2333 504.005C56.4525 502.986 56.6712 501.966 56.8784 500.955ZM50.5096 510.54C52.1704 508.059 53.8405 505.57 55.4505 503.134C55.2339 504.161 55.0265 505.182 54.7985 506.217C53.2335 508.641 51.6211 511.105 50.0134 513.566C50.1846 512.553 50.3492 511.545 50.5096 510.54ZM43.9217 520.389C45.7289 517.709 47.4765 515.079 49.2501 512.427C49.0771 513.479 48.8629 514.558 48.6765 515.619C46.9877 518.199 45.2995 520.779 43.5729 523.392C43.695 522.388 43.8114 521.387 43.9217 520.389ZM37.1682 530.311C39.0443 527.566 40.9133 524.826 42.7443 522.119C42.6268 523.135 42.5209 524.144 42.3901 525.169C40.6078 527.858 38.8084 530.561 36.9899 533.281C37.059 532.286 37.111 531.3 37.1682 530.311ZM30.2341 540.414C32.2162 537.546 34.1689 534.702 36.1057 531.873C36.0408 532.892 35.9554 533.924 35.8784 534.95C34.0177 537.724 32.1129 540.535 30.1969 543.355C30.2074 542.375 30.2346 541.387 30.2341 540.414ZM23.0861 550.716C25.1593 547.743 27.1955 544.801 29.2308 541.86C29.226 542.846 29.2093 543.839 29.1929 544.831C27.2106 547.749 25.2597 550.639 23.2452 553.584C23.1953 552.627 23.1466 551.669 23.0861 550.716ZM-198.056 125.137C-197.166 125.193 -196.273 125.247 -195.376 125.297C-195.163 126.205 -194.944 127.109 -194.723 128.012C-195.582 127.922 -196.44 127.831 -197.292 127.736C-197.552 126.872 -197.808 126.006 -198.056 125.137ZM-201.732 124.885C-200.861 124.948 -199.996 125.015 -199.119 125.073C-198.877 125.922 -198.63 126.769 -198.379 127.613C-199.215 127.519 -200.054 127.427 -200.883 127.326C-201.17 126.515 -201.454 125.701 -201.732 124.885ZM-205.362 124.606C-204.518 124.676 -203.673 124.743 -202.821 124.807C-202.551 125.601 -202.281 126.395 -202.003 127.185C-202.818 127.084 -203.633 126.984 -204.44 126.878C-204.754 126.125 -205.055 125.364 -205.362 124.606ZM-208.951 124.3C-208.136 124.375 -207.308 124.442 -206.485 124.512C-206.189 125.252 -205.889 125.991 -205.587 126.728C-206.375 126.622 -207.154 126.509 -207.935 126.398C-208.277 125.701 -208.618 125.003 -208.951 124.3ZM-212.477 123.955C-211.694 124.034 -210.906 124.111 -210.116 124.186C-209.794 124.873 -209.459 125.551 -209.127 126.231C-209.889 126.12 -210.645 126.002 -211.4 125.886C-211.764 125.245 -212.121 124.601 -212.477 123.955ZM-215.949 123.577C-215.191 123.663 -214.438 123.752 -213.673 123.833C-213.337 124.454 -213.001 125.075 -212.655 125.69C-213.379 125.576 -214.102 125.462 -214.818 125.343C-215.199 124.757 -215.575 124.167 -215.949 123.577ZM-219.362 123.169C-218.646 123.259 -217.93 123.349 -217.208 123.434C-216.854 123.998 -216.493 124.557 -216.131 125.116C-216.814 125 -217.499 124.885 -218.176 124.764C-218.575 124.235 -218.973 123.704 -219.362 123.169ZM-222.693 122.738C-222.03 122.829 -221.356 122.912 -220.686 122.999C-220.324 123.501 -219.963 124.003 -219.594 124.501C-220.238 124.381 -220.877 124.259 -221.516 124.135C-221.912 123.672 -222.302 123.205 -222.693 122.738ZM-225.974 122.26C-225.361 122.352 -224.743 122.44 -224.126 122.528C-223.761 122.97 -223.387 123.406 -223.017 123.845C-223.61 123.725 -224.192 123.598 -224.779 123.475C-225.181 123.072 -225.58 122.668 -225.974 122.26ZM-229.145 121.756C-228.594 121.846 -228.049 121.939 -227.494 122.027C-227.149 122.392 -226.809 122.762 -226.459 123.123C-226.977 123.01 -227.491 122.893 -228.006 122.777C-228.388 122.439 -228.767 122.098 -229.145 121.756ZM-232.216 121.231C-231.757 121.313 -231.3 121.397 -230.839 121.477C-230.522 121.771 -230.192 122.057 -229.869 122.347C-230.299 122.247 -230.735 122.151 -231.161 122.048C-231.515 121.777 -231.867 121.506 -232.216 121.231ZM-235.12 120.695C-234.786 120.761 -234.442 120.82 -234.105 120.883C-233.85 121.087 -233.599 121.292 -233.342 121.494C-233.654 121.415 -233.97 121.338 -234.28 121.257C-234.561 121.07 -234.842 120.884 -235.12 120.695ZM-237.858 120.14L-237.354 120.243C-237.214 120.341 -237.079 120.441 -236.938 120.538L-237.402 120.409C-237.557 120.321 -237.704 120.228 -237.858 120.14ZM99.388 431.143C99.8029 430.458 100.23 429.764 100.646 429.078C100.52 429.355 100.4 429.626 100.272 429.903C99.8458 430.631 99.4003 431.377 98.968 432.109C99.1036 431.792 99.254 431.46 99.388 431.143ZM93.8717 440.148C94.6154 438.953 95.3392 437.776 96.0658 436.595C95.8308 437.137 95.5913 437.683 95.3534 438.227C94.6306 439.444 93.9485 440.624 93.2131 441.851C93.4423 441.276 93.6465 440.721 93.8717 440.148ZM88.3163 449.037C89.3104 447.443 90.3158 445.841 91.3087 444.249C90.9974 445.02 90.6459 445.824 90.3284 446.6C89.3959 448.143 88.4423 449.702 87.5033 451.25C87.7789 450.509 88.0461 449.774 88.3163 449.037ZM82.6371 458.011C83.7677 456.246 84.9024 454.479 85.9989 452.744C85.6849 453.58 85.4052 454.39 85.0844 455.231C83.9842 457.023 82.8546 458.839 81.7201 460.66C82.0212 459.781 82.3432 458.884 82.6371 458.011ZM76.7186 467.257C78.0132 465.244 79.2784 463.257 80.5604 461.255C80.2354 462.201 79.9104 463.147 79.5752 464.1C78.339 466.083 77.1195 468.051 75.8685 470.046C76.1599 469.11 76.4371 468.185 76.7186 467.257ZM70.6081 476.625C72.0527 474.424 73.5045 472.217 74.91 470.051C74.5932 471.071 74.2374 472.121 73.9101 473.149C72.5776 475.254 71.2003 477.397 69.8302 479.535C70.1007 478.556 70.3494 477.595 70.6081 476.625ZM64.3546 486.144C65.9208 483.779 67.4425 481.453 68.9791 479.113C68.7 480.128 68.4555 481.119 68.1654 482.142C66.6573 484.492 65.1576 486.834 63.6167 489.212C63.8599 488.191 64.1222 487.157 64.3546 486.144ZM57.8835 495.826C59.5517 493.338 61.2153 490.854 62.8503 488.394C62.6047 489.44 62.3513 490.49 62.0923 491.545C60.5201 493.963 58.927 496.398 57.3249 498.842C57.5258 497.826 57.6944 496.833 57.8835 495.826ZM51.2388 505.669C53.0309 503.034 54.8071 500.413 56.5524 497.817C56.3472 498.879 56.1152 499.959 55.8957 501.029C54.2205 503.571 52.5044 506.148 50.7798 508.733C50.9379 507.709 51.094 506.685 51.2388 505.669ZM44.4083 515.693C46.2895 512.944 48.1395 510.222 49.9937 507.497C49.8396 508.534 49.6942 509.565 49.5269 510.61C47.7241 513.312 45.9495 515.99 44.1174 518.716C44.2246 517.702 44.3137 516.699 44.4083 515.693ZM37.3988 525.819C39.3768 522.98 41.3664 520.129 43.2843 517.341C43.1826 518.372 43.0535 519.419 42.9381 520.458C41.078 523.213 39.1596 526.018 37.2444 528.819C37.2972 527.819 37.3587 526.813 37.3988 525.819ZM30.179 536.19C32.2619 533.217 34.2887 530.292 36.3374 527.349C36.2901 528.356 36.2397 529.366 36.181 530.38C34.2057 533.269 32.236 536.155 30.2199 539.079C30.2144 538.112 30.195 537.152 30.179 536.19ZM22.7878 546.651C24.9503 543.602 27.1008 540.565 29.2091 537.563C29.2196 538.536 29.2466 539.501 29.2484 540.479C27.193 543.455 25.1146 546.449 23.0123 549.465C22.9482 548.522 22.8618 547.589 22.7878 546.651ZM-198.982 121.814C-198.04 121.835 -197.1 121.856 -196.152 121.872C-195.948 122.797 -195.738 123.718 -195.525 124.639C-196.434 124.586 -197.342 124.534 -198.241 124.475C-198.492 123.59 -198.742 122.705 -198.982 121.814ZM-202.798 121.717C-201.88 121.745 -200.956 121.769 -200.033 121.791C-199.797 122.665 -199.552 123.534 -199.305 124.402C-200.194 124.342 -201.077 124.277 -201.96 124.212C-202.243 123.383 -202.527 122.553 -202.798 121.717ZM-206.552 121.592C-205.663 121.627 -204.761 121.652 -203.864 121.682C-203.6 122.503 -203.325 123.319 -203.049 124.134C-203.92 124.067 -204.779 123.992 -205.642 123.919C-205.951 123.147 -206.253 122.37 -206.552 121.592ZM-210.268 121.425C-209.397 121.467 -208.524 121.507 -207.646 121.544C-207.356 122.306 -207.066 123.068 -206.765 123.824C-207.607 123.751 -208.446 123.675 -209.283 123.596C-209.616 122.875 -209.942 122.15 -210.268 121.425ZM-213.946 121.226C-213.095 121.275 -212.25 121.329 -211.391 121.373C-211.076 122.079 -210.756 122.781 -210.435 123.483C-211.244 123.404 -212.059 123.328 -212.861 123.243C-213.227 122.573 -213.593 121.903 -213.946 121.226ZM-217.539 120.999C-216.73 121.055 -215.917 121.108 -215.1 121.158C-214.762 121.812 -214.415 122.461 -214.066 123.108C-214.854 123.022 -215.638 122.934 -216.418 122.843C-216.798 122.232 -217.167 121.615 -217.539 120.999ZM-221.093 120.741C-220.318 120.803 -219.528 120.855 -218.747 120.912C-218.389 121.507 -218.037 122.104 -217.673 122.695C-218.423 122.604 -219.162 122.505 -219.904 122.409C-220.303 121.854 -220.704 121.302 -221.093 120.741ZM-224.571 120.436C-223.839 120.503 -223.103 120.567 -222.363 120.63C-221.992 121.17 -221.608 121.705 -221.227 122.239C-221.944 122.142 -222.656 122.039 -223.368 121.937C-223.776 121.441 -224.172 120.938 -224.571 120.436ZM-228.003 120.097C-227.304 120.17 -226.61 120.248 -225.903 120.316C-225.531 120.789 -225.161 121.263 -224.783 121.731C-225.438 121.634 -226.097 121.537 -226.748 121.435C-227.168 120.991 -227.592 120.548 -228.003 120.097ZM-231.32 119.734C-230.689 119.808 -230.058 119.88 -229.422 119.949C-229.049 120.364 -228.669 120.774 -228.286 121.183C-228.897 121.083 -229.513 120.987 -230.118 120.883C-230.525 120.504 -230.917 120.116 -231.32 119.734ZM-234.578 119.337C-234.014 119.41 -233.438 119.474 -232.87 119.545C-232.512 119.893 -232.148 120.238 -231.785 120.583C-232.322 120.486 -232.858 120.388 -233.391 120.288C-233.787 119.971 -234.19 119.658 -234.578 119.337ZM-237.693 118.9C-237.221 118.968 -236.746 119.035 -236.27 119.1C-235.945 119.375 -235.627 119.653 -235.298 119.924C-235.753 119.834 -236.2 119.739 -236.651 119.646C-237.002 119.4 -237.347 119.149 -237.693 118.9ZM-240.702 118.443C-240.341 118.5 -239.986 118.561 -239.623 118.618C-239.354 118.816 -239.077 119.007 -238.805 119.203C-239.151 119.128 -239.489 119.046 -239.831 118.969C-240.122 118.793 -240.415 118.62 -240.702 118.443ZM-243.398 118.005C-243.23 118.035 -243.056 118.06 -242.886 118.089L-242.447 118.37C-242.598 118.333 -242.754 118.3 -242.905 118.264L-243.398 118.005ZM107.39 416.094L108.661 414.012L108.326 414.726C107.915 415.423 107.491 416.129 107.08 416.826C107.188 416.578 107.283 416.34 107.39 416.094ZM101.902 424.948C102.645 423.763 103.4 422.567 104.125 421.397C103.875 421.962 103.601 422.547 103.348 423.114C102.65 424.277 101.936 425.453 101.218 426.632C101.451 426.067 101.672 425.51 101.902 424.948ZM96.2857 433.916C97.2725 432.354 98.2143 430.832 99.1894 429.28C98.9033 429.968 98.6519 430.626 98.3608 431.317C97.3837 432.919 96.4177 434.512 95.4328 436.12C95.7154 435.387 96.0084 434.645 96.2857 433.916ZM90.585 442.823C91.679 441.119 92.7831 439.406 93.8585 437.719C93.5238 438.578 93.2022 439.428 92.8604 440.293C91.8056 441.995 90.7127 443.73 89.632 445.455C89.9437 444.582 90.2812 443.689 90.585 442.823ZM84.5126 452.243C85.8221 450.232 87.1006 448.248 88.3811 446.262C88.039 447.216 87.6715 448.19 87.3185 449.153C86.099 451.093 84.8967 453.019 83.6523 454.98C83.9533 454.056 84.2184 453.161 84.5126 452.243ZM78.3569 461.637C79.8012 459.439 81.2433 457.241 82.667 455.06C82.3367 456.068 81.9904 457.089 81.6489 458.106C80.2792 460.256 78.8862 462.425 77.4944 464.593C77.7869 463.604 78.075 462.618 78.3569 461.637ZM72.0758 471.108C73.6064 468.82 75.1365 466.533 76.6228 464.283C76.3219 465.309 76.0404 466.319 75.7272 467.353C74.2628 469.619 72.7584 471.92 71.249 474.225C71.5171 473.191 71.8186 472.133 72.0758 471.108ZM65.4773 480.972C67.1704 478.457 68.8139 475.985 70.4808 473.492C70.2074 474.555 69.9075 475.637 69.6212 476.71C68.0277 479.142 66.4623 481.551 64.8441 484.004C65.0713 482.982 65.2624 481.986 65.4773 480.972ZM58.7934 490.787C60.5691 488.191 62.3505 485.591 64.0777 483.037C63.8474 484.094 63.6185 485.149 63.3744 486.215C61.6932 488.751 59.959 491.333 58.229 493.91C58.418 492.868 58.6177 491.819 58.7934 490.787ZM51.8833 500.871C53.7727 498.132 55.623 495.428 57.4733 492.724C57.2858 493.779 57.0989 494.835 56.8988 495.9C55.1165 498.556 53.3278 501.216 51.504 503.908C51.6437 502.887 51.7556 501.884 51.8833 500.871ZM44.8113 511.055C46.7945 508.21 48.7618 505.378 50.7051 502.568C50.5675 503.616 50.4092 504.677 50.2586 505.734C48.372 508.512 46.4687 511.303 44.5458 514.112C44.636 513.092 44.7337 512.068 44.8113 511.055ZM37.5307 521.431C39.6036 518.493 41.6698 515.561 43.6901 512.669C43.6063 513.697 43.5192 514.725 43.4222 515.761C41.4716 518.599 39.4685 521.485 37.4633 524.372C37.4984 523.384 37.5053 522.413 37.5307 521.431ZM30.0858 531.969C32.2564 528.913 34.3741 525.902 36.5097 522.877C36.4799 523.878 36.4543 524.876 36.4115 525.885C34.3306 528.882 32.2805 531.852 30.16 534.882C30.1401 533.909 30.1165 532.936 30.0858 531.969ZM22.45 542.614C24.7014 539.489 26.9605 536.357 29.1451 533.291C29.1721 534.273 29.1724 535.268 29.1895 536.255C27.0644 539.284 24.8791 542.365 22.6921 545.449C22.6136 544.503 22.5374 543.555 22.45 542.614ZM-199.854 118.467C-198.869 118.45 -197.877 118.429 -196.885 118.407C-196.689 119.349 -196.498 120.295 -196.297 121.234C-197.257 121.218 -198.208 121.194 -199.161 121.172C-199.399 120.274 -199.623 119.369 -199.854 118.467ZM-203.8 118.52C-202.836 118.511 -201.861 118.495 -200.889 118.481C-200.662 119.37 -200.438 120.262 -200.205 121.149C-201.143 121.125 -202.073 121.095 -203.002 121.065C-203.271 120.219 -203.539 119.371 -203.8 118.52ZM-207.704 118.534C-206.757 118.534 -205.808 118.533 -204.852 118.526C-204.597 119.364 -204.333 120.197 -204.068 121.03C-204.982 120.999 -205.896 120.967 -206.802 120.93C-207.107 120.134 -207.411 119.337 -207.704 118.534ZM-211.54 118.519C-210.618 118.526 -209.7 118.535 -208.771 118.538C-208.486 119.323 -208.193 120.102 -207.897 120.881C-208.79 120.842 -209.686 120.805 -210.569 120.76C-210.9 120.017 -211.22 119.268 -211.54 118.519ZM-215.34 118.472C-214.443 118.488 -213.54 118.499 -212.635 118.508C-212.324 119.239 -212.017 119.972 -211.698 120.698C-212.566 120.651 -213.429 120.6 -214.29 120.548C-214.643 119.858 -214.995 119.167 -215.34 118.472ZM-219.075 118.392C-218.213 118.415 -217.341 118.43 -216.47 118.448C-216.135 119.129 -215.789 119.805 -215.442 120.48C-216.288 120.426 -217.121 120.362 -217.957 120.302C-218.335 119.669 -218.709 119.032 -219.075 118.392ZM-222.757 118.266C-221.921 118.298 -221.082 118.328 -220.238 118.354C-219.884 118.977 -219.53 119.599 -219.166 120.215C-219.975 120.154 -220.781 120.09 -221.584 120.023C-221.98 119.44 -222.37 118.854 -222.757 118.266ZM-226.384 118.106C-225.58 118.146 -224.782 118.189 -223.97 118.223C-223.6 118.79 -223.221 119.351 -222.842 119.912C-223.611 119.845 -224.386 119.782 -225.147 119.709C-225.564 119.178 -225.977 118.644 -226.384 118.106ZM-229.934 117.916C-229.176 117.961 -228.413 118.003 -227.649 118.044C-227.267 118.554 -226.886 119.065 -226.494 119.569C-227.226 119.495 -227.954 119.421 -228.677 119.343C-229.099 118.868 -229.519 118.394 -229.934 117.916ZM-233.41 117.688C-232.71 117.739 -231.997 117.781 -231.29 117.827C-230.898 118.285 -230.495 118.735 -230.094 119.186C-230.785 119.107 -231.467 119.02 -232.153 118.936C-232.577 118.523 -232.994 118.106 -233.41 117.688ZM-236.821 117.411C-236.166 117.468 -235.509 117.522 -234.847 117.574C-234.465 117.965 -234.09 118.361 -233.699 118.747C-234.327 118.667 -234.942 118.577 -235.562 118.492C-235.983 118.132 -236.406 117.775 -236.821 117.411ZM-240.12 117.105C-239.539 117.163 -238.964 117.227 -238.377 117.281C-238.011 117.609 -237.633 117.931 -237.256 118.253C-237.82 118.171 -238.385 118.09 -238.945 118.004C-239.344 117.709 -239.728 117.404 -240.12 117.105ZM-243.322 116.772C-242.829 116.827 -242.331 116.88 -241.834 116.933C-241.504 117.189 -241.171 117.444 -240.839 117.699C-241.298 117.624 -241.763 117.554 -242.218 117.476C-242.585 117.24 -242.96 117.01 -243.322 116.772ZM-246.327 116.409C-245.97 116.454 -245.608 116.496 -245.249 116.539C-244.99 116.715 -244.74 116.896 -244.477 117.069C-244.815 117.008 -245.154 116.947 -245.488 116.884C-245.772 116.728 -246.047 116.567 -246.327 116.409ZM-249.195 116.019L-248.622 116.1C-248.475 116.187 -248.32 116.27 -248.17 116.356L-248.702 116.246C-248.865 116.169 -249.033 116.096 -249.195 116.019ZM115.576 400.923C116.055 400.152 116.501 399.41 116.974 398.646L116.749 399.115L115.305 401.54L115.576 400.923ZM110.142 409.593C110.883 408.408 111.638 407.211 112.378 406.027C112.143 406.543 111.923 407.048 111.686 407.566C110.957 408.771 110.196 410.003 109.452 411.22C109.682 410.679 109.917 410.131 110.142 409.593ZM104.53 418.473C105.431 417.067 106.327 415.666 107.204 414.282C106.914 414.959 106.642 415.62 106.348 416.3C105.425 417.802 104.529 419.279 103.587 420.796C103.892 420.03 104.232 419.234 104.53 418.473ZM98.5989 427.719C99.7154 425.983 100.826 424.25 101.936 422.517C101.591 423.378 101.235 424.247 100.88 425.114C99.8444 426.774 98.7879 428.451 97.7459 430.117C98.0468 429.304 98.3036 428.527 98.5989 427.719ZM92.5296 437.038C93.837 435.048 95.1563 433.05 96.4246 431.095C96.0626 432.065 95.6501 433.076 95.2786 434.054C94.0788 435.948 92.8384 437.877 91.5998 439.805C91.9182 438.875 92.2206 437.959 92.5296 437.038ZM86.3179 446.503C87.7582 444.326 89.1449 442.196 90.5621 440.04C90.2263 441.016 89.93 441.962 89.5846 442.946C88.1776 445.138 86.8005 447.304 85.3713 449.514C85.6841 448.513 86.016 447.496 86.3179 446.503ZM79.9268 456.059C81.4653 453.766 83.0047 451.471 84.5097 449.207C84.1848 450.25 83.858 451.294 83.5218 452.346C82.0733 454.571 80.5843 456.833 79.0999 459.09C79.3847 458.073 79.654 457.067 79.9268 456.059ZM73.3029 465.886C74.9987 463.389 76.6703 460.914 78.3256 458.453C78.0266 459.53 77.6791 460.645 77.3679 461.732C75.7872 464.13 74.1966 466.537 72.5779 468.969C72.8315 467.932 73.062 466.913 73.3029 465.886ZM66.5646 475.768C68.3316 473.184 70.0833 470.614 71.825 468.052C71.5713 469.107 71.3509 470.136 71.0852 471.2C69.3696 473.771 67.6424 476.352 65.9003 478.947C66.1184 477.89 66.3601 476.816 66.5646 475.768ZM59.5782 485.881C61.4568 483.179 63.345 480.468 65.17 477.814C64.9538 478.886 64.7225 479.968 64.4931 481.049C62.7415 483.644 60.9282 486.293 59.1228 488.935C59.2919 487.905 59.4213 486.903 59.5782 485.881ZM52.4466 496.139C54.4411 493.289 56.3768 490.49 58.3345 487.671C58.1658 488.73 57.9913 489.793 57.8085 490.861C55.9038 493.651 54.0193 496.423 52.0772 499.245C52.2009 498.21 52.336 497.167 52.4466 496.139ZM45.1111 506.527C47.1824 503.604 49.254 500.681 51.2726 497.803C51.1529 498.846 51.0304 499.891 50.898 500.942C48.945 503.772 46.9447 506.643 44.9417 509.516C45.0142 508.51 45.0512 507.526 45.1111 506.527ZM37.6252 517.059C39.7871 514.034 41.9265 511.029 44.0397 508.046C43.9735 509.068 43.9041 510.094 43.8246 511.124C41.7636 514.079 39.6736 517.058 37.5619 520.056C37.5812 519.059 37.6177 518.05 37.6252 517.059ZM29.9151 527.803C32.1693 524.674 34.399 521.566 36.6092 518.475C36.5971 519.478 36.5652 520.492 36.54 521.502C34.387 524.556 32.2263 527.618 30.0339 530.707C29.9974 529.738 29.9617 528.768 29.9151 527.803ZM22.0383 538.656C24.3699 535.46 26.7082 532.256 28.9748 529.115C29.017 530.088 29.0619 531.06 29.0938 532.038C26.8883 535.137 24.6049 538.305 22.3311 541.465C22.2375 540.527 22.1409 539.59 22.0383 538.656ZM28.9226 527.877C26.6302 531.058 24.2738 534.292 21.9217 537.526C12.09 451.09 -38.551 383.214 -89.1319 315.416C-119.847 274.246 -150.536 233.103 -172.045 187.852C-150.187 225.846 -120.893 260.334 -91.424 295.021C-33.9405 362.687 24.1819 431.125 28.9226 527.877ZM36.6325 517.138C34.4057 520.254 32.1409 523.405 29.8651 526.565C24.7386 430.306 -33.2225 362.086 -90.5319 294.625C-121.604 258.05 -152.477 221.695 -174.634 181.218C-152.071 215.487 -122.288 246.182 -92.2133 277.167C-28.0459 343.275 37.4246 410.717 36.6325 517.138ZM97.586 427.87C96.2386 429.954 94.8775 432.052 93.4943 434.168C153.701 250.531 28.1915 214.81 -89.7321 181.291C-123.733 171.627 -157.092 162.139 -185.167 149.327M-200.69 115.087C-199.661 115.033 -198.625 114.974 -197.586 114.913C-197.401 115.874 -197.207 116.831 -197.012 117.787C-198.017 117.808 -199.018 117.827 -200.014 117.841C-200.245 116.926 -200.471 116.008 -200.69 115.087ZM-204.76 115.283C-203.745 115.237 -202.733 115.193 -201.71 115.141C-201.495 116.048 -201.275 116.953 -201.048 117.856C-202.033 117.869 -203.02 117.884 -203.996 117.891C-204.258 117.025 -204.508 116.153 -204.76 115.283ZM-208.788 115.449C-207.792 115.411 -206.798 115.374 -205.793 115.331C-205.548 116.186 -205.305 117.044 -205.051 117.894C-206.012 117.899 -206.973 117.904 -207.925 117.903C-208.217 117.087 -208.506 116.27 -208.788 115.449ZM-212.763 115.584C-211.796 115.556 -210.82 115.522 -209.842 115.487C-209.566 116.295 -209.28 117.099 -208.994 117.902C-209.939 117.899 -210.874 117.887 -211.811 117.878C-212.134 117.116 -212.453 116.353 -212.763 115.584ZM-216.681 115.682C-215.739 115.664 -214.787 115.636 -213.834 115.611C-213.531 116.367 -213.221 117.119 -212.905 117.868C-213.832 117.856 -214.751 117.838 -215.67 117.82C-216.014 117.112 -216.345 116.396 -216.681 115.682ZM-220.566 115.739C-219.64 115.729 -218.714 115.719 -217.779 115.702C-217.452 116.402 -217.128 117.102 -216.792 117.796C-217.68 117.776 -218.569 117.756 -219.448 117.729C-219.825 117.069 -220.202 116.408 -220.566 115.739ZM-224.362 115.761C-223.472 115.76 -222.586 115.761 -221.688 115.754C-221.337 116.403 -220.975 117.046 -220.612 117.688C-221.478 117.66 -222.346 117.634 -223.203 117.599C-223.597 116.991 -223.979 116.376 -224.362 115.761ZM-228.132 115.75C-227.271 115.757 -226.401 115.76 -225.531 115.762C-225.161 116.357 -224.796 116.954 -224.417 117.543C-225.247 117.506 -226.071 117.465 -226.892 117.422C-227.309 116.866 -227.729 116.313 -228.132 115.75ZM-231.799 115.698C-230.988 115.715 -230.162 115.722 -229.343 115.733C-228.956 116.28 -228.557 116.821 -228.156 117.36C-228.964 117.314 -229.758 117.257 -230.559 117.205C-230.98 116.708 -231.386 116.201 -231.799 115.698ZM-235.439 115.599C-234.655 115.623 -233.871 115.648 -233.08 115.667C-232.685 116.153 -232.288 116.638 -231.887 117.119C-232.638 117.067 -233.385 117.011 -234.13 116.954C-234.569 116.504 -235.009 116.055 -235.439 115.599ZM-238.971 115.464C-238.238 115.496 -237.512 115.533 -236.773 115.56C-236.376 115.988 -235.975 116.414 -235.569 116.836C-236.269 116.777 -236.976 116.724 -237.67 116.661C-238.109 116.266 -238.54 115.865 -238.971 115.464ZM-242.433 115.295C-241.768 115.332 -241.095 115.365 -240.424 115.398C-240.03 115.771 -239.623 116.137 -239.221 116.506C-239.866 116.442 -240.514 116.38 -241.154 116.312C-241.585 115.976 -242.01 115.636 -242.433 115.295ZM-245.794 115.083C-245.201 115.124 -244.597 115.159 -243.999 115.196C-243.626 115.504 -243.26 115.817 -242.881 116.121C-243.451 116.056 -244.014 115.986 -244.579 115.917C-244.985 115.639 -245.394 115.364 -245.794 115.083ZM-249.034 114.828C-248.539 114.869 -248.044 114.912 -247.544 114.95C-247.198 115.199 -246.845 115.442 -246.491 115.685C-246.994 115.619 -247.482 115.544 -247.979 115.475C-248.338 115.264 -248.681 115.042 -249.034 114.828ZM-252.143 114.547C-251.753 114.585 -251.372 114.63 -250.98 114.666C-250.711 114.834 -250.437 114.999 -250.167 115.165C-250.524 115.111 -250.879 115.055 -251.236 115C-251.536 114.847 -251.845 114.701 -252.143 114.547ZM-254.945 114.259C-254.765 114.279 -254.58 114.295 -254.4 114.315C-254.255 114.392 -254.115 114.472 -253.97 114.549C-254.136 114.52 -254.307 114.495 -254.473 114.466L-254.945 114.259ZM14.4433 552.42C14.2926 551.51 14.1497 550.598 13.9908 549.691C16.4248 546.377 18.7758 543.134 21.1564 539.866C21.2565 540.806 21.3617 541.745 21.4501 542.69C19.1228 545.927 16.8195 549.141 14.4433 552.42ZM15.0489 556.197C14.9105 555.289 14.7653 554.383 14.6184 553.477C16.9687 550.237 19.2558 547.052 21.5626 543.85C21.6484 544.803 21.7148 545.765 21.7921 546.722C19.5589 549.868 17.3262 553.013 15.0489 556.197ZM15.6013 560.024C15.4764 559.112 15.3411 558.203 15.2058 557.295C17.4562 554.151 19.6823 551.029 21.887 547.924C21.9591 548.878 22.0315 549.83 22.093 550.788C19.9615 553.839 17.7811 556.932 15.6013 560.024ZM16.1014 563.903C15.9883 562.981 15.8827 562.055 15.7609 561.137C17.9028 558.1 20.0692 555.043 22.1635 552.047C22.2213 553.004 22.2766 553.962 22.3235 554.925C20.2939 557.88 18.1817 560.906 16.1014 563.903ZM16.5645 567.82C16.4639 566.898 16.3543 565.979 16.2445 565.061C18.3056 562.092 20.3825 559.111 22.3923 556.185C22.4353 557.145 22.4544 558.115 22.4871 559.078C20.5366 561.973 18.5675 564.882 16.5645 567.82ZM16.9658 571.749C16.8798 570.842 16.7831 569.939 16.6886 569.035C18.6705 566.131 20.5962 563.275 22.5284 560.412C22.5562 561.375 22.5913 562.336 22.6088 563.304C20.7771 566.078 18.8483 568.932 16.9658 571.749ZM17.3098 575.767C17.2363 574.84 17.1702 573.909 17.0874 572.985C18.9195 570.247 20.832 567.444 22.619 564.744C22.6302 565.692 22.6359 566.642 22.6373 567.593C20.8965 570.29 19.1003 573.03 17.3098 575.767ZM17.6105 579.816C17.5509 578.893 17.4828 577.973 17.4135 577.053C19.1601 574.388 20.9484 571.689 22.6471 569.063C22.6438 570.016 22.6208 570.977 22.6071 571.934C20.9628 574.545 19.3033 577.167 17.6105 579.816ZM17.851 583.919C17.8056 582.998 17.7464 582.082 17.6905 581.165C19.3339 578.597 20.9823 576.025 22.581 573.494C22.5618 574.433 22.5555 575.366 22.5277 576.308C20.9756 578.839 19.4487 581.351 17.851 583.919ZM18.0199 588.089C17.9879 587.165 17.9606 586.239 17.9186 585.318C19.4568 582.852 20.9645 580.409 22.4575 577.978C22.4246 578.919 22.3831 579.863 22.3399 580.809C20.895 583.24 19.5065 585.626 18.0199 588.089ZM18.1381 592.236C18.1203 591.338 18.1008 590.44 18.0737 589.545C19.5055 587.178 20.8772 584.86 22.2683 582.525C22.2186 583.465 22.1483 584.415 22.0904 585.359C20.7731 587.651 19.4903 589.917 18.1381 592.236ZM18.2 596.411C18.1967 595.551 18.1744 594.696 18.1623 593.839C19.4711 591.599 20.6932 589.428 21.9669 587.216C21.9035 588.126 21.8543 589.03 21.7827 589.944C20.6002 592.091 19.4153 594.239 18.2 596.411ZM18.1763 600.67C18.1851 599.822 18.1935 598.974 18.1934 598.128C19.3581 596.058 20.4593 594.036 21.5975 591.984C21.521 592.883 21.4397 593.784 21.3529 594.687C20.3157 596.666 19.2444 598.668 18.1763 600.67ZM18.0973 604.942C18.1196 604.119 18.1482 603.295 18.1628 602.475C19.179 600.583 20.1624 598.715 21.1554 596.84C21.0647 597.721 20.9494 598.612 20.8509 599.497C19.9619 601.292 19.0157 603.126 18.0973 604.942ZM17.9666 609.208C17.9978 608.444 18.0135 607.685 18.0392 606.923C18.8932 605.245 19.7414 603.571 20.5748 601.908C20.4791 602.705 20.3878 603.501 20.285 604.302C19.5341 605.923 18.741 607.572 17.9666 609.208ZM17.741 613.548C17.7818 612.841 17.8155 612.135 17.851 611.429C18.5308 610.005 19.2259 608.57 19.8902 607.156C19.7953 607.839 19.7044 608.52 19.6053 609.205C18.9881 610.65 18.3764 612.091 17.741 613.548ZM17.4653 617.757C17.5082 617.169 17.5575 616.579 17.5963 615.992C18.0858 614.882 18.6033 613.754 19.0815 612.652C19.0017 613.168 18.9133 613.688 18.8295 614.205C18.3735 615.39 17.9343 616.564 17.4653 617.757ZM17.1756 621.609C17.204 621.295 17.2234 620.983 17.2489 620.67C17.5313 619.964 17.8321 619.246 18.1094 618.543C18.066 618.787 18.0151 619.033 17.9719 619.277L17.1756 621.609ZM-191.931 117.656C-192.097 116.636 -192.26 115.616 -192.415 114.591C-158.673 112.357 -120.94 107.254 -82.4822 102.048C-7.65378 91.9181 69.9064 81.4191 125.844 91.0932C207.849 105.276 243.469 162.895 156.293 328.636C233.859 171.274 193.495 117.088 110.373 102.961C56.8463 93.8633 -14.3674 101.392 -83.2365 108.673C-121.327 112.701 -158.694 116.648 -191.931 117.656ZM-191.334 121.295C-191.506 120.29 -191.666 119.28 -191.83 118.271C-158.623 117.234 -121.345 113.297 -83.3459 109.279C-14.5794 102.009 56.5318 94.4907 109.888 103.559C195.417 118.096 235.387 175.337 147.264 344.639C225.806 183.288 180.481 129.55 93.406 115.029C42.9316 106.612 -21.5359 111.386 -84.0379 116.016C-121.689 118.805 -158.624 121.539 -191.334 121.295ZM-190.678 124.897C-190.863 123.909 -191.044 122.92 -191.219 121.928C-158.556 122.135 -121.731 119.408 -84.1991 116.628C-21.7789 112.005 42.6018 107.236 92.9259 115.629C182.533 130.571 227.662 187.315 138.128 361.039C218.138 194.687 166.8 141.578 75.0826 126.598C28.2453 118.949 -29.0844 121.252 -84.8263 123.492C-122.029 124.987 -158.513 126.448 -190.678 124.897ZM-189.994 128.476C-190.187 127.501 -190.376 126.526 -190.559 125.548C-158.454 127.053 -122.1 125.596 -85.0383 124.107C-29.3619 121.87 27.9006 119.568 74.6059 127.197C168.502 142.532 219.889 198.03 130.324 375.046L129.838 375.862C210.562 204.76 151.743 152.97 54.8461 137.505C12.4667 130.74 -37.1749 130.93 -85.5988 131.116C-122.345 131.257 -158.383 131.391 -189.994 128.476ZM-189.284 132.021C-189.481 131.065 -189.669 130.104 -189.86 129.145C-158.322 132.003 -122.444 131.871 -85.8653 131.731C-37.4958 131.545 12.0895 131.355 54.3742 138.104C152.382 153.748 211.236 206.76 125.146 383.736C124.661 384.542 124.207 385.321 123.716 386.134C202.393 212.477 134.054 163.415 31.6899 147.486C-5.03706 141.771 -46.1222 140.323 -86.3552 138.905C-122.645 137.627 -158.236 136.37 -189.284 132.021ZM-188.518 135.535C-188.726 134.599 -188.934 133.664 -189.133 132.724C-158.174 137 -122.767 138.248 -86.6733 139.521C-46.4772 140.937 -5.43119 142.384 31.2227 148.087C134.39 164.141 202.873 213.988 120.086 392.076C119.358 393.269 118.617 394.474 117.889 395.668C215.163 170.299 58.4203 158.141 -87.0854 146.884C-122.912 144.112 -158.046 141.388 -188.518 135.535ZM-187.73 139.029C-187.943 138.112 -188.152 137.192 -188.358 136.272C-157.989 142.035 -123.066 144.741 -87.4611 147.496C58.8053 158.811 216.428 171.062 114.516 401.168C113.71 402.469 112.864 403.805 112.033 405.127C199.714 190.388 50.7784 172.106 -87.7959 155.079C-123.158 150.733 -157.843 146.468 -187.73 139.029ZM-186.911 142.484C-187.126 141.592 -187.337 140.698 -187.546 139.805C-157.778 147.132 -123.337 151.369 -88.2256 155.683C50.9615 172.786 200.553 191.217 109.103 409.797C108.021 411.518 106.973 413.209 105.876 414.943C184.332 210.528 43.2304 186.196 -88.4773 163.517C-123.384 157.506 -157.618 151.605 -186.911 142.484ZM-186.049 145.921C-186.271 145.056 -186.495 144.191 -186.709 143.323C-157.55 152.303 -123.583 158.154 -88.9622 164.115C43.2033 186.874 184.882 211.272 103.511 418.639C102.274 420.581 101.003 422.551 99.7401 424.515C168.938 230.569 35.6776 200.419 -89.1225 172.239C-123.57 164.461 -157.361 156.826 -186.049 145.921ZM-184.247 152.71C-184.465 151.913 -184.682 151.117 -184.898 150.319C-156.986 162.916 -123.966 172.302 -90.3256 181.865C27.9634 215.488 153.878 251.347 91.528 437.164C90.067 439.397 88.6013 441.634 87.1233 443.882C138.586 270.429 20.776 229.398 -90.2939 190.727C-123.857 179.042 -156.797 167.568 -184.247 152.71ZM-183.294 156.068C-183.515 155.311 -183.738 154.554 -183.951 153.794C-156.672 168.391 -124.109 179.736 -90.9351 191.285C20.4717 230.073 138.657 271.251 85.3273 446.61C83.7591 448.976 82.1302 451.396 80.5114 453.807C123.569 290.343 13.4582 244.229 -90.7979 200.616C-123.939 186.753 -156.477 173.136 -183.294 156.068ZM-182.327 159.398C-182.535 158.701 -182.733 157.999 -182.937 157.3C-156.305 174.043 -124.186 187.48 -91.4854 201.159C13.0607 244.893 123.528 291.127 78.9317 456.166C77.2259 458.709 75.5311 461.242 73.7889 463.817C108.761 310.195 6.24705 259.356 -91.231 211.047C-123.977 194.819 -156.148 178.873 -182.327 159.398ZM-181.31 162.711C-181.506 162.07 -181.706 161.432 -181.9 160.791C-155.916 179.866 -124.218 195.584 -91.9584 211.571C5.78544 260.012 108.595 311.005 72.3131 465.981C70.5387 468.595 68.7332 471.236 66.9215 473.883C94.1069 330.017 -0.85666 274.838 -91.5759 222.132C-123.953 203.321 -155.781 184.821 -181.31 162.711ZM-180.276 165.999C-180.456 165.44 -180.639 164.883 -180.816 164.323C-155.488 185.941 -124.176 204.136 -92.3372 222.634C-1.37058 275.484 93.879 330.819 65.5798 475.851C63.6947 478.599 61.7689 481.383 59.8317 484.176C79.6428 349.899 -7.79929 290.777 -91.8025 234.015C-123.857 212.355 -155.401 191.032 -180.276 165.999ZM-179.221 169.262C-179.369 168.816 -179.509 168.367 -179.656 167.92C-154.99 192.33 -124.04 213.25 -92.5998 234.496C-8.36722 291.412 79.3257 350.703 58.5889 485.965C56.6112 488.817 54.6438 491.66 52.6327 494.542C65.4641 369.778 -14.563 307.279 -91.8755 246.887C-123.67 222.051 -155.003 197.572 -179.221 169.262ZM-178.119 172.528L-178.432 171.607C-154.432 199.119 -123.789 223.064 -92.7016 247.347C-15.1726 307.907 65.0667 370.605 51.4625 496.215C49.417 499.134 47.2972 502.117 45.1925 505.089C51.4953 389.789 -21.1043 324.503 -91.7478 261.011C-123.355 232.603 -154.565 204.551 -178.119 172.528ZM-177.013 175.742L-177.103 175.492C-153.767 206.467 -123.374 233.791 -92.6005 261.45C-21.7587 325.121 51.051 390.598 44.12 506.607C41.9709 509.644 39.8126 512.688 37.6173 515.765C37.9068 409.932 -27.354 342.672 -91.34 276.75C-122.886 244.247 -154.12 212.068 -177.013 175.742ZM-86.8094 340.354C-117.673 293.457 -148.759 246.217 -169.794 194.74C-148.489 237.445 -119.277 276.607 -90.0401 315.793C-39.3012 383.805 11.4867 451.901 21.0397 538.735C18.639 542.035 16.2633 545.313 13.8043 548.664C0.174162 472.531 -43.0887 406.785 -86.8094 340.354ZM-181.214 166.362L-180.932 167.234L-181.167 166.957C-181.288 166.65 -181.414 166.345 -181.534 166.038L-181.214 166.362ZM-182.246 163.087C-182.108 163.53 -181.976 163.975 -181.837 164.417C-182.014 164.236 -182.196 164.057 -182.372 163.875L-182.884 162.534L-182.246 163.087ZM-183.255 159.797C-183.087 160.357 -182.912 160.914 -182.741 161.473C-183.023 161.225 -183.298 160.975 -183.576 160.726C-183.777 160.19 -183.968 159.649 -184.165 159.112C-183.862 159.34 -183.561 159.57 -183.255 159.797ZM-184.219 156.482L-183.669 158.387L-184.719 157.59C-184.944 156.97 -185.174 156.352 -185.394 155.729C-185.003 155.98 -184.613 156.232 -184.219 156.482ZM-185.17 153.14C-184.975 153.843 -184.778 154.545 -184.578 155.245C-184.999 154.974 -185.424 154.706 -185.84 154.432C-186.075 153.752 -186.312 153.073 -186.544 152.391C-186.089 152.642 -185.629 152.891 -185.17 153.14ZM-186.086 149.774C-185.883 150.534 -185.674 151.291 -185.468 152.048C-185.964 151.776 -186.453 151.499 -186.946 151.224C-187.189 150.5 -187.423 149.773 -187.661 149.047C-187.136 149.289 -186.613 149.533 -186.086 149.774ZM-186.966 146.389C-186.762 147.185 -186.566 147.984 -186.358 148.778C-186.902 148.526 -187.455 148.277 -187.996 148.023C-188.248 147.251 -188.501 146.48 -188.744 145.704C-188.155 145.934 -187.561 146.162 -186.966 146.389ZM-187.83 142.97C-187.624 143.811 -187.41 144.649 -187.195 145.487C-187.812 145.249 -188.42 145.006 -189.032 144.765C-189.279 143.964 -189.526 143.164 -189.768 142.361C-189.124 142.566 -188.477 142.768 -187.83 142.97ZM-188.641 139.538C-188.438 140.404 -188.235 141.269 -188.027 142.134C-188.697 141.923 -189.368 141.714 -190.031 141.499C-190.279 140.667 -190.516 139.83 -190.758 138.996C-190.055 139.178 -189.351 139.36 -188.641 139.538ZM-189.43 136.065C-189.232 136.963 -189.032 137.859 -188.827 138.753C-189.551 138.571 -190.269 138.383 -190.987 138.197C-191.234 137.34 -191.48 136.483 -191.717 135.623C-190.959 135.773 -190.194 135.919 -189.43 136.065ZM-190.192 132.574C-189.999 133.495 -189.794 134.412 -189.591 135.329C-190.369 135.177 -191.146 135.023 -191.919 134.866C-192.156 133.986 -192.393 133.105 -192.623 132.222C-191.814 132.34 -191.006 132.459 -190.192 132.574ZM-190.902 129.052C-190.715 129.991 -190.529 130.932 -190.337 131.869C-191.164 131.75 -191.991 131.632 -192.814 131.511C-193.045 130.61 -193.268 129.704 -193.493 128.8C-192.632 128.886 -191.77 128.971 -190.902 129.052ZM-191.588 125.497C-191.408 126.46 -191.224 127.422 -191.035 128.382C-191.917 128.299 -192.789 128.209 -193.66 128.119C-193.888 127.201 -194.114 126.283 -194.331 125.361C-193.421 125.41 -192.502 125.452 -191.588 125.497ZM-192.239 121.918C-192.067 122.897 -191.887 123.872 -191.706 124.847C-192.634 124.8 -193.56 124.753 -194.481 124.701C-194.697 123.764 -194.911 122.826 -195.118 121.884C-194.161 121.898 -193.203 121.91 -192.239 121.918ZM-192.84 118.304C-192.678 119.297 -192.522 120.293 -192.354 121.283C-193.326 121.274 -194.296 121.263 -195.263 121.25C-195.47 120.297 -195.665 119.339 -195.862 118.383C-194.859 118.359 -193.853 118.334 -192.84 118.304ZM-193.415 114.656C-193.262 115.67 -193.103 116.68 -192.94 117.689C-193.964 117.719 -194.976 117.74 -195.992 117.763C-196.191 116.796 -196.388 115.828 -196.576 114.856C-195.527 114.793 -194.472 114.725 -193.415 114.656ZM-189.191 0.478185C-198.105 41.3379 -198.72 78.8824 -193.503 114.049C-194.568 114.118 -195.631 114.183 -196.689 114.245C-203.203 80.1129 -203.393 43.1415 -194.429 2.05263L-195.399 2.14146C-204.36 43.2173 -204.188 80.1792 -197.699 114.303C-198.747 114.363 -199.794 114.425 -200.833 114.479C-208.647 81.4082 -209.652 45.0316 -200.639 3.71682L-201.61 3.80573C-210.619 45.1017 -209.635 81.4655 -201.854 114.526C-202.886 114.578 -203.913 114.626 -204.936 114.671C-214.073 82.6841 -215.91 46.921 -206.847 5.38006L-207.817 5.469C-216.875 46.9884 -215.068 82.7409 -205.97 114.719C-206.989 114.762 -207.996 114.796 -209.006 114.832C-219.493 83.9524 -222.168 48.8124 -213.054 7.04348L-214.025 7.1325C-223.131 48.8719 -220.494 83.9996 -210.06 114.871C-211.048 114.904 -212.029 114.933 -213.008 114.959C-224.877 85.2085 -228.427 50.7126 -219.264 8.70716L-220.233 8.79588C-229.39 50.7636 -225.881 85.2433 -214.081 114.987C-215.048 115.012 -216.017 115.037 -216.977 115.055C-230.251 86.4551 -234.69 52.6163 -225.474 10.3713L-226.444 10.46C-235.65 52.6552 -231.267 86.4772 -218.078 115.07C-219.021 115.085 -219.964 115.1 -220.898 115.108C-235.603 87.6831 -240.951 54.5204 -231.682 12.0349L-232.652 12.1235C-241.909 54.5504 -236.628 87.6966 -222.021 115.118C-222.943 115.123 -223.851 115.12 -224.764 115.119C-240.932 88.8957 -247.211 56.4273 -237.889 13.6978L-238.859 13.7867C-248.166 56.4428 -241.973 88.8951 -225.931 115.119C-226.824 115.116 -227.705 115.104 -228.587 115.093C-246.246 90.0957 -253.476 58.3387 -244.1 15.362L-245.07 15.4508C-254.426 58.3356 -247.3 90.0735 -229.797 115.077C-230.651 115.063 -231.505 115.05 -232.35 115.03C-251.531 91.283 -259.739 60.2561 -250.307 17.0254L-251.278 17.1143C-260.683 60.2248 -252.617 91.2359 -233.635 114.993C-234.442 114.97 -235.255 114.952 -236.055 114.924C-256.793 92.4559 -266.004 62.1785 -256.515 18.6889L-257.486 18.7777C-266.942 62.1206 -257.898 92.3781 -237.405 114.868C-238.184 114.836 -238.961 114.801 -239.733 114.763C-262.045 93.6015 -272.267 64.0929 -262.725 20.3528L-263.693 20.441C-273.198 64.0072 -263.18 93.5003 -241.162 114.696C-241.889 114.657 -242.601 114.606 -243.321 114.561C-267.255 94.735 -278.535 66.022 -268.934 22.0163L-269.904 22.1051C-279.455 65.8843 -268.44 94.5847 -244.885 114.464C-245.553 114.418 -246.215 114.367 -246.876 114.316C-272.455 95.8519 -284.8 67.9492 -275.141 23.6796L-276.112 23.7686C-285.707 67.7501 -273.687 95.6361 -248.587 114.177C-249.17 114.127 -249.761 114.083 -250.34 114.03C-277.615 96.9601 -291.068 69.8909 -281.35 25.3432L-282.32 25.432C-291.954 69.5883 -278.948 96.648 -252.314 113.828C-252.797 113.779 -253.284 113.732 -253.762 113.68C-282.755 98.0337 -297.338 71.8269 -287.56 27.0073L-288.53 27.0961C-298.195 71.3974 -284.207 97.6047 -256.06 113.411C-256.431 113.366 -256.8 113.32 -257.168 113.273C-287.889 99.0775 -303.603 73.7485 -293.768 28.6708L-294.739 28.7596C-304.423 73.1537 -289.481 98.4842 -259.877 112.911C-260.066 112.884 -260.252 112.854 -260.439 112.827C-292.966 100.12 -309.874 75.7011 -299.976 30.3342L-300.947 30.423C-310.558 74.4808 -295.061 98.8906 -264.58 112.02C-298.341 100.714 -316.055 77.2415 -306.185 31.9979L-307.154 32.0863C-316.564 75.2157 -301.099 98.6825 -270.612 110.703C-304.39 100.516 -322.063 77.9791 -312.395 33.6617L-313.365 33.7504C-322.563 75.9184 -307.193 98.4826 -276.821 109.486C-310.492 100.324 -328.062 78.6825 -318.602 35.3251L-319.573 35.4139C-330.009 83.2487 -307.838 104.84 -267.485 112.407C-265.508 112.931 -263.467 113.407 -261.393 113.857C-259.455 114.433 -257.482 114.983 -255.449 115.488C-253.573 116.112 -251.642 116.696 -249.678 117.255C-247.804 117.951 -245.893 118.62 -243.932 119.252C-242.14 119.993 -240.306 120.703 -238.433 121.385C-236.64 122.213 -234.803 123.008 -232.928 123.777C-231.223 124.648 -229.488 125.498 -227.71 126.319C-226.018 127.283 -224.278 128.214 -222.511 129.128C-220.863 130.169 -219.182 131.19 -217.464 132.184C-215.921 133.267 -214.348 134.33 -212.741 135.371C-211.22 136.56 -209.658 137.722 -208.075 138.87C-206.594 140.158 -205.082 141.425 -203.54 142.674C-202.133 144.037 -200.704 145.386 -199.24 146.715C-197.919 148.144 -196.578 149.561 -195.205 150.959C-193.948 152.485 -192.67 153.998 -191.363 155.495C-190.177 157.114 -188.97 158.722 -187.739 160.315C-186.625 162.035 -185.493 163.745 -184.333 165.442C-183.329 167.203 -182.301 168.953 -181.259 170.695C-180.298 172.624 -179.314 174.541 -178.313 176.451C-177.452 178.444 -176.57 180.429 -175.672 182.406C-154.755 238.864 -121.114 289.99 -87.7322 340.714C-43.8661 407.364 -0.457853 473.323 12.9865 549.772C-27.7007 605.16 -75.6869 666.929 -131.814 735.794L-130.969 735.941C-75.1471 667.451 -27.3898 605.984 13.1587 550.815C13.3167 551.726 13.4655 552.641 13.6135 553.555C-25.4226 607.351 -71.5378 667.297 -125.608 734.131L-124.759 734.277C-70.9976 667.825 -25.1099 608.185 13.7892 554.613C13.9336 555.529 14.0678 556.45 14.2052 557.37C-23.1698 609.566 -67.4034 667.681 -119.399 732.469L-118.547 732.611C-66.8727 668.224 -22.8688 610.427 14.3642 558.466C14.4956 559.382 14.6381 560.294 14.7607 561.213C-20.94 611.802 -63.2863 668.08 -113.192 730.807L-112.34 730.947C-62.7696 668.641 -20.6549 612.691 14.9024 562.35C15.0233 563.277 15.1343 564.207 15.246 565.137C-18.7619 614.096 -59.2091 668.521 -106.984 729.145L-106.129 729.281C-58.6938 669.089 -18.4754 614.996 15.3892 566.295C15.4965 567.23 15.5933 568.169 15.6926 569.107C-16.6077 616.418 -55.1624 668.993 -100.779 727.484L-99.9202 727.617C-54.6621 669.585 -16.3334 617.357 15.8163 570.321C15.9082 571.23 16.0085 572.136 16.092 573.048C-14.5065 618.743 -51.0856 669.419 -94.5705 725.821L-93.7077 725.951C-50.5877 670.022 -14.2585 619.721 16.1935 574.313C16.2738 575.246 16.3485 576.18 16.4195 577.116C-12.4449 621.147 -47.0795 669.927 -88.365 724.159L-87.4988 724.286C-46.5788 670.535 -12.1966 622.139 16.5238 578.403C16.5903 579.342 16.6418 580.286 16.6991 581.228C-10.4194 623.583 -43.0954 670.457 -82.1581 722.499L-81.2895 722.62C-42.6064 671.084 -10.1939 624.62 16.7787 582.576C16.8297 583.51 16.8865 584.442 16.93 585.379C-8.42824 626.05 -39.1333 671.006 -75.9495 720.837L-75.0779 720.955C-38.6559 671.658 -8.2276 627.14 16.9829 586.802C17.0212 587.736 17.0582 588.672 17.0866 589.61C-6.4945 628.579 -35.2056 671.591 -69.7431 719.176L-68.8683 719.288C-34.7295 672.253 -6.29994 629.695 17.1348 591.074C17.1583 592.015 17.1627 592.963 17.1773 593.906C-4.61061 631.157 -31.3073 672.206 -63.5346 717.515L-62.6582 717.622C-30.8446 672.895 -4.44102 632.333 17.1998 595.456C17.2078 596.366 17.2121 597.278 17.2113 598.192C-2.77905 633.741 -27.4084 672.804 -57.3313 715.854L-56.4476 715.956C-26.989 673.572 -2.632 635.031 17.1994 599.916C17.193 600.791 17.1946 601.663 17.1798 602.541C-0.994091 636.373 -23.5422 673.435 -51.1233 714.195L-50.2344 714.287C-23.1406 674.25 -0.879555 637.761 17.1354 604.407C17.115 605.267 17.0873 606.13 17.0588 606.993C0.721285 639.083 -19.7185 674.112 -44.9173 712.534L-44.0256 712.621C-19.3272 674.962 0.816874 640.548 17.0009 608.973C16.9678 609.811 16.9149 610.655 16.8736 611.496C2.38973 641.832 -15.9275 674.819 -38.7133 710.877L-37.8128 710.951C-15.5669 675.748 2.43063 643.464 16.7588 613.716C16.7146 614.498 16.6717 615.279 16.6203 616.064C4.00995 644.63 -12.1697 675.557 -32.5059 709.218L-31.5999 709.283C-11.8522 676.596 3.97507 646.487 16.4323 618.607C16.3782 619.319 16.3316 620.029 16.2729 620.743C5.55746 647.514 -8.46173 676.349 -26.3026 707.561L-25.3871 707.613C-8.19322 677.532 5.43639 649.667 16.004 623.716C15.9471 624.327 15.8883 624.94 15.8272 625.553C7.02657 650.496 -4.79899 677.197 -20.0977 705.905L-19.1749 705.941C-4.61015 678.61 6.78151 653.114 15.4449 629.202C15.4046 629.561 15.3579 629.924 15.3155 630.284C8.44349 653.437 -1.13849 678.014 -13.8934 704.251L-12.9635 704.268C-1.26056 680.194 7.76836 657.52 14.4958 636.055C9.58034 657.112 2.32215 679.231 -7.68998 702.599L-6.74592 702.592C1.83654 682.558 8.39609 663.442 13.2017 645.123C10.1836 663.058 5.38065 681.631 -1.48553 700.949L-0.534339 700.915C7.63033 677.948 12.894 656.031 15.6962 634.994C16.5111 631.463 17.2701 627.957 17.9551 624.485C19.017 620.691 19.98 616.949 20.9018 613.228C22.1593 609.293 23.354 605.393 24.4596 601.547C25.941 597.379 27.3562 593.252 28.6637 589.193C30.2855 584.952 31.797 580.785 33.2528 576.654C34.9854 572.384 36.6415 568.166 38.2147 564.006C40.153 559.482 42.0134 555.015 43.7697 550.623C45.8805 545.9 47.8672 541.269 49.7807 536.692C51.8607 532.188 53.8559 527.748 55.7618 523.376C57.9157 518.857 59.9947 514.396 61.9772 510.01C64.639 504.607 67.1363 499.334 69.5446 494.132C71.903 489.42 74.1736 484.78 76.3451 480.218C78.736 475.545 81.037 470.945 83.2521 466.415C86.0946 460.974 88.8326 455.617 91.4415 450.369C94.1352 445.29 96.7275 440.298 99.208 435.398C101.977 430.254 104.65 425.192 107.2 420.232C110.071 414.972 112.848 409.791 115.493 404.723C118.321 399.592 121.065 394.534 123.687 389.582C126.504 384.529 129.232 379.555 131.851 374.675C134.718 369.596 137.472 364.615 140.138 359.713C248.706 169.547 213.62 105.593 126.329 90.4969C70.1911 80.7886 -7.4811 91.3027 -82.4185 101.447C-120.948 106.663 -158.745 111.775 -192.502 113.984C-197.739 78.8095 -197.137 41.2571 -188.221 0.389253L-189.191 0.478185Z" fill="url(#paint0_linear_1483_7925)"/>
<defs>
<linearGradient id="paint0_linear_1483_7925" x1="660.349" y1="270.327" x2="-77.7371" y2="-265.89" gradientUnits="userSpaceOnUse">
<stop stop-color="#0A767B"/>
<stop offset="1" stop-color="#00A7D6"/>
</linearGradient>
</defs>
</svg>
