<svg width="64" height="64" viewBox="0 0 64 64" fill="none" xmlns="http://www.w3.org/2000/svg">
<path d="M36 24L41.3333 20M36 34.6667L41.3333 38.6667M36 29.3334H42.6667M28 24L22.6667 20M28 34.6667L22.6667 38.6667M28 29.3334H21.3333M32 58.6174L17.5663 49.5963C13.2307 46.8866 10.4512 42.268 10.087 37.1683L8 7.95071L30.2331 5.48037C31.4074 5.34989 32.5926 5.34989 33.7669 5.48037L56 7.95071L53.913 37.1683C53.5488 42.268 50.7693 46.8866 46.4337 49.5963L32 58.6174ZM32 36C29.7909 36 28 34.2092 28 32V26.6667C28 24.4575 29.7909 22.6667 32 22.6667C34.2091 22.6667 36 24.4575 36 26.6667V32C36 34.2092 34.2091 36 32 36Z" stroke="white" stroke-width="2" stroke-linejoin="round"/>
</svg>
