<svg width="33" height="32" viewBox="0 0 33 32" fill="none" xmlns="http://www.w3.org/2000/svg">
<path d="M30.8334 18.6667V13.3334H28.8334V18.6667H30.8334ZM19.1667 1.66669H13.8334V3.66669H19.1667V1.66669ZM2.16675 13.3334V18.6667H4.16675V13.3334H2.16675ZM13.8334 30.3334H19.1667V28.3334H13.8334V30.3334ZM2.16675 18.6667C2.16675 21.1526 2.16462 23.1176 2.37093 24.6521C2.5811 26.2153 3.02392 27.4805 4.02174 28.4784L5.43595 27.0641C4.87167 26.4999 4.53345 25.727 4.35309 24.3856C4.16887 23.0153 4.16675 21.2091 4.16675 18.6667H2.16675ZM13.8334 28.3334C11.291 28.3334 9.48477 28.3312 8.11455 28.147C6.7731 27.9667 6.00023 27.6284 5.43595 27.0641L4.02174 28.4784C5.01956 29.4762 6.28482 29.919 7.84805 30.1292C9.38251 30.3355 11.3475 30.3334 13.8334 30.3334V28.3334ZM13.8334 1.66669C11.3475 1.66669 9.38251 1.66456 7.84805 1.87087C6.28482 2.08104 5.01956 2.52386 4.02174 3.52168L5.43595 4.93589C6.00023 4.37161 6.7731 4.03339 8.11455 3.85303C9.48477 3.66881 11.291 3.66669 13.8334 3.66669V1.66669ZM4.16675 13.3334C4.16675 10.7909 4.16887 8.9847 4.35309 7.61449C4.53345 6.27303 4.87167 5.50017 5.43595 4.93589L4.02174 3.52168C3.02392 4.51949 2.5811 5.78476 2.37093 7.34799C2.16462 8.88245 2.16675 10.8475 2.16675 13.3334H4.16675ZM30.8334 13.3334C30.8334 10.8475 30.8355 8.88245 30.6292 7.34799C30.4191 5.78476 29.9762 4.51949 28.9784 3.52168L27.5642 4.93589C28.1285 5.50017 28.4667 6.27303 28.6471 7.61448C28.8313 8.9847 28.8334 10.7909 28.8334 13.3334H30.8334ZM19.1667 3.66669C21.7092 3.66669 23.5154 3.66881 24.8856 3.85303C26.2271 4.03339 26.9999 4.37161 27.5642 4.93589L28.9784 3.52168C27.9806 2.52386 26.7153 2.08104 25.1521 1.87087C23.6176 1.66456 21.6526 1.66669 19.1667 1.66669V3.66669ZM28.8334 18.6667C28.8334 21.2091 28.8313 23.0153 28.6471 24.3856C28.4667 25.727 28.1285 26.4999 27.5642 27.0641L28.9784 28.4784C29.9762 27.4805 30.4191 26.2153 30.6292 24.6521C30.8355 23.1176 30.8334 21.1526 30.8334 18.6667H28.8334ZM19.1667 30.3334C21.6526 30.3334 23.6176 30.3355 25.1521 30.1292C26.7153 29.919 27.9806 29.4762 28.9784 28.4784L27.5642 27.0641C26.9999 27.6284 26.2271 27.9667 24.8856 28.147C23.5154 28.3312 21.7092 28.3334 19.1667 28.3334V30.3334ZM18.1667 14C18.1667 14.9205 17.4206 15.6667 16.5001 15.6667V17.6667C18.5251 17.6667 20.1667 16.0251 20.1667 14H18.1667ZM16.5001 15.6667C15.5796 15.6667 14.8334 14.9205 14.8334 14H12.8334C12.8334 16.0251 14.475 17.6667 16.5001 17.6667V15.6667ZM14.8334 14C14.8334 13.0795 15.5796 12.3334 16.5001 12.3334V10.3334C14.475 10.3334 12.8334 11.975 12.8334 14H14.8334ZM16.5001 12.3334C17.4206 12.3334 18.1667 13.0795 18.1667 14H20.1667C20.1667 11.975 18.5251 10.3334 16.5001 10.3334V12.3334ZM15.5001 16.6667V22H17.5001V16.6667H15.5001ZM6.83341 6.00002V8.66669H8.83342V6.00002H6.83341ZM24.1667 6.00002V8.66669H26.1667V6.00002H24.1667ZM6.83341 23.3334V26H8.83342V23.3334H6.83341ZM24.1667 23.3334V26H26.1667V23.3334H24.1667Z" fill="white"/>
</svg>
