<svg width="29" height="30" viewBox="0 0 29 30" fill="none" xmlns="http://www.w3.org/2000/svg">
<path d="M28.8334 17.6667V12.3334H26.8334V17.6667H28.8334ZM17.1667 0.666687H11.8334V2.66669H17.1667V0.666687ZM0.166748 12.3334V17.6667H2.16675V12.3334H0.166748ZM11.8334 29.3334H17.1667V27.3334H11.8334V29.3334ZM0.166748 17.6667C0.166748 20.1526 0.164624 22.1176 0.370928 23.6521C0.581098 25.2153 1.02392 26.4805 2.02174 27.4784L3.43595 26.0641C2.87167 25.4999 2.53345 24.727 2.35309 23.3856C2.16887 22.0153 2.16675 20.2091 2.16675 17.6667H0.166748ZM11.8334 27.3334C9.29099 27.3334 7.48477 27.3312 6.11455 27.147C4.7731 26.9667 4.00023 26.6284 3.43595 26.0641L2.02174 27.4784C3.01956 28.4762 4.28482 28.919 5.84805 29.1292C7.38251 29.3355 9.34753 29.3334 11.8334 29.3334V27.3334ZM11.8334 0.666687C9.34753 0.666687 7.38251 0.664563 5.84805 0.870866C4.28482 1.08104 3.01956 1.52386 2.02174 2.52168L3.43595 3.93589C4.00023 3.37161 4.7731 3.03339 6.11455 2.85303C7.48477 2.66881 9.29099 2.66669 11.8334 2.66669V0.666687ZM2.16675 12.3334C2.16675 9.79093 2.16887 7.9847 2.35309 6.61449C2.53345 5.27303 2.87167 4.50017 3.43595 3.93589L2.02174 2.52168C1.02392 3.51949 0.581098 4.78476 0.370928 6.34799C0.164624 7.88245 0.166748 9.84747 0.166748 12.3334H2.16675ZM28.8334 12.3334C28.8334 9.84747 28.8355 7.88245 28.6292 6.34799C28.4191 4.78476 27.9762 3.51949 26.9784 2.52168L25.5642 3.93589C26.1285 4.50017 26.4667 5.27303 26.6471 6.61448C26.8313 7.9847 26.8334 9.79093 26.8334 12.3334H28.8334ZM17.1667 2.66669C19.7092 2.66669 21.5154 2.66881 22.8856 2.85303C24.2271 3.03339 24.9999 3.37161 25.5642 3.93589L26.9784 2.52168C25.9806 1.52386 24.7153 1.08104 23.1521 0.870866C21.6176 0.664563 19.6526 0.666687 17.1667 0.666687V2.66669ZM26.8334 17.6667C26.8334 20.2091 26.8313 22.0153 26.6471 23.3856C26.4667 24.727 26.1285 25.4999 25.5642 26.0641L26.9784 27.4784C27.9762 26.4805 28.4191 25.2153 28.6292 23.6521C28.8355 22.1176 28.8334 20.1526 28.8334 17.6667H26.8334ZM17.1667 29.3334C19.6526 29.3334 21.6176 29.3355 23.1521 29.1292C24.7153 28.919 25.9806 28.4762 26.9784 27.4784L25.5642 26.0641C24.9999 26.6284 24.2271 26.9667 22.8856 27.147C21.5154 27.3312 19.7092 27.3334 17.1667 27.3334V29.3334ZM16.1667 13C16.1667 13.9205 15.4206 14.6667 14.5001 14.6667V16.6667C16.5251 16.6667 18.1667 15.0251 18.1667 13H16.1667ZM14.5001 14.6667C13.5796 14.6667 12.8334 13.9205 12.8334 13H10.8334C10.8334 15.0251 12.475 16.6667 14.5001 16.6667V14.6667ZM12.8334 13C12.8334 12.0795 13.5796 11.3334 14.5001 11.3334V9.33335C12.475 9.33335 10.8334 10.975 10.8334 13H12.8334ZM14.5001 11.3334C15.4206 11.3334 16.1667 12.0795 16.1667 13H18.1667C18.1667 10.975 16.5251 9.33335 14.5001 9.33335V11.3334ZM13.5001 15.6667V21H15.5001V15.6667H13.5001ZM4.83341 5.00002V7.66669H6.83342V5.00002H4.83341ZM22.1667 5.00002V7.66669H24.1667V5.00002H22.1667ZM4.83341 22.3334V25H6.83342V22.3334H4.83341ZM22.1667 22.3334V25H24.1667V22.3334H22.1667Z" fill="white"/>
</svg>
