<svg width="29" height="30" viewBox="0 0 29 30" fill="none" xmlns="http://www.w3.org/2000/svg">
<path d="M23.9823 28.2652L24.2411 27.2993L23.9823 28.2652ZM22.568 26.851L23.534 26.5922L22.568 26.851ZM27.7651 26.851L26.7992 26.5922L27.7651 26.851ZM26.3509 28.2652L26.0921 27.2993L26.3509 28.2652ZM26.3509 19.0682L26.0921 20.0341L26.3509 19.0682ZM27.7651 20.4824L26.7992 20.7412L27.7651 20.4824ZM23.9823 19.0682L24.2411 20.0341L23.9823 19.0682ZM22.568 20.4824L23.534 20.7412L22.568 20.4824ZM14.8372 8.52837L14.0846 9.18687L14.0846 9.18687L14.8372 8.52837ZM14.4959 8.13834L15.2485 7.47983V7.47983L14.4959 8.13834ZM4.58197 2.66669H21.1666V0.666687H4.58197V2.66669ZM21.1666 14H10.7461V16H21.1666V14ZM3.95511 8.69777L2.96507 4.73758L1.02478 5.22265L2.01483 9.18284L3.95511 8.69777ZM10.7461 14C9.22186 14 8.16696 13.9984 7.35443 13.9012C6.56861 13.8072 6.12232 13.6344 5.77677 13.3646L4.54594 14.941C5.28544 15.5184 6.13162 15.7692 7.11696 15.887C8.0756 16.0017 9.27056 16 10.7461 16V14ZM2.01483 9.18284C2.3727 10.6143 2.66091 11.774 3.00462 12.6762C3.35791 13.6036 3.80645 14.3637 4.54594 14.941L5.77677 13.3646C5.43122 13.0948 5.15534 12.7038 4.87359 11.9642C4.58226 11.1995 4.3248 10.1765 3.95511 8.69777L2.01483 9.18284ZM26.8332 8.33335C26.8332 9.93297 26.8311 11.0321 26.7201 11.8577C26.613 12.6545 26.4212 13.0452 26.1498 13.3166L27.564 14.7308C28.269 14.0259 28.5653 13.1428 28.7023 12.1242C28.8354 11.1343 28.8332 9.87643 28.8332 8.33335H26.8332ZM21.1666 16C22.7096 16 23.9676 16.0021 24.9574 15.8691C25.976 15.7321 26.8591 15.4357 27.564 14.7308L26.1498 13.3166C25.8784 13.588 25.4877 13.7798 24.6909 13.8869C23.8653 13.9979 22.7662 14 21.1666 14V16ZM21.1666 2.66669C22.7662 2.66669 23.8653 2.66881 24.6909 2.77981C25.4877 2.88694 25.8784 3.07872 26.1498 3.3501L27.564 1.93589C26.8591 1.23097 25.976 0.93459 24.9574 0.797643C23.9676 0.664563 22.7096 0.666687 21.1666 0.666687V2.66669ZM28.8332 8.33335C28.8332 6.79028 28.8354 5.53237 28.7023 4.54253C28.5653 3.52393 28.269 2.64082 27.564 1.93589L26.1498 3.3501C26.4212 3.62149 26.613 4.0122 26.7201 4.80903C26.8311 5.63462 26.8332 6.73374 26.8332 8.33335H28.8332ZM4.58197 0.666687C3.8274 0.666687 3.15157 0.664197 2.62005 0.741087C2.06257 0.821732 1.46408 1.01466 1.03512 1.56406L2.61153 2.79488C2.6118 2.79454 2.60995 2.79669 2.60757 2.79855C2.60561 2.80008 2.60966 2.79639 2.62498 2.78924C2.6602 2.77281 2.74112 2.74439 2.90639 2.72048C3.26105 2.66918 3.76436 2.66669 4.58197 2.66669V0.666687ZM2.96507 4.73758C2.76677 3.94438 2.64711 3.4555 2.61087 3.09898C2.59398 2.93285 2.60192 2.84745 2.60932 2.80929C2.61254 2.7927 2.61514 2.78788 2.61413 2.79015C2.61291 2.79291 2.61126 2.79523 2.61153 2.79488L1.03512 1.56406C0.606167 2.11345 0.564153 2.74087 0.621123 3.30126C0.675441 3.83556 0.84177 4.49061 1.02478 5.22265L2.96507 4.73758ZM26.8332 21.6667V25.6667H28.8332V21.6667H26.8332ZM23.4999 25.6667V21.6667H21.4999V25.6667H23.4999ZM25.1666 27.3334C24.4822 27.3334 24.3362 27.3248 24.2411 27.2993L23.7234 29.2311C24.137 29.3419 24.611 29.3334 25.1666 29.3334V27.3334ZM21.4999 25.6667C21.4999 26.2223 21.4913 26.6963 21.6021 27.1098L23.534 26.5922C23.5085 26.4971 23.4999 26.3511 23.4999 25.6667H21.4999ZM24.2411 27.2993C23.896 27.2068 23.6264 26.9373 23.534 26.5922L21.6021 27.1098C21.8795 28.1451 22.6882 28.9537 23.7234 29.2311L24.2411 27.2993ZM26.8332 25.6667C26.8332 26.351 26.8246 26.4971 26.7992 26.5922L28.731 27.1098C28.8418 26.6963 28.8332 26.2223 28.8332 25.6667H26.8332ZM25.1666 29.3334C25.7222 29.3334 26.1961 29.3419 26.6097 29.2311L26.0921 27.2993C25.9969 27.3248 25.8509 27.3334 25.1666 27.3334V29.3334ZM26.7992 26.5922C26.7067 26.9373 26.4371 27.2068 26.0921 27.2993L26.6097 29.2311C27.645 28.9537 28.4536 28.1451 28.731 27.1098L26.7992 26.5922ZM25.1666 20C25.8509 20 25.9969 20.0086 26.0921 20.0341L26.6097 18.1022C26.1961 17.9914 25.7222 18 25.1666 18V20ZM28.8332 21.6667C28.8332 21.1111 28.8418 20.6371 28.731 20.2236L26.7992 20.7412C26.8246 20.8363 26.8332 20.9823 26.8332 21.6667H28.8332ZM26.0921 20.0341C26.4371 20.1266 26.7067 20.3961 26.7992 20.7412L28.731 20.2236C28.4536 19.1883 27.645 18.3796 26.6097 18.1022L26.0921 20.0341ZM25.1666 18C24.611 18 24.137 17.9914 23.7234 18.1022L24.2411 20.0341C24.3362 20.0086 24.4822 20 25.1666 20V18ZM23.4999 21.6667C23.4999 20.9823 23.5085 20.8363 23.534 20.7412L21.6021 20.2236C21.4913 20.6371 21.4999 21.1111 21.4999 21.6667H23.4999ZM23.7234 18.1022C22.6882 18.3796 21.8795 19.1883 21.6021 20.2236L23.534 20.7412C23.6264 20.3961 23.896 20.1266 24.2411 20.0341L23.7234 18.1022ZM22.4999 22.6667H18.4999V24.6667H22.4999V22.6667ZM16.1666 20.3334V15H14.1666V20.3334H16.1666ZM18.4999 22.6667C17.2112 22.6667 16.1666 21.622 16.1666 20.3334H14.1666C14.1666 22.7266 16.1067 24.6667 18.4999 24.6667V22.6667ZM15.5898 7.86986L15.2485 7.47983L13.7433 8.79684L14.0846 9.18687L15.5898 7.86986ZM11.9873 6.00002H2.4999V8.00002H11.9873V6.00002ZM15.2485 7.47983C14.4257 6.53943 13.2369 6.00002 11.9873 6.00002V8.00002C12.6602 8.00002 13.3003 8.29047 13.7433 8.79684L15.2485 7.47983ZM14.0846 9.18687C14.9075 10.1273 16.0962 10.6667 17.3458 10.6667V8.66669C16.6729 8.66669 16.0329 8.37623 15.5898 7.86986L14.0846 9.18687ZM27.8332 8.66669H17.3458V10.6667H27.8332V8.66669Z" fill="white"/>
</svg>
