<svg width="29" height="28" viewBox="0 0 29 28" fill="none" xmlns="http://www.w3.org/2000/svg">
<path d="M27.0524 26.219L26.3453 25.5119L27.0524 26.219ZM27.0524 2.44774L26.3453 3.15484L26.3453 3.15484L27.0524 2.44774ZM3.83341 13.3334C4.75389 13.3334 5.50008 14.0795 5.50008 15H7.50008C7.50008 12.975 5.85846 11.3334 3.83341 11.3334V13.3334ZM5.50008 15C5.50008 15.9205 4.75389 16.6667 3.83341 16.6667V18.6667C5.85846 18.6667 7.50008 17.0251 7.50008 15H5.50008ZM3.83341 16.6667C2.91294 16.6667 2.16675 15.9205 2.16675 15H0.166748C0.166748 17.0251 1.80837 18.6667 3.83341 18.6667V16.6667ZM2.16675 15C2.16675 14.0795 2.91294 13.3334 3.83341 13.3334V11.3334C1.80837 11.3334 0.166748 12.975 0.166748 15H2.16675ZM6.50008 16H11.8334V14H6.50008V16ZM11.8334 16H15.8334V14H11.8334V16ZM10.8334 15V19H12.8334V15H10.8334ZM15.8334 2.66669H22.5001V0.666687H15.8334V2.66669ZM26.8334 7.00002V21.6667H28.8334V7.00002H26.8334ZM22.5001 26H15.8334V28H22.5001V26ZM11.5001 9.66669V7.00002H9.50008V9.66669H11.5001ZM15.8334 26C14.5481 26 13.6847 25.9979 13.0406 25.9113C12.4253 25.8286 12.162 25.6856 11.9882 25.5119L10.574 26.9261C11.1813 27.5334 11.937 27.7809 12.7741 27.8935C13.5824 28.0021 14.6046 28 15.8334 28V26ZM9.50008 21.6667C9.50008 22.8955 9.49796 23.9177 9.60663 24.726C9.71917 25.5631 9.96673 26.3188 10.574 26.9261L11.9882 25.5119C11.8145 25.3381 11.6715 25.0748 11.5888 24.4595C11.5022 23.8154 11.5001 22.952 11.5001 21.6667H9.50008ZM26.8334 21.6667C26.8334 22.952 26.8313 23.8154 26.7447 24.4595C26.662 25.0748 26.519 25.3381 26.3453 25.5119L27.7595 26.9261C28.3668 26.3188 28.6143 25.5631 28.7269 24.726C28.8355 23.9177 28.8334 22.8955 28.8334 21.6667H26.8334ZM22.5001 28C23.7289 28 24.7511 28.0021 25.5594 27.8935C26.3964 27.7809 27.1522 27.5334 27.7595 26.9261L26.3453 25.5119C26.1715 25.6856 25.9082 25.8286 25.2929 25.9113C24.6488 25.9979 23.7854 26 22.5001 26V28ZM22.5001 2.66669C23.7854 2.66669 24.6488 2.66881 25.2929 2.7554C25.9082 2.83812 26.1715 2.98109 26.3453 3.15484L27.7595 1.74063C27.1522 1.13334 26.3964 0.885775 25.5594 0.773235C24.7511 0.664563 23.7289 0.666687 22.5001 0.666687V2.66669ZM28.8334 7.00002C28.8334 5.77121 28.8355 4.74901 28.7269 3.94071C28.6143 3.10366 28.3668 2.34792 27.7595 1.74063L26.3453 3.15484C26.519 3.3286 26.662 3.59193 26.7447 4.20721C26.8313 4.85126 26.8334 5.71467 26.8334 7.00002H28.8334ZM15.8334 0.666687C14.6046 0.666687 13.5824 0.664563 12.7741 0.773235C11.937 0.885775 11.1813 1.13334 10.574 1.74063L11.9882 3.15484C12.162 2.98109 12.4253 2.83812 13.0406 2.7554C13.6847 2.66881 14.5481 2.66669 15.8334 2.66669V0.666687ZM11.5001 7.00002C11.5001 5.71467 11.5022 4.85126 11.5888 4.20721C11.6715 3.59193 11.8145 3.3286 11.9882 3.15484L10.574 1.74063C9.96673 2.34792 9.71917 3.10366 9.60663 3.94071C9.49796 4.74901 9.50008 5.77121 9.50008 7.00002H11.5001Z" fill="white"/>
</svg>
