<svg width="29" height="30" viewBox="0 0 29 30" fill="none" xmlns="http://www.w3.org/2000/svg">
<path d="M27.8332 15V12.3334C27.8332 7.30504 27.8332 4.79088 26.2711 3.22878C24.709 1.66669 22.1948 1.66669 17.1665 1.66669H11.8332C6.80486 1.66669 4.2907 1.66669 2.7286 3.22878C1.1665 4.79088 1.1665 7.30504 1.1665 12.3334V17.6667C1.1665 22.695 1.1665 25.2092 2.7286 26.7713C4.2907 28.3334 6.80486 28.3334 11.8332 28.3334H17.1665M5.1665 5.66669H7.83317M9.1665 5.66669H11.8332M13.1665 5.66669H15.8332M26.4998 23H22.4998M26.4998 23C27.2362 23 27.8332 23.597 27.8332 24.3334V27C27.8332 27.7364 27.2362 28.3334 26.4998 28.3334H22.4998C21.7635 28.3334 21.1665 27.7364 21.1665 27V24.3334C21.1665 23.597 21.7635 23 22.4998 23M26.4998 23V21C26.4998 19.8955 25.6044 19 24.4998 19C23.3953 19 22.4998 19.8955 22.4998 21V23" stroke="white" stroke-width="2" stroke-linejoin="round"/>
</svg>
