<svg width="33" height="32" viewBox="0 0 33 32" fill="none" xmlns="http://www.w3.org/2000/svg">
<path d="M27.8633 22.1657L26.9366 22.5414V22.5414L27.8633 22.1657ZM29.4261 26.0199L30.3942 25.7697C30.3832 25.727 30.3694 25.6851 30.3528 25.6442L29.4261 26.0199ZM3.57411 26.0199L2.64739 25.6442C2.63081 25.6851 2.61695 25.727 2.60591 25.7697L3.57411 26.0199ZM5.13683 22.1657L6.06355 22.5414L5.13683 22.1657ZM6.04543 20.4813L5.34928 21.1992L6.04543 20.4813ZM26.9547 20.4813L26.2586 19.7634L26.9547 20.4813ZM6.04543 6.18541L5.34928 5.46751L6.04543 6.18541ZM13.8334 26.3334H19.1667V24.3334H13.8334V26.3334ZM6.37246 22.3334H11.1667V20.3334H6.37246V22.3334ZM11.1667 22.3334H21.8334V20.3334H11.1667V22.3334ZM21.8334 22.3334H26.6277V20.3334H21.8334V22.3334ZM26.9366 22.5414L28.4993 26.3957L30.3528 25.6442L28.7901 21.7899L26.9366 22.5414ZM26.7519 28.3334H6.24825V30.3334H26.7519V28.3334ZM4.50083 26.3957L6.06355 22.5414L4.21011 21.7899L2.64739 25.6442L4.50083 26.3957ZM6.24825 28.3334C5.40518 28.3334 4.87924 28.331 4.50687 28.2789C4.33212 28.2545 4.24241 28.2248 4.19973 28.2056C4.19001 28.2012 4.18358 28.1977 4.17974 28.1954C4.17595 28.1932 4.17424 28.1919 4.17398 28.1918C4.17376 28.1916 4.17418 28.1919 4.17484 28.1925C4.1755 28.1932 4.17556 28.1933 4.17492 28.1925L2.61856 29.4486C3.05764 29.9927 3.66485 30.1806 4.22967 30.2596C4.77332 30.3357 5.46622 30.3334 6.24825 30.3334V28.3334ZM2.60591 25.7697C2.417 26.5008 2.24434 27.1583 2.1879 27.6954C2.12834 28.2622 2.17333 28.897 2.61856 29.4486L4.17492 28.1925C4.17437 28.1919 4.17644 28.1946 4.17828 28.1986C4.17993 28.2022 4.17784 28.1991 4.17493 28.1846C4.1681 28.1505 4.15969 28.0686 4.17695 27.9044C4.21412 27.5507 4.33707 27.0643 4.5423 26.2701L2.60591 25.7697ZM28.4579 26.2701C28.6631 27.0643 28.786 27.5507 28.8232 27.9044C28.8405 28.0686 28.8321 28.1505 28.8252 28.1846C28.8223 28.1991 28.8202 28.2022 28.8219 28.1986C28.8237 28.1946 28.8258 28.1919 28.8252 28.1925L30.3816 29.4486C30.8268 28.897 30.8718 28.2622 30.8123 27.6954C30.7558 27.1583 30.5832 26.5008 30.3942 25.7697L28.4579 26.2701ZM26.7519 30.3334C27.5339 30.3334 28.2268 30.3357 28.7705 30.2596C29.3353 30.1806 29.9425 29.9927 30.3816 29.4486L28.8252 28.1925C28.8246 28.1933 28.8247 28.1932 28.8253 28.1925C28.826 28.1919 28.8264 28.1916 28.8262 28.1918C28.8259 28.1919 28.8242 28.1932 28.8204 28.1954C28.8166 28.1977 28.8102 28.2012 28.8004 28.2056C28.7578 28.2248 28.668 28.2545 28.4933 28.2789C28.1209 28.331 27.595 28.3334 26.7519 28.3334V30.3334ZM26.6277 22.3334C26.7634 22.3334 26.8856 22.4157 26.9366 22.5414L28.7901 21.7899C28.4331 20.9094 27.5778 20.3334 26.6277 20.3334V22.3334ZM6.37246 20.3334C5.42234 20.3334 4.56711 20.9095 4.21011 21.7899L6.06355 22.5414C6.11455 22.4157 6.23673 22.3334 6.37246 22.3334V20.3334ZM11.1667 6.33335H17.0001V4.33335H11.1667V6.33335ZM6.16675 15.5152V11.1515H4.16675V15.5152H6.16675ZM11.1667 20.3334C9.7251 20.3334 8.74145 20.3314 8.00421 20.2352C7.29266 20.1425 6.96308 19.9782 6.74157 19.7634L5.34928 21.1992C6.00645 21.8365 6.82332 22.0982 7.74565 22.2185C8.6423 22.3354 9.77997 22.3334 11.1667 22.3334V20.3334ZM4.16675 15.5152C4.16675 16.8574 4.16449 17.9678 4.28606 18.8446C4.41206 19.7534 4.68781 20.5578 5.34928 21.1992L6.74157 19.7634C6.52437 19.5528 6.36077 19.2455 6.26711 18.5699C6.169 17.8623 6.16675 16.9157 6.16675 15.5152H4.16675ZM26.8334 15.5152C26.8334 16.9157 26.8312 17.8623 26.7331 18.5699C26.6394 19.2455 26.4758 19.5528 26.2586 19.7634L27.6509 21.1992C28.3124 20.5578 28.5881 19.7534 28.7141 18.8446C28.8357 17.9678 28.8334 16.8574 28.8334 15.5152H26.8334ZM21.8334 22.3334C23.2202 22.3334 24.3579 22.3354 25.2545 22.2185C26.1768 22.0982 26.9937 21.8365 27.6509 21.1992L26.2586 19.7634C26.0371 19.9782 25.7075 20.1425 24.996 20.2352C24.2587 20.3314 23.2751 20.3334 21.8334 20.3334V22.3334ZM11.1667 4.33335C9.77997 4.33335 8.6423 4.33135 7.74565 4.44825C6.82332 4.5685 6.00645 4.83025 5.34928 5.46751L6.74157 6.90331C6.96308 6.68851 7.29266 6.52424 8.00421 6.43147C8.74145 6.33535 9.7251 6.33335 11.1667 6.33335V4.33335ZM6.16675 11.1515C6.16675 9.75105 6.169 8.80438 6.26711 8.09681C6.36077 7.42123 6.52437 7.11393 6.74157 6.90331L5.34928 5.46751C4.68781 6.10894 4.41206 6.91334 4.28606 7.82214C4.16449 8.69894 4.16675 9.80931 4.16675 11.1515H6.16675ZM26.1667 6.00002V8.66669H28.1667V6.00002H26.1667ZM24.1667 8.66669V6.00002H22.1667V8.66669H24.1667ZM25.1667 9.66669C24.6145 9.66669 24.1667 9.21897 24.1667 8.66669H22.1667C22.1667 10.3235 23.5099 11.6667 25.1667 11.6667V9.66669ZM26.1667 8.66669C26.1667 9.21897 25.719 9.66669 25.1667 9.66669V11.6667C26.8236 11.6667 28.1667 10.3235 28.1667 8.66669H26.1667ZM25.1667 5.00002C25.719 5.00002 26.1667 5.44774 26.1667 6.00002H28.1667C28.1667 4.34317 26.8236 3.00002 25.1667 3.00002V5.00002ZM25.1667 3.00002C23.5099 3.00002 22.1667 4.34317 22.1667 6.00002H24.1667C24.1667 5.44774 24.6145 5.00002 25.1667 5.00002V3.00002ZM27.7667 5.46669L30.4334 3.46669L29.2334 1.86669L26.5667 3.86669L27.7667 5.46669ZM26.5667 10.8L29.2334 12.8L30.4334 11.2L27.7667 9.20002L26.5667 10.8ZM27.1667 8.33335H30.5001V6.33335H27.1667V8.33335ZM23.7667 3.86669L21.1001 1.86669L19.9001 3.46669L22.5667 5.46669L23.7667 3.86669ZM22.5667 9.20002L19.9001 11.2L21.1001 12.8L23.7667 10.8L22.5667 9.20002ZM23.1667 6.33335H19.8334V8.33335H23.1667V6.33335Z" fill="white"/>
</svg>
